# Blender 3.5.1
# www.blender.org
mtllib S.mtl
o Cube
v -0.219329 2.806442 0.050000
v 0.078385 2.924852 0.050000
v -0.219329 2.806442 -0.050000
v 0.078385 2.924852 -0.050000
v -0.219329 2.727849 0.050000
v 0.178385 2.924852 0.050000
v -0.219329 2.727849 -0.050000
v 0.178385 2.924852 -0.050000
v -0.186923 3.327152 0.050000
v -0.186923 3.327152 -0.050000
v -0.090415 3.327039 0.050000
v -0.090415 3.327039 -0.050000
v 0.158652 3.579256 0.050000
v 0.158652 3.579256 -0.050000
v 0.158652 3.495004 0.050000
v 0.158652 3.495004 -0.050000
v -0.023126 2.837334 0.050000
v 0.047584 2.782119 0.050000
v 0.047584 2.782119 -0.050000
v -0.023126 2.837334 -0.050000
v -0.014414 3.136248 -0.050000
v 0.085586 3.136248 0.050000
v 0.085586 3.136248 -0.050000
v -0.014414 3.136248 0.050000
v -0.026770 3.464637 0.050000
v -0.026770 3.464637 -0.050000
v -0.097480 3.535348 -0.050000
v -0.097480 3.535348 0.050000
v 0.025000 2.778866 0.025000
v 0.025000 2.778866 -0.025000
v -0.025000 2.766996 0.025000
v -0.025000 2.766996 -0.025000
v -0.025000 2.600000 0.025000
v 0.025000 2.600000 0.025000
v -0.025000 2.600000 -0.025000
v 0.025000 2.600000 -0.025000
vn -0.6530 0.7574 -0.0000
vn -0.0000 -0.0000 -1.0000
vn 0.7373 -0.6756 -0.0000
vn -0.0000 -0.0000 1.0000
vn -1.0000 -0.0000 -0.0000
vn 0.7350 0.6780 -0.0000
vn -0.7419 -0.6705 -0.0000
vn 1.0000 -0.0000 -0.0000
vn 0.1616 -0.9869 -0.0000
vn -0.1690 0.9856 -0.0000
vn 0.1992 -0.9799 -0.0000
vn -0.9157 -0.4020 -0.0000
vn 0.9157 0.4020 -0.0000
vn -0.9188 0.3947 -0.0000
vn 0.9076 -0.4198 -0.0000
vn -0.1555 0.9878 -0.0000
vn -0.0000 -1.0000 -0.0000
vt 0.752276 0.480058
vt 0.993702 0.785093
vt 0.667602 0.222534
vt 0.909028 0.006298
vt 0.824354 0.480058
vt 0.921624 0.785093
vt 0.078376 0.222534
vt 0.836950 0.006298
vt 0.752276 0.534510
vt 0.752276 0.893997
vt 0.739680 0.222534
vt 0.836950 0.480058
vt 0.824354 0.534510
vt 0.824354 0.893997
vt 0.006298 0.222534
vt 0.909028 0.480058
vt 0.909028 0.421141
vt 0.824354 0.033849
vt 0.398818 0.530380
vt 0.836950 0.421141
vt 0.752276 0.033849
vt 0.347160 0.530380
vt 0.836950 0.892649
vt 0.921624 0.033849
vt 0.470896 0.530380
vt 0.909028 0.892649
vt 0.993702 0.033849
vt 0.275082 0.530380
vt 0.667602 0.799164
vt 0.824354 0.413011
vt 0.078376 0.799164
vt 0.752276 0.413011
vt 0.739680 0.799164
vt 0.824354 0.467463
vt 0.921624 0.413011
vt 0.752276 0.467463
vt 0.006298 0.799164
vt 0.993702 0.413011
vt 0.523445 0.114416
vt 0.993702 0.605350
vt 0.752276 0.714254
vt 0.595523 0.114416
vt 0.824354 0.714254
vt 0.150456 0.114416
vt 0.921624 0.605350
vt 0.222533 0.114416
vt 0.248661 0.392819
vt 0.836950 0.247117
vt 0.569395 0.392819
vt 0.836950 0.720877
vt 0.176583 0.392819
vt 0.909028 0.720877
vt 0.497317 0.392819
vt 0.909028 0.247117
vt 0.921624 0.209655
vt 0.595523 0.655007
vt 0.993702 0.209655
vt 0.150456 0.655007
vt 0.752276 0.209655
vt 0.222534 0.655007
vt 0.824354 0.209655
vt 0.523445 0.655007
vt 0.752276 0.687990
vt 0.000000 0.000000
vt 0.000000 0.000000
vt 0.824354 0.687990
vt 0.752276 0.645659
vt 0.000000 0.000000
vt 0.000000 0.000000
vt 0.824354 0.645659
vt 0.752276 0.645659
vt 0.000000 0.000000
vt 0.752276 0.687990
vt 0.000000 0.000000
vt 0.000000 0.000000
vt 0.824354 0.645659
vt 0.000000 0.000000
vt 0.824354 0.687990
s 0
usemtl Material.002
f 17/40/1 2/2/1 4/6/1 20/45/1
f 20/46/2 4/7/2 8/15/2 19/44/2
f 19/43/3 8/14/3 6/10/3 18/41/3
f 18/42/4 6/11/4 2/3/4 17/39/4
f 3/5/5 7/13/5 5/9/5 1/1/5
f 22/50/6 23/52/6 12/26/6 11/23/6
f 28/62/4 25/56/4 15/33/4 13/29/4
f 21/48/7 24/54/7 9/17/7 10/20/7
f 24/53/4 22/49/4 11/25/4 9/19/4
f 23/51/2 21/47/2 10/22/2 12/28/2
f 16/36/8 14/32/8 13/30/8 15/34/8
f 26/58/2 27/60/2 14/31/2 16/37/2
f 25/55/9 26/57/9 16/38/9 15/35/9
f 27/59/10 28/61/10 13/30/10 14/32/10
f 5/9/11 7/13/11 19/43/11 18/42/11
f 1/1/4 5/9/4 18/42/4 17/40/4
f 8/15/2 4/7/2 21/47/2 23/51/2
f 2/3/4 6/11/4 22/49/4 24/53/4
f 4/8/12 2/4/12 24/54/12 21/48/12
f 6/12/13 8/16/13 23/52/13 22/50/13
f 10/21/14 9/18/14 28/61/14 27/59/14
f 11/24/15 12/27/15 26/57/15 25/55/15
f 12/28/2 10/22/2 27/60/2 26/58/2
f 9/19/4 11/25/4 25/56/4 28/62/4
f 3/5/16 1/1/16 17/40/16 20/46/16
f 32/69/2 30/65/2 36/77/2 35/75/2
f 7/13/2 3/5/2 20/46/2 19/44/2
f 35/76/17 36/78/17 34/73/17 33/71/17
f 31/67/5 32/70/5 35/76/5 33/71/5
f 30/66/8 29/63/8 34/73/8 36/78/8
f 29/64/4 31/68/4 33/72/4 34/74/4
