# Blender 3.5.1
# www.blender.org
mtllib S.mtl
o Cube
v -0.050000 2.600000 0.050000
v 0.350000 2.900000 0.050000
v -0.050000 2.600000 -0.050000
v 0.350000 2.900000 -0.050000
v 0.050000 2.600000 0.050000
v 0.450000 2.900000 0.050000
v 0.050000 2.600000 -0.050000
v 0.450000 2.900000 -0.050000
v -0.050000 3.300000 0.050000
v -0.050000 3.300000 -0.050000
v 0.050000 3.300000 0.050000
v 0.050000 3.300000 -0.050000
v 0.350000 3.700000 0.050000
v 0.350000 3.700000 -0.050000
v 0.450000 3.700000 0.050000
v 0.450000 3.700000 -0.050000
vn -0.6000 0.8000 -0.0000
vn -0.0000 -0.0000 -1.0000
vn 0.6000 -0.8000 -0.0000
vn -0.0000 -0.0000 1.0000
vn -0.0000 -1.0000 -0.0000
vn 0.7071 0.7071 -0.0000
vn -0.7071 -0.7071 -0.0000
vn -0.0000 1.0000 -0.0000
vn 0.7071 -0.7071 -0.0000
vn -0.7071 0.7071 -0.0000
vt 0.993702 0.425606
vt 0.379287 0.006298
vt 0.752276 0.480058
vt 0.993702 0.785093
vt 0.909028 0.006298
vt 0.667602 0.222534
vt 0.921624 0.425606
vt 0.366691 0.006298
vt 0.824354 0.480058
vt 0.921624 0.785093
vt 0.836950 0.006298
vt 0.078376 0.222534
vt 0.451365 0.006298
vt 0.752276 0.534510
vt 0.752276 0.893997
vt 0.836950 0.480058
vt 0.739680 0.222534
vt 0.294613 0.006298
vt 0.824354 0.534510
vt 0.824354 0.893997
vt 0.909028 0.480058
vt 0.006298 0.222534
vt 0.909028 0.414037
vt 0.379287 0.510849
vt 0.824354 0.006298
vt 0.836950 0.414037
vt 0.366691 0.510849
vt 0.752276 0.006298
vt 0.836950 0.887797
vt 0.451365 0.510849
vt 0.921624 0.006298
vt 0.909028 0.887797
vt 0.294613 0.510849
vt 0.993702 0.006298
vt 0.667602 0.799164
vt 0.824354 0.413011
vt 0.078376 0.799164
vt 0.752276 0.413011
vt 0.739680 0.799164
vt 0.824354 0.467463
vt 0.921624 0.413011
vt 0.752276 0.467463
vt 0.006298 0.799164
vt 0.993702 0.413011
s 0
usemtl Material.002
f 1/1/1 2/4/1 4/10/1 3/7/1
f 3/8/2 4/12/2 8/22/2 7/18/2
f 7/19/3 8/20/3 6/15/3 5/14/3
f 5/13/4 6/17/4 2/6/4 1/2/4
f 3/9/5 7/19/5 5/14/5 1/3/5
f 6/16/6 8/21/6 12/32/6 11/29/6
f 9/24/4 11/30/4 15/39/4 13/35/4
f 4/11/7 2/5/7 9/23/7 10/26/7
f 2/6/4 6/17/4 11/30/4 9/24/4
f 8/22/2 4/12/2 10/27/2 12/33/2
f 16/42/8 14/38/8 13/36/8 15/40/8
f 12/33/2 10/27/2 14/37/2 16/43/2
f 11/31/9 12/34/9 16/44/9 15/41/9
f 10/28/10 9/25/10 13/36/10 14/38/10
