# Blender 3.5.1
# www.blender.org
mtllib SavePoint.mtl
o Cylinder
v 0.250000 0.100000 0.433013
v 0.250000 2.100000 0.433013
v -0.250000 0.100000 0.433013
v -0.250000 2.100000 0.433013
v -0.500000 0.100000 -0.000000
v -0.500000 2.100000 -0.000000
v -0.250000 0.100000 -0.433013
v -0.250000 2.100000 -0.433013
v 0.250000 0.100000 -0.433013
v 0.250000 2.100000 -0.433013
v 0.500000 0.100000 -0.000000
v 0.500000 2.100000 -0.000000
v 0.300000 0.000000 0.519615
v -0.300000 0.000000 0.519615
v -0.600000 0.000000 0.000000
v -0.300000 -0.000000 -0.519615
v 0.300000 -0.000000 -0.519615
v 0.600000 0.000000 0.000000
v 0.375000 2.100000 0.649519
v -0.375000 2.100000 0.649519
v -0.750000 2.100000 -0.000000
v -0.375000 2.100000 -0.649519
v 0.375000 2.100000 -0.649519
v 0.750000 2.100000 -0.000000
v 0.240000 2.200000 0.415692
v -0.240000 2.200000 0.415692
v -0.480000 2.200000 -0.000000
v -0.240000 2.200000 -0.415692
v 0.240000 2.200000 -0.415692
v 0.480000 2.200000 -0.000000
v 0.144000 2.500000 0.249415
v -0.144000 2.500000 0.249415
v -0.288000 2.500000 -0.000000
v -0.144000 2.500000 -0.249415
v 0.144000 2.500000 -0.249415
v 0.288000 2.500000 -0.000000
v 0.000000 2.600000 -0.000000
vn -0.0000 -0.0000 1.0000
vn -0.8660 -0.0000 0.5000
vn -0.8660 -0.0000 -0.5000
vn -0.0000 -0.0000 -1.0000
vn 0.8660 -0.0000 -0.5000
vn 0.8660 -0.0000 0.5000
vn -0.6547 0.6547 -0.3780
vn 0.6547 0.6547 0.3780
vn -0.0000 0.6547 -0.7559
vn -0.6547 0.6547 0.3780
vn 0.6547 0.6547 -0.3780
vn -0.0000 0.6547 0.7559
vn 0.3405 0.9194 0.1966
vn -0.0000 0.9194 -0.3932
vn -0.3405 0.9194 0.1966
vn 0.3405 0.9194 -0.1966
vn -0.3405 0.9194 -0.1966
vn -0.0000 0.9194 0.3932
vn -0.0000 0.4848 -0.8746
vn -0.7575 0.4848 0.4373
vn 0.7575 0.4848 -0.4373
vn -0.7575 0.4848 -0.4373
vn -0.0000 0.4848 0.8746
vn 0.7575 0.4848 0.4373
vn -0.3223 0.9282 -0.1861
vn -0.0000 0.9282 0.3721
vn 0.3223 0.9282 0.1861
vn -0.0000 0.9282 -0.3721
vn -0.3223 0.9282 0.1861
vn 0.3223 0.9282 -0.1861
vt 0.824411 0.566080
vt 0.499439 0.011981
vt 0.072592 0.835642
vt 0.133203 0.974167
vt 0.824411 0.011981
vt 0.499439 0.566080
vt 0.962936 0.566080
vt 0.011981 0.566080
vt 0.935458 0.742419
vt 0.133203 0.835642
vt 0.962936 0.011981
vt 0.011981 0.011981
vt 0.150506 0.566080
vt 0.174467 0.566080
vt 0.935458 0.932609
vt 0.935458 0.603894
vt 0.150506 0.011981
vt 0.174467 0.011981
vt 0.312992 0.566080
vt 0.661925 0.566080
vt 0.935458 0.794084
vt 0.237468 0.835642
vt 0.312992 0.011981
vt 0.661925 0.011981
vt 0.800450 0.566080
vt 0.475478 0.011981
vt 0.237468 0.974167
vt 0.011981 0.974167
vt 0.800450 0.011981
vt 0.475478 0.566080
vt 0.336953 0.011981
vt 0.637964 0.011981
vt 0.072592 0.974167
vt 0.011981 0.835642
vt 0.336953 0.566080
vt 0.637964 0.566080
vt 0.109242 0.821790
vt 0.169853 0.988019
vt 0.972108 0.756271
vt 0.169853 0.821790
vt 0.972108 0.946462
vt 0.972108 0.590041
vt 0.972108 0.780232
vt 0.200818 0.821790
vt 0.200818 0.988019
vt 0.048631 0.988019
vt 0.109242 0.988019
vt 0.048631 0.821790
vt 0.554530 0.590041
vt 0.365693 0.797828
vt 0.176856 0.797828
vt 0.365693 0.590041
vt 0.176856 0.590041
vt 0.082438 0.797828
vt 0.200818 0.590041
vt 0.082438 0.590041
vt 0.200818 0.797828
vt 0.389655 0.590041
vt 0.554530 0.797828
vt 0.389655 0.797828
vt 0.484073 0.627443
vt 0.295236 0.760427
vt 0.673519 0.723025
vt 0.911497 0.746986
vt 0.106399 0.760427
vt 0.295236 0.627443
vt 0.792508 0.879970
vt 0.673519 0.590041
vt 0.106399 0.627443
vt 0.011981 0.760427
vt 0.792508 0.746986
vt 0.911497 0.723025
vt 0.271275 0.627443
vt 0.011981 0.627443
vt 0.697480 0.590041
vt 0.911497 0.590041
vt 0.271275 0.760427
vt 0.460112 0.627443
vt 0.697480 0.723025
vt 0.673519 0.879970
vt 0.484073 0.760427
vt 0.460112 0.760427
vt 0.673519 0.746986
vt 0.911497 0.879970
vt 0.578492 0.696428
vt 0.816469 0.773583
vt 0.261429 0.868565
vt 0.849756 0.903931
vt 0.697480 0.853373
vt 0.578492 0.616638
vt 0.331757 0.906253
vt 0.524456 0.901580
vt 0.697480 0.773583
vt 0.816469 0.696428
vt 0.652939 0.983721
vt 0.524456 0.821790
vt 0.792508 0.616638
vt 0.816469 0.616638
vt 0.652939 0.903931
vt 0.426047 0.821790
vt 0.792508 0.696428
vt 0.578492 0.853373
vt 0.355719 0.859477
vt 0.751348 0.983721
vt 0.578492 0.773583
vt 0.816469 0.853373
vt 0.849756 0.983721
vt 0.751348 0.903931
vt 0.578491 0.943826
vt 0.331757 0.821790
vt 0.775309 0.943826
vt 0.426047 0.906253
vt 0.450008 0.861685
vt 0.676900 0.943826
s 0
usemtl Material.001
f 1/1/1 2/5/1 4/11/1 3/7/1
f 3/8/2 4/12/2 6/17/2 5/13/2
f 5/14/3 6/18/3 8/23/3 7/19/3
f 7/20/4 8/24/4 10/29/4 9/25/4
f 9/26/5 10/30/5 12/35/5 11/31/5
f 11/32/6 12/36/6 2/6/6 1/2/6
f 5/15/7 7/21/7 16/43/7 15/41/7
f 11/33/8 1/3/8 13/37/8 18/47/8
f 7/22/9 9/27/9 17/45/9 16/44/9
f 3/9/10 5/16/10 15/42/10 14/39/10
f 9/28/11 11/34/11 18/48/11 17/46/11
f 1/4/12 3/10/12 14/40/12 13/38/12
f 19/49/13 24/59/13 30/81/13 25/61/13
f 23/57/14 22/55/14 28/73/14 29/77/14
f 21/53/15 20/51/15 26/65/15 27/69/15
f 24/60/16 23/58/16 29/78/16 30/82/16
f 22/56/17 21/54/17 27/70/17 28/74/17
f 20/52/18 19/50/18 25/62/18 26/66/18
f 29/79/19 28/75/19 34/97/19 35/101/19
f 27/71/20 26/67/20 32/89/20 33/93/20
f 30/83/21 29/80/21 35/102/21 36/105/21
f 28/76/22 27/72/22 33/94/22 34/98/22
f 26/68/23 25/63/23 31/85/23 32/90/23
f 25/64/24 30/84/24 36/106/24 31/86/24
f 34/99/25 33/95/25 37/109/25
f 32/91/26 31/87/26 37/110/26
f 31/88/27 36/107/27 37/111/27
f 35/103/28 34/100/28 37/112/28
f 33/96/29 32/92/29 37/113/29
f 36/108/30 35/104/30 37/114/30
