# Blender 3.5.1
# www.blender.org
mtllib przeciwnik.mtl
o Cube
v -0.500000 0.000000 1.132782
v -0.500000 1.000000 1.132782
v -0.500000 0.000000 0.632782
v -0.500000 1.000000 0.632782
v 0.500000 0.000000 1.132782
v 0.500000 1.000000 1.132782
v 0.500000 0.000000 0.632782
v 0.500000 1.000000 0.632782
vn -1.0000 -0.0000 -0.0000
vn -0.0000 -0.0000 -1.0000
vn -0.0000 -0.0000 1.0000
vn -0.0000 -1.0000 -0.0000
vn -0.0000 1.0000 -0.0000
vn 1.0000 -0.0000 -0.0000
vt 0.375000 0.000000
vt 0.375000 1.000000
vt 0.125000 0.750000
vt 0.625000 0.000000
vt 0.625000 1.000000
vt 0.875000 0.750000
vt 0.375000 0.250000
vt 0.125000 0.500000
vt 0.625000 0.250000
vt 0.875000 0.500000
vt 0.375000 0.750000
vt 0.625000 0.750000
vt 0.375000 0.500000
vt 0.625000 0.500000
s 0
f 1/1/1 2/4/1 4/9/1 3/7/1
f 3/7/2 4/9/2 8/14/2 7/13/2
f 5/11/3 6/12/3 2/5/3 1/2/3
f 3/8/4 7/13/4 5/11/4 1/3/4
f 8/14/5 4/10/5 2/6/5 6/12/5
f 7/13/6 8/14/6 6/12/6 5/11/6
o Cube.001
v -1.420605 0.000000 0.752638
v -1.420605 1.000000 0.752638
v -1.420605 0.000000 0.252638
v -1.420605 1.000000 0.252638
v -0.920605 0.000000 0.752638
v -0.920605 1.000000 0.752638
v -0.920605 0.000000 0.252638
v -0.920605 1.000000 0.252638
vn -1.0000 -0.0000 -0.0000
vn -0.0000 -0.0000 -1.0000
vn -0.0000 -0.0000 1.0000
vn -0.0000 -1.0000 -0.0000
vn -0.0000 1.0000 -0.0000
vn 1.0000 -0.0000 -0.0000
vt 0.375000 0.000000
vt 0.375000 1.000000
vt 0.125000 0.750000
vt 0.625000 0.000000
vt 0.625000 1.000000
vt 0.875000 0.750000
vt 0.375000 0.250000
vt 0.125000 0.500000
vt 0.625000 0.250000
vt 0.875000 0.500000
vt 0.375000 0.750000
vt 0.625000 0.750000
vt 0.375000 0.500000
vt 0.625000 0.500000
s 0
f 9/15/7 10/18/7 12/23/7 11/21/7
f 11/21/8 12/23/8 16/28/8 15/27/8
f 13/25/9 14/26/9 10/19/9 9/16/9
f 11/22/10 15/27/10 13/25/10 9/17/10
f 16/28/11 12/24/11 10/20/11 14/26/11
f 15/27/12 16/28/12 14/26/12 13/25/12
o Cube.002
v 0.772066 0.077766 0.754262
v 0.772066 1.327766 0.754262
v 0.772066 0.077766 0.254262
v 0.772066 1.327766 0.254262
v 1.272066 0.077766 0.754262
v 1.272066 1.327766 0.754262
v 1.272066 0.077766 0.254262
v 1.272066 1.327766 0.254262
vn -1.0000 -0.0000 -0.0000
vn -0.0000 -0.0000 -1.0000
vn -0.0000 -0.0000 1.0000
vn -0.0000 -1.0000 -0.0000
vn -0.0000 1.0000 -0.0000
vn 1.0000 -0.0000 -0.0000
vt 0.375000 0.000000
vt 0.375000 1.000000
vt 0.125000 0.750000
vt 0.625000 0.000000
vt 0.625000 1.000000
vt 0.875000 0.750000
vt 0.375000 0.250000
vt 0.125000 0.500000
vt 0.625000 0.250000
vt 0.875000 0.500000
vt 0.375000 0.750000
vt 0.625000 0.750000
vt 0.375000 0.500000
vt 0.625000 0.500000
s 0
f 17/29/13 18/32/13 20/37/13 19/35/13
f 19/35/14 20/37/14 24/42/14 23/41/14
f 21/39/15 22/40/15 18/33/15 17/30/15
f 19/36/16 23/41/16 21/39/16 17/31/16
f 24/42/17 20/38/17 18/34/17 22/40/17
f 23/41/18 24/42/18 22/40/18 21/39/18
o Cube.003
v -0.500000 0.000000 0.092376
v -0.500000 2.000000 0.092376
v -0.500000 0.000000 -0.907624
v -0.500000 2.000000 -0.907624
v 0.500000 0.000000 0.092376
v 0.500000 2.000000 0.092376
v 0.500000 0.000000 -0.907624
v 0.500000 2.000000 -0.907624
vn -1.0000 -0.0000 -0.0000
vn -0.0000 -0.0000 -1.0000
vn -0.0000 -0.0000 1.0000
vn -0.0000 -1.0000 -0.0000
vn -0.0000 1.0000 -0.0000
vn 1.0000 -0.0000 -0.0000
vt 0.375000 0.000000
vt 0.375000 1.000000
vt 0.125000 0.750000
vt 0.625000 0.000000
vt 0.625000 1.000000
vt 0.875000 0.750000
vt 0.375000 0.250000
vt 0.125000 0.500000
vt 0.625000 0.250000
vt 0.875000 0.500000
vt 0.375000 0.750000
vt 0.625000 0.750000
vt 0.375000 0.500000
vt 0.625000 0.500000
s 0
f 25/43/19 26/46/19 28/51/19 27/49/19
f 27/49/20 28/51/20 32/56/20 31/55/20
f 29/53/21 30/54/21 26/47/21 25/44/21
f 27/50/22 31/55/22 29/53/22 25/45/22
f 32/56/23 28/52/23 26/48/23 30/54/23
f 31/55/24 32/56/24 30/54/24 29/53/24
