# Blender 3.5.1
# www.blender.org
mtllib CornerBrown.mtl
o NaroznikBrazowy
v -0.257570 2.151621 -2.961188
v -0.693558 2.846067 -3.516741
v -2.042176 2.151620 -4.767880
v -1.492942 2.846067 -4.325982
v 0.000038 2.151621 -4.117250
v -0.893898 2.151621 -5.022208
v -3.002736 7.593389 -3.524362
v -4.302947 7.593389 -3.527312
v -2.999763 6.371934 -4.834645
v -2.999763 7.593389 -4.834645
v -4.299974 6.371934 -4.837595
v -4.299974 7.593389 -4.837595
v -4.212317 7.511041 -4.837396
v -4.212317 6.454282 -4.837396
v -3.087420 6.454282 -4.834843
v -3.087420 7.511041 -4.834843
v -4.212438 7.511041 -4.783976
v -4.212438 6.454282 -4.783976
v -3.087541 6.454282 -4.781424
v -3.087541 7.511041 -4.781424
v -3.653607 7.983926 -3.188386
v -3.649869 7.983926 -4.836120
v -1.609425 7.593389 -2.481079
v -2.526710 7.593389 -3.409674
v -0.687935 6.371934 -3.405502
v -0.687935 7.593389 -3.405502
v -1.605221 6.371934 -4.334098
v -1.605221 7.593389 -4.334098
v -1.543380 7.511041 -4.271494
v -1.543380 6.454282 -4.271494
v -0.749776 6.454282 -3.468106
v -0.749776 7.511041 -3.468106
v -1.580948 7.511041 -4.233806
v -1.580948 6.454282 -4.233806
v -0.787345 6.454282 -3.430418
v -0.787345 7.511041 -3.430418
v -2.388759 7.983926 -2.682657
v -1.146578 7.983926 -3.869800
v -1.419837 7.593389 -0.630855
v -1.416864 7.593389 -1.941138
v -0.119627 6.371934 -0.627905
v -0.119627 7.593389 -0.627905
v -0.116653 6.371934 -1.938187
v -0.116653 7.593389 -1.938187
v -0.116855 7.511041 -1.849851
v -0.116855 6.454282 -1.849851
v -0.119427 6.454282 -0.716241
v -0.119427 7.511041 -0.716241
v -0.169863 7.511041 -1.849971
v -0.169863 6.454282 -1.849971
v -0.172436 6.454282 -0.716361
v -0.172436 7.511041 -0.716361
v -1.912600 7.983926 -1.287118
v -0.118140 7.983926 -1.283047
v -4.999989 0.000001 -0.000487
v -4.999989 8.067535 -0.000487
v -5.013497 0.000001 -5.003553
v -5.013497 6.249907 -5.003553
v -5.017618 8.067535 -3.187446
v -5.013497 1.108443 -5.003553
v -4.999989 1.108216 -0.000487
v 0.000225 0.000001 0.000000
v 0.000225 6.249907 0.000000
v -1.801923 8.067535 -0.004089
v 0.000225 1.108443 0.000000
v -1.990309 6.249907 -4.989334
v 0.021633 6.249907 -2.981472
v -2.878808 8.067537 -3.196635
v -1.806910 8.067537 -2.135516
v -1.990309 1.108443 -4.989334
v 0.021633 1.108443 -2.981472
v -1.990309 0.000002 -4.989334
v 0.021633 0.000002 -2.981472
v -0.512536 1.108443 -3.514558
v -0.512536 0.000002 -3.514558
v -1.500855 1.108443 -4.500872
v -1.500855 0.000002 -4.500872
v -0.512536 2.039231 -3.514558
v -1.500855 2.039231 -4.500872
v -2.951251 3.242107 -4.993853
v -4.315341 3.242107 -5.000269
v 0.014403 3.239084 -1.974571
v 0.004796 3.239084 -0.636540
v -2.951251 1.741955 -4.993853
v -4.315341 1.741955 -5.000269
v 0.014403 1.751508 -1.974571
v 0.004796 1.751508 -0.636540
v -0.512536 5.501669 -3.514558
v -1.500855 5.501669 -4.500872
v 0.014403 5.530195 -1.974571
v 0.004796 5.530195 -0.636540
v -2.951251 5.540380 -4.993853
v -4.315341 5.540381 -5.000269
v -2.951251 4.100872 -4.993853
v -4.315341 4.100872 -5.000269
v -0.512536 4.100872 -3.514558
v -1.500855 4.100872 -4.500872
v 0.014403 4.100872 -1.974571
v 0.004796 4.100872 -0.636540
v -0.092042 1.751508 -1.975343
v -0.092042 3.239084 -1.975343
v -0.101650 1.751508 -0.637311
v -0.101650 3.239084 -0.637311
v -0.092042 4.100872 -1.975343
v -0.092042 5.530195 -1.975343
v -0.101650 4.100872 -0.637311
v -0.101650 5.530195 -0.637311
v -4.315842 3.242107 -4.892998
v -2.951751 3.242107 -4.886582
v -2.951751 1.741955 -4.886582
v -4.315842 1.741955 -4.892998
v -4.315842 5.540381 -4.892998
v -2.951751 5.540380 -4.886582
v -2.951751 4.100872 -4.886582
v -4.315842 4.100872 -4.892998
v -0.587440 4.100872 -3.438334
v -0.587440 5.501669 -3.438334
v -1.575758 4.100872 -4.424649
v -1.575758 5.501669 -4.424649
v -0.587440 1.108443 -3.438334
v -0.587440 0.000002 -3.438334
v -1.575758 1.108443 -4.424649
v -1.575758 0.000002 -4.424649
v -0.587440 2.039231 -3.438334
v -1.575758 2.039231 -4.424649
v -2.953337 3.311664 -4.956507
v -2.953337 3.446645 -4.956507
v -4.299065 3.311664 -4.959561
v -4.299065 3.446645 -4.959561
v -2.952765 3.311664 -5.208319
v -2.952765 3.446645 -5.208319
v -4.298493 3.311664 -5.211373
v -4.298493 3.446645 -5.211373
v -2.953337 5.598967 -4.956507
v -2.953337 5.733948 -4.956507
v -4.299065 5.598967 -4.959561
v -4.299065 5.733948 -4.959561
v -2.952765 5.598967 -5.208319
v -2.952765 5.733948 -5.208319
v -4.298493 5.598967 -5.211373
v -4.298493 5.733948 -5.211373
v -0.060737 5.598967 -0.642769
v -0.060737 5.733948 -0.642769
v -0.057659 5.598967 -1.998921
v -0.057659 5.733948 -1.998921
v 0.189140 5.598967 -0.642202
v 0.189140 5.733948 -0.642202
v 0.192217 5.598967 -1.998354
v 0.192217 5.733948 -1.998354
v -0.060737 3.311664 -0.642769
v -0.060737 3.446645 -0.642769
v -0.057659 3.311664 -1.998921
v -0.057659 3.446645 -1.998921
v 0.189140 3.311664 -0.642202
v 0.189140 3.446645 -0.642202
v 0.192217 3.311664 -1.998354
v 0.192217 3.446645 -1.998354
v -0.532740 5.598967 -3.503538
v -0.532740 5.733948 -3.503538
v -1.482137 5.598967 -4.464642
v -1.482137 5.733948 -4.464642
v -0.355647 5.598967 -3.681195
v -0.355647 5.733948 -3.681195
v -1.305044 5.598967 -4.642298
v -1.305044 5.733948 -4.642298
vn -0.0000 -1.0000 -0.0000
vn 0.4300 0.7967 -0.4247
vn 0.7671 0.6183 0.1709
vn -0.1695 0.6210 -0.7653
vn -1.0000 -0.0000 -0.0023
vn 0.0023 -0.0000 -1.0000
vn 1.0000 -0.0000 0.0023
vn 0.5150 0.8572 0.0012
vn -0.0000 1.0000 -0.0000
vn -0.5150 0.8572 -0.0012
vn -0.7082 -0.0000 -0.7060
vn 0.7114 -0.0000 -0.7028
vn 0.7082 -0.0000 0.7060
vn 0.3515 0.8641 0.3602
vn -0.3660 0.8517 -0.3751
vn -0.0023 -0.0000 1.0000
vn -0.0012 0.8590 0.5120
vn 0.0012 0.8590 -0.5120
vn -1.0000 -0.0000 0.0027
vn -1.0000 -0.0008 0.0038
vn 0.0001 -0.0000 -1.0000
vn -0.0004 -0.0003 -1.0000
vn 0.7064 -0.0000 -0.7078
vn 0.4885 0.7214 -0.4909
vn 0.0047 -0.0000 -1.0000
vn 0.0007 0.7046 -0.7096
vn 1.0000 -0.0000 0.0072
vn 0.7078 0.7064 0.0023
vn -1.0000 -0.0000 -0.0047
vn 0.7133 -0.0000 0.7009
vn 0.0073 -0.0000 -1.0000
vn -0.0073 -0.0000 1.0000
vn 1.0000 -0.0000 0.0047
vn -0.7133 -0.0000 -0.7009
vt 0.057843 0.892268
vt 0.083914 0.918339
vt 0.136055 0.892268
vt 0.109984 0.918339
vt 0.057843 0.866197
vt 0.083914 0.840126
vt 0.136055 0.866197
vt 0.109984 0.840126
vt 0.083914 0.892268
vt 0.109984 0.892268
vt 0.096949 0.905303
vt 0.083914 0.866197
vt 0.109984 0.866197
vt 0.096949 0.853161
vt 0.912278 0.814993
vt 0.112368 0.954165
vt 0.944627 0.780388
vt 0.112368 0.897397
vt 0.912278 0.878395
vt 0.055600 0.954165
vt 0.848876 0.878395
vt 0.797924 0.927091
vt 0.912278 0.941797
vt 0.944627 0.927091
vt 0.848876 0.941797
vt 0.055600 0.897397
vt 0.848876 0.941797
vt 0.912278 0.941797
vt 0.912278 0.878395
vt 0.848876 0.878395
vt 0.979265 0.127687
vt 0.848876 0.941797
vt 0.883113 0.127687
vt 0.912278 0.941797
vt 0.883113 0.223839
vt 0.912278 0.878395
vt 0.979265 0.223839
vt 0.848876 0.878395
vt 0.112368 0.925781
vt 0.848876 0.910096
vt 0.055600 0.925781
vt 0.912278 0.814993
vt 0.112368 0.954165
vt 0.944627 0.780388
vt 0.112368 0.897397
vt 0.912278 0.878395
vt 0.055600 0.954165
vt 0.848876 0.878395
vt 0.797924 0.927091
vt 0.912278 0.941797
vt 0.944627 0.927091
vt 0.848876 0.941797
vt 0.055600 0.897397
vt 0.848876 0.941797
vt 0.912278 0.941797
vt 0.912278 0.878395
vt 0.848876 0.878395
vt 0.979265 0.127687
vt 0.848876 0.941797
vt 0.883113 0.127687
vt 0.912278 0.941797
vt 0.883113 0.223839
vt 0.912278 0.878395
vt 0.979265 0.223839
vt 0.848876 0.878395
vt 0.112368 0.925781
vt 0.848876 0.910096
vt 0.055600 0.925781
vt 0.912278 0.814993
vt 0.112368 0.954165
vt 0.944627 0.780388
vt 0.112368 0.897397
vt 0.912278 0.878395
vt 0.055600 0.954165
vt 0.848876 0.878395
vt 0.797924 0.927091
vt 0.912278 0.941797
vt 0.944627 0.927091
vt 0.848876 0.941797
vt 0.055600 0.897397
vt 0.848876 0.941797
vt 0.912278 0.941797
vt 0.912278 0.878395
vt 0.848876 0.878395
vt 0.979265 0.127687
vt 0.848876 0.941797
vt 0.883113 0.127687
vt 0.912278 0.941797
vt 0.883113 0.223839
vt 0.912278 0.878395
vt 0.979265 0.223839
vt 0.848876 0.878395
vt 0.112368 0.925781
vt 0.848876 0.910096
vt 0.055600 0.925781
vt 0.216568 0.577119
vt 0.960263 0.958144
vt 0.148853 0.896449
vt 0.085811 0.577119
vt 0.854735 0.799627
vt 0.099509 0.799540
vt 0.832520 0.874869
vt 0.852357 0.851681
vt 0.852357 0.877708
vt 0.141887 0.845125
vt 0.140314 0.845705
vt 0.876868 0.958144
vt 0.092457 0.600309
vt 0.854735 0.971780
vt 0.836152 0.816090
vt 0.852357 0.903735
vt 0.216568 0.600304
vt 0.960263 0.816086
vt 0.085811 0.577119
vt 0.081303 0.886110
vt 0.933156 0.799627
vt 0.942214 0.877708
vt 0.832520 0.874869
vt 0.137406 0.890306
vt 0.876868 0.958144
vt 0.933156 0.971780
vt 0.942214 0.937758
vt 0.092457 0.600309
vt 0.942214 0.903735
vt 0.836152 0.816090
vt 0.090627 0.814790
vt 0.859380 0.799627
vt 0.095679 0.802968
vt 0.871686 0.799627
vt 0.862653 0.877708
vt 0.862653 0.851681
vt 0.085873 0.833784
vt 0.082445 0.862110
vt 0.889927 0.799627
vt 0.914114 0.799627
vt 0.899785 0.851681
vt 0.899785 0.877708
vt 0.134970 0.851545
vt 0.137240 0.846838
vt 0.134759 0.859438
vt 0.135831 0.875127
vt 0.092457 0.600309
vt 0.862653 0.937758
vt 0.859380 0.971780
vt 0.862653 0.903735
vt 0.899785 0.971780
vt 0.914114 0.971780
vt 0.092457 0.600309
vt 0.899785 0.903735
vt 0.085811 0.577119
vt 0.085811 0.577119
vt 0.889927 0.971780
vt 0.092457 0.600308
vt 0.085811 0.577119
vt 0.092457 0.600308
vt 0.871686 0.971780
vt 0.085811 0.577119
vt 0.889927 0.903735
vt 0.889927 0.937758
vt 0.871686 0.903735
vt 0.871686 0.937758
vt 0.859380 0.903735
vt 0.854735 0.903735
vt 0.914114 0.903735
vt 0.933156 0.903735
vt 0.859380 0.937758
vt 0.854735 0.937758
vt 0.914114 0.937758
vt 0.933156 0.937758
vt 0.889927 0.851681
vt 0.871686 0.851681
vt 0.914115 0.851681
vt 0.933156 0.851681
vt 0.859380 0.851681
vt 0.854735 0.851681
vt 0.859381 0.877708
vt 0.854735 0.877708
vt 0.889927 0.877708
vt 0.871686 0.877708
vt 0.914115 0.877708
vt 0.933156 0.877708
vt 0.880711 0.226934
vt 0.914114 0.937758
vt 0.880711 0.124626
vt 0.914114 0.903735
vt 0.983268 0.226934
vt 0.933156 0.937758
vt 0.983268 0.124627
vt 0.933156 0.903735
vt 0.880711 0.226934
vt 0.914115 0.877708
vt 0.880711 0.124626
vt 0.914115 0.851681
vt 0.983268 0.226934
vt 0.933156 0.877708
vt 0.983268 0.124627
vt 0.933156 0.851681
vt 0.880711 0.124626
vt 0.854735 0.903735
vt 0.983268 0.124627
vt 0.859380 0.903735
vt 0.859380 0.937758
vt 0.983268 0.226934
vt 0.880711 0.226934
vt 0.854735 0.937758
vt 0.880711 0.124626
vt 0.854735 0.851681
vt 0.983268 0.124627
vt 0.859380 0.851681
vt 0.983268 0.226934
vt 0.859381 0.877708
vt 0.880711 0.226934
vt 0.854735 0.877708
vt 0.983268 0.226934
vt 0.889927 0.877708
vt 0.983268 0.124627
vt 0.889927 0.851681
vt 0.880711 0.226934
vt 0.871686 0.877708
vt 0.880711 0.124626
vt 0.871686 0.851681
vt 0.091274 0.866449
vt 0.889927 0.971780
vt 0.092457 0.600308
vt 0.091274 0.936307
vt 0.085811 0.577119
vt 0.059195 0.866449
vt 0.092457 0.600308
vt 0.871686 0.971780
vt 0.059195 0.936307
vt 0.085811 0.577119
vt 0.091274 0.807788
vt 0.889927 0.937758
vt 0.059195 0.807788
vt 0.871686 0.937758
vt 0.099638 0.922979
vt 0.061757 0.885097
vt 0.137519 0.922979
vt 0.175401 0.885097
vt 0.099638 0.809335
vt 0.061757 0.847216
vt 0.137519 0.809335
vt 0.175401 0.847216
vt 0.099638 0.885097
vt 0.137519 0.885097
vt 0.099638 0.847216
vt 0.137519 0.847216
vt 0.099638 0.922979
vt 0.061757 0.885097
vt 0.137519 0.922979
vt 0.175401 0.885097
vt 0.099638 0.809335
vt 0.061757 0.847216
vt 0.137519 0.809335
vt 0.175401 0.847216
vt 0.099638 0.885097
vt 0.137519 0.885097
vt 0.099638 0.847216
vt 0.137519 0.847216
vt 0.099638 0.922979
vt 0.061757 0.885097
vt 0.137519 0.922979
vt 0.175401 0.885097
vt 0.099638 0.809335
vt 0.061757 0.847216
vt 0.137519 0.809335
vt 0.175401 0.847216
vt 0.099638 0.885097
vt 0.137519 0.885097
vt 0.099638 0.847216
vt 0.137519 0.847216
vt 0.099638 0.922979
vt 0.061757 0.885097
vt 0.137519 0.922979
vt 0.175401 0.885097
vt 0.099638 0.809335
vt 0.061757 0.847216
vt 0.137519 0.809335
vt 0.175401 0.847216
vt 0.099638 0.885097
vt 0.137519 0.885097
vt 0.099638 0.847216
vt 0.137519 0.847216
vt 0.099638 0.922979
vt 0.061757 0.885097
vt 0.137519 0.922979
vt 0.175401 0.885097
vt 0.099638 0.809335
vt 0.061757 0.847216
vt 0.137519 0.809335
vt 0.175401 0.847216
vt 0.099638 0.885097
vt 0.137519 0.885097
vt 0.099638 0.847216
vt 0.137519 0.847216
s 0
usemtl BasicTexture
f 3/5/1 6/12/1 5/9/1 1/1/1
f 6/13/2 4/7/2 2/3/2 5/10/2
f 1/2/3 5/11/3 2/4/3
f 4/8/4 6/14/4 3/6/4
f 8/17/5 12/24/5 11/22/5
f 10/21/6 9/19/6 15/29/6 16/30/6
f 9/19/7 10/21/7 7/15/7
f 22/41/8 21/39/8 7/16/8 10/20/8
f 18/33/6 17/31/6 20/37/6 19/35/6
f 22/40/6 10/21/6 16/30/6 13/27/6 12/25/6
f 11/23/6 12/25/6 13/27/6 14/28/6
f 15/29/9 14/28/9 18/34/9 19/36/9
f 14/28/7 13/27/7 17/32/7 18/34/7
f 16/30/5 15/29/5 19/36/5 20/38/5
f 15/29/6 9/19/6 11/23/6 14/28/6
f 16/30/1 20/38/1 17/32/1 13/27/1
f 12/26/10 8/18/10 21/39/10 22/41/10
f 24/44/11 28/51/11 27/49/11
f 26/48/12 25/46/12 31/56/12 32/57/12
f 25/46/13 26/48/13 23/42/13
f 38/68/14 37/66/14 23/43/14 26/47/14
f 34/60/12 33/58/12 36/64/12 35/62/12
f 38/67/12 26/48/12 32/57/12 29/54/12 28/52/12
f 27/50/12 28/52/12 29/54/12 30/55/12
f 31/56/9 30/55/9 34/61/9 35/63/9
f 30/55/13 29/54/13 33/59/13 34/61/13
f 32/57/11 31/56/11 35/63/11 36/65/11
f 31/56/12 25/46/12 27/50/12 30/55/12
f 32/57/1 36/65/1 33/59/1 29/54/1
f 28/53/15 24/45/15 37/66/15 38/68/15
f 40/71/6 44/78/6 43/76/6
f 42/75/7 41/73/7 47/83/7 48/84/7
f 41/73/16 42/75/16 39/69/16
f 54/95/17 53/93/17 39/70/17 42/74/17
f 50/87/7 49/85/7 52/91/7 51/89/7
f 54/94/7 42/75/7 48/84/7 45/81/7 44/79/7
f 43/77/7 44/79/7 45/81/7 46/82/7
f 47/83/9 46/82/9 50/88/9 51/90/9
f 46/82/16 45/81/16 49/86/16 50/88/16
f 48/84/6 47/83/6 51/90/6 52/92/6
f 47/83/7 41/73/7 43/77/7 46/82/7
f 48/84/1 52/92/1 49/86/1 45/81/1
f 44/80/18 40/72/18 53/93/18 54/95/18
f 55/96/19 61/112/19 60/108/19 57/99/19
f 60/110/20 61/113/20 56/97/20 59/107/20
f 55/96/21 61/112/21 65/123/21 62/114/21
f 65/125/22 61/113/22 56/97/22 64/120/22
f 59/105/9 56/98/9 64/119/9 69/140/9 68/139/9
f 75/154/23 74/153/23 71/148/23 73/151/23
f 79/161/23 76/156/23 70/143/23
f 71/146/23 74/152/23 78/159/23
f 66/126/24 68/138/24 69/140/24 67/132/24
f 72/150/23 70/142/23 76/155/23 77/157/23
f 93/175/25 58/100/25 66/127/25 92/174/25
f 57/99/25 60/108/25 70/142/25 72/150/25
f 58/101/26 59/106/26 68/139/26 66/128/26
f 87/169/27 65/121/27 71/147/27 86/168/27
f 65/122/27 87/169/27 83/165/27
f 73/151/27 71/148/27 65/123/27 62/114/27
f 67/133/28 69/141/28 64/119/28 63/115/28
f 63/117/27 65/124/27 83/165/27 99/181/27
f 99/181/27 83/165/27 82/164/27 98/180/27
f 84/166/9 85/167/9 111/205/9 110/202/9
f 96/178/23 78/158/23 79/160/23 97/179/23
f 67/137/23 71/149/23 78/158/23 96/178/23
f 98/180/27 82/164/27 71/149/27 67/137/27
f 97/179/23 79/160/23 70/145/23 66/130/23
f 84/166/25 80/162/25 70/143/25
f 60/109/25 85/167/25 84/166/25 70/144/25
f 90/172/1 91/173/1 107/197/1 105/193/1
f 82/164/27 86/168/27 71/149/27
f 85/167/25 60/111/25 81/163/25
f 60/110/5 59/107/5 58/102/5
f 67/134/23 88/170/23 89/171/23 66/129/23
f 63/116/27 91/173/27 90/172/27 67/135/27
f 58/103/25 93/175/25 95/177/25
f 80/162/29 84/166/29 110/202/29 109/201/29
f 94/176/25 92/174/25 66/130/25
f 80/162/25 94/176/25 66/130/25 70/145/25
f 81/163/25 95/177/25 94/176/25 80/162/25
f 60/111/25 58/104/25 95/177/25 81/163/25
f 89/171/23 97/179/23 66/131/23
f 90/172/27 98/180/27 67/136/27
f 67/137/23 96/178/23 88/170/23
f 97/179/30 89/171/30 119/221/30 118/219/30
f 99/181/9 98/180/9 104/191/9 106/195/9
f 63/117/27 99/181/27 91/173/27
f 103/188/27 102/186/27 100/182/27 101/184/27
f 107/196/27 106/194/27 104/190/27 105/192/27
f 91/173/31 99/181/31 106/195/31 107/197/31
f 86/168/32 82/164/32 101/185/32 100/183/32
f 82/164/1 83/165/1 103/189/1 101/185/1
f 83/165/31 87/169/31 102/187/31 103/189/31
f 87/169/9 86/168/9 100/183/9 102/187/9
f 98/180/32 90/172/32 105/193/32 104/191/32
f 111/204/25 108/198/25 109/200/25 110/203/25
f 115/212/25 112/206/25 113/208/25 114/210/25
f 92/174/29 94/176/29 114/211/29 113/209/29
f 94/176/9 95/177/9 115/213/9 114/211/9
f 81/163/1 80/162/1 109/201/1 108/199/1
f 85/167/33 81/163/33 108/199/33 111/205/33
f 93/175/1 92/174/1 113/209/1 112/207/1
f 95/177/33 93/175/33 112/207/33 115/213/33
f 117/216/23 116/214/23 118/218/23 119/220/23
f 89/171/1 88/170/1 117/217/1 119/221/1
f 96/178/9 97/179/9 118/219/9 116/215/9
f 88/170/34 96/178/34 116/215/34 117/217/34
f 123/230/23 122/227/23 125/234/23 124/232/23 120/222/23 121/225/23
f 77/157/30 76/155/30 122/228/30 123/231/30
f 78/159/34 74/152/34 120/223/34 124/233/34
f 79/161/1 78/159/1 124/233/1 125/235/1
f 76/156/30 79/161/30 125/235/30 122/229/30
f 74/153/34 75/154/34 121/226/34 120/224/34
f 65/125/6 64/120/6 63/118/6
f 128/240/5 129/242/5 133/247/5 132/246/5
f 132/246/6 133/247/6 131/245/6 130/244/6
f 130/244/7 131/245/7 127/238/7 126/236/7
f 128/241/1 132/246/1 130/244/1 126/237/1
f 133/247/9 129/243/9 127/239/9 131/245/9
f 136/252/5 137/254/5 141/259/5 140/258/5
f 140/258/6 141/259/6 139/257/6 138/256/6
f 138/256/7 139/257/7 135/250/7 134/248/7
f 136/253/1 140/258/1 138/256/1 134/249/1
f 141/259/9 137/255/9 135/251/9 139/257/9
f 144/264/6 145/266/6 149/271/6 148/270/6
f 148/270/7 149/271/7 147/269/7 146/268/7
f 146/268/16 147/269/16 143/262/16 142/260/16
f 144/265/1 148/270/1 146/268/1 142/261/1
f 149/271/9 145/267/9 143/263/9 147/269/9
f 152/276/6 153/278/6 157/283/6 156/282/6
f 156/282/7 157/283/7 155/281/7 154/280/7
f 154/280/16 155/281/16 151/274/16 150/272/16
f 152/277/1 156/282/1 154/280/1 150/273/1
f 157/283/9 153/279/9 151/275/9 155/281/9
f 160/288/11 161/290/11 165/295/11 164/294/11
f 164/294/12 165/295/12 163/293/12 162/292/12
f 162/292/13 163/293/13 159/286/13 158/284/13
f 160/289/1 164/294/1 162/292/1 158/285/1
f 165/295/9 161/291/9 159/287/9 163/293/9
