# Blender 3.5.1
# www.blender.org
mtllib HighLavender.mtl
o WysokiLawenda
v -2.237331 10.356509 2.344310
v -2.237331 10.534174 2.344310
v 2.213987 10.356509 2.344311
v 2.213987 10.534174 2.344311
v -2.237331 10.356509 2.722123
v -2.237331 10.534174 2.722123
v 2.213987 10.356509 2.722123
v 2.213987 10.534174 2.722123
v -3.068888 8.076823 2.344313
v -3.068888 8.254488 2.344313
v 3.045476 8.076823 2.344313
v 3.045476 8.254488 2.344313
v -3.068888 8.076823 2.722126
v -3.068888 8.254488 2.722126
v 3.045476 8.076823 2.722126
v 3.045476 8.254488 2.722126
v -3.117976 6.044115 2.344313
v -3.117976 6.221779 2.344313
v 3.094563 6.044115 2.344313
v 3.094563 6.221779 2.344313
v -3.117976 6.044115 2.722126
v -3.117976 6.221779 2.722126
v 3.094563 6.044115 2.722126
v 3.094563 6.221779 2.722126
v -3.097662 3.726317 2.344313
v -3.097662 3.903982 2.344313
v 3.074250 3.726317 2.344313
v 3.074250 3.903982 2.344313
v -3.097662 3.726317 2.722126
v -3.097662 3.903982 2.722126
v 3.074250 3.726317 2.722126
v 3.074250 3.903982 2.722126
v -2.999971 -0.000000 -2.500000
v -2.999971 8.230686 -2.500000
v 2.996766 -0.000000 -2.500000
v 2.996766 8.230686 -2.500000
v -3.011691 8.230686 2.500000
v 3.020823 8.230686 2.500000
v 2.996609 -0.000000 2.500000
v -3.000000 -0.000000 2.500000
v -2.247750 9.336233 -2.500000
v 2.244545 9.336233 -2.500000
v -2.325872 -0.000000 2.500000
v 2.314318 -0.000000 2.500000
v 0.549003 9.971691 2.500000
v -0.552208 9.971691 2.500000
v 0.740104 3.344737 2.500000
v -0.743310 3.344737 2.500000
v 0.740104 0.934918 2.500000
v -0.743310 0.934918 2.500000
v 0.549003 6.159488 2.500000
v -0.552208 6.159488 2.500000
v -1.001059 -0.000000 4.003991
v 0.997853 -0.000000 4.003991
v -0.001603 0.934918 4.003991
v 1.285100 0.934918 2.500000
v 1.285100 0.782885 2.500000
v 1.566341 0.782885 2.500000
v 1.566341 0.630850 2.500000
v 1.847583 0.630850 2.500000
v 1.847583 0.478817 2.500000
v 2.128825 0.478817 2.500000
v 2.128825 0.326783 2.500000
v 2.410067 0.326783 2.500000
v 2.410067 0.174749 2.500000
v 2.691308 0.174749 2.500000
v 2.691308 0.022715 2.500000
v 1.285099 0.934918 4.003991
v 2.691309 0.022715 4.003991
v 2.691309 0.174749 4.003991
v 2.410067 0.174749 4.003991
v 2.410067 0.326783 4.003991
v 2.128825 0.326783 4.003991
v 2.128825 0.478817 4.003991
v 1.847583 0.478817 4.003991
v 1.847583 0.630850 4.003991
v 1.566341 0.630850 4.003991
v 1.566341 0.782885 4.003991
v 1.285099 0.782885 4.003991
v -1.300828 0.934918 2.500000
v -2.707038 0.022715 2.500000
v -2.707038 0.174749 2.500000
v -2.425795 0.174749 2.500000
v -2.425795 0.326783 2.500000
v -2.144553 0.326783 2.500000
v -2.144553 0.478817 2.500000
v -1.863312 0.478817 2.500000
v -1.863312 0.630850 2.500000
v -1.582070 0.630850 2.500000
v -1.582070 0.782885 2.500000
v -1.300828 0.782885 2.500000
v -1.300828 0.934918 4.003991
v -1.300828 0.782885 4.003991
v -1.582070 0.782885 4.003991
v -1.582070 0.630850 4.003991
v -1.863312 0.630850 4.003991
v -1.863312 0.478817 4.003991
v -2.144554 0.478817 4.003991
v -2.144554 0.326783 4.003991
v -2.425796 0.326783 4.003991
v -2.425796 0.174749 4.003991
v -2.707038 0.174749 4.003991
v -2.707038 0.022715 4.003991
v 2.244545 9.336233 2.500000
v 1.180046 9.971691 2.500000
v 2.244545 3.344737 2.500000
v 1.180046 3.344737 2.500000
v 2.244545 6.159488 2.500000
v 1.180046 6.159488 2.500000
v -1.183385 9.971691 2.500000
v -2.247750 9.336233 2.500000
v -1.183385 3.344737 2.500000
v -2.247750 3.344737 2.500000
v -1.183385 6.159488 2.500000
v -2.247750 6.159488 2.500000
v -1.495530 11.911027 -2.500000
v 1.492325 11.911027 -2.500000
v 1.492325 11.911027 2.500000
v 0.549003 11.911325 2.500000
v -0.552208 11.911325 2.500000
v 2.244545 10.535426 -2.500000
v 2.244545 10.535426 2.500000
v -1.495530 11.911027 2.500000
v -2.247750 10.535426 2.500000
v -2.247750 10.535426 -2.500000
v -1.495530 12.616712 -2.500000
v -0.743310 13.306211 -2.500000
v 0.740104 13.306211 -2.500000
v 1.492325 12.616712 2.500000
v 0.740104 13.306211 2.500000
v -0.743310 13.306211 2.500000
v 1.492325 12.616712 -2.500000
v -1.495530 12.616712 2.500000
v 0.740104 1.537372 2.500000
v -0.743310 1.537372 2.500000
v 2.244545 1.552215 2.500000
v 1.180046 1.544794 2.500000
v -1.183385 1.544794 2.500000
v -2.247750 1.552215 2.500000
v 0.549003 3.877555 2.500000
v -0.552208 3.877555 2.500000
v 2.244545 3.877555 2.500000
v 1.180046 3.877555 2.500000
v -1.183385 3.877555 2.500000
v -2.247750 3.877555 2.500000
v 0.740104 3.344737 2.270574
v -0.743310 3.344737 2.270574
v 0.740104 0.934918 2.270574
v -0.743310 0.934918 2.270574
v 2.244545 3.344737 2.270574
v 1.180046 3.344737 2.270574
v -1.183385 3.344737 2.270574
v -2.247750 3.344737 2.270574
v -2.247750 1.552215 2.270574
v 2.244545 1.552215 2.270574
v -1.183385 1.544794 2.270574
v 1.180046 1.544794 2.270574
v -0.552208 8.230682 2.500000
v 1.180046 8.230682 2.500000
v -2.247750 8.230682 2.500000
v 2.244545 8.230683 2.500000
v -1.183385 8.230682 2.500000
v 0.549003 8.230683 2.500000
v 0.549003 7.728190 2.500000
v -0.552208 7.728190 2.500000
v 2.244545 7.728190 2.500000
v 1.180046 7.728190 2.500000
v -1.183385 7.728190 2.500000
v -2.247750 7.728190 2.500000
v -2.247750 5.637664 2.500000
v -0.552208 5.637664 2.500000
v 2.244545 5.637664 2.500000
v -1.183385 5.637664 2.500000
v 1.180046 5.637664 2.500000
v 0.549003 5.637664 2.500000
v 0.549003 10.535426 2.500000
v -0.552208 10.535427 2.500000
v 0.549003 9.971691 2.315631
v -0.552208 9.971691 2.315631
v 0.549003 6.159488 2.315631
v -0.552208 6.159488 2.315631
v 0.549003 7.728190 2.315631
v -0.552208 7.728190 2.315631
v 2.244545 6.159488 2.315631
v 1.180046 6.159488 2.315631
v 2.244545 7.728190 2.315631
v 1.180046 7.728190 2.315631
v -1.183385 6.159488 2.315631
v -2.247750 6.159488 2.315631
v -1.183385 7.728190 2.315631
v -2.247750 7.728190 2.315631
v 0.549003 11.911325 2.315631
v -0.552208 11.911325 2.315631
v 0.549003 10.535426 2.315631
v -2.247750 5.637664 2.315631
v -2.247750 3.877555 2.315631
v -0.552208 5.637664 2.315631
v -0.552208 3.877555 2.315631
v 2.244545 5.637664 2.315631
v 2.244545 3.877555 2.315631
v -1.183385 5.637664 2.315631
v -1.183385 3.877555 2.315631
v 1.180046 5.637664 2.315631
v 1.180046 3.877555 2.315631
v 0.549003 5.637664 2.315631
v 0.549003 3.877555 2.315631
v -0.552208 8.230682 2.315631
v 1.180046 9.971691 2.315631
v 1.180046 8.230682 2.315631
v -1.183385 9.971691 2.315631
v -1.183385 8.230682 2.315631
v 0.549003 8.230683 2.315631
v -2.247750 8.230682 2.315631
v 2.244545 8.230683 2.315631
v -0.552208 10.535427 2.315631
vn 1.0000 -0.0000 -0.0000
vn -0.0000 -0.0000 1.0000
vn -1.0000 -0.0000 -0.0000
vn -0.0000 -1.0000 -0.0000
vn -0.0000 1.0000 -0.0000
vn -0.8247 0.5655 -0.0010
vn -0.0000 -0.0000 -1.0000
vn 0.8226 0.5686 -0.0020
vn 0.8774 0.4798 -0.0000
vn -0.8774 0.4798 -0.0000
vn 0.6757 0.7372 -0.0000
vn -0.6757 0.7372 -0.0000
vn 0.0070 1.0000 -0.0000
vn -1.0000 -0.0007 -0.0012
vn 1.0000 -0.0015 -0.0024
vn -0.0070 1.0000 -0.0000
vn 0.8532 -0.5216 -0.0000
vn -0.8532 -0.5216 -0.0000
vt 0.579830 0.949029
vt 0.592654 0.831171
vt 0.612111 0.949029
vt 0.678032 0.831171
vt 0.579830 0.852187
vt 0.592654 0.802711
vt 0.612111 0.852187
vt 0.678032 0.802711
vt 0.579830 0.916748
vt 0.621113 0.831171
vt 0.612111 0.916748
vt 0.649573 0.831171
vt 0.579830 0.884467
vt 0.621113 0.802711
vt 0.612111 0.884467
vt 0.649573 0.802711
vt 0.579830 0.949029
vt 0.547549 0.916748
vt 0.612111 0.949029
vt 0.644392 0.916748
vt 0.579830 0.852187
vt 0.547549 0.884467
vt 0.612111 0.852187
vt 0.644392 0.884467
vt 0.579830 0.916748
vt 0.612111 0.916748
vt 0.579830 0.884467
vt 0.612111 0.884467
vt 0.579830 0.949029
vt 0.547549 0.916748
vt 0.612111 0.949029
vt 0.644392 0.916748
vt 0.579830 0.852187
vt 0.547549 0.884467
vt 0.612111 0.852187
vt 0.644392 0.884467
vt 0.579830 0.916748
vt 0.612111 0.916748
vt 0.579830 0.884467
vt 0.612111 0.884467
vt 0.579830 0.949029
vt 0.547549 0.916748
vt 0.612111 0.949029
vt 0.644392 0.916748
vt 0.579830 0.852187
vt 0.547549 0.884467
vt 0.612111 0.852187
vt 0.644392 0.884467
vt 0.579830 0.916748
vt 0.612111 0.916748
vt 0.579830 0.884467
vt 0.612111 0.884467
vt 0.541968 0.145578
vt 0.549828 0.150337
vt 0.056460 0.860736
vt 0.551466 0.141398
vt 0.543084 0.144840
vt 0.550076 0.148788
vt 0.563838 0.144798
vt 0.556093 0.150133
vt 0.553875 0.141256
vt 0.064415 0.860347
vt 0.562618 0.144081
vt 0.555766 0.148600
vt 0.547628 0.133057
vt 0.055917 0.854265
vt 0.541487 0.128815
vt 0.548073 0.133256
vt 0.545676 0.131634
vt 0.544930 0.131298
vt 0.064275 0.853837
vt 0.559471 0.130478
vt 0.562847 0.127615
vt 0.556431 0.132827
vt 0.556902 0.132567
vt 0.558771 0.130869
vt 0.569858 0.122406
vt 0.564057 0.126977
vt 0.534671 0.124831
vt 0.532570 0.124153
vt 0.540262 0.128300
vt 0.057695 0.860328
vt 0.549851 0.139319
vt 0.551668 0.140042
vt 0.063171 0.860020
vt 0.554396 0.139584
vt 0.555327 0.139010
vt 0.553550 0.139916
vt 0.534591 0.119844
vt 0.540334 0.112980
vt 0.561655 0.111019
vt 0.569155 0.117001
vt 0.552904 0.132841
vt 0.551560 0.132906
vt 0.555144 0.120921
vt 0.547925 0.121702
vt 0.096846 0.852477
vt 0.557012 0.109321
vt 0.083972 0.853758
vt 0.544139 0.110602
vt 0.553465 0.127958
vt 0.550474 0.128270
vt 0.077571 0.806001
vt 0.096810 0.805021
vt 0.080272 0.811869
vt 0.094782 0.810982
vt 0.101267 0.851999
vt 0.102404 0.851870
vt 0.104196 0.851671
vt 0.105319 0.851543
vt 0.107083 0.851349
vt 0.108189 0.851224
vt 0.109924 0.851035
vt 0.111011 0.850913
vt 0.112714 0.850728
vt 0.113783 0.850611
vt 0.115453 0.850431
vt 0.116506 0.850317
vt 0.096794 0.811731
vt 0.112265 0.812296
vt 0.111534 0.812930
vt 0.109337 0.812112
vt 0.108586 0.812724
vt 0.106336 0.811817
vt 0.105585 0.812428
vt 0.103352 0.811528
vt 0.102605 0.812137
vt 0.100411 0.811258
vt 0.099671 0.811867
vt 0.097549 0.811051
vt 0.079361 0.853936
vt 0.060919 0.853869
vt 0.061730 0.853907
vt 0.064468 0.854009
vt 0.065132 0.854030
vt 0.067920 0.854084
vt 0.068596 0.854095
vt 0.071438 0.854099
vt 0.072125 0.854101
vt 0.075017 0.854057
vt 0.075715 0.854048
vt 0.078654 0.853958
vt 0.078251 0.812906
vt 0.077379 0.812308
vt 0.075360 0.813380
vt 0.074521 0.812852
vt 0.072429 0.813984
vt 0.071592 0.813452
vt 0.069457 0.814607
vt 0.068627 0.814072
vt 0.066470 0.815235
vt 0.065652 0.814699
vt 0.063532 0.815764
vt 0.062746 0.815207
vt 0.062930 0.854111
vt 0.555087 0.133102
vt 0.553655 0.132988
vt 0.561849 0.124246
vt 0.557105 0.121566
vt 0.557559 0.129723
vt 0.554932 0.128389
vt 0.550826 0.133186
vt 0.057185 0.854435
vt 0.549342 0.133425
vt 0.546139 0.122545
vt 0.542080 0.125760
vt 0.549027 0.128668
vt 0.546788 0.130362
vt 0.059084 0.859347
vt 0.551916 0.138588
vt 0.551241 0.138338
vt 0.061662 0.859179
vt 0.553818 0.138170
vt 0.553142 0.138521
vt 0.061501 0.855061
vt 0.553658 0.134051
vt 0.552707 0.134098
vt 0.551948 0.134210
vt 0.062319 0.859298
vt 0.554476 0.138289
vt 0.062255 0.854804
vt 0.554411 0.133795
vt 0.058779 0.855232
vt 0.550936 0.134222
vt 0.058078 0.855078
vt 0.550235 0.134068
vt 0.058328 0.859585
vt 0.550485 0.138576
vt 0.059510 0.858764
vt 0.551667 0.137754
vt 0.059969 0.858640
vt 0.552125 0.137631
vt 0.060623 0.858628
vt 0.552780 0.137619
vt 0.061020 0.855649
vt 0.553176 0.134640
vt 0.060552 0.855781
vt 0.552709 0.134772
vt 0.059861 0.855819
vt 0.552018 0.134809
vt 0.061070 0.858663
vt 0.553226 0.137654
vt 0.059426 0.855769
vt 0.551583 0.134759
vt 0.557473 0.113850
vt 0.544738 0.114656
vt 0.566995 0.119016
vt 0.560134 0.114487
vt 0.542342 0.115803
vt 0.536866 0.121356
vt 0.554175 0.122453
vt 0.549126 0.123040
vt 0.560907 0.125534
vt 0.556601 0.123147
vt 0.546841 0.123843
vt 0.543206 0.126749
vt 0.016520 0.778230
vt 0.552971 0.118741
vt 0.013151 0.778261
vt 0.549602 0.118771
vt 0.017425 0.774469
vt 0.553535 0.113335
vt 0.553875 0.114979
vt 0.012447 0.774231
vt 0.549216 0.113304
vt 0.548898 0.114742
vt 0.880728 0.122952
vt 0.561336 0.121649
vt 0.982481 0.123341
vt 0.560139 0.120439
vt 0.543311 0.122173
vt 0.982481 0.225316
vt 0.880421 0.225396
vt 0.541926 0.123041
vt 0.880728 0.122952
vt 0.540864 0.121319
vt 0.880421 0.225396
vt 0.562844 0.120158
vt 0.542466 0.120257
vt 0.982481 0.123341
vt 0.982481 0.225316
vt 0.561455 0.118708
vt 0.551173 0.131239
vt 0.553896 0.131347
vt 0.548747 0.132608
vt 0.555660 0.132210
vt 0.550340 0.131502
vt 0.553025 0.131096
vt 0.553071 0.130535
vt 0.551069 0.130746
vt 0.555983 0.131739
vt 0.554089 0.130858
vt 0.550055 0.131029
vt 0.548391 0.132209
vt 0.546126 0.129752
vt 0.550226 0.127404
vt 0.558094 0.128918
vt 0.548580 0.127883
vt 0.555185 0.127505
vt 0.553492 0.127031
vt 0.553664 0.133476
vt 0.552846 0.133223
vt 0.550882 0.133669
vt 0.551703 0.133302
vt 0.880728 0.122952
vt 0.552440 0.132446
vt 0.982481 0.123341
vt 0.551909 0.132376
vt 0.880421 0.225396
vt 0.552584 0.129082
vt 0.982481 0.225316
vt 0.551636 0.129035
vt 0.880728 0.122952
vt 0.552389 0.129945
vt 0.982481 0.123341
vt 0.551597 0.129926
vt 0.982481 0.123341
vt 0.556284 0.130202
vt 0.880728 0.122952
vt 0.555523 0.129673
vt 0.982481 0.225316
vt 0.555683 0.130843
vt 0.880421 0.225396
vt 0.555016 0.130413
vt 0.880421 0.225396
vt 0.548860 0.130039
vt 0.982481 0.225316
vt 0.548071 0.130453
vt 0.880728 0.122952
vt 0.549132 0.130861
vt 0.982481 0.123341
vt 0.548452 0.131224
vt 0.552448 0.133889
vt 0.880421 0.225396
vt 0.552162 0.133886
vt 0.880728 0.122952
vt 0.982481 0.225316
vt 0.552511 0.133616
vt 0.880421 0.225396
vt 0.546121 0.128245
vt 0.880728 0.122952
vt 0.545344 0.126877
vt 0.880421 0.225396
vt 0.551037 0.126044
vt 0.880728 0.122952
vt 0.551064 0.124344
vt 0.880728 0.122952
vt 0.557689 0.127495
vt 0.880421 0.225396
vt 0.558823 0.126323
vt 0.982481 0.225316
vt 0.547191 0.127622
vt 0.982481 0.123341
vt 0.546665 0.126134
vt 0.982481 0.123341
vt 0.556602 0.126785
vt 0.982481 0.225316
vt 0.557530 0.125384
vt 0.982481 0.225316
vt 0.552391 0.126055
vt 0.982481 0.123341
vt 0.552743 0.124404
vt 0.982481 0.225316
vt 0.551887 0.131723
vt 0.809622 0.220313
vt 0.554093 0.132410
vt 0.841130 0.167156
vt 0.554254 0.132092
vt 0.778719 0.166653
vt 0.550194 0.132661
vt 0.809622 0.220313
vt 0.550161 0.132286
vt 0.880421 0.225396
vt 0.552511 0.131794
vt 0.841130 0.167156
vt 0.549816 0.132420
vt 0.778719 0.166653
vt 0.554515 0.132338
vt 0.982481 0.123341
vt 0.552176 0.133593
s 0
usemtl BasicTexture
f 3/5/1 4/7/1 8/15/1 7/13/1
f 7/13/2 8/15/2 6/11/2 5/9/2
f 5/9/3 6/11/3 2/3/3 1/1/3
f 3/6/4 7/14/4 5/10/4 1/2/4
f 8/16/5 4/8/5 2/4/5 6/12/5
f 11/21/1 12/23/1 16/28/1 15/27/1
f 15/27/2 16/28/2 14/26/2 13/25/2
f 13/25/3 14/26/3 10/19/3 9/17/3
f 11/22/4 15/27/4 13/25/4 9/18/4
f 16/28/5 12/24/5 10/20/5 14/26/5
f 19/33/1 20/35/1 24/40/1 23/39/1
f 23/39/2 24/40/2 22/38/2 21/37/2
f 21/37/3 22/38/3 18/31/3 17/29/3
f 19/34/4 23/39/4 21/37/4 17/30/4
f 24/40/5 20/36/5 18/32/5 22/38/5
f 27/45/1 28/47/1 32/52/1 31/51/1
f 31/51/2 32/52/2 30/50/2 29/49/2
f 29/49/3 30/50/3 26/43/3 25/41/3
f 27/46/4 31/51/4 29/49/4 25/42/4
f 32/52/5 28/48/5 26/44/5 30/50/5
f 169/254/2 160/245/2 37/65/2
f 111/163/6 41/82/6 34/55/6 37/66/6
f 37/67/2 145/216/2 170/255/2
f 40/79/2 139/210/2 113/166/2
f 105/157/2 104/156/2 122/182/2 176/261/2
f 167/252/2 159/244/2 163/248/2 164/249/2
f 164/249/2 163/248/2 158/243/2 165/250/2
f 34/56/7 41/84/7 42/88/7 36/61/7
f 54/104/2 55/105/2 53/103/2
f 49/97/5 50/99/5 55/106/5
f 49/97/5 55/106/5 68/119/5 56/107/5
f 55/105/5 50/99/5 80/131/5 92/143/5
f 69/120/1 67/118/1 66/117/1 70/121/1
f 70/121/5 66/117/5 65/116/5 71/122/5
f 71/122/1 65/116/1 64/115/1 72/123/1
f 72/123/5 64/115/5 63/114/5 73/124/5
f 73/124/1 63/114/1 62/113/1 74/125/1
f 74/125/5 62/113/5 61/112/5 75/126/5
f 75/126/1 61/112/1 60/111/1 76/127/1
f 76/127/5 60/111/5 59/110/5 77/128/5
f 77/128/1 59/110/1 58/109/1 78/129/1
f 78/129/5 58/109/5 57/108/5 79/130/5
f 79/130/1 57/108/1 56/107/1 68/119/1
f 92/143/3 80/131/3 91/142/3 93/144/3
f 93/144/5 91/142/5 90/141/5 94/145/5
f 94/145/3 90/141/3 89/140/3 95/146/3
f 95/146/5 89/140/5 88/139/5 96/147/5
f 96/147/3 88/139/3 87/138/3 97/148/3
f 97/148/5 87/138/5 86/137/5 98/149/5
f 98/149/3 86/137/3 85/136/3 99/150/3
f 99/150/5 85/136/5 84/135/5 100/151/5
f 100/151/3 84/135/3 83/134/3 101/152/3
f 101/152/5 83/134/5 82/133/5 102/153/5
f 102/153/3 82/133/3 81/132/3 103/154/3
f 102/153/2 103/154/2 101/152/2
f 100/151/2 101/152/2 99/150/2
f 98/149/2 99/150/2 97/148/2
f 96/147/2 97/148/2 95/146/2
f 94/145/2 95/146/2 93/144/2
f 92/143/2 93/144/2 55/105/2
f 53/103/2 101/152/2 103/154/2
f 101/152/2 53/103/2 99/150/2
f 99/150/2 53/103/2 97/148/2
f 97/148/2 53/103/2 95/146/2
f 95/146/2 53/103/2 93/144/2
f 55/105/2 93/144/2 53/103/2
f 68/119/2 55/106/2 79/130/2
f 78/129/2 79/130/2 77/128/2
f 76/127/2 77/128/2 75/126/2
f 74/125/2 75/126/2 73/124/2
f 70/121/2 71/122/2 69/120/2
f 72/123/2 73/124/2 71/122/2
f 71/122/2 54/104/2 69/120/2
f 73/124/2 54/104/2 71/122/2
f 75/126/2 54/104/2 73/124/2
f 77/128/2 54/104/2 75/126/2
f 79/130/2 54/104/2 77/128/2
f 55/106/2 54/104/2 79/130/2
f 38/74/2 161/246/2 166/251/2
f 166/251/2 161/246/2 159/244/2 167/252/2
f 38/71/8 36/62/8 42/85/8 104/155/8
f 46/94/2 45/93/2 176/262/2 177/264/2
f 173/258/2 144/215/2 141/212/2 171/256/2
f 112/165/2 138/209/2 135/206/2 48/96/2
f 106/158/2 136/207/2 39/78/2
f 172/257/2 142/213/2 38/72/2
f 175/260/2 140/211/2 143/214/2 174/259/2
f 47/95/2 134/205/2 137/208/2 107/159/2
f 111/164/2 110/162/2 177/263/2 124/186/2
f 165/250/2 158/243/2 162/247/2 168/253/2
f 168/253/2 162/247/2 160/245/2 169/254/2
f 117/174/7 116/170/7 127/192/7 128/194/7
f 120/178/2 119/177/2 130/198/2 131/200/2
f 122/181/9 121/179/9 117/172/9 118/175/9
f 116/171/3 123/184/3 133/204/3 126/190/3
f 123/183/10 116/169/10 125/187/10 124/185/10
f 42/86/7 117/173/7 121/180/7
f 41/83/7 125/188/7 116/171/7
f 41/83/3 111/164/3 124/186/3 125/188/3
f 104/156/1 42/87/1 121/180/1 122/182/1
f 42/88/7 41/84/7 116/170/7 117/174/7
f 110/162/2 46/94/2 177/263/2
f 45/93/2 105/157/2 176/262/2
f 129/195/11 132/201/11 128/193/11 130/197/11
f 130/197/5 128/193/5 127/191/5 131/199/5
f 131/199/12 127/191/12 126/189/12 133/203/12
f 118/176/1 117/173/1 132/202/1 129/196/1
f 117/174/7 128/194/7 132/202/7
f 119/177/2 118/176/2 129/196/2 130/198/2
f 123/184/2 120/178/2 131/200/2 133/204/2
f 116/171/7 126/190/7 127/192/7
f 49/98/3 134/205/3 148/222/3
f 139/210/13 138/209/13 156/239/13 154/236/13
f 138/209/3 112/165/3 152/231/3 156/239/3
f 43/89/2 139/210/2 40/80/2
f 44/91/2 137/208/2 134/205/2 49/98/2
f 112/165/4 113/166/4 153/234/4 152/231/4
f 39/77/2 136/207/2 44/92/2
f 44/92/2 136/207/2 137/208/2
f 50/100/2 135/206/2 138/209/2 43/90/2
f 43/90/2 138/209/2 139/210/2
f 162/247/3 110/162/3 210/330/3 211/332/3
f 141/212/5 140/211/5 206/322/5 198/306/5
f 119/177/4 120/178/4 193/295/4 192/293/4
f 40/81/14 37/67/14 34/57/14 33/53/14
f 113/166/2 145/216/2 37/67/2 40/81/2
f 35/59/15 36/63/15 38/73/15 39/78/15
f 33/54/7 34/58/7 36/64/7 35/60/7
f 107/159/2 143/214/2 140/211/2 47/95/2
f 47/95/2 140/211/2 141/212/2 48/96/2
f 39/78/2 38/73/2 142/213/2 106/158/2
f 106/158/2 142/213/2 143/214/2 107/159/2
f 48/96/2 141/212/2 144/215/2 112/165/2
f 112/165/2 144/215/2 145/216/2 113/166/2
f 147/219/2 149/224/2 148/221/2 146/217/2
f 151/229/2 157/241/2 155/237/2 150/227/2
f 153/233/2 154/235/2 156/240/2 152/232/2
f 137/208/16 136/207/16 155/238/16 157/242/16
f 50/100/5 49/98/5 148/222/5 149/225/5
f 135/206/1 50/100/1 149/226/1
f 48/96/1 135/206/1 149/226/1 147/220/1
f 47/95/4 48/96/4 147/220/4 146/218/4
f 136/207/3 106/158/3 150/228/3 155/238/3
f 107/159/1 137/208/1 157/242/1 151/230/1
f 113/166/1 139/210/1 154/236/1 153/234/1
f 134/205/3 47/95/3 146/218/3 148/223/3
f 106/158/4 107/159/4 151/230/4 150/228/4
f 176/262/3 119/177/3 192/293/3 194/298/3
f 161/246/2 38/74/2 104/156/2
f 168/253/4 169/254/4 191/292/4 190/290/4
f 144/215/3 173/258/3 201/312/3 202/314/3
f 162/247/2 158/243/2 46/94/2 110/162/2
f 37/68/2 160/245/2 111/164/2
f 105/157/1 159/244/1 209/328/1 208/326/1
f 163/248/2 159/244/2 105/157/2 45/93/2
f 52/102/2 165/250/2 168/253/2 114/167/2
f 175/260/4 171/256/4 197/304/4 205/320/4
f 38/75/2 166/251/2 108/160/2
f 120/178/1 177/264/1 215/340/1 193/295/1
f 109/161/2 167/252/2 164/249/2 51/101/2
f 115/168/2 169/254/2 37/69/2
f 115/168/2 170/255/2 173/258/2 114/167/2
f 109/161/2 174/259/2 172/257/2 108/160/2
f 52/102/2 171/256/2 175/260/2 51/101/2
f 51/101/2 175/260/2 174/259/2 109/161/2
f 108/160/2 172/257/2 38/76/2
f 114/167/2 173/258/2 171/256/2 52/102/2
f 37/70/2 170/255/2 115/168/2
f 110/162/2 111/164/2 160/245/2
f 105/157/2 161/246/2 104/156/2
f 124/186/2 177/263/2 123/184/2
f 176/261/2 118/176/2 119/177/2
f 46/94/1 158/243/1 207/324/1 179/268/1
f 176/261/2 122/182/2 118/176/2
f 177/264/2 120/178/2 123/184/2
f 197/303/2 198/305/2 206/321/2 205/319/2
f 203/315/2 204/317/2 200/309/2 199/307/2
f 195/299/2 196/301/2 202/313/2 201/311/2
f 188/285/2 190/289/2 191/291/2 189/287/2
f 213/335/2 211/331/2 210/329/2
f 209/327/2 214/337/2 208/325/2
f 207/323/2 212/333/2 178/265/2 179/267/2
f 184/277/2 186/281/2 187/283/2 185/279/2
f 180/269/2 182/273/2 183/275/2 181/271/2
f 215/339/2 194/297/2 192/294/2 193/296/2
f 177/264/5 176/262/5 194/298/5 215/340/5
f 163/248/3 45/93/3 178/266/3 212/334/3
f 143/214/5 142/213/5 200/310/5 204/318/5
f 170/255/1 145/216/1 196/302/1 195/300/1
f 174/259/1 143/214/1 204/318/1 203/316/1
f 160/245/5 162/247/5 211/332/5 213/336/5
f 140/211/3 175/260/3 205/320/3 206/322/3
f 159/244/5 161/246/5 214/338/5 209/328/5
f 109/161/5 108/160/5 184/278/5 185/280/5
f 166/251/4 167/252/4 187/284/4 186/282/4
f 52/102/5 51/101/5 180/270/5 181/272/5
f 110/162/17 160/245/17 213/336/17 210/330/17
f 173/258/4 170/255/4 195/300/4 201/312/4
f 161/246/18 105/157/18 208/326/18 214/338/18
f 158/243/5 163/248/5 212/334/5 207/324/5
f 171/256/1 141/212/1 198/306/1 197/304/1
f 108/160/3 166/251/3 186/282/3 184/278/3
f 145/216/5 144/215/5 202/314/5 196/302/5
f 115/168/5 114/167/5 188/286/5 189/288/5
f 114/167/3 168/253/3 190/290/3 188/286/3
f 142/213/3 172/257/3 199/308/3 200/310/3
f 167/252/1 109/161/1 185/280/1 187/284/1
f 51/101/3 164/249/3 182/274/3 180/270/3
f 164/249/4 165/250/4 183/276/4 182/274/4
f 172/257/4 174/259/4 203/316/4 199/308/4
f 169/254/1 115/168/1 189/288/1 191/292/1
f 45/93/4 46/94/4 179/268/4 178/266/4
f 165/250/1 52/102/1 181/272/1 183/276/1
