# Blender 3.5.1
# www.blender.org
mtllib NormalTriangleYellow.mtl
o ZwyklyTrojkatnyZolty
v 2.327008 7.605582 0.919772
v 3.090263 6.311089 2.418265
v 2.327008 7.605582 2.418265
v 1.563752 6.311089 2.418265
v 2.327008 7.405037 2.418265
v 1.741119 6.411362 2.418265
v 2.912896 6.411362 2.418265
v 2.327008 7.405037 2.356872
v 1.741119 6.411362 2.356872
v 2.912896 6.411362 2.356872
v 0.037241 7.605582 0.919772
v 0.800496 6.311089 2.418265
v 0.037241 7.605582 2.418265
v -0.726015 6.311089 2.418265
v 0.037241 7.405037 2.418265
v -0.548647 6.411362 2.418265
v 0.623129 6.411362 2.418265
v 0.037241 7.405037 2.356872
v -0.548647 6.411362 2.356872
v 0.623129 6.411362 2.356872
v -2.252525 7.605582 0.919772
v -1.489270 6.311089 2.418265
v -2.252525 7.605582 2.418265
v -3.015781 6.311089 2.418264
v -2.252525 7.405037 2.418265
v -2.838413 6.411362 2.418264
v -1.666638 6.411362 2.418265
v -2.252525 7.405037 2.356872
v -2.838413 6.411362 2.356871
v -1.666638 6.411362 2.356872
v 3.499999 0.000001 -2.500815
v 3.499999 8.067412 -2.500815
v -3.503852 0.000001 -2.500815
v -3.503852 8.067412 -2.500815
v 3.499999 0.000001 2.500000
v 3.499999 6.249906 2.500000
v -3.503852 0.000001 2.500000
v -3.503852 6.249906 2.500000
v -3.503852 8.067412 0.688620
v 3.499999 8.067412 0.688621
v -1.467432 0.000001 2.500000
v -1.477349 1.110658 2.500000
v -1.477349 3.240841 2.500000
v -1.477349 4.114521 2.500000
v -1.477349 5.524468 2.500000
v -2.984155 0.000001 2.500000
v -3.005785 1.110658 2.500000
v -3.005785 3.240841 2.500000
v -3.005785 4.114521 2.500000
v -3.005785 5.524468 2.500000
v -3.005785 1.110658 2.341828
v -1.477349 1.110658 2.341828
v -3.005785 3.240841 2.341828
v -1.477349 3.240841 2.341828
v 0.793083 1.747824 2.500000
v 0.793083 3.240841 2.500000
v 0.793083 4.114521 2.500000
v 0.793083 5.524468 2.500000
v 1.588579 1.747824 2.500000
v 1.588579 3.240841 2.500000
v 1.588579 4.114521 2.500000
v 1.588579 5.524468 2.500000
v -0.716816 1.747824 2.500000
v -0.716816 3.240841 2.500000
v -0.716816 4.114521 2.500000
v -0.716816 5.524468 2.500000
v 3.084044 1.747824 2.500000
v 3.084044 3.240841 2.500000
v 3.084044 4.114521 2.500000
v 3.084044 5.524468 2.500000
v -3.005785 4.114521 2.360406
v -1.477349 4.114521 2.360407
v -3.005785 5.524468 2.360406
v -1.477349 5.524468 2.360407
v -0.716816 1.747824 2.360407
v 0.793083 1.747824 2.360407
v -0.716816 3.240841 2.360407
v 0.793083 3.240841 2.360407
v -0.716816 4.114521 2.360407
v 0.793083 4.114521 2.360407
v -0.716816 5.524468 2.360407
v 0.793083 5.524468 2.360407
v 1.588579 5.524468 2.360407
v 1.588579 4.114521 2.360407
v 1.588579 3.240841 2.360407
v 1.588579 1.747824 2.360407
v 3.084044 1.747824 2.360407
v 3.084044 3.240841 2.360407
v 3.084044 4.114521 2.360407
v 3.084044 5.524468 2.360407
v 3.499999 1.112117 2.500000
v -3.005718 1.107241 2.500000
v -3.007317 1.107242 2.500000
v -3.503852 1.107240 2.500000
v 3.499999 1.108780 -2.500815
v -3.503852 1.109692 -2.500815
v 3.082516 3.319175 2.469654
v 3.082516 3.454156 2.469654
v 1.591716 3.319175 2.469653
v 1.591716 3.454156 2.469653
v 3.082516 3.319175 2.735040
v 3.082516 3.454156 2.735040
v 1.591716 3.319175 2.735040
v 1.591716 3.454156 2.735040
v 0.794138 3.319175 2.469653
v 0.794138 3.454156 2.469653
v -0.696661 3.319175 2.469653
v -0.696661 3.454156 2.469653
v 0.794138 3.319175 2.735040
v 0.794138 3.454156 2.735040
v -0.696661 3.319175 2.735040
v -0.696661 3.454156 2.735040
v -1.494239 3.319175 2.469653
v -1.494239 3.454156 2.469653
v -2.985039 3.319175 2.469653
v -2.985039 3.454156 2.469653
v -1.494239 3.319175 2.735040
v -1.494239 3.454156 2.735040
v -2.985039 3.319175 2.735040
v -2.985039 3.454156 2.735040
v -1.299871 -0.003236 2.320511
v -1.299871 1.114904 2.320511
v -3.179514 -0.003236 2.320510
v -3.179514 1.114904 2.320510
v -1.299871 -0.003236 4.032002
v -3.179514 -0.003236 4.032002
v -1.299871 0.211074 4.032002
v -1.299871 0.211074 3.793316
v -1.299871 0.437031 3.793316
v -1.299871 0.437031 3.554630
v -1.299871 0.662989 3.554630
v -1.299871 0.662989 3.315944
v -1.299871 0.888946 3.315944
v -1.299871 0.888946 3.077258
v -1.299871 1.114904 3.077258
v -3.179514 0.211074 4.032002
v -3.179514 1.114904 3.077257
v -3.179514 0.888946 3.077257
v -3.179514 0.888946 3.315944
v -3.179514 0.662989 3.315944
v -3.179514 0.662989 3.554630
v -3.179514 0.437031 3.554630
v -3.179514 0.437031 3.793316
v -3.179514 0.211074 3.793316
v 3.082516 5.602157 2.495434
v 3.082516 5.737138 2.495434
v 1.591716 5.602157 2.495433
v 1.591716 5.737138 2.495433
v 3.082516 5.602157 2.746590
v 3.082516 5.737138 2.746590
v 1.591716 5.602157 2.746589
v 1.591716 5.737138 2.746589
v 0.794138 5.602157 2.495433
v 0.794138 5.737138 2.495433
v -0.696661 5.602157 2.495433
v -0.696661 5.737138 2.495433
v 0.794138 5.602157 2.746589
v 0.794138 5.737138 2.746589
v -0.696661 5.602157 2.746589
v -0.696661 5.737138 2.746589
v -1.494239 5.602157 2.495433
v -1.494239 5.737138 2.495433
v -2.985039 5.602157 2.495433
v -2.985039 5.737138 2.495433
v -1.494239 5.602157 2.746589
v -1.494239 5.737138 2.746589
v -2.985039 5.602157 2.746589
v -2.985039 5.737138 2.746589
v -2.752714 2.060959 2.306978
v -2.752714 2.183581 2.306978
v -2.897314 2.060959 2.306978
v -2.897314 2.183581 2.306978
v -2.752714 2.060959 2.438176
v -2.752714 2.183581 2.438176
v -2.897314 2.060959 2.438176
v -2.897314 2.183581 2.438176
vn 0.8614 -0.5079 -0.0000
vn -0.0000 -0.0000 -1.0000
vn -0.8614 -0.5079 -0.0000
vn 0.8614 0.5079 -0.0000
vn -0.0000 -1.0000 -0.0000
vn -0.8614 0.5079 -0.0000
vn -1.0000 -0.0000 -0.0000
vn 1.0000 -0.0000 -0.0000
vn -0.0000 1.0000 -0.0000
vn -0.0000 -0.0000 1.0000
vn -0.0000 -0.7059 -0.7083
vt 0.092160 0.859645
vt 0.144393 0.801248
vt 0.419352 0.435885
vt 0.144393 0.859645
vt 0.419352 0.298185
vt 0.144393 0.918043
vt 0.309245 0.379349
vt 0.410812 0.315054
vt 0.322511 0.377788
vt 0.412112 0.422079
vt 0.847118 0.163860
vt 0.407141 0.325689
vt 0.772829 0.163550
vt 0.332614 0.375354
vt 0.809741 0.224766
vt 0.405392 0.414247
vt 0.092160 0.859645
vt 0.144393 0.801248
vt 0.419352 0.435885
vt 0.144393 0.859645
vt 0.419352 0.298185
vt 0.144393 0.918043
vt 0.309245 0.379349
vt 0.410812 0.315054
vt 0.322511 0.377788
vt 0.412112 0.422079
vt 0.847118 0.163860
vt 0.407141 0.325689
vt 0.772829 0.163550
vt 0.332614 0.375354
vt 0.809741 0.224766
vt 0.405392 0.414247
vt 0.092160 0.859645
vt 0.144393 0.801248
vt 0.419352 0.435885
vt 0.144393 0.859645
vt 0.419352 0.298185
vt 0.144393 0.918043
vt 0.309245 0.379349
vt 0.410812 0.315054
vt 0.322511 0.377788
vt 0.412112 0.422079
vt 0.847118 0.163860
vt 0.407141 0.325689
vt 0.772829 0.163550
vt 0.332614 0.375354
vt 0.809741 0.224766
vt 0.405392 0.414247
vt 0.299387 0.468708
vt 0.031608 0.576369
vt 0.286037 0.476638
vt 0.051527 0.958349
vt 0.299387 0.274395
vt 0.208755 0.581025
vt 0.453147 0.468708
vt 0.463184 0.463526
vt 0.187018 0.958349
vt 0.453147 0.274395
vt 0.158916 0.575889
vt 0.176424 0.576369
vt 0.305721 0.303881
vt 0.051527 0.811227
vt 0.430854 0.438443
vt 0.077998 0.581025
vt 0.170799 0.722369
vt 0.332427 0.429040
vt 0.187018 0.811227
vt 0.305367 0.421444
vt 0.379790 0.463526
vt 0.187018 0.871935
vt 0.051527 0.871935
vt 0.378399 0.476638
vt 0.171972 0.649023
vt 0.149652 0.630832
vt 0.410894 0.369953
vt 0.404082 0.348090
vt 0.407665 0.363772
vt 0.369003 0.386675
vt 0.349722 0.388301
vt 0.319192 0.388774
vt 0.171972 0.715249
vt 0.409300 0.429994
vt 0.366518 0.421306
vt 0.346295 0.418941
vt 0.316665 0.416181
vt 0.409934 0.427006
vt 0.162214 0.922787
vt 0.224982 0.922787
vt 0.412375 0.373590
vt 0.162214 0.824754
vt 0.370618 0.418140
vt 0.224982 0.824754
vt 0.373183 0.389545
vt 0.391291 0.337665
vt 0.363669 0.343305
vt 0.346919 0.346343
vt 0.318815 0.346886
vt 0.389934 0.326023
vt 0.362740 0.330337
vt 0.346553 0.333309
vt 0.318457 0.333827
vt 0.396920 0.362333
vt 0.367421 0.372182
vt 0.349888 0.375028
vt 0.319956 0.375126
vt 0.385985 0.301853
vt 0.358933 0.305021
vt 0.342872 0.306436
vt 0.316290 0.308174
vt 0.880696 0.233851
vt 0.342572 0.415529
vt 0.982871 0.233851
vt 0.346193 0.392434
vt 0.880696 0.124200
vt 0.319795 0.412702
vt 0.982871 0.124200
vt 0.322673 0.391778
vt 0.880696 0.233851
vt 0.392907 0.360606
vt 0.982871 0.233851
vt 0.389503 0.341499
vt 0.880696 0.124200
vt 0.369711 0.367220
vt 0.982871 0.124200
vt 0.367740 0.345321
vt 0.880696 0.233851
vt 0.345618 0.372145
vt 0.982871 0.233851
vt 0.344276 0.350101
vt 0.880696 0.124200
vt 0.322802 0.371243
vt 0.982871 0.124200
vt 0.322676 0.349575
vt 0.880696 0.124200
vt 0.320940 0.330193
vt 0.880696 0.233851
vt 0.342404 0.330668
vt 0.880696 0.124200
vt 0.364911 0.326467
vt 0.880696 0.233851
vt 0.386245 0.324047
vt 0.982871 0.233851
vt 0.383907 0.305493
vt 0.982871 0.124200
vt 0.362729 0.307120
vt 0.982871 0.233851
vt 0.340490 0.310120
vt 0.982871 0.124200
vt 0.319978 0.310538
vt 0.423469 0.319392
vt 0.395937 0.298686
vt 0.394674 0.297221
vt 0.144024 0.596801
vt 0.169040 0.602134
vt 0.430854 0.319396
vt 0.398454 0.314059
vt 0.154924 0.712744
vt 0.409353 0.430002
vt 0.154920 0.712766
vt 0.409349 0.430024
vt 0.084638 0.604192
vt 0.149564 0.719148
vt 0.339068 0.321450
vt 0.403993 0.436406
vt 0.286037 0.319318
vt 0.299387 0.441430
vt 0.031608 0.602060
vt 0.208755 0.604241
vt 0.463184 0.321499
vt 0.453147 0.441408
vt 0.122250 0.919123
vt 0.085298 0.882172
vt 0.159201 0.919123
vt 0.196153 0.882172
vt 0.122250 0.808269
vt 0.085298 0.845220
vt 0.159201 0.808269
vt 0.196153 0.845220
vt 0.122250 0.882172
vt 0.159201 0.882172
vt 0.122250 0.845220
vt 0.159201 0.845220
vt 0.122250 0.919123
vt 0.085298 0.882172
vt 0.159201 0.919123
vt 0.196153 0.882172
vt 0.122250 0.808269
vt 0.085298 0.845220
vt 0.159201 0.808269
vt 0.196153 0.845220
vt 0.122250 0.882172
vt 0.159201 0.882172
vt 0.122250 0.845220
vt 0.159201 0.845220
vt 0.122250 0.919123
vt 0.085298 0.882172
vt 0.159201 0.919123
vt 0.196153 0.882172
vt 0.122250 0.808269
vt 0.085298 0.845220
vt 0.159201 0.808269
vt 0.196153 0.845220
vt 0.122250 0.882172
vt 0.159201 0.882172
vt 0.122250 0.845220
vt 0.159201 0.845220
vt 0.031696 0.976295
vt 0.068700 0.976295
vt 0.101902 0.939291
vt 0.031696 0.865281
vt 0.068700 0.869084
vt 0.101902 0.902286
vt 0.031696 0.939291
vt 0.031696 0.902286
vt 0.035498 0.939291
vt 0.035498 0.945931
vt 0.035498 0.939291
vt 0.043799 0.945931
vt 0.043799 0.939291
vt 0.043799 0.952572
vt 0.043799 0.939291
vt 0.052099 0.952572
vt 0.052099 0.939291
vt 0.052099 0.959212
vt 0.088622 0.939291
vt 0.060400 0.959212
vt 0.088622 0.939291
vt 0.060400 0.965852
vt 0.095262 0.939291
vt 0.068700 0.965852
vt 0.095262 0.939291
vt 0.035498 0.902286
vt 0.068700 0.875724
vt 0.095262 0.902286
vt 0.060400 0.875724
vt 0.095262 0.902286
vt 0.060400 0.882365
vt 0.088622 0.902286
vt 0.052099 0.882365
vt 0.088622 0.902286
vt 0.052099 0.889005
vt 0.052099 0.902286
vt 0.043799 0.889005
vt 0.043799 0.902286
vt 0.043799 0.895646
vt 0.043799 0.902286
vt 0.035498 0.895646
vt 0.035498 0.902286
vt 0.099638 0.922979
vt 0.061757 0.885097
vt 0.137519 0.922979
vt 0.175401 0.885097
vt 0.099638 0.809335
vt 0.061757 0.847216
vt 0.137519 0.809335
vt 0.175401 0.847216
vt 0.099638 0.885097
vt 0.137519 0.885097
vt 0.099638 0.847216
vt 0.137519 0.847216
vt 0.099638 0.922979
vt 0.061757 0.885097
vt 0.137519 0.922979
vt 0.175401 0.885097
vt 0.099638 0.809335
vt 0.061757 0.847216
vt 0.137519 0.809335
vt 0.175401 0.847216
vt 0.099638 0.885097
vt 0.137519 0.885097
vt 0.099638 0.847216
vt 0.137519 0.847216
vt 0.099638 0.922979
vt 0.061757 0.885097
vt 0.137519 0.922979
vt 0.175401 0.885097
vt 0.099638 0.809335
vt 0.061757 0.847216
vt 0.137519 0.809335
vt 0.175401 0.847216
vt 0.099638 0.885097
vt 0.137519 0.885097
vt 0.099638 0.847216
vt 0.137519 0.847216
vt 0.079954 0.935920
vt 0.052362 0.908327
vt 0.107546 0.935920
vt 0.135139 0.908327
vt 0.079954 0.853143
vt 0.052362 0.880735
vt 0.107546 0.853143
vt 0.135139 0.880735
vt 0.079954 0.908327
vt 0.107546 0.908327
vt 0.079954 0.880735
vt 0.107546 0.880735
s 0
usemtl BasicTexture
f 1/1/1 3/4/1 4/6/1
f 3/5/2 2/3/2 7/10/2 5/8/2
f 2/2/3 3/4/3 1/1/3
f 5/8/4 7/10/4 10/16/4 8/12/4
f 2/3/2 4/7/2 6/9/2 7/10/2
f 4/7/2 3/5/2 5/8/2 6/9/2
f 9/13/2 8/11/2 10/15/2
f 7/10/5 6/9/5 9/14/5 10/16/5
f 6/9/6 5/8/6 8/12/6 9/14/6
f 11/17/1 13/20/1 14/22/1
f 13/21/2 12/19/2 17/26/2 15/24/2
f 12/18/3 13/20/3 11/17/3
f 15/24/4 17/26/4 20/32/4 18/28/4
f 12/19/2 14/23/2 16/25/2 17/26/2
f 14/23/2 13/21/2 15/24/2 16/25/2
f 19/29/2 18/27/2 20/31/2
f 17/26/5 16/25/5 19/30/5 20/32/5
f 16/25/6 15/24/6 18/28/6 19/30/6
f 21/33/1 23/36/1 24/38/1
f 23/37/2 22/35/2 27/42/2 25/40/2
f 22/34/3 23/36/3 21/33/3
f 25/40/4 27/42/4 30/48/4 28/44/4
f 22/35/2 24/39/2 26/41/2 27/42/2
f 24/39/2 23/37/2 25/40/2 26/41/2
f 29/45/2 28/43/2 30/47/2
f 27/42/5 26/41/5 29/46/5 30/48/5
f 26/41/6 25/40/6 28/44/6 29/46/6
f 32/51/7 95/165/7 91/150/7 40/72/7
f 33/54/8 96/168/8 94/161/8 37/64/8
f 67/106/2 68/107/2 91/151/2
f 68/107/2 69/108/2 36/61/2 91/152/2
f 69/108/2 70/109/2 36/61/2
f 50/85/9 45/80/9 74/117/9 73/115/9
f 48/83/2 49/84/2 44/79/2 43/78/2
f 47/82/7 48/83/7 53/91/7 51/86/7
f 50/85/2 38/68/2 45/80/2
f 37/65/2 93/159/2 92/157/2 46/81/2
f 37/65/2 94/162/2 93/159/2
f 38/68/2 49/84/2 48/83/2
f 38/68/2 50/85/2 49/84/2
f 51/87/2 53/90/2 54/92/2 52/88/2
f 48/83/9 43/78/9 54/93/9 53/91/9
f 43/78/8 42/75/8 52/89/8 54/93/8
f 56/95/8 55/94/8 76/121/8 78/125/8
f 64/103/2 65/104/2 57/96/2 56/95/2
f 57/96/5 65/104/5 79/127/5 80/129/5
f 94/163/8 96/169/8 34/56/8 39/69/8
f 39/70/5 34/57/5 32/52/5 40/71/5
f 66/105/2 38/68/2 36/61/2 58/97/2
f 57/96/2 58/97/2 62/101/2 61/100/2
f 56/95/2 57/96/2 61/100/2 60/99/2
f 55/94/2 56/95/2 60/99/2 59/98/2
f 41/73/2 42/74/2 91/153/2 35/59/2
f 58/97/2 36/61/2 62/101/2
f 45/80/2 38/68/2 66/105/2
f 94/163/8 39/69/8 38/66/8
f 42/75/2 43/78/2 64/103/2 63/102/2
f 43/78/2 44/79/2 65/104/2 64/103/2
f 44/79/2 45/80/2 66/105/2 65/104/2
f 31/49/10 95/166/10 32/53/10 34/58/10 96/170/10 33/55/10
f 60/99/9 68/107/9 88/145/9 85/139/9
f 60/99/2 61/100/2 69/108/2 68/107/2
f 70/109/8 69/108/8 89/147/8 90/149/8
f 91/154/7 95/167/7 31/50/7 35/60/7
f 62/101/2 36/61/2 70/109/2
f 71/110/2 73/114/2 74/116/2 72/112/2
f 79/126/2 81/130/2 82/132/2 80/128/2
f 75/118/2 77/122/2 78/124/2 76/120/2
f 84/136/2 83/134/2 90/148/2 89/146/2
f 86/140/2 85/138/2 88/144/2 87/142/2
f 69/108/5 61/100/5 84/137/5 89/147/5
f 66/105/9 58/97/9 82/133/9 81/131/9
f 61/100/7 62/101/7 83/135/7 84/137/7
f 68/107/8 67/106/8 87/143/8 88/145/8
f 62/101/9 70/109/9 90/149/9 83/135/9
f 63/102/7 64/103/7 77/123/7 75/119/7
f 59/98/7 60/99/7 85/139/7 86/141/7
f 49/84/7 50/85/7 73/115/7 71/111/7
f 45/80/8 44/79/8 72/113/8 74/117/8
f 65/104/7 66/105/7 81/131/7 79/127/7
f 55/94/5 63/102/5 75/119/5 76/121/5
f 58/97/8 57/96/8 80/129/8 82/133/8
f 44/79/5 49/84/5 71/111/5 72/113/5
f 67/106/5 59/98/5 86/141/5 87/143/5
f 64/103/9 56/95/9 78/125/9 77/123/9
f 39/70/11 40/71/11 36/62/11 38/67/11
f 91/156/2 59/98/2 67/106/2
f 93/160/2 94/164/2 38/68/2 48/83/2 47/82/2
f 91/155/7 36/63/7 40/72/7
f 91/156/2 42/76/2 55/94/2 59/98/2
f 42/77/2 63/102/2 55/94/2
f 92/158/2 93/160/2 47/82/2
f 99/175/8 100/177/8 104/182/8 103/181/8
f 103/181/2 104/182/2 102/180/2 101/179/2
f 101/179/7 102/180/7 98/173/7 97/171/7
f 99/176/9 103/181/9 101/179/9 97/172/9
f 104/182/5 100/178/5 98/174/5 102/180/5
f 107/187/8 108/189/8 112/194/8 111/193/8
f 111/193/2 112/194/2 110/192/2 109/191/2
f 109/191/7 110/192/7 106/185/7 105/183/7
f 107/188/9 111/193/9 109/191/9 105/184/9
f 112/194/5 108/190/5 106/186/5 110/192/5
f 115/199/8 116/201/8 120/206/8 119/205/8
f 119/205/2 120/206/2 118/204/2 117/203/2
f 117/203/7 118/204/7 114/197/7 113/195/7
f 115/200/9 119/205/9 117/203/9 113/196/9
f 120/206/5 116/202/5 114/198/5 118/204/5
f 125/213/7 127/215/7 128/216/7 129/218/7 130/220/7 131/222/7 132/224/7 133/226/7 134/228/7 135/230/7 122/208/7 121/207/7
f 123/210/8 124/211/8 137/233/8 138/235/8 139/237/8 140/239/8 141/241/8 142/243/8 143/245/8 144/247/8 136/232/8 126/214/8
f 126/214/2 136/232/2 127/215/2 125/213/2
f 124/212/5 122/209/5 135/231/5 137/234/5
f 137/234/2 135/231/2 134/229/2 138/236/2
f 138/236/5 134/229/5 133/227/5 139/238/5
f 139/238/2 133/227/2 132/225/2 140/240/2
f 140/240/5 132/225/5 131/223/5 141/242/5
f 141/242/2 131/223/2 130/221/2 142/244/2
f 142/244/5 130/221/5 129/219/5 143/246/5
f 143/246/2 129/219/2 128/217/2 144/248/2
f 144/248/5 128/217/5 127/215/5 136/232/5
f 147/253/8 148/255/8 152/260/8 151/259/8
f 151/259/2 152/260/2 150/258/2 149/257/2
f 149/257/7 150/258/7 146/251/7 145/249/7
f 147/254/9 151/259/9 149/257/9 145/250/9
f 152/260/5 148/256/5 146/252/5 150/258/5
f 155/265/8 156/267/8 160/272/8 159/271/8
f 159/271/2 160/272/2 158/270/2 157/269/2
f 157/269/7 158/270/7 154/263/7 153/261/7
f 155/266/9 159/271/9 157/269/9 153/262/9
f 160/272/5 156/268/5 154/264/5 158/270/5
f 163/277/8 164/279/8 168/284/8 167/283/8
f 167/283/2 168/284/2 166/282/2 165/281/2
f 165/281/7 166/282/7 162/275/7 161/273/7
f 163/278/9 167/283/9 165/281/9 161/274/9
f 168/284/5 164/280/5 162/276/5 166/282/5
f 171/289/8 172/291/8 176/296/8 175/295/8
f 175/295/2 176/296/2 174/294/2 173/293/2
f 173/293/7 174/294/7 170/287/7 169/285/7
f 171/290/9 175/295/9 173/293/9 169/286/9
f 176/296/5 172/292/5 170/288/5 174/294/5
