# Blender 3.5.1
# www.blender.org
mtllib NormalGreen.mtl
o ZwyklyZwyklyZielony
v -0.159369 1.584685 -0.472500
v -0.159369 1.719667 -0.472500
v -0.159369 1.584685 -1.744417
v -0.159369 1.719667 -1.744417
v 0.178715 1.584685 -0.472500
v 0.178715 1.719667 -0.472500
v 0.178715 1.584685 -1.744417
v 0.178715 1.719667 -1.744417
v -0.159369 1.584685 -2.424892
v -0.159369 1.719667 -2.424892
v -0.159369 1.584685 -3.696809
v -0.159369 1.719667 -3.696809
v 0.178715 1.584685 -2.424892
v 0.178715 1.719667 -2.424892
v 0.178715 1.584685 -3.696809
v 0.178715 1.719667 -3.696809
v -5.002493 0.000000 0.000001
v -5.002493 8.794334 0.000001
v -5.002493 0.000000 -6.002625
v -5.002493 8.794334 -6.002625
v 0.000000 0.000000 0.000001
v 0.000000 7.900434 0.000001
v 0.000000 0.000000 -6.002625
v 0.000000 7.900434 -6.002625
v 0.000000 0.000000 -4.383089
v 0.000000 0.000000 -5.640162
v 0.000000 5.465000 -2.423701
v 0.000000 5.465000 -0.471274
v 0.000000 5.465000 -1.731271
v 0.000000 5.465000 -3.692181
v 0.000000 5.465000 -4.383089
v 0.000000 5.465000 -5.640162
v 0.000000 4.059393 -2.423701
v 0.000000 4.059393 -0.471274
v 0.000000 4.059393 -1.731271
v 0.000000 4.059393 -3.692181
v 0.000000 4.059393 -4.383089
v 0.000000 4.059393 -5.640162
v 0.000000 3.157305 -2.423701
v 0.000000 3.157305 -0.471274
v 0.000000 3.157305 -1.731271
v 0.000000 3.157305 -3.692181
v 0.000000 3.157305 -4.383089
v 0.000000 3.157305 -5.640162
v 0.000000 1.702690 -2.423701
v 0.000000 1.702690 -0.471274
v 0.000000 1.702690 -1.731271
v 0.000000 1.702690 -3.692181
v 0.000000 1.046834 -4.383089
v 0.000000 1.046834 -5.640162
v 0.000000 7.395191 -2.423701
v 0.000000 7.395191 -0.471274
v 0.000000 7.395191 -1.731271
v 0.000000 7.395191 -3.692181
v 0.000000 7.395191 -4.383089
v 0.000000 7.395191 -5.640162
v 0.000000 6.410649 -2.423701
v 0.000000 6.410649 -0.471274
v 0.000000 6.410649 -1.731271
v 0.000000 6.410649 -3.692181
v 0.000000 6.410649 -4.383089
v 0.000000 6.410649 -5.640162
v -0.163852 5.465000 -5.640162
v -0.163852 5.465000 -4.383089
v -0.163852 5.465000 -1.731271
v -0.163852 5.465000 -0.471274
v -0.163852 5.465000 -3.692181
v -0.163852 5.465000 -2.423701
v -0.163852 4.059393 -2.423701
v -0.163852 4.059393 -0.471274
v -0.163852 4.059393 -1.731271
v -0.163852 4.059393 -3.692181
v -0.163852 4.059393 -4.383089
v -0.163852 4.059393 -5.640162
v -0.163852 3.157305 -5.640162
v -0.163852 3.157305 -4.383089
v -0.163852 3.157305 -1.731271
v -0.163852 3.157305 -0.471274
v -0.163852 3.157305 -3.692181
v -0.163852 3.157305 -2.423701
v -0.163852 1.702690 -2.423701
v -0.163852 1.702690 -0.471274
v -0.163852 1.702690 -1.731271
v -0.163852 1.702690 -3.692181
v -0.163852 1.046834 -4.383089
v -0.163852 1.046834 -5.640162
v -0.163852 7.395191 -5.640162
v -0.163852 7.395191 -4.383089
v -0.163852 7.395191 -1.731271
v -0.163852 7.395191 -0.471274
v -0.163852 7.395191 -3.692181
v -0.163852 7.395191 -2.423701
v -0.163852 6.410649 -2.423701
v -0.163852 6.410649 -0.471274
v -0.163852 6.410649 -1.731271
v -0.163852 6.410649 -3.692181
v -0.163852 6.410649 -4.383089
v -0.163852 6.410649 -5.640162
v -3.142467 9.323137 -5.250230
v -3.142467 9.323137 -0.752394
v 0.000000 1.038765 0.000001
v -5.002493 1.041353 0.000001
v 0.000000 1.046016 -6.002625
v -5.002493 1.045968 -6.002625
v -0.198999 2.019634 -5.378484
v -0.198999 2.142256 -5.378484
v -0.198999 2.019634 -5.501853
v -0.198999 2.142256 -5.501853
v -0.067606 2.019634 -5.378484
v -0.067606 2.142256 -5.378484
v -0.067606 2.019634 -5.501853
v -0.067606 2.142256 -5.501853
v -0.195649 -0.044560 -4.234905
v -0.195649 1.073580 -4.234905
v -0.195649 -0.044560 -5.838574
v -0.195649 1.073580 -5.838574
v 1.518402 -0.044560 -4.234905
v 1.518402 -0.044560 -5.838574
v 1.518402 0.169749 -4.234905
v 1.279359 0.169749 -4.234905
v 1.279359 0.395706 -4.234905
v 1.040316 0.395706 -4.234905
v 1.040316 0.621664 -4.234905
v 0.801272 0.621664 -4.234905
v 0.801272 0.847622 -4.234905
v 0.562229 0.847622 -4.234905
v 0.562229 1.073580 -4.234905
v 1.518402 0.169749 -5.838574
v 0.562229 1.073580 -5.838574
v 0.562229 0.847622 -5.838574
v 0.801272 0.847622 -5.838574
v 0.801272 0.621664 -5.838574
v 1.040316 0.621664 -5.838574
v 1.040316 0.395706 -5.838574
v 1.279359 0.395706 -5.838574
v 1.279359 0.169749 -5.838574
v -0.316715 3.933736 -0.472500
v -0.316715 4.068717 -0.472500
v -0.316715 3.933736 -1.744417
v -0.316715 4.068717 -1.744417
v 0.176965 3.933736 -0.472500
v 0.176965 4.068717 -0.472500
v 0.176965 3.933736 -1.744417
v 0.176965 4.068717 -1.744417
v -0.316715 3.933736 -2.424892
v -0.316715 4.068717 -2.424892
v -0.316715 3.933736 -3.696809
v -0.316715 4.068717 -3.696809
v 0.176965 3.933736 -2.424892
v 0.176965 4.068717 -2.424892
v 0.176965 3.933736 -3.696809
v 0.176965 4.068717 -3.696809
v -0.316715 3.933736 -4.377285
v -0.316715 4.068717 -4.377285
v -0.316715 3.933736 -5.649202
v -0.316715 4.068717 -5.649202
v 0.176965 3.933736 -4.377285
v 0.176965 4.068717 -4.377285
v 0.176965 3.933736 -5.649202
v 0.176965 4.068717 -5.649202
v -0.316715 6.287885 -0.472500
v -0.316715 6.422866 -0.472500
v -0.316715 6.287885 -1.744417
v -0.316715 6.422866 -1.744417
v 0.176965 6.287885 -0.472500
v 0.176965 6.422866 -0.472500
v 0.176965 6.287885 -1.744417
v 0.176965 6.422866 -1.744417
v -0.316715 6.287885 -2.424892
v -0.316715 6.422866 -2.424892
v -0.316715 6.287885 -3.696809
v -0.316715 6.422866 -3.696809
v 0.176965 6.287885 -2.424892
v 0.176965 6.422866 -2.424892
v 0.176965 6.287885 -3.696809
v 0.176965 6.422866 -3.696809
v -0.316715 6.287885 -4.377285
v -0.316715 6.422866 -4.377285
v -0.316715 6.287885 -5.649202
v -0.316715 6.422866 -5.649202
v 0.176965 6.287885 -4.377285
v 0.176965 6.422866 -4.377285
v 0.176965 6.287885 -5.649202
v 0.176965 6.422866 -5.649202
v -0.205745 7.714478 0.029464
v -0.205745 7.955682 0.029464
v -0.205745 7.714478 -6.009095
v -0.205745 7.955682 -6.009095
v 0.274668 7.714478 0.029464
v 0.274668 7.955682 0.029464
v 0.274668 7.714478 -6.009095
v 0.274668 7.955682 -6.009095
vn -0.0000 -0.0000 -1.0000
vn 1.0000 -0.0000 -0.0000
vn -0.0000 -0.0000 1.0000
vn -0.0000 -1.0000 -0.0000
vn -0.0000 1.0000 -0.0000
vn 0.1168 0.6534 0.7479
vn -0.2735 0.9619 -0.0000
vn -1.0000 -0.0000 -0.0000
vn 0.4124 0.9110 -0.0000
vn 0.1168 0.6534 -0.7479
vt 0.099638 0.922979
vt 0.061757 0.885097
vt 0.137519 0.922979
vt 0.175401 0.885097
vt 0.099638 0.809335
vt 0.061757 0.847216
vt 0.137519 0.809335
vt 0.175401 0.847216
vt 0.099638 0.885097
vt 0.137519 0.885097
vt 0.099638 0.847216
vt 0.137519 0.847216
vt 0.099638 0.922979
vt 0.061757 0.885097
vt 0.137519 0.922979
vt 0.175401 0.885097
vt 0.099638 0.809335
vt 0.061757 0.847216
vt 0.137519 0.809335
vt 0.175401 0.847216
vt 0.099638 0.885097
vt 0.137519 0.885097
vt 0.099638 0.847216
vt 0.137519 0.847216
vt 0.701775 0.346277
vt 0.053462 0.880754
vt 0.073907 0.949148
vt 0.206649 0.961995
vt 0.716623 0.346277
vt 0.576822 0.361021
vt 0.701775 0.366318
vt 0.139130 0.839572
vt 0.206649 0.946805
vt 0.716623 0.366318
vt 0.157264 0.907967
vt 0.656610 0.319839
vt 0.053462 0.814558
vt 0.070694 0.950756
vt 0.073907 0.882953
vt 0.645209 0.422731
vt 0.645209 0.446112
vt 0.645209 0.431023
vt 0.624657 0.451756
vt 0.617085 0.451756
vt 0.134766 0.961995
vt 0.576822 0.294825
vt 0.095976 0.899605
vt 0.084328 0.899605
vt 0.139130 0.886990
vt 0.645209 0.407541
vt 0.645209 0.399131
vt 0.635294 0.379872
vt 0.624657 0.379872
vt 0.134766 0.946805
vt 0.144182 0.955384
vt 0.617085 0.379872
vt 0.656610 0.367257
vt 0.070694 0.942464
vt 0.070694 0.904081
vt 0.617085 0.422731
vt 0.617085 0.446112
vt 0.617085 0.431023
vt 0.617085 0.407541
vt 0.617085 0.399131
vt 0.617085 0.384348
vt 0.605830 0.422731
vt 0.605830 0.446112
vt 0.605830 0.431023
vt 0.605830 0.407541
vt 0.605830 0.399131
vt 0.605830 0.384348
vt 0.598607 0.422731
vt 0.598607 0.446112
vt 0.598607 0.431023
vt 0.598607 0.407541
vt 0.598607 0.399131
vt 0.598607 0.384348
vt 0.586959 0.422731
vt 0.586959 0.446112
vt 0.586959 0.431023
vt 0.586959 0.407541
vt 0.079012 0.942464
vt 0.586959 0.399131
vt 0.581643 0.422731
vt 0.581643 0.407541
vt 0.084328 0.904081
vt 0.586959 0.384348
vt 0.635294 0.422731
vt 0.635294 0.446112
vt 0.635294 0.431023
vt 0.635294 0.407541
vt 0.635294 0.399131
vt 0.635294 0.384348
vt 0.624657 0.422731
vt 0.624657 0.446112
vt 0.624657 0.431023
vt 0.624657 0.407541
vt 0.624657 0.399131
vt 0.624657 0.384348
vt 0.982389 0.126491
vt 0.617085 0.384348
vt 0.982283 0.224884
vt 0.617085 0.399131
vt 0.982389 0.126491
vt 0.617085 0.431023
vt 0.982283 0.224884
vt 0.617085 0.446112
vt 0.982389 0.126491
vt 0.617085 0.407541
vt 0.982283 0.224884
vt 0.617085 0.422731
vt 0.880556 0.224884
vt 0.605830 0.422731
vt 0.880556 0.224884
vt 0.605830 0.446112
vt 0.881373 0.126491
vt 0.605830 0.431023
vt 0.881373 0.126491
vt 0.605830 0.407541
vt 0.880556 0.224884
vt 0.605830 0.399131
vt 0.881373 0.126491
vt 0.605830 0.384348
vt 0.091830 0.818300
vt 0.598607 0.384348
vt 0.091830 0.869715
vt 0.598607 0.399131
vt 0.982389 0.126491
vt 0.598607 0.431023
vt 0.982283 0.224884
vt 0.598607 0.446112
vt 0.982389 0.126491
vt 0.598607 0.407541
vt 0.982283 0.224884
vt 0.598607 0.422731
vt 0.880556 0.224884
vt 0.586959 0.422731
vt 0.880556 0.224884
vt 0.586959 0.446112
vt 0.881373 0.126491
vt 0.586959 0.431023
vt 0.881373 0.126491
vt 0.586959 0.407541
vt 0.051322 0.869715
vt 0.586959 0.399131
vt 0.051322 0.818300
vt 0.586959 0.384348
vt 0.982389 0.126491
vt 0.635294 0.384348
vt 0.982283 0.224884
vt 0.635294 0.399131
vt 0.980935 0.127272
vt 0.635294 0.431023
vt 0.980935 0.225434
vt 0.635294 0.446112
vt 0.635294 0.407541
vt 0.979884 0.129191
vt 0.979884 0.225079
vt 0.635294 0.422731
vt 0.882124 0.225079
vt 0.624657 0.422731
vt 0.879182 0.225434
vt 0.624657 0.446112
vt 0.879182 0.127272
vt 0.624657 0.431023
vt 0.624657 0.407541
vt 0.882124 0.129191
vt 0.880556 0.224884
vt 0.624657 0.399131
vt 0.881373 0.126491
vt 0.624657 0.384348
vt 0.170708 0.946805
vt 0.157264 0.955384
vt 0.092170 0.882953
vt 0.170707 0.961995
vt 0.056040 0.814558
vt 0.605830 0.450312
vt 0.598607 0.449899
vt 0.586959 0.448313
vt 0.079012 0.950756
vt 0.581643 0.431023
vt 0.558671 0.294825
vt 0.703373 0.346277
vt 0.055693 0.880754
vt 0.558324 0.361021
vt 0.095976 0.901088
vt 0.140990 0.886990
vt 0.605830 0.381026
vt 0.598607 0.381355
vt 0.607239 0.379872
vt 0.643621 0.367257
vt 0.703380 0.366318
vt 0.140736 0.839572
vt 0.643367 0.319839
vt 0.079954 0.935920
vt 0.052362 0.908327
vt 0.107546 0.935920
vt 0.135139 0.908327
vt 0.079954 0.853143
vt 0.052362 0.880735
vt 0.107546 0.853143
vt 0.135139 0.880735
vt 0.079954 0.908327
vt 0.107546 0.908327
vt 0.079954 0.880735
vt 0.107546 0.880735
vt 0.585108 0.394063
vt 0.622113 0.394063
vt 0.655315 0.357058
vt 0.585108 0.283048
vt 0.622113 0.286851
vt 0.655315 0.320053
vt 0.585108 0.357058
vt 0.585108 0.320053
vt 0.588910 0.357058
vt 0.588910 0.363698
vt 0.588910 0.357058
vt 0.597211 0.363698
vt 0.597211 0.357058
vt 0.597211 0.370339
vt 0.597211 0.357058
vt 0.605512 0.370339
vt 0.605511 0.357058
vt 0.605511 0.376979
vt 0.642034 0.357058
vt 0.613812 0.376979
vt 0.642034 0.357058
vt 0.613812 0.383620
vt 0.648674 0.357058
vt 0.622113 0.383620
vt 0.648674 0.357058
vt 0.588910 0.320053
vt 0.622113 0.293491
vt 0.648674 0.320053
vt 0.613812 0.293491
vt 0.648674 0.320053
vt 0.613812 0.300132
vt 0.642034 0.320053
vt 0.605511 0.300132
vt 0.642034 0.320053
vt 0.605512 0.306772
vt 0.605511 0.320053
vt 0.597211 0.306772
vt 0.597211 0.320053
vt 0.597211 0.313413
vt 0.597211 0.320053
vt 0.588910 0.313413
vt 0.588910 0.320053
vt 0.099638 0.922979
vt 0.061757 0.885097
vt 0.137519 0.922979
vt 0.175401 0.885097
vt 0.099638 0.809335
vt 0.061757 0.847216
vt 0.137519 0.809335
vt 0.175401 0.847216
vt 0.099638 0.885097
vt 0.137519 0.885097
vt 0.099638 0.847216
vt 0.137519 0.847216
vt 0.099638 0.922979
vt 0.061757 0.885097
vt 0.137519 0.922979
vt 0.175401 0.885097
vt 0.099638 0.809335
vt 0.061757 0.847216
vt 0.137519 0.809335
vt 0.175401 0.847216
vt 0.099638 0.885097
vt 0.137519 0.885097
vt 0.099638 0.847216
vt 0.137519 0.847216
vt 0.099638 0.922979
vt 0.061757 0.885097
vt 0.137519 0.922979
vt 0.175401 0.885097
vt 0.099638 0.809335
vt 0.061757 0.847216
vt 0.137519 0.809335
vt 0.175401 0.847216
vt 0.099638 0.885097
vt 0.137519 0.885097
vt 0.099638 0.847216
vt 0.137519 0.847216
vt 0.099638 0.922979
vt 0.061757 0.885097
vt 0.137519 0.922979
vt 0.175401 0.885097
vt 0.099638 0.809335
vt 0.061757 0.847216
vt 0.137519 0.809335
vt 0.175401 0.847216
vt 0.099638 0.885097
vt 0.137519 0.885097
vt 0.099638 0.847216
vt 0.137519 0.847216
vt 0.099638 0.922979
vt 0.061757 0.885097
vt 0.137519 0.922979
vt 0.175401 0.885097
vt 0.099638 0.809335
vt 0.061757 0.847216
vt 0.137519 0.809335
vt 0.175401 0.847216
vt 0.099638 0.885097
vt 0.137519 0.885097
vt 0.099638 0.847216
vt 0.137519 0.847216
vt 0.099638 0.922979
vt 0.061757 0.885097
vt 0.137519 0.922979
vt 0.175401 0.885097
vt 0.099638 0.809335
vt 0.061757 0.847216
vt 0.137519 0.809335
vt 0.175401 0.847216
vt 0.099638 0.885097
vt 0.137519 0.885097
vt 0.099638 0.847216
vt 0.137519 0.847216
vt 0.068154 0.942022
vt 0.052118 0.925987
vt 0.084190 0.942022
vt 0.100226 0.925987
vt 0.068154 0.893915
vt 0.052118 0.909951
vt 0.084190 0.893915
vt 0.100226 0.909951
vt 0.068154 0.925987
vt 0.084190 0.925987
vt 0.068154 0.909951
vt 0.084190 0.909951
s 0
usemtl BasicTexture
f 3/5/1 4/7/1 8/12/1 7/11/1
f 7/11/2 8/12/2 6/10/2 5/9/2
f 5/9/3 6/10/3 2/3/3 1/1/3
f 3/6/4 7/11/4 5/9/4 1/2/4
f 8/12/5 4/8/5 2/4/5 6/10/5
f 11/17/1 12/19/1 16/24/1 15/23/1
f 15/23/2 16/24/2 14/22/2 13/21/2
f 13/21/3 14/22/3 10/15/3 9/13/3
f 11/18/4 15/23/4 13/21/4 9/14/4
f 16/24/5 12/20/5 10/16/5 14/22/5
f 22/39/6 100/174/6 18/27/6
f 99/172/7 20/33/7 18/28/7 100/175/7
f 54/91/2 24/50/2 22/40/2 51/88/2
f 53/90/2 22/41/2 52/89/2
f 51/88/2 22/42/2 53/90/2
f 55/92/2 24/50/2 54/91/2
f 56/93/2 24/51/2 55/92/2
f 60/97/3 54/91/3 91/156/3 96/166/3
f 17/25/8 102/183/8 18/29/8 20/34/8 104/192/8 19/31/8
f 37/70/2 31/64/2 30/63/2 36/69/2
f 33/66/2 27/60/2 29/62/2 35/68/2
f 41/74/4 40/73/4 78/131/4 77/129/4
f 54/91/4 51/88/4 92/159/4 91/156/4
f 21/37/3 101/176/3 102/184/3 17/26/3
f 34/67/2 28/61/2 22/44/2 101/177/2
f 40/73/2 34/67/2 101/178/2
f 42/75/2 36/69/2 33/66/2 39/72/2
f 41/74/2 35/68/2 34/67/2 40/73/2
f 39/72/2 33/66/2 35/68/2 41/74/2
f 43/76/2 37/70/2 36/69/2 42/75/2
f 44/77/2 38/71/2 37/70/2 43/76/2
f 23/47/2 103/186/2 50/86/2
f 37/70/5 38/71/5 74/123/5 73/121/5
f 49/83/2 43/76/2 42/75/2 48/81/2
f 45/78/2 39/72/2 41/74/2 47/80/2
f 59/96/3 53/90/3 89/153/3 95/165/3
f 57/94/5 60/97/5 96/166/5 93/161/5
f 46/79/2 40/73/2 101/179/2
f 25/58/2 49/82/2 101/180/2 21/38/2
f 23/48/2 50/86/2 26/59/2
f 24/52/2 56/93/2 62/99/2
f 32/65/4 31/64/4 64/103/4 63/101/4
f 61/98/2 55/92/2 54/91/2 60/97/2
f 57/94/2 51/88/2 53/90/2 59/96/2
f 39/72/1 45/78/1 81/137/1 80/135/1
f 52/89/1 58/95/1 94/163/1 90/155/1
f 58/95/2 52/89/2 22/43/2
f 28/61/2 58/95/2 22/44/2
f 30/63/2 60/97/2 57/94/2 27/60/2
f 29/62/2 59/96/2 58/95/2 28/61/2
f 27/60/2 57/94/2 59/96/2 29/62/2
f 31/64/2 61/98/2 60/97/2 30/63/2
f 32/65/2 62/99/2 61/98/2 31/64/2
f 24/53/2 62/99/2 32/65/2
f 74/122/2 63/100/2 64/102/2 73/120/2
f 71/116/2 65/104/2 66/106/2 70/114/2
f 72/118/2 67/108/2 68/110/2 69/112/2
f 86/146/2 75/124/2 76/126/2 85/144/2
f 83/140/2 77/128/2 78/130/2 82/138/2
f 84/142/2 79/132/2 80/134/2 81/136/2
f 98/170/2 87/148/2 88/150/2 97/168/2
f 95/164/2 89/152/2 90/154/2 94/162/2
f 96/167/2 91/157/2 92/158/2 93/160/2
f 40/73/1 46/79/1 82/139/1 78/131/1
f 27/60/1 33/66/1 69/113/1 68/111/1
f 58/95/5 59/96/5 95/165/5 94/163/5
f 45/78/5 48/81/5 84/143/5 81/137/5
f 47/80/3 41/74/3 77/129/3 83/141/3
f 55/92/1 61/98/1 97/169/1 88/151/1
f 42/75/4 39/72/4 80/135/4 79/133/4
f 29/62/4 28/61/4 66/107/4 65/105/4
f 48/81/3 42/75/3 79/133/3 84/143/3
f 28/61/1 34/67/1 70/115/1 66/107/1
f 46/79/5 47/80/5 83/141/5 82/139/5
f 33/66/5 36/69/5 72/119/5 69/113/5
f 62/99/3 56/93/3 87/149/3 98/171/3
f 35/68/3 29/62/3 65/105/3 71/117/3
f 56/93/4 55/92/4 88/151/4 87/149/4
f 43/76/1 49/83/1 85/145/1 76/127/1
f 30/63/4 27/60/4 68/111/4 67/109/4
f 61/98/5 62/99/5 98/171/5 97/169/5
f 36/69/3 30/63/3 67/109/3 72/119/3
f 34/67/5 35/68/5 71/117/5 70/115/5
f 50/87/3 44/77/3 75/125/3 86/147/3
f 51/88/1 57/94/1 93/161/1 92/159/1
f 44/77/4 43/76/4 76/127/4 75/125/4
f 31/64/1 37/70/1 73/121/1 64/103/1
f 53/90/4 52/89/4 90/155/4 89/153/4
f 38/71/3 32/65/3 63/101/3 74/123/3
f 19/32/1 104/193/1 103/187/1 23/49/1
f 24/54/9 99/172/9 100/175/9 22/45/9
f 20/35/10 99/173/10 24/55/10
f 101/181/2 49/84/2 45/78/2 47/80/2
f 49/85/2 48/81/2 45/78/2
f 101/181/2 47/80/2 46/79/2
f 102/185/3 101/182/3 22/46/3 18/30/3
f 103/188/2 38/71/2 44/77/2
f 50/87/2 103/189/2 44/77/2
f 103/190/2 24/56/2 32/65/2 38/71/2
f 103/191/1 104/194/1 20/36/1 24/57/1
f 107/199/1 108/201/1 112/206/1 111/205/1
f 111/205/2 112/206/2 110/204/2 109/203/2
f 109/203/3 110/204/3 106/197/3 105/195/3
f 107/200/4 111/205/4 109/203/4 105/196/4
f 112/206/5 108/202/5 106/198/5 110/204/5
f 117/213/3 119/215/3 120/216/3 121/218/3 122/220/3 123/222/3 124/224/3 125/226/3 126/228/3 127/230/3 114/208/3 113/207/3
f 115/210/1 116/211/1 129/233/1 130/235/1 131/237/1 132/239/1 133/241/1 134/243/1 135/245/1 136/247/1 128/232/1 118/214/1
f 118/214/2 128/232/2 119/215/2 117/213/2
f 116/212/5 114/209/5 127/231/5 129/234/5
f 129/234/2 127/231/2 126/229/2 130/236/2
f 130/236/5 126/229/5 125/227/5 131/238/5
f 131/238/2 125/227/2 124/225/2 132/240/2
f 132/240/5 124/225/5 123/223/5 133/242/5
f 133/242/2 123/223/2 122/221/2 134/244/2
f 134/244/5 122/221/5 121/219/5 135/246/5
f 135/246/2 121/219/2 120/217/2 136/248/2
f 136/248/5 120/217/5 119/215/5 128/232/5
f 139/253/1 140/255/1 144/260/1 143/259/1
f 143/259/2 144/260/2 142/258/2 141/257/2
f 141/257/3 142/258/3 138/251/3 137/249/3
f 139/254/4 143/259/4 141/257/4 137/250/4
f 144/260/5 140/256/5 138/252/5 142/258/5
f 147/265/1 148/267/1 152/272/1 151/271/1
f 151/271/2 152/272/2 150/270/2 149/269/2
f 149/269/3 150/270/3 146/263/3 145/261/3
f 147/266/4 151/271/4 149/269/4 145/262/4
f 152/272/5 148/268/5 146/264/5 150/270/5
f 155/277/1 156/279/1 160/284/1 159/283/1
f 159/283/2 160/284/2 158/282/2 157/281/2
f 157/281/3 158/282/3 154/275/3 153/273/3
f 155/278/4 159/283/4 157/281/4 153/274/4
f 160/284/5 156/280/5 154/276/5 158/282/5
f 163/289/1 164/291/1 168/296/1 167/295/1
f 167/295/2 168/296/2 166/294/2 165/293/2
f 165/293/3 166/294/3 162/287/3 161/285/3
f 163/290/4 167/295/4 165/293/4 161/286/4
f 168/296/5 164/292/5 162/288/5 166/294/5
f 171/301/1 172/303/1 176/308/1 175/307/1
f 175/307/2 176/308/2 174/306/2 173/305/2
f 173/305/3 174/306/3 170/299/3 169/297/3
f 171/302/4 175/307/4 173/305/4 169/298/4
f 176/308/5 172/304/5 170/300/5 174/306/5
f 179/313/1 180/315/1 184/320/1 183/319/1
f 183/319/2 184/320/2 182/318/2 181/317/2
f 181/317/3 182/318/3 178/311/3 177/309/3
f 179/314/4 183/319/4 181/317/4 177/310/4
f 184/320/5 180/316/5 178/312/5 182/318/5
f 187/325/1 188/327/1 192/332/1 191/331/1
f 191/331/2 192/332/2 190/330/2 189/329/2
f 189/329/3 190/330/3 186/323/3 185/321/3
f 187/326/4 191/331/4 189/329/4 185/322/4
f 192/332/5 188/328/5 186/324/5 190/330/5
