# Blender 3.5.1
# www.blender.org
mtllib NormalTriangleLongMint.mtl
o ZwyklyTrojkatnyPrzerobionyMietowy
v -1.580228 7.605582 -1.172992
v -0.081735 6.311089 -0.409737
v -0.081735 7.605582 -1.172992
v -0.081735 6.311089 -1.936248
v -0.081735 7.405037 -1.172992
v -0.081735 6.411362 -1.758881
v -0.081735 6.411362 -0.587104
v -0.143128 7.405037 -1.172992
v -0.143128 6.411362 -1.758881
v -0.143128 6.411362 -0.587104
v -1.580228 7.605582 -3.462759
v -0.081735 6.311089 -2.699504
v -0.081735 7.605582 -3.462759
v -0.081735 6.311089 -4.226015
v -0.081735 7.405037 -3.462759
v -0.081735 6.411362 -4.048647
v -0.081735 6.411362 -2.876871
v -0.143128 7.405037 -3.462759
v -0.143128 6.411362 -4.048647
v -0.143128 6.411362 -2.876871
v -1.580228 7.605582 -5.752525
v -0.081735 6.311089 -4.989270
v -0.081735 7.605582 -5.752525
v -0.081735 6.311089 -6.515781
v -0.081735 7.405037 -5.752525
v -0.081735 6.411362 -6.338413
v -0.081735 6.411362 -5.166637
v -0.143128 7.405037 -5.752525
v -0.143128 6.411362 -6.338413
v -0.143128 6.411362 -5.166637
v -5.000815 0.000001 -0.000001
v -5.000815 8.067412 -0.000001
v -5.000815 0.000001 -7.003852
v -5.000815 8.067412 -7.003852
v -0.000000 0.000001 -0.000001
v -0.000000 6.249906 -0.000001
v -0.000000 0.000001 -7.003852
v -0.000000 6.249906 -7.003852
v -1.811380 8.067412 -7.003852
v -1.811380 8.067412 -0.000001
v -0.000000 0.000001 -4.967432
v -0.000000 1.110658 -4.977349
v -0.000000 3.240841 -4.977349
v -0.000000 4.114521 -4.977349
v -0.000000 5.524468 -4.977349
v -0.000000 0.000001 -6.484155
v -0.000000 1.110658 -6.505785
v -0.000000 3.240841 -6.505785
v -0.000000 4.114521 -6.505785
v -0.000000 5.524468 -6.505785
v -0.158172 1.110658 -6.505785
v -0.158172 1.110658 -4.977349
v -0.158172 3.240841 -6.505785
v -0.158172 3.240841 -4.977349
v -0.000000 1.747824 -2.706917
v -0.000000 3.240841 -2.706917
v -0.000000 4.114521 -2.706917
v -0.000000 5.524468 -2.706917
v -0.000000 1.747824 -1.911421
v -0.000000 3.240841 -1.911421
v -0.000000 4.114521 -1.911421
v -0.000000 5.524468 -1.911421
v -0.000000 1.747824 -4.216816
v -0.000000 3.240841 -4.216816
v -0.000000 4.114521 -4.216816
v -0.000000 5.524468 -4.216816
v -0.000000 1.747824 -0.415956
v -0.000000 3.240841 -0.415956
v -0.000000 4.114521 -0.415956
v -0.000000 5.524468 -0.415956
v -0.139593 4.114521 -6.505785
v -0.139593 4.114521 -4.977349
v -0.139593 5.524468 -6.505785
v -0.139593 5.524468 -4.977349
v -0.139593 1.747824 -4.216816
v -0.139593 1.747824 -2.706917
v -0.139593 3.240841 -4.216816
v -0.139593 3.240841 -2.706917
v -0.139593 4.114521 -4.216816
v -0.139593 4.114521 -2.706917
v -0.139593 5.524468 -4.216816
v -0.139593 5.524468 -2.706917
v -0.139593 5.524468 -1.911421
v -0.139593 4.114521 -1.911421
v -0.139593 3.240841 -1.911421
v -0.139593 1.747824 -1.911421
v -0.139593 1.747824 -0.415956
v -0.139593 3.240841 -0.415956
v -0.139593 4.114521 -0.415956
v -0.139593 5.524468 -0.415956
v -0.000000 1.112117 -0.000001
v -0.000000 1.107241 -6.505718
v -0.000000 1.107242 -6.507317
v -0.000000 1.107240 -7.003852
v -5.000815 1.108780 -0.000001
v -5.000815 1.109692 -7.003852
v -0.030347 3.319175 -0.417484
v -0.030347 3.454156 -0.417484
v -0.030347 3.319175 -1.908283
v -0.030347 3.454156 -1.908283
v 0.235040 3.319175 -0.417484
v 0.235040 3.454156 -0.417484
v 0.235040 3.319175 -1.908283
v 0.235040 3.454156 -1.908283
v -0.030347 3.319175 -2.705862
v -0.030347 3.454156 -2.705862
v -0.030347 3.319175 -4.196661
v -0.030347 3.454156 -4.196661
v 0.235040 3.319175 -2.705862
v 0.235040 3.454156 -2.705862
v 0.235040 3.319175 -4.196661
v 0.235040 3.454156 -4.196661
v -0.030347 3.319175 -4.994239
v -0.030347 3.454156 -4.994239
v -0.030347 3.319175 -6.485039
v -0.030347 3.454156 -6.485039
v 0.235040 3.319175 -4.994239
v 0.235040 3.454156 -4.994239
v 0.235040 3.319175 -6.485039
v 0.235040 3.454156 -6.485039
v -0.179489 -0.003236 -4.799870
v -0.179489 1.114904 -4.799870
v -0.179489 -0.003236 -6.679514
v -0.179489 1.114904 -6.679514
v 1.532003 -0.003236 -4.799870
v 1.532003 -0.003236 -6.679514
v 1.532003 0.211074 -4.799870
v 1.293316 0.211074 -4.799870
v 1.293316 0.437031 -4.799870
v 1.054630 0.437031 -4.799870
v 1.054630 0.662989 -4.799870
v 0.815944 0.662989 -4.799870
v 0.815944 0.888946 -4.799870
v 0.577258 0.888946 -4.799870
v 0.577258 1.114904 -4.799870
v 1.532003 0.211074 -6.679514
v 0.577258 1.114904 -6.679514
v 0.577258 0.888946 -6.679514
v 0.815944 0.888946 -6.679514
v 0.815944 0.662989 -6.679514
v 1.054630 0.662989 -6.679514
v 1.054630 0.437031 -6.679514
v 1.293316 0.437031 -6.679514
v 1.293316 0.211074 -6.679514
v -0.004567 5.602157 -0.417484
v -0.004567 5.737138 -0.417484
v -0.004567 5.602157 -1.908283
v -0.004567 5.737138 -1.908283
v 0.246589 5.602157 -0.417484
v 0.246589 5.737138 -0.417484
v 0.246589 5.602157 -1.908283
v 0.246589 5.737138 -1.908283
v -0.004567 5.602157 -2.705862
v -0.004567 5.737138 -2.705862
v -0.004567 5.602157 -4.196661
v -0.004567 5.737138 -4.196661
v 0.246589 5.602157 -2.705862
v 0.246589 5.737138 -2.705862
v 0.246589 5.602157 -4.196661
v 0.246589 5.737138 -4.196661
v -0.004567 5.602157 -4.994239
v -0.004567 5.737138 -4.994239
v -0.004567 5.602157 -6.485039
v -0.004567 5.737138 -6.485039
v 0.246589 5.602157 -4.994239
v 0.246589 5.737138 -4.994239
v 0.246589 5.602157 -6.485039
v 0.246589 5.737138 -6.485039
v -0.193021 2.060959 -6.252714
v -0.193021 2.183581 -6.252714
v -0.193021 2.060959 -6.397314
v -0.193021 2.183581 -6.397314
v -0.061824 2.060959 -6.252714
v -0.061824 2.183581 -6.252714
v -0.061824 2.060959 -6.397314
v -0.061824 2.183581 -6.397314
v -2.575873 7.898275 1.411704
v -1.207611 1.112117 2.194074
v -1.207611 0.000001 2.194074
v -1.207611 6.249906 2.194074
v -1.656867 8.067412 -7.851508
v -4.413618 8.067412 -9.449161
v -4.413618 1.109692 -9.449161
v -4.413618 0.000001 -9.449161
vn -0.0000 0.5079 -0.8614
vn 1.0000 -0.0000 -0.0000
vn -0.0000 0.5079 0.8614
vn -0.0000 -0.5079 -0.8614
vn -0.0000 1.0000 -0.0000
vn -0.0000 -0.5079 0.8614
vn -0.0000 -1.0000 -0.0000
vn -0.9724 -0.0000 -0.2335
vn -0.0000 -0.0000 1.0000
vn -0.0000 -0.0000 -1.0000
vn 0.7025 0.7001 0.1280
vn -1.0000 -0.0000 -0.0000
vn 0.8761 -0.0000 0.4822
vn 0.7083 0.7059 -0.0000
vn -0.5017 -0.0007 0.8651
vn -0.5007 -0.0000 0.8656
vn -0.4964 -0.0000 0.8681
vn -0.0000 0.9929 0.1190
vn 0.6373 0.6704 0.3800
vn 0.4846 -0.0000 -0.8747
vn 0.4911 0.0054 -0.8711
vn 0.4555 -0.0000 -0.8903
vt 0.092160 0.859645
vt 0.144393 0.801248
vt 0.711047 0.171316
vt 0.144393 0.859645
vt 0.711047 0.143150
vt 0.144393 0.918043
vt 0.688525 0.159751
vt 0.709300 0.146600
vt 0.691238 0.159432
vt 0.709566 0.168492
vt 0.847118 0.163860
vt 0.708549 0.148776
vt 0.772829 0.163550
vt 0.693305 0.158934
vt 0.809741 0.224766
vt 0.708191 0.166890
vt 0.092160 0.859645
vt 0.144393 0.801248
vt 0.711047 0.171316
vt 0.144393 0.859645
vt 0.711047 0.143150
vt 0.144393 0.918043
vt 0.688525 0.159751
vt 0.709300 0.146600
vt 0.691238 0.159432
vt 0.709566 0.168492
vt 0.847118 0.163860
vt 0.708549 0.148776
vt 0.772829 0.163550
vt 0.693305 0.158934
vt 0.809741 0.224766
vt 0.708191 0.166890
vt 0.092160 0.859645
vt 0.144393 0.801248
vt 0.711047 0.171316
vt 0.144393 0.859645
vt 0.711047 0.143150
vt 0.144393 0.918043
vt 0.688525 0.159751
vt 0.709300 0.146600
vt 0.691238 0.159432
vt 0.709566 0.168492
vt 0.847118 0.163860
vt 0.708549 0.148776
vt 0.772829 0.163550
vt 0.693305 0.158934
vt 0.809741 0.224766
vt 0.708191 0.166890
vt 0.000000 0.000000
vt 0.686509 0.178029
vt 0.031608 0.576369
vt 0.686509 0.138284
vt 0.683778 0.179651
vt 0.051527 0.958349
vt 0.717959 0.178029
vt 0.000000 0.000000
vt 0.187018 0.958349
vt 0.717959 0.138284
vt 0.000000 0.000000
vt 0.158916 0.575889
vt 0.687804 0.144315
vt 0.051527 0.811227
vt 0.170799 0.722369
vt 0.077998 0.581025
vt 0.000000 0.000000
vt 0.187018 0.811227
vt 0.687732 0.168362
vt 0.693267 0.169915
vt 0.187018 0.871935
vt 0.051527 0.871935
vt 0.171972 0.649023
vt 0.149652 0.630832
vt 0.709317 0.157830
vt 0.707923 0.153358
vt 0.708656 0.156565
vt 0.700748 0.161250
vt 0.696804 0.161583
vt 0.690559 0.161679
vt 0.171972 0.715249
vt 0.708990 0.170111
vt 0.700240 0.168334
vt 0.696103 0.167850
vt 0.690043 0.167285
vt 0.709120 0.169500
vt 0.162214 0.922787
vt 0.224982 0.922787
vt 0.709619 0.158574
vt 0.162214 0.824754
vt 0.701078 0.167686
vt 0.224982 0.824754
vt 0.701603 0.161837
vt 0.705307 0.151225
vt 0.699657 0.152379
vt 0.696231 0.153000
vt 0.690482 0.153111
vt 0.705029 0.148844
vt 0.699467 0.149727
vt 0.696156 0.150334
vt 0.690409 0.150440
vt 0.706458 0.156271
vt 0.700424 0.158285
vt 0.696838 0.158868
vt 0.690716 0.158888
vt 0.704221 0.143900
vt 0.698688 0.144548
vt 0.695403 0.144838
vt 0.689966 0.145193
vt 0.880696 0.233851
vt 0.695342 0.167152
vt 0.982871 0.233851
vt 0.696082 0.162428
vt 0.880696 0.124200
vt 0.690683 0.166574
vt 0.982871 0.124200
vt 0.691272 0.162294
vt 0.880696 0.233851
vt 0.705637 0.155918
vt 0.982871 0.233851
vt 0.704941 0.152010
vt 0.880696 0.124200
vt 0.700893 0.157271
vt 0.982871 0.124200
vt 0.700490 0.152791
vt 0.880696 0.233851
vt 0.695965 0.158278
vt 0.982871 0.233851
vt 0.695690 0.153769
vt 0.880696 0.124200
vt 0.691298 0.158093
vt 0.982871 0.124200
vt 0.691272 0.153661
vt 0.880696 0.124200
vt 0.690917 0.149697
vt 0.880696 0.233851
vt 0.695307 0.149794
vt 0.880696 0.124200
vt 0.699911 0.148935
vt 0.880696 0.233851
vt 0.704275 0.148440
vt 0.982871 0.233851
vt 0.703796 0.144645
vt 0.982871 0.124200
vt 0.699465 0.144978
vt 0.982871 0.233851
vt 0.694916 0.145591
vt 0.982871 0.124200
vt 0.690720 0.145677
vt 0.706257 0.143253
vt 0.705999 0.142953
vt 0.706772 0.146397
vt 0.144024 0.596801
vt 0.154924 0.712744
vt 0.709001 0.170112
vt 0.154920 0.712766
vt 0.709000 0.170117
vt 0.149564 0.719148
vt 0.707905 0.171422
vt 0.084638 0.604192
vt 0.694625 0.147909
vt 0.686509 0.172450
vt 0.683778 0.147473
vt 0.031608 0.602060
vt 0.717959 0.172445
vt 0.122250 0.919123
vt 0.085298 0.882172
vt 0.159201 0.919123
vt 0.196153 0.882172
vt 0.122250 0.808269
vt 0.085298 0.845220
vt 0.159201 0.808269
vt 0.196153 0.845220
vt 0.122250 0.882172
vt 0.159201 0.882172
vt 0.122250 0.845220
vt 0.159201 0.845220
vt 0.122250 0.919123
vt 0.085298 0.882172
vt 0.159201 0.919123
vt 0.196153 0.882172
vt 0.122250 0.808269
vt 0.085298 0.845220
vt 0.159201 0.808269
vt 0.196153 0.845220
vt 0.122250 0.882172
vt 0.159201 0.882172
vt 0.122250 0.845220
vt 0.159201 0.845220
vt 0.122250 0.919123
vt 0.085298 0.882172
vt 0.159201 0.919123
vt 0.196153 0.882172
vt 0.122250 0.808269
vt 0.085298 0.845220
vt 0.159201 0.808269
vt 0.196153 0.845220
vt 0.122250 0.882172
vt 0.159201 0.882172
vt 0.122250 0.845220
vt 0.159201 0.845220
vt 0.031696 0.976295
vt 0.068700 0.976295
vt 0.101902 0.939291
vt 0.031696 0.865281
vt 0.068700 0.869084
vt 0.101902 0.902286
vt 0.031696 0.939291
vt 0.031696 0.902286
vt 0.035498 0.939291
vt 0.035498 0.945931
vt 0.035498 0.939291
vt 0.043799 0.945931
vt 0.043799 0.939291
vt 0.043799 0.952572
vt 0.043799 0.939291
vt 0.052099 0.952572
vt 0.052099 0.939291
vt 0.052099 0.959212
vt 0.088622 0.939291
vt 0.060400 0.959212
vt 0.088622 0.939291
vt 0.060400 0.965852
vt 0.095262 0.939291
vt 0.068700 0.965852
vt 0.095262 0.939291
vt 0.035498 0.902286
vt 0.068700 0.875724
vt 0.095262 0.902286
vt 0.060400 0.875724
vt 0.095262 0.902286
vt 0.060400 0.882365
vt 0.088622 0.902286
vt 0.052099 0.882365
vt 0.088622 0.902286
vt 0.052099 0.889005
vt 0.052099 0.902286
vt 0.043799 0.889005
vt 0.043799 0.902286
vt 0.043799 0.895646
vt 0.043799 0.902286
vt 0.035498 0.895646
vt 0.035498 0.902286
vt 0.099638 0.922979
vt 0.061757 0.885097
vt 0.137519 0.922979
vt 0.175401 0.885097
vt 0.099638 0.809335
vt 0.061757 0.847216
vt 0.137519 0.809335
vt 0.175401 0.847216
vt 0.099638 0.885097
vt 0.137519 0.885097
vt 0.099638 0.847216
vt 0.137519 0.847216
vt 0.099638 0.922979
vt 0.061757 0.885097
vt 0.137519 0.922979
vt 0.175401 0.885097
vt 0.099638 0.809335
vt 0.061757 0.847216
vt 0.137519 0.809335
vt 0.175401 0.847216
vt 0.099638 0.885097
vt 0.137519 0.885097
vt 0.099638 0.847216
vt 0.137519 0.847216
vt 0.099638 0.922979
vt 0.061757 0.885097
vt 0.137519 0.922979
vt 0.175401 0.885097
vt 0.099638 0.809335
vt 0.061757 0.847216
vt 0.137519 0.809335
vt 0.175401 0.847216
vt 0.099638 0.885097
vt 0.137519 0.885097
vt 0.099638 0.847216
vt 0.137519 0.847216
vt 0.079954 0.935920
vt 0.052362 0.908327
vt 0.107546 0.935920
vt 0.135139 0.908327
vt 0.079954 0.853143
vt 0.052362 0.880735
vt 0.107546 0.853143
vt 0.135139 0.880735
vt 0.079954 0.908327
vt 0.107546 0.908327
vt 0.079954 0.880735
vt 0.107546 0.880735
vt 0.702670 0.179651
vt 0.051527 0.871935
vt 0.705999 0.142953
vt 0.711889 0.147488
vt 0.169040 0.602134
vt 0.713399 0.147488
vt 0.144024 0.596801
vt 0.000000 0.000000
vt 0.176424 0.576369
vt 0.158916 0.575889
vt 0.687804 0.144315
vt 0.713399 0.171839
vt 0.051527 0.811227
vt 0.702954 0.176969
vt 0.187018 0.871935
vt 0.720012 0.176969
vt 0.187018 0.958349
vt 0.717959 0.138284
vt 0.208755 0.604241
vt 0.720012 0.147919
vt 0.717959 0.172445
vt 0.717959 0.178029
vt 0.208755 0.581025
vt 0.000000 0.000000
s 0
usemtl BasicTexture
f 1/1/1 3/4/1 4/6/1
f 3/5/2 2/3/2 7/10/2 5/8/2
f 2/2/3 3/4/3 1/1/3
f 5/8/4 7/10/4 10/16/4 8/12/4
f 2/3/2 4/7/2 6/9/2 7/10/2
f 4/7/2 3/5/2 5/8/2 6/9/2
f 9/13/2 8/11/2 10/15/2
f 7/10/5 6/9/5 9/14/5 10/16/5
f 6/9/6 5/8/6 8/12/6 9/14/6
f 11/17/1 13/20/1 14/22/1
f 13/21/2 12/19/2 17/26/2 15/24/2
f 12/18/3 13/20/3 11/17/3
f 15/24/4 17/26/4 20/32/4 18/28/4
f 12/19/2 14/23/2 16/25/2 17/26/2
f 14/23/2 13/21/2 15/24/2 16/25/2
f 19/29/2 18/27/2 20/31/2
f 17/26/5 16/25/5 19/30/5 20/32/5
f 16/25/6 15/24/6 18/28/6 19/30/6
f 21/33/1 23/36/1 24/38/1
f 23/37/2 22/35/2 27/42/2 25/40/2
f 22/34/3 23/36/3 21/33/3
f 25/40/4 27/42/4 30/48/4 28/44/4
f 22/35/2 24/39/2 26/41/2 27/42/2
f 24/39/2 23/37/2 25/40/2 26/41/2
f 29/45/2 28/43/2 30/47/2
f 27/42/5 26/41/5 29/46/5 30/48/5
f 26/41/6 25/40/6 28/44/6 29/46/6
f 31/49/7 35/59/7 179/297/7
f 33/55/8 96/163/8 183/310/8 184/311/8
f 67/104/2 68/105/2 91/148/2
f 68/105/2 69/106/2 36/61/2 91/149/2
f 69/106/2 70/107/2 36/61/2
f 50/83/7 45/78/7 74/115/7 73/113/7
f 48/81/2 49/82/2 44/77/2 43/76/2
f 47/80/9 48/81/9 53/89/9 51/84/9
f 50/83/2 38/67/2 45/78/2
f 37/63/2 93/154/2 92/152/2 46/79/2
f 37/63/2 94/156/2 93/154/2
f 38/67/2 49/82/2 48/81/2
f 38/67/2 50/83/2 49/82/2
f 51/85/2 53/88/2 54/90/2 52/86/2
f 48/81/7 43/76/7 54/91/7 53/89/7
f 43/76/10 42/73/10 52/87/10 54/91/10
f 56/93/10 55/92/10 76/119/10 78/123/10
f 64/101/2 65/102/2 57/94/2 56/93/2
f 57/94/5 65/102/5 79/125/5 80/127/5
f 39/69/11 38/66/11 181/304/11
f 39/69/5 34/57/5 32/54/5 40/70/5
f 66/103/2 38/67/2 36/61/2 58/95/2
f 57/94/2 58/95/2 62/99/2 61/98/2
f 56/93/2 57/94/2 61/98/2 60/97/2
f 55/92/2 56/93/2 60/97/2 59/96/2
f 41/71/2 42/72/2 91/151/2 35/60/2
f 58/95/2 36/61/2 62/99/2
f 45/78/2 38/67/2 66/103/2
f 42/73/2 43/76/2 64/101/2 63/100/2
f 43/76/2 44/77/2 65/102/2 64/101/2
f 44/77/2 45/78/2 66/103/2 65/102/2
f 31/50/12 95/160/12 32/52/12 34/58/12 96/163/12 33/55/12
f 60/97/7 68/105/7 88/143/7 85/137/7
f 60/97/2 61/98/2 69/106/2 68/105/2
f 70/107/10 69/106/10 89/145/10 90/147/10
f 91/149/13 36/61/13 180/300/13 178/292/13
f 62/99/2 36/61/2 70/107/2
f 71/108/2 73/112/2 74/114/2 72/110/2
f 79/124/2 81/128/2 82/130/2 80/126/2
f 75/116/2 77/120/2 78/122/2 76/118/2
f 84/134/2 83/132/2 90/146/2 89/144/2
f 86/138/2 85/136/2 88/142/2 87/140/2
f 69/106/5 61/98/5 84/135/5 89/145/5
f 66/103/7 58/95/7 82/131/7 81/129/7
f 61/98/9 62/99/9 83/133/9 84/135/9
f 68/105/10 67/104/10 87/141/10 88/143/10
f 62/99/7 70/107/7 90/147/7 83/133/7
f 63/100/9 64/101/9 77/121/9 75/117/9
f 59/96/9 60/97/9 85/137/9 86/139/9
f 49/82/9 50/83/9 73/113/9 71/109/9
f 45/78/10 44/77/10 72/111/10 74/115/10
f 65/102/9 66/103/9 81/129/9 79/125/9
f 55/92/5 63/100/5 75/117/5 76/119/5
f 58/95/10 57/94/10 80/127/10 82/131/10
f 44/77/5 49/82/5 71/109/5 72/111/5
f 67/104/5 59/96/5 86/139/5 87/141/5
f 64/101/7 56/93/7 78/123/7 77/121/7
f 39/69/14 40/70/14 36/62/14 38/66/14
f 91/150/2 59/96/2 67/104/2
f 93/155/2 94/157/2 38/67/2 48/81/2 47/80/2
f 91/150/2 42/74/2 55/92/2 59/96/2
f 42/75/2 63/100/2 55/92/2
f 92/153/2 93/155/2 47/80/2
f 99/168/10 100/170/10 104/175/10 103/174/10
f 103/174/2 104/175/2 102/173/2 101/172/2
f 101/172/9 102/173/9 98/166/9 97/164/9
f 99/169/7 103/174/7 101/172/7 97/165/7
f 104/175/5 100/171/5 98/167/5 102/173/5
f 107/180/10 108/182/10 112/187/10 111/186/10
f 111/186/2 112/187/2 110/185/2 109/184/2
f 109/184/9 110/185/9 106/178/9 105/176/9
f 107/181/7 111/186/7 109/184/7 105/177/7
f 112/187/5 108/183/5 106/179/5 110/185/5
f 115/192/10 116/194/10 120/199/10 119/198/10
f 119/198/2 120/199/2 118/197/2 117/196/2
f 117/196/9 118/197/9 114/190/9 113/188/9
f 115/193/7 119/198/7 117/196/7 113/189/7
f 120/199/5 116/195/5 114/191/5 118/197/5
f 125/206/9 127/208/9 128/209/9 129/211/9 130/213/9 131/215/9 132/217/9 133/219/9 134/221/9 135/223/9 122/201/9 121/200/9
f 123/203/10 124/204/10 137/226/10 138/228/10 139/230/10 140/232/10 141/234/10 142/236/10 143/238/10 144/240/10 136/225/10 126/207/10
f 126/207/2 136/225/2 127/208/2 125/206/2
f 124/205/5 122/202/5 135/224/5 137/227/5
f 137/227/2 135/224/2 134/222/2 138/229/2
f 138/229/5 134/222/5 133/220/5 139/231/5
f 139/231/2 133/220/2 132/218/2 140/233/2
f 140/233/5 132/218/5 131/216/5 141/235/5
f 141/235/2 131/216/2 130/214/2 142/237/2
f 142/237/5 130/214/5 129/212/5 143/239/5
f 143/239/2 129/212/2 128/210/2 144/241/2
f 144/241/5 128/210/5 127/208/5 136/225/5
f 147/246/10 148/248/10 152/253/10 151/252/10
f 151/252/2 152/253/2 150/251/2 149/250/2
f 149/250/9 150/251/9 146/244/9 145/242/9
f 147/247/7 151/252/7 149/250/7 145/243/7
f 152/253/5 148/249/5 146/245/5 150/251/5
f 155/258/10 156/260/10 160/265/10 159/264/10
f 159/264/2 160/265/2 158/263/2 157/262/2
f 157/262/9 158/263/9 154/256/9 153/254/9
f 155/259/7 159/264/7 157/262/7 153/255/7
f 160/265/5 156/261/5 154/257/5 158/263/5
f 163/270/10 164/272/10 168/277/10 167/276/10
f 167/276/2 168/277/2 166/275/2 165/274/2
f 165/274/9 166/275/9 162/268/9 161/266/9
f 163/271/7 167/276/7 165/274/7 161/267/7
f 168/277/5 164/273/5 162/269/5 166/275/5
f 171/282/10 172/284/10 176/289/10 175/288/10
f 175/288/2 176/289/2 174/287/2 173/286/2
f 173/286/9 174/287/9 170/280/9 169/278/9
f 171/283/7 175/288/7 173/286/7 169/279/7
f 176/289/5 172/285/5 170/281/5 174/287/5
f 32/53/15 95/161/15 178/293/15 177/290/15
f 178/294/16 95/162/16 31/51/16 179/298/16
f 178/295/17 180/301/17 177/290/17
f 35/60/13 91/151/13 178/296/13 179/299/13
f 40/70/18 32/54/18 177/291/18
f 36/62/19 40/70/19 177/291/19 180/302/19
f 184/312/20 183/308/20 94/158/20 37/64/20
f 94/159/21 183/309/21 182/305/21 181/303/21
f 94/159/22 181/303/22 38/68/22
f 37/65/7 33/56/7 184/313/7
f 34/57/5 39/69/5 181/304/5 182/306/5
f 96/163/8 34/58/8 182/307/8 183/310/8
