# Blender 3.5.1
# www.blender.org
mtllib NormalTriangleCornerMint.mtl
o ZwyklyTrojkatnyMietowy
v -1.580228 7.605582 -1.172992
v -0.081735 6.311089 -0.409737
v -0.081735 7.605582 -1.172992
v -0.081735 6.311089 -1.936248
v -0.081735 7.405037 -1.172992
v -0.081735 6.411362 -1.758881
v -0.081735 6.411362 -0.587104
v -0.143128 7.405037 -1.172992
v -0.143128 6.411362 -1.758881
v -0.143128 6.411362 -0.587104
v -1.580228 7.605582 -3.462759
v -0.081735 6.311089 -2.699504
v -0.081735 7.605582 -3.462759
v -0.081735 6.311089 -4.226015
v -0.081735 7.405037 -3.462759
v -0.081735 6.411362 -4.048647
v -0.081735 6.411362 -2.876871
v -0.143128 7.405037 -3.462759
v -0.143128 6.411362 -4.048647
v -0.143128 6.411362 -2.876871
v -1.580228 7.605582 -5.752525
v -0.081735 6.311089 -4.989270
v -0.081735 7.605582 -5.752525
v -0.081735 6.311089 -6.515781
v -0.081735 7.405037 -5.752525
v -0.081735 6.411362 -6.338413
v -0.081735 6.411362 -5.166637
v -0.143128 7.405037 -5.752525
v -0.143128 6.411362 -6.338413
v -0.143128 6.411362 -5.166637
v -5.000815 0.000001 -0.000001
v -5.000815 8.067412 -0.000001
v -5.000815 0.000001 -7.003852
v -5.000815 8.067412 -7.003852
v -0.000000 0.000001 -0.000001
v -0.000000 6.249906 -0.000001
v -0.000000 0.000001 -7.003852
v -0.000000 6.249906 -7.003852
v -1.811380 8.067412 -7.003852
v -1.811380 8.067412 -0.000001
v -0.000000 0.000001 -4.967432
v -0.000000 1.110658 -4.977349
v -0.000000 3.240841 -4.977349
v -0.000000 4.114521 -4.977349
v -0.000000 5.524468 -4.977349
v -0.000000 0.000001 -6.484155
v -0.000000 1.110658 -6.505785
v -0.000000 3.240841 -6.505785
v -0.000000 4.114521 -6.505785
v -0.000000 5.524468 -6.505785
v -0.158172 1.110658 -6.505785
v -0.158172 1.110658 -4.977349
v -0.158172 3.240841 -6.505785
v -0.158172 3.240841 -4.977349
v -0.000000 1.747824 -2.706917
v -0.000000 3.240841 -2.706917
v -0.000000 4.114521 -2.706917
v -0.000000 5.524468 -2.706917
v -0.000000 1.747824 -1.911421
v -0.000000 3.240841 -1.911421
v -0.000000 4.114521 -1.911421
v -0.000000 5.524468 -1.911421
v -0.000000 1.747824 -4.216816
v -0.000000 3.240841 -4.216816
v -0.000000 4.114521 -4.216816
v -0.000000 5.524468 -4.216816
v -0.000000 1.747824 -0.415956
v -0.000000 3.240841 -0.415956
v -0.000000 4.114521 -0.415956
v -0.000000 5.524468 -0.415956
v -0.139593 4.114521 -6.505785
v -0.139593 4.114521 -4.977349
v -0.139593 5.524468 -6.505785
v -0.139593 5.524468 -4.977349
v -0.139593 1.747824 -4.216816
v -0.139593 1.747824 -2.706917
v -0.139593 3.240841 -4.216816
v -0.139593 3.240841 -2.706917
v -0.139593 4.114521 -4.216816
v -0.139593 4.114521 -2.706917
v -0.139593 5.524468 -4.216816
v -0.139593 5.524468 -2.706917
v -0.139593 5.524468 -1.911421
v -0.139593 4.114521 -1.911421
v -0.139593 3.240841 -1.911421
v -0.139593 1.747824 -1.911421
v -0.139593 1.747824 -0.415956
v -0.139593 3.240841 -0.415956
v -0.139593 4.114521 -0.415956
v -0.139593 5.524468 -0.415956
v -0.000000 1.112117 -0.000001
v -0.000000 1.107241 -6.505718
v -0.000000 1.107242 -6.507317
v -0.000000 1.107240 -7.003852
v -5.000815 1.108780 -0.000001
v -5.000815 1.109692 -7.003852
v -0.030347 3.319175 -0.417484
v -0.030347 3.454156 -0.417484
v -0.030347 3.319175 -1.908283
v -0.030347 3.454156 -1.908283
v 0.235040 3.319175 -0.417484
v 0.235040 3.454156 -0.417484
v 0.235040 3.319175 -1.908283
v 0.235040 3.454156 -1.908283
v -0.030347 3.319175 -2.705862
v -0.030347 3.454156 -2.705862
v -0.030347 3.319175 -4.196661
v -0.030347 3.454156 -4.196661
v 0.235040 3.319175 -2.705862
v 0.235040 3.454156 -2.705862
v 0.235040 3.319175 -4.196661
v 0.235040 3.454156 -4.196661
v -0.030347 3.319175 -4.994239
v -0.030347 3.454156 -4.994239
v -0.030347 3.319175 -6.485039
v -0.030347 3.454156 -6.485039
v 0.235040 3.319175 -4.994239
v 0.235040 3.454156 -4.994239
v 0.235040 3.319175 -6.485039
v 0.235040 3.454156 -6.485039
v -0.179489 -0.003236 -4.799870
v -0.179489 1.114904 -4.799870
v -0.179489 -0.003236 -6.679514
v -0.179489 1.114904 -6.679514
v 1.532003 -0.003236 -4.799870
v 1.532003 -0.003236 -6.679514
v 1.532003 0.211074 -4.799870
v 1.293316 0.211074 -4.799870
v 1.293316 0.437031 -4.799870
v 1.054630 0.437031 -4.799870
v 1.054630 0.662989 -4.799870
v 0.815944 0.662989 -4.799870
v 0.815944 0.888946 -4.799870
v 0.577258 0.888946 -4.799870
v 0.577258 1.114904 -4.799870
v 1.532003 0.211074 -6.679514
v 0.577258 1.114904 -6.679514
v 0.577258 0.888946 -6.679514
v 0.815944 0.888946 -6.679514
v 0.815944 0.662989 -6.679514
v 1.054630 0.662989 -6.679514
v 1.054630 0.437031 -6.679514
v 1.293316 0.437031 -6.679514
v 1.293316 0.211074 -6.679514
v -0.004567 5.602157 -0.417484
v -0.004567 5.737138 -0.417484
v -0.004567 5.602157 -1.908283
v -0.004567 5.737138 -1.908283
v 0.246589 5.602157 -0.417484
v 0.246589 5.737138 -0.417484
v 0.246589 5.602157 -1.908283
v 0.246589 5.737138 -1.908283
v -0.004567 5.602157 -2.705862
v -0.004567 5.737138 -2.705862
v -0.004567 5.602157 -4.196661
v -0.004567 5.737138 -4.196661
v 0.246589 5.602157 -2.705862
v 0.246589 5.737138 -2.705862
v 0.246589 5.602157 -4.196661
v 0.246589 5.737138 -4.196661
v -0.004567 5.602157 -4.994239
v -0.004567 5.737138 -4.994239
v -0.004567 5.602157 -6.485039
v -0.004567 5.737138 -6.485039
v 0.246589 5.602157 -4.994239
v 0.246589 5.737138 -4.994239
v 0.246589 5.602157 -6.485039
v 0.246589 5.737138 -6.485039
v -0.193021 2.060959 -6.252714
v -0.193021 2.183581 -6.252714
v -0.193021 2.060959 -6.397314
v -0.193021 2.183581 -6.397314
v -0.061824 2.060959 -6.252714
v -0.061824 2.183581 -6.252714
v -0.061824 2.060959 -6.397314
v -0.061824 2.183581 -6.397314
vn -0.0000 0.5079 -0.8614
vn 1.0000 -0.0000 -0.0000
vn -0.0000 0.5079 0.8614
vn -0.0000 -0.5079 -0.8614
vn -0.0000 1.0000 -0.0000
vn -0.0000 -0.5079 0.8614
vn -0.0000 -0.0000 1.0000
vn -0.0000 -0.0000 -1.0000
vn -0.0000 -1.0000 -0.0000
vn -1.0000 -0.0000 -0.0000
vn 0.7083 0.7059 -0.0000
vt 0.092160 0.859645
vt 0.144393 0.801248
vt 0.702656 0.160971
vt 0.144393 0.859645
vt 0.702656 0.128335
vt 0.144393 0.918043
vt 0.676560 0.147572
vt 0.700632 0.132334
vt 0.679704 0.147202
vt 0.700940 0.157699
vt 0.847118 0.163860
vt 0.699762 0.134854
vt 0.772829 0.163550
vt 0.682098 0.146625
vt 0.809741 0.224766
vt 0.699347 0.155843
vt 0.092160 0.859645
vt 0.144393 0.801248
vt 0.702656 0.160971
vt 0.144393 0.859645
vt 0.702656 0.128335
vt 0.144393 0.918043
vt 0.676560 0.147572
vt 0.700632 0.132334
vt 0.679704 0.147202
vt 0.700940 0.157699
vt 0.847118 0.163860
vt 0.699762 0.134854
vt 0.772829 0.163550
vt 0.682098 0.146625
vt 0.809741 0.224766
vt 0.699347 0.155843
vt 0.092160 0.859645
vt 0.144393 0.801248
vt 0.702656 0.160971
vt 0.144393 0.859645
vt 0.702656 0.128335
vt 0.144393 0.918043
vt 0.676560 0.147572
vt 0.700632 0.132334
vt 0.679704 0.147202
vt 0.700940 0.157699
vt 0.847118 0.163860
vt 0.699762 0.134854
vt 0.772829 0.163550
vt 0.682098 0.146625
vt 0.809741 0.224766
vt 0.699347 0.155843
vt 0.674223 0.168751
vt 0.031608 0.576369
vt 0.671059 0.170630
vt 0.051527 0.958349
vt 0.674223 0.122697
vt 0.208755 0.581025
vt 0.710666 0.168751
vt 0.713045 0.167523
vt 0.187018 0.958349
vt 0.710666 0.122697
vt 0.158916 0.575889
vt 0.176424 0.576369
vt 0.675725 0.129686
vt 0.051527 0.811227
vt 0.705382 0.161578
vt 0.077998 0.581025
vt 0.170799 0.722369
vt 0.682054 0.159349
vt 0.187018 0.811227
vt 0.675641 0.157549
vt 0.693279 0.167523
vt 0.187018 0.871935
vt 0.051527 0.871935
vt 0.692950 0.170630
vt 0.171972 0.649023
vt 0.149652 0.630832
vt 0.700651 0.145345
vt 0.699037 0.140163
vt 0.699886 0.143880
vt 0.690723 0.149308
vt 0.686153 0.149694
vt 0.678917 0.149806
vt 0.171972 0.715249
vt 0.700274 0.159575
vt 0.690134 0.157516
vt 0.685341 0.156956
vt 0.678318 0.156301
vt 0.700424 0.158867
vt 0.162214 0.922787
vt 0.224982 0.922787
vt 0.701002 0.146207
vt 0.162214 0.824754
vt 0.691105 0.156766
vt 0.224982 0.824754
vt 0.691714 0.149988
vt 0.696005 0.137693
vt 0.689459 0.139029
vt 0.685489 0.139749
vt 0.678828 0.139878
vt 0.695684 0.134933
vt 0.689238 0.135956
vt 0.685402 0.136660
vt 0.678743 0.136783
vt 0.697339 0.143539
vt 0.690348 0.145873
vt 0.686193 0.146548
vt 0.679098 0.146571
vt 0.694748 0.129205
vt 0.688336 0.129956
vt 0.684529 0.130291
vt 0.678229 0.130703
vt 0.880696 0.233851
vt 0.684458 0.156147
vt 0.982871 0.233851
vt 0.685317 0.150673
vt 0.880696 0.124200
vt 0.679060 0.155477
vt 0.982871 0.124200
vt 0.679742 0.150518
vt 0.880696 0.233851
vt 0.696388 0.143130
vt 0.982871 0.233851
vt 0.695581 0.138601
vt 0.880696 0.124200
vt 0.690891 0.144697
vt 0.982871 0.124200
vt 0.690423 0.139507
vt 0.880696 0.233851
vt 0.685180 0.145865
vt 0.982871 0.233851
vt 0.684862 0.140640
vt 0.880696 0.124200
vt 0.679773 0.145651
vt 0.982871 0.124200
vt 0.679743 0.140515
vt 0.880696 0.124200
vt 0.679332 0.135922
vt 0.880696 0.233851
vt 0.684419 0.136034
vt 0.880696 0.124200
vt 0.689753 0.135039
vt 0.880696 0.233851
vt 0.694809 0.134465
vt 0.982871 0.233851
vt 0.694255 0.130067
vt 0.982871 0.124200
vt 0.689236 0.130453
vt 0.982871 0.233851
vt 0.683965 0.131164
vt 0.982871 0.124200
vt 0.679103 0.131263
vt 0.703632 0.133362
vt 0.697106 0.128454
vt 0.696807 0.128107
vt 0.144024 0.596801
vt 0.169040 0.602134
vt 0.705382 0.133363
vt 0.697703 0.132098
vt 0.154924 0.712744
vt 0.700286 0.159577
vt 0.154920 0.712766
vt 0.700285 0.159582
vt 0.084638 0.604192
vt 0.149564 0.719148
vt 0.683628 0.133850
vt 0.699016 0.161095
vt 0.671059 0.133344
vt 0.674223 0.162286
vt 0.031608 0.602060
vt 0.208755 0.604241
vt 0.713045 0.133861
vt 0.710666 0.162280
vt 0.122250 0.919123
vt 0.085298 0.882172
vt 0.159201 0.919123
vt 0.196153 0.882172
vt 0.122250 0.808269
vt 0.085298 0.845220
vt 0.159201 0.808269
vt 0.196153 0.845220
vt 0.122250 0.882172
vt 0.159201 0.882172
vt 0.122250 0.845220
vt 0.159201 0.845220
vt 0.122250 0.919123
vt 0.085298 0.882172
vt 0.159201 0.919123
vt 0.196153 0.882172
vt 0.122250 0.808269
vt 0.085298 0.845220
vt 0.159201 0.808269
vt 0.196153 0.845220
vt 0.122250 0.882172
vt 0.159201 0.882172
vt 0.122250 0.845220
vt 0.159201 0.845220
vt 0.122250 0.919123
vt 0.085298 0.882172
vt 0.159201 0.919123
vt 0.196153 0.882172
vt 0.122250 0.808269
vt 0.085298 0.845220
vt 0.159201 0.808269
vt 0.196153 0.845220
vt 0.122250 0.882172
vt 0.159201 0.882172
vt 0.122250 0.845220
vt 0.159201 0.845220
vt 0.031696 0.976295
vt 0.068700 0.976295
vt 0.101902 0.939291
vt 0.031696 0.865281
vt 0.068700 0.869084
vt 0.101902 0.902286
vt 0.031696 0.939291
vt 0.031696 0.902286
vt 0.035498 0.939291
vt 0.035498 0.945931
vt 0.035498 0.939291
vt 0.043799 0.945931
vt 0.043799 0.939291
vt 0.043799 0.952572
vt 0.043799 0.939291
vt 0.052099 0.952572
vt 0.052099 0.939291
vt 0.052099 0.959212
vt 0.088622 0.939291
vt 0.060400 0.959212
vt 0.088622 0.939291
vt 0.060400 0.965852
vt 0.095262 0.939291
vt 0.068700 0.965852
vt 0.095262 0.939291
vt 0.035498 0.902286
vt 0.068700 0.875724
vt 0.095262 0.902286
vt 0.060400 0.875724
vt 0.095262 0.902286
vt 0.060400 0.882365
vt 0.088622 0.902286
vt 0.052099 0.882365
vt 0.088622 0.902286
vt 0.052099 0.889005
vt 0.052099 0.902286
vt 0.043799 0.889005
vt 0.043799 0.902286
vt 0.043799 0.895646
vt 0.043799 0.902286
vt 0.035498 0.895646
vt 0.035498 0.902286
vt 0.099638 0.922979
vt 0.061757 0.885097
vt 0.137519 0.922979
vt 0.175401 0.885097
vt 0.099638 0.809335
vt 0.061757 0.847216
vt 0.137519 0.809335
vt 0.175401 0.847216
vt 0.099638 0.885097
vt 0.137519 0.885097
vt 0.099638 0.847216
vt 0.137519 0.847216
vt 0.099638 0.922979
vt 0.061757 0.885097
vt 0.137519 0.922979
vt 0.175401 0.885097
vt 0.099638 0.809335
vt 0.061757 0.847216
vt 0.137519 0.809335
vt 0.175401 0.847216
vt 0.099638 0.885097
vt 0.137519 0.885097
vt 0.099638 0.847216
vt 0.137519 0.847216
vt 0.099638 0.922979
vt 0.061757 0.885097
vt 0.137519 0.922979
vt 0.175401 0.885097
vt 0.099638 0.809335
vt 0.061757 0.847216
vt 0.137519 0.809335
vt 0.175401 0.847216
vt 0.099638 0.885097
vt 0.137519 0.885097
vt 0.099638 0.847216
vt 0.137519 0.847216
vt 0.079954 0.935920
vt 0.052362 0.908327
vt 0.107546 0.935920
vt 0.135139 0.908327
vt 0.079954 0.853143
vt 0.052362 0.880735
vt 0.107546 0.853143
vt 0.135139 0.880735
vt 0.079954 0.908327
vt 0.107546 0.908327
vt 0.079954 0.880735
vt 0.107546 0.880735
s 0
usemtl BasicTexture
f 1/1/1 3/4/1 4/6/1
f 3/5/2 2/3/2 7/10/2 5/8/2
f 2/2/3 3/4/3 1/1/3
f 5/8/4 7/10/4 10/16/4 8/12/4
f 2/3/2 4/7/2 6/9/2 7/10/2
f 4/7/2 3/5/2 5/8/2 6/9/2
f 9/13/2 8/11/2 10/15/2
f 7/10/5 6/9/5 9/14/5 10/16/5
f 6/9/6 5/8/6 8/12/6 9/14/6
f 11/17/1 13/20/1 14/22/1
f 13/21/2 12/19/2 17/26/2 15/24/2
f 12/18/3 13/20/3 11/17/3
f 15/24/4 17/26/4 20/32/4 18/28/4
f 12/19/2 14/23/2 16/25/2 17/26/2
f 14/23/2 13/21/2 15/24/2 16/25/2
f 19/29/2 18/27/2 20/31/2
f 17/26/5 16/25/5 19/30/5 20/32/5
f 16/25/6 15/24/6 18/28/6 19/30/6
f 21/33/1 23/36/1 24/38/1
f 23/37/2 22/35/2 27/42/2 25/40/2
f 22/34/3 23/36/3 21/33/3
f 25/40/4 27/42/4 30/48/4 28/44/4
f 22/35/2 24/39/2 26/41/2 27/42/2
f 24/39/2 23/37/2 25/40/2 26/41/2
f 29/45/2 28/43/2 30/47/2
f 27/42/5 26/41/5 29/46/5 30/48/5
f 26/41/6 25/40/6 28/44/6 29/46/6
f 32/51/7 95/165/7 91/150/7 40/72/7
f 33/54/8 96/168/8 94/161/8 37/64/8
f 67/106/2 68/107/2 91/151/2
f 68/107/2 69/108/2 36/61/2 91/152/2
f 69/108/2 70/109/2 36/61/2
f 50/85/9 45/80/9 74/117/9 73/115/9
f 48/83/2 49/84/2 44/79/2 43/78/2
f 47/82/7 48/83/7 53/91/7 51/86/7
f 50/85/2 38/68/2 45/80/2
f 37/65/2 93/159/2 92/157/2 46/81/2
f 37/65/2 94/162/2 93/159/2
f 38/68/2 49/84/2 48/83/2
f 38/68/2 50/85/2 49/84/2
f 51/87/2 53/90/2 54/92/2 52/88/2
f 48/83/9 43/78/9 54/93/9 53/91/9
f 43/78/8 42/75/8 52/89/8 54/93/8
f 56/95/8 55/94/8 76/121/8 78/125/8
f 64/103/2 65/104/2 57/96/2 56/95/2
f 57/96/5 65/104/5 79/127/5 80/129/5
f 94/163/8 96/169/8 34/56/8 39/69/8
f 39/70/5 34/57/5 32/52/5 40/71/5
f 66/105/2 38/68/2 36/61/2 58/97/2
f 57/96/2 58/97/2 62/101/2 61/100/2
f 56/95/2 57/96/2 61/100/2 60/99/2
f 55/94/2 56/95/2 60/99/2 59/98/2
f 41/73/2 42/74/2 91/153/2 35/59/2
f 58/97/2 36/61/2 62/101/2
f 45/80/2 38/68/2 66/105/2
f 94/163/8 39/69/8 38/66/8
f 42/75/2 43/78/2 64/103/2 63/102/2
f 43/78/2 44/79/2 65/104/2 64/103/2
f 44/79/2 45/80/2 66/105/2 65/104/2
f 31/49/10 95/166/10 32/53/10 34/58/10 96/170/10 33/55/10
f 60/99/9 68/107/9 88/145/9 85/139/9
f 60/99/2 61/100/2 69/108/2 68/107/2
f 70/109/8 69/108/8 89/147/8 90/149/8
f 91/154/7 95/167/7 31/50/7 35/60/7
f 62/101/2 36/61/2 70/109/2
f 71/110/2 73/114/2 74/116/2 72/112/2
f 79/126/2 81/130/2 82/132/2 80/128/2
f 75/118/2 77/122/2 78/124/2 76/120/2
f 84/136/2 83/134/2 90/148/2 89/146/2
f 86/140/2 85/138/2 88/144/2 87/142/2
f 69/108/5 61/100/5 84/137/5 89/147/5
f 66/105/9 58/97/9 82/133/9 81/131/9
f 61/100/7 62/101/7 83/135/7 84/137/7
f 68/107/8 67/106/8 87/143/8 88/145/8
f 62/101/9 70/109/9 90/149/9 83/135/9
f 63/102/7 64/103/7 77/123/7 75/119/7
f 59/98/7 60/99/7 85/139/7 86/141/7
f 49/84/7 50/85/7 73/115/7 71/111/7
f 45/80/8 44/79/8 72/113/8 74/117/8
f 65/104/7 66/105/7 81/131/7 79/127/7
f 55/94/5 63/102/5 75/119/5 76/121/5
f 58/97/8 57/96/8 80/129/8 82/133/8
f 44/79/5 49/84/5 71/111/5 72/113/5
f 67/106/5 59/98/5 86/141/5 87/143/5
f 64/103/9 56/95/9 78/125/9 77/123/9
f 39/70/11 40/71/11 36/62/11 38/67/11
f 91/156/2 59/98/2 67/106/2
f 93/160/2 94/164/2 38/68/2 48/83/2 47/82/2
f 91/155/7 36/63/7 40/72/7
f 91/156/2 42/76/2 55/94/2 59/98/2
f 42/77/2 63/102/2 55/94/2
f 92/158/2 93/160/2 47/82/2
f 99/175/8 100/177/8 104/182/8 103/181/8
f 103/181/2 104/182/2 102/180/2 101/179/2
f 101/179/7 102/180/7 98/173/7 97/171/7
f 99/176/9 103/181/9 101/179/9 97/172/9
f 104/182/5 100/178/5 98/174/5 102/180/5
f 107/187/8 108/189/8 112/194/8 111/193/8
f 111/193/2 112/194/2 110/192/2 109/191/2
f 109/191/7 110/192/7 106/185/7 105/183/7
f 107/188/9 111/193/9 109/191/9 105/184/9
f 112/194/5 108/190/5 106/186/5 110/192/5
f 115/199/8 116/201/8 120/206/8 119/205/8
f 119/205/2 120/206/2 118/204/2 117/203/2
f 117/203/7 118/204/7 114/197/7 113/195/7
f 115/200/9 119/205/9 117/203/9 113/196/9
f 120/206/5 116/202/5 114/198/5 118/204/5
f 125/213/7 127/215/7 128/216/7 129/218/7 130/220/7 131/222/7 132/224/7 133/226/7 134/228/7 135/230/7 122/208/7 121/207/7
f 123/210/8 124/211/8 137/233/8 138/235/8 139/237/8 140/239/8 141/241/8 142/243/8 143/245/8 144/247/8 136/232/8 126/214/8
f 126/214/2 136/232/2 127/215/2 125/213/2
f 124/212/5 122/209/5 135/231/5 137/234/5
f 137/234/2 135/231/2 134/229/2 138/236/2
f 138/236/5 134/229/5 133/227/5 139/238/5
f 139/238/2 133/227/2 132/225/2 140/240/2
f 140/240/5 132/225/5 131/223/5 141/242/5
f 141/242/2 131/223/2 130/221/2 142/244/2
f 142/244/5 130/221/5 129/219/5 143/246/5
f 143/246/2 129/219/2 128/217/2 144/248/2
f 144/248/5 128/217/5 127/215/5 136/232/5
f 147/253/8 148/255/8 152/260/8 151/259/8
f 151/259/2 152/260/2 150/258/2 149/257/2
f 149/257/7 150/258/7 146/251/7 145/249/7
f 147/254/9 151/259/9 149/257/9 145/250/9
f 152/260/5 148/256/5 146/252/5 150/258/5
f 155/265/8 156/267/8 160/272/8 159/271/8
f 159/271/2 160/272/2 158/270/2 157/269/2
f 157/269/7 158/270/7 154/263/7 153/261/7
f 155/266/9 159/271/9 157/269/9 153/262/9
f 160/272/5 156/268/5 154/264/5 158/270/5
f 163/277/8 164/279/8 168/284/8 167/283/8
f 167/283/2 168/284/2 166/282/2 165/281/2
f 165/281/7 166/282/7 162/275/7 161/273/7
f 163/278/9 167/283/9 165/281/9 161/274/9
f 168/284/5 164/280/5 162/276/5 166/282/5
f 171/289/8 172/291/8 176/296/8 175/295/8
f 175/295/2 176/296/2 174/294/2 173/293/2
f 173/293/7 174/294/7 170/287/7 169/285/7
f 171/290/9 175/295/9 173/293/9 169/286/9
f 176/296/5 172/292/5 170/288/5 174/294/5
