# Blender 3.5.1
# www.blender.org
mtllib NormalSquereGreen.mtl
o ZwyklayKwadratowyZielony
v 3.082551 3.319175 2.469655
v 3.082551 3.454156 2.469655
v 1.591911 3.319175 2.469655
v 1.591911 3.454156 2.469655
v 3.082550 3.319175 2.735032
v 3.082550 3.454156 2.735032
v 1.591911 3.319175 2.735032
v 1.591911 3.454156 2.735032
v 0.794419 3.319175 2.469655
v 0.794419 3.454156 2.469655
v -0.696220 3.319175 2.469655
v -0.696220 3.454156 2.469655
v 0.794419 3.319175 2.735032
v 0.794419 3.454156 2.735032
v -0.696220 3.319175 2.735032
v -0.696220 3.454156 2.735032
v -1.493712 3.319175 2.469655
v -1.493712 3.454156 2.469655
v -2.984351 3.319175 2.469654
v -2.984351 3.454156 2.469654
v -1.493712 3.319175 2.735032
v -1.493712 3.454156 2.735032
v -2.984351 3.319175 2.735032
v -2.984351 3.454156 2.735032
v 3.082562 5.602157 2.495434
v 3.082562 5.737138 2.495434
v 1.591922 5.602157 2.495434
v 1.591922 5.737138 2.495434
v 3.082562 5.602157 2.746581
v 3.082562 5.737138 2.746581
v 1.591922 5.602157 2.746581
v 1.591922 5.737138 2.746581
v 0.794431 5.602157 2.495434
v 0.794431 5.737138 2.495434
v -0.696209 5.602157 2.495434
v -0.696209 5.737138 2.495434
v 0.794431 5.602157 2.746581
v 0.794431 5.737138 2.746581
v -0.696209 5.602157 2.746581
v -0.696209 5.737138 2.746581
v -1.493700 5.602157 2.495434
v -1.493700 5.737138 2.495434
v -2.984341 5.602157 2.495434
v -2.984341 5.737138 2.495434
v -1.493700 5.602157 2.746581
v -1.493700 5.737138 2.746581
v -2.984341 5.602157 2.746581
v -2.984341 5.737138 2.746581
v -1.299344 -0.003235 2.320517
v -1.299344 1.114904 2.320517
v -3.178785 -0.003235 2.320517
v -3.178785 1.114904 2.320517
v -1.299344 -0.003235 4.031949
v -3.178786 -0.003235 4.031949
v -1.299344 0.211073 4.031949
v -1.299344 0.211073 3.793272
v -1.299344 0.437031 3.793272
v -1.299344 0.437031 3.554594
v -1.299344 0.662989 3.554594
v -1.299344 0.662989 3.315916
v -1.299344 0.888947 3.315916
v -1.299344 0.888947 3.077238
v -1.299344 1.114904 3.077238
v -3.178786 0.211073 4.031949
v -3.178786 1.114904 3.077237
v -3.178786 0.888947 3.077237
v -3.178786 0.888947 3.315915
v -3.178786 0.662989 3.315915
v -3.178786 0.662989 3.554593
v -3.178786 0.437031 3.554593
v -3.178786 0.437031 3.793271
v -3.178786 0.211073 3.793271
v 3.500000 0.000000 -2.500639
v 3.500000 8.067112 -2.500639
v -3.503097 0.000000 -2.500640
v -3.503097 8.067112 -2.500640
v 3.500000 0.000000 2.500000
v 3.500000 6.249906 2.500000
v -3.503097 0.000000 2.500000
v -3.503097 6.249906 2.500000
v -3.503097 8.067112 0.688683
v 3.500000 8.067112 0.688684
v -1.466896 0.000000 2.500000
v -1.476812 1.110658 2.500000
v -1.476812 3.240840 2.500000
v -1.476812 4.114521 2.500000
v -1.476812 5.524469 2.500000
v -2.983456 0.000000 2.500000
v -3.005082 1.110658 2.500000
v -3.005082 3.240840 2.500000
v -3.005082 4.114521 2.500000
v -3.005082 5.524469 2.500000
v -3.005082 1.110658 2.341833
v -1.476812 1.110658 2.341833
v -3.005082 3.240840 2.341833
v -1.476812 3.240840 2.341833
v 0.793375 1.747823 2.500000
v 0.793375 3.240840 2.500000
v 0.793375 4.114521 2.500000
v 0.793375 5.524469 2.500000
v 1.588785 1.747823 2.500000
v 1.588785 3.240840 2.500000
v 1.588785 4.114521 2.500000
v 1.588785 5.524469 2.500000
v -0.716361 1.747823 2.500000
v -0.716361 3.240840 2.500000
v -0.716361 4.114521 2.500000
v -0.716361 5.524469 2.500000
v 3.084090 1.747823 2.500000
v 3.084090 3.240840 2.500000
v 3.084090 4.114521 2.500000
v 3.084090 5.524469 2.500000
v -3.005082 4.114521 2.360411
v -1.476812 4.114521 2.360411
v -3.005082 5.524469 2.360411
v -1.476812 5.524469 2.360411
v -0.716361 1.747823 2.360411
v 0.793375 1.747823 2.360411
v -0.716361 3.240840 2.360411
v 0.793375 3.240840 2.360411
v -0.716361 4.114521 2.360411
v 0.793375 4.114521 2.360411
v -0.716361 5.524469 2.360411
v 0.793375 5.524469 2.360411
v 1.588785 5.524469 2.360411
v 1.588785 4.114521 2.360411
v 1.588785 3.240840 2.360411
v 1.588785 1.747823 2.360411
v 3.084090 1.747823 2.360412
v 3.084090 3.240840 2.360412
v 3.084090 4.114521 2.360412
v 3.084090 5.524469 2.360412
v 3.500000 1.112840 2.500000
v 3.500000 1.114525 -2.500639
v -3.005040 1.108442 2.500000
v -3.503097 1.108442 2.500000
v -3.006077 1.108442 2.500000
v -3.503097 1.108215 -2.500640
v 2.294214 7.604758 1.047768
v 0.853994 7.604758 1.047768
v 2.294214 6.383304 2.354593
v 2.294214 7.604758 2.354593
v 0.853994 6.383304 2.354593
v 0.853994 7.604758 2.354593
v 0.951090 7.522411 2.354593
v 0.951090 6.465652 2.354593
v 2.197119 6.465652 2.354593
v 2.197119 7.522411 2.354593
v 0.951090 7.522411 2.301315
v 0.951090 6.465652 2.301315
v 2.197119 6.465652 2.301315
v 2.197119 7.522411 2.301315
v 1.574104 7.995295 0.657550
v 1.574104 7.995295 2.354593
v -0.734007 7.604758 1.047768
v -2.174228 7.604758 1.047768
v -0.734007 6.383304 2.354593
v -0.734007 7.604758 2.354593
v -2.174228 6.383304 2.354593
v -2.174228 7.604758 2.354593
v -2.077131 7.522411 2.354593
v -2.077131 6.465652 2.354593
v -0.831103 6.465652 2.354593
v -0.831103 7.522411 2.354593
v -2.077131 7.522411 2.301315
v -2.077131 6.465652 2.301315
v -0.831103 6.465652 2.301315
v -0.831103 7.522411 2.301315
v -1.454118 7.995295 0.657550
v -1.454118 7.995295 2.354593
v -2.765851 2.060959 2.306985
v -2.765851 2.183581 2.306985
v -2.910436 2.060959 2.306985
v -2.910436 2.183581 2.306985
v -2.765851 2.060959 2.438178
v -2.765851 2.183581 2.438178
v -2.910436 2.060959 2.438178
v -2.910436 2.183581 2.438178
vn -1.0000 -0.0000 -0.0000
vn -0.0000 -0.0000 1.0000
vn 1.0000 -0.0000 -0.0000
vn -0.0000 -1.0000 -0.0000
vn -0.0000 1.0000 -0.0000
vn -0.0000 -0.0000 -1.0000
vn -0.0000 0.7060 0.7083
vn 0.4767 0.8790 -0.0000
vn -0.4767 0.8790 -0.0000
vt 0.122250 0.919123
vt 0.085298 0.882172
vt 0.159201 0.919123
vt 0.196153 0.882172
vt 0.122250 0.808269
vt 0.085298 0.845220
vt 0.159201 0.808269
vt 0.196153 0.845220
vt 0.122250 0.882172
vt 0.159201 0.882172
vt 0.122250 0.845220
vt 0.159201 0.845220
vt 0.122250 0.919123
vt 0.085298 0.882172
vt 0.159201 0.919123
vt 0.196153 0.882172
vt 0.122250 0.808269
vt 0.085298 0.845220
vt 0.159201 0.808269
vt 0.196153 0.845220
vt 0.122250 0.882172
vt 0.159201 0.882172
vt 0.122250 0.845220
vt 0.159201 0.845220
vt 0.122250 0.919123
vt 0.085298 0.882172
vt 0.159201 0.919123
vt 0.196153 0.882172
vt 0.122250 0.808269
vt 0.085298 0.845220
vt 0.159201 0.808269
vt 0.196153 0.845220
vt 0.122250 0.882172
vt 0.159201 0.882172
vt 0.122250 0.845220
vt 0.159201 0.845220
vt 0.099638 0.922979
vt 0.061757 0.885097
vt 0.137519 0.922979
vt 0.175401 0.885097
vt 0.099638 0.809335
vt 0.061757 0.847216
vt 0.137519 0.809335
vt 0.175401 0.847216
vt 0.099638 0.885097
vt 0.137519 0.885097
vt 0.099638 0.847216
vt 0.137519 0.847216
vt 0.099638 0.922979
vt 0.061757 0.885097
vt 0.137519 0.922979
vt 0.175401 0.885097
vt 0.099638 0.809335
vt 0.061757 0.847216
vt 0.137519 0.809335
vt 0.175401 0.847216
vt 0.099638 0.885097
vt 0.137519 0.885097
vt 0.099638 0.847216
vt 0.137519 0.847216
vt 0.099638 0.922979
vt 0.061757 0.885097
vt 0.137519 0.922979
vt 0.175401 0.885097
vt 0.099638 0.809335
vt 0.061757 0.847216
vt 0.137519 0.809335
vt 0.175401 0.847216
vt 0.099638 0.885097
vt 0.137519 0.885097
vt 0.099638 0.847216
vt 0.137519 0.847216
vt 0.031696 0.976295
vt 0.068700 0.976295
vt 0.101902 0.939291
vt 0.031696 0.865281
vt 0.068700 0.869084
vt 0.101902 0.902286
vt 0.031696 0.939291
vt 0.031696 0.902286
vt 0.035498 0.939291
vt 0.035498 0.945931
vt 0.035498 0.939291
vt 0.043799 0.945931
vt 0.043799 0.939291
vt 0.043799 0.952572
vt 0.043799 0.939291
vt 0.052099 0.952572
vt 0.052099 0.939291
vt 0.052099 0.959212
vt 0.088622 0.939291
vt 0.060400 0.959212
vt 0.088622 0.939291
vt 0.060400 0.965852
vt 0.095262 0.939291
vt 0.068700 0.965852
vt 0.095262 0.939291
vt 0.035498 0.902286
vt 0.068700 0.875724
vt 0.095262 0.902286
vt 0.060400 0.875724
vt 0.095262 0.902286
vt 0.060400 0.882365
vt 0.088622 0.902286
vt 0.052099 0.882365
vt 0.088622 0.902286
vt 0.052099 0.889005
vt 0.052099 0.902286
vt 0.043799 0.889005
vt 0.043799 0.902286
vt 0.043799 0.895646
vt 0.043799 0.902286
vt 0.035498 0.895646
vt 0.035498 0.902286
vt 0.552848 0.473630
vt 0.039420 0.572463
vt 0.539498 0.481559
vt 0.051527 0.958349
vt 0.552848 0.279317
vt 0.216568 0.577119
vt 0.706608 0.473630
vt 0.187018 0.958349
vt 0.706608 0.279317
vt 0.716645 0.468448
vt 0.166728 0.571983
vt 0.184237 0.572463
vt 0.559182 0.308803
vt 0.051527 0.811227
vt 0.684314 0.443365
vt 0.085811 0.577119
vt 0.178611 0.718463
vt 0.187018 0.811227
vt 0.558828 0.426365
vt 0.585888 0.433962
vt 0.187018 0.871935
vt 0.633250 0.468448
vt 0.051527 0.871935
vt 0.631859 0.481559
vt 0.179784 0.645117
vt 0.157461 0.626922
vt 0.664355 0.374875
vt 0.657538 0.353008
vt 0.661124 0.368693
vt 0.622463 0.391597
vt 0.603183 0.393223
vt 0.572652 0.393696
vt 0.179784 0.711343
vt 0.662761 0.434916
vt 0.619979 0.426228
vt 0.599755 0.423863
vt 0.570125 0.421103
vt 0.663394 0.431928
vt 0.162214 0.922787
vt 0.224982 0.922787
vt 0.665836 0.378512
vt 0.162214 0.824754
vt 0.624078 0.423062
vt 0.224982 0.824754
vt 0.626644 0.394466
vt 0.644751 0.342587
vt 0.617130 0.348227
vt 0.600379 0.351264
vt 0.572275 0.351808
vt 0.643395 0.330945
vt 0.616201 0.335259
vt 0.600014 0.338231
vt 0.571917 0.338748
vt 0.650380 0.367254
vt 0.620882 0.377103
vt 0.603349 0.379949
vt 0.573417 0.380047
vt 0.639445 0.306775
vt 0.612394 0.309942
vt 0.596332 0.311357
vt 0.569750 0.313095
vt 0.880696 0.233851
vt 0.596032 0.420450
vt 0.982871 0.233851
vt 0.599654 0.397355
vt 0.880696 0.124200
vt 0.573256 0.417623
vt 0.982871 0.124200
vt 0.576134 0.396700
vt 0.880696 0.233851
vt 0.646367 0.365527
vt 0.982871 0.233851
vt 0.642964 0.346421
vt 0.880696 0.124200
vt 0.623172 0.372142
vt 0.982871 0.124200
vt 0.621201 0.350242
vt 0.880696 0.233851
vt 0.599078 0.377066
vt 0.982871 0.233851
vt 0.597737 0.355022
vt 0.880696 0.124200
vt 0.576263 0.376164
vt 0.982871 0.124200
vt 0.576137 0.354497
vt 0.880696 0.124200
vt 0.574401 0.335115
vt 0.880696 0.233851
vt 0.595864 0.335589
vt 0.880696 0.124200
vt 0.618371 0.331389
vt 0.880696 0.233851
vt 0.639705 0.328969
vt 0.982871 0.233851
vt 0.637368 0.310414
vt 0.982871 0.124200
vt 0.616189 0.312042
vt 0.982871 0.233851
vt 0.593951 0.315042
vt 0.982871 0.124200
vt 0.573438 0.315460
vt 0.676923 0.324336
vt 0.649387 0.303611
vt 0.648123 0.302146
vt 0.151830 0.592905
vt 0.651907 0.318991
vt 0.684314 0.324334
vt 0.176846 0.598250
vt 0.539498 0.324373
vt 0.552848 0.446210
vt 0.039420 0.598287
vt 0.162718 0.708835
vt 0.662795 0.434921
vt 0.092457 0.600309
vt 0.157354 0.715238
vt 0.657431 0.441324
vt 0.592535 0.326394
vt 0.162715 0.708849
vt 0.662793 0.434935
vt 0.216568 0.600304
vt 0.706608 0.446366
vt 0.716645 0.326390
vt 0.668660 0.325297
vt 0.112368 0.954165
vt 0.701009 0.290692
vt 0.112368 0.897397
vt 0.668660 0.388700
vt 0.055600 0.954165
vt 0.605258 0.388700
vt 0.554307 0.437395
vt 0.668660 0.452102
vt 0.701009 0.437395
vt 0.605258 0.452102
vt 0.055600 0.897397
vt 0.605258 0.452102
vt 0.668660 0.452102
vt 0.668660 0.388700
vt 0.605258 0.388700
vt 0.979265 0.127687
vt 0.605258 0.452102
vt 0.883113 0.127687
vt 0.668660 0.452102
vt 0.883113 0.223839
vt 0.668660 0.388700
vt 0.979265 0.223839
vt 0.605258 0.388700
vt 0.112368 0.925781
vt 0.605258 0.420401
vt 0.055600 0.925781
vt 0.668660 0.325297
vt 0.112368 0.954165
vt 0.701009 0.290692
vt 0.112368 0.897397
vt 0.668660 0.388700
vt 0.055600 0.954165
vt 0.605258 0.388700
vt 0.554307 0.437395
vt 0.668660 0.452102
vt 0.701009 0.437395
vt 0.605258 0.452102
vt 0.055600 0.897397
vt 0.605258 0.452102
vt 0.668660 0.452102
vt 0.668660 0.388700
vt 0.605258 0.388700
vt 0.979265 0.127687
vt 0.605258 0.452102
vt 0.883113 0.127687
vt 0.668660 0.452102
vt 0.883113 0.223839
vt 0.668660 0.388700
vt 0.979265 0.223839
vt 0.605258 0.388700
vt 0.112368 0.925781
vt 0.605258 0.420401
vt 0.055600 0.925781
vt 0.079954 0.935920
vt 0.052362 0.908327
vt 0.107546 0.935920
vt 0.135139 0.908327
vt 0.079954 0.853143
vt 0.052362 0.880735
vt 0.107546 0.853143
vt 0.135139 0.880735
vt 0.079954 0.908327
vt 0.107546 0.908327
vt 0.079954 0.880735
vt 0.107546 0.880735
s 0
usemtl BasicTexture
f 3/5/1 7/11/1 8/12/1 4/7/1
f 7/11/2 5/9/2 6/10/2 8/12/2
f 5/9/3 1/1/3 2/3/3 6/10/3
f 3/6/4 1/2/4 5/9/4 7/11/4
f 8/12/5 6/10/5 2/4/5 4/8/5
f 11/17/1 15/23/1 16/24/1 12/19/1
f 15/23/2 13/21/2 14/22/2 16/24/2
f 13/21/3 9/13/3 10/15/3 14/22/3
f 11/18/4 9/14/4 13/21/4 15/23/4
f 16/24/5 14/22/5 10/16/5 12/20/5
f 19/29/1 23/35/1 24/36/1 20/31/1
f 23/35/2 21/33/2 22/34/2 24/36/2
f 21/33/3 17/25/3 18/27/3 22/34/3
f 19/30/4 17/26/4 21/33/4 23/35/4
f 24/36/5 22/34/5 18/28/5 20/32/5
f 27/41/1 31/47/1 32/48/1 28/43/1
f 31/47/2 29/45/2 30/46/2 32/48/2
f 29/45/3 25/37/3 26/39/3 30/46/3
f 27/42/4 25/38/4 29/45/4 31/47/4
f 32/48/5 30/46/5 26/40/5 28/44/5
f 35/53/1 39/59/1 40/60/1 36/55/1
f 39/59/2 37/57/2 38/58/2 40/60/2
f 37/57/3 33/49/3 34/51/3 38/58/3
f 35/54/4 33/50/4 37/57/4 39/59/4
f 40/60/5 38/58/5 34/52/5 36/56/5
f 43/65/1 47/71/1 48/72/1 44/67/1
f 47/71/2 45/69/2 46/70/2 48/72/2
f 45/69/3 41/61/3 42/63/3 46/70/3
f 43/66/4 41/62/4 45/69/4 47/71/4
f 48/72/5 46/70/5 42/64/5 44/68/5
f 53/79/3 49/73/3 50/74/3 63/96/3 62/94/3 61/92/3 60/90/3 59/88/3 58/86/3 57/84/3 56/82/3 55/81/3
f 51/76/1 54/80/1 64/98/1 72/113/1 71/111/1 70/109/1 69/107/1 68/105/1 67/103/1 66/101/1 65/99/1 52/77/1
f 54/80/2 53/79/2 55/81/2 64/98/2
f 52/78/5 65/100/5 63/97/5 50/75/5
f 65/100/2 66/102/2 62/95/2 63/97/2
f 66/102/5 67/104/5 61/93/5 62/95/5
f 67/104/2 68/106/2 60/91/2 61/93/2
f 68/106/5 69/108/5 59/89/5 60/91/5
f 69/108/2 70/110/2 58/87/2 59/89/2
f 70/110/5 71/112/5 57/85/5 58/87/5
f 71/112/2 72/114/2 56/83/2 57/85/2
f 72/114/5 64/98/5 55/81/5 56/83/5
f 74/117/3 82/138/3 133/216/3 134/223/3
f 75/120/1 79/130/1 136/228/1 138/234/1
f 109/172/2 133/217/2 110/173/2
f 110/173/2 133/218/2 78/127/2 111/174/2
f 111/174/2 78/127/2 112/175/2
f 92/151/4 115/181/4 116/183/4 87/146/4
f 90/149/2 85/144/2 86/145/2 91/150/2
f 89/148/3 93/152/3 95/157/3 90/149/3
f 92/151/2 87/146/2 80/133/2
f 79/131/2 88/147/2 135/226/2 137/232/2
f 79/131/2 137/232/2 136/229/2
f 80/133/2 90/149/2 91/150/2
f 80/133/2 91/150/2 92/151/2
f 93/153/2 94/154/2 96/158/2 95/156/2
f 90/149/4 95/157/4 96/159/4 85/144/4
f 85/144/1 96/159/1 94/155/1 84/141/1
f 98/161/1 120/191/1 118/187/1 97/160/1
f 106/169/2 98/161/2 99/162/2 107/170/2
f 99/162/5 122/195/5 121/193/5 107/170/5
f 81/135/5 82/137/5 74/118/5 76/122/5
f 108/171/2 100/163/2 78/127/2 80/133/2
f 99/162/2 103/166/2 104/167/2 100/163/2
f 98/161/2 102/165/2 103/166/2 99/162/2
f 97/160/2 101/164/2 102/165/2 98/161/2
f 83/139/2 77/125/2 133/219/2 84/140/2
f 100/163/2 104/167/2 78/127/2
f 87/146/2 108/171/2 80/133/2
f 84/141/2 105/168/2 106/169/2 85/144/2
f 85/144/2 106/169/2 107/170/2 86/145/2
f 86/145/2 107/170/2 108/171/2 87/146/2
f 73/115/6 75/121/6 138/235/6 76/123/6 74/119/6 134/224/6
f 102/165/4 127/205/4 130/211/4 110/173/4
f 102/165/2 110/173/2 111/174/2 103/166/2
f 112/175/1 132/215/1 131/213/1 111/174/1
f 104/167/2 112/175/2 78/127/2
f 113/176/2 114/178/2 116/182/2 115/180/2
f 121/192/2 122/194/2 124/198/2 123/196/2
f 117/184/2 118/186/2 120/190/2 119/188/2
f 126/202/2 131/212/2 132/214/2 125/200/2
f 128/206/2 129/208/2 130/210/2 127/204/2
f 111/174/5 131/213/5 126/203/5 103/166/5
f 108/171/4 123/197/4 124/199/4 100/163/4
f 103/166/3 126/203/3 125/201/3 104/167/3
f 110/173/1 130/211/1 129/209/1 109/172/1
f 104/167/4 125/201/4 132/215/4 112/175/4
f 105/168/3 117/185/3 119/189/3 106/169/3
f 101/164/3 128/207/3 127/205/3 102/165/3
f 91/150/3 113/177/3 115/181/3 92/151/3
f 87/146/1 116/183/1 114/179/1 86/145/1
f 107/170/3 121/193/3 123/197/3 108/171/3
f 97/160/5 118/187/5 117/185/5 105/168/5
f 100/163/1 124/199/1 122/195/1 99/162/1
f 86/145/5 114/179/5 113/177/5 91/150/5
f 109/172/5 129/209/5 128/207/5 101/164/5
f 106/169/4 119/189/4 120/191/4 98/161/4
f 81/135/7 80/132/7 78/128/7 82/137/7
f 133/220/2 109/172/2 101/164/2
f 133/220/2 101/164/2 97/160/2 84/142/2
f 84/143/2 97/160/2 105/168/2
f 133/221/3 82/138/3 78/129/3
f 133/222/3 77/126/3 73/116/3 134/225/3
f 137/233/2 89/148/2 90/149/2 80/133/2 136/230/2
f 135/227/2 89/148/2 137/233/2
f 136/231/1 81/136/1 76/124/1 138/236/1
f 136/231/1 80/134/1 81/136/1
f 140/239/1 143/244/1 144/246/1
f 142/243/2 148/252/2 147/251/2 141/241/2
f 141/241/3 139/237/3 142/243/3
f 154/263/8 142/242/8 139/238/8 153/261/8
f 150/255/2 151/257/2 152/259/2 149/253/2
f 154/262/2 144/247/2 145/249/2 148/252/2 142/243/2
f 143/245/2 146/250/2 145/249/2 144/247/2
f 147/251/5 151/258/5 150/256/5 146/250/5
f 146/250/3 150/256/3 149/254/3 145/249/3
f 148/252/1 152/260/1 151/258/1 147/251/1
f 147/251/2 146/250/2 143/245/2 141/241/2
f 148/252/4 145/249/4 149/254/4 152/260/4
f 144/248/9 154/263/9 153/261/9 140/240/9
f 156/266/1 159/271/1 160/273/1
f 158/270/2 164/279/2 163/278/2 157/268/2
f 157/268/3 155/264/3 158/270/3
f 170/290/8 158/269/8 155/265/8 169/288/8
f 166/282/2 167/284/2 168/286/2 165/280/2
f 170/289/2 160/274/2 161/276/2 164/279/2 158/270/2
f 159/272/2 162/277/2 161/276/2 160/274/2
f 163/278/5 167/285/5 166/283/5 162/277/5
f 162/277/3 166/283/3 165/281/3 161/276/3
f 164/279/1 168/287/1 167/285/1 163/278/1
f 163/278/2 162/277/2 159/272/2 157/268/2
f 164/279/4 161/276/4 165/281/4 168/287/4
f 160/275/9 170/290/9 169/288/9 156/267/9
f 173/295/1 177/301/1 178/302/1 174/297/1
f 177/301/2 175/299/2 176/300/2 178/302/2
f 175/299/3 171/291/3 172/293/3 176/300/3
f 173/296/4 171/292/4 175/299/4 177/301/4
f 178/302/5 176/300/5 172/294/5 174/298/5
