# Blender 3.4.1
# www.blender.org
mtllib stoisko.mtl
o Cube.002
v -1.407308 5.220959 2.374825
v -1.348754 5.381835 2.374825
v -1.407308 5.220959 -3.444352
v -1.348754 5.381835 -3.444352
v 1.251058 4.253393 2.374825
v 1.309612 4.414269 2.374825
v 1.251058 4.253393 -3.444352
v 1.309612 4.414269 -3.444352
v 1.452910 4.286704 -3.441524
v 1.290971 4.231156 -3.441524
v 1.290972 4.231156 2.377654
v 1.452911 4.286703 2.377654
v 1.521799 4.075327 -3.441524
v 1.350785 4.067320 -3.441524
v 1.350786 4.067319 2.377655
v 1.521800 4.075327 2.377655
v 1.547604 3.822374 -3.441524
v 1.376590 3.814366 -3.441524
v 1.376591 3.814366 2.377655
v 1.547604 3.822373 2.377655
v -1.000000 -0.006313 1.888580
v -1.000000 1.993688 1.888580
v -1.000000 -0.006313 -2.972218
v -1.000000 1.993688 -2.972218
v 1.000000 -0.006312 1.888580
v 1.000000 1.993688 1.888580
v 0.757087 1.793318 1.635476
v 1.000000 -0.006312 -2.972218
v 1.000000 1.993688 -2.972218
v 0.757087 1.793318 -2.719114
v -1.000000 1.793318 1.635476
v -1.000000 -0.006313 1.635476
v -1.000000 -0.006313 -2.719114
v -1.000000 1.793318 -2.719114
v 0.757087 -0.006312 -2.719114
v 0.757087 -0.006312 1.635476
v -1.000000 1.805995 1.888580
v 1.000000 1.805995 1.888580
v -1.000000 1.805995 -2.972218
v 1.000000 1.805995 -2.972218
v 0.812942 1.993688 -2.972218
v 0.812942 -0.006312 -2.972218
v 0.812942 -0.006312 1.888580
v 0.812942 1.993688 1.888580
v 0.812942 1.805995 1.888580
v 0.812942 1.805995 -2.972218
v -1.000000 1.805995 2.302155
v -1.000000 1.993688 2.302155
v 1.000000 1.805995 2.302155
v 1.000000 1.993688 2.302155
v 0.812942 1.993688 -3.385792
v 1.000000 1.993688 -3.385792
v 0.812942 -0.006312 -3.385792
v 1.000000 -0.006312 -3.385792
v 0.812942 -0.006312 2.302155
v 1.000000 -0.006312 2.302155
v -1.000000 1.805995 -3.385792
v -1.000000 1.993688 -3.385792
v 1.000000 1.805995 -3.385792
v 0.812942 1.993688 2.302155
v 0.812942 1.805995 2.302155
v 0.812942 1.805995 -3.385792
v -1.000000 1.993688 1.643137
v 1.000000 -0.006312 1.643137
v 1.000000 1.993688 1.643137
v 1.000000 1.805995 1.643137
v -1.000000 1.805995 1.643137
v 0.812942 1.993688 1.643137
v 0.812942 -0.006312 1.643137
v -1.000000 1.993688 -2.725542
v 1.000000 -0.006312 -2.725542
v 1.000000 1.993688 -2.725542
v -1.000000 1.805995 -2.725542
v 1.000000 1.805995 -2.725542
v 0.812942 1.993688 -2.725542
v 0.812942 -0.006312 -2.725542
v 0.607967 1.805995 1.888580
v 0.607967 1.993688 -2.972218
v 0.607967 -0.006312 -2.972218
v 0.607967 -0.006312 1.888580
v 0.607967 1.993688 1.888580
v 0.607967 1.805995 -2.972218
v 0.607967 1.805995 2.302155
v 0.607967 1.993688 -3.385792
v 0.607967 1.993688 2.302155
v 0.607967 1.805995 -3.385792
v 0.607967 1.993688 1.643137
v 0.607967 1.993688 -2.725542
v -0.736343 1.805994 1.888580
v -0.736343 1.805994 2.302155
v -0.736343 1.993688 -2.972218
v -0.736343 -0.006312 -2.972218
v -0.736343 -0.006312 1.888580
v -0.736343 1.993688 1.888580
v -0.736343 1.805994 -2.972218
v -0.736343 1.993688 -3.385792
v -0.736343 1.993688 2.302155
v -0.736343 1.805994 -3.385792
v -0.736343 1.993688 1.643137
v -0.736343 1.993688 -2.725542
v -1.000000 5.147399 -2.725542
v -1.000000 5.147399 -2.972218
v 0.607967 4.501154 -2.972218
v 0.812942 4.501154 -2.972218
v 0.607967 4.501154 1.888580
v 0.812942 4.501154 1.888580
v 0.812942 4.501154 1.643137
v -1.000000 5.147399 1.888580
v -1.000000 5.147399 1.643137
v 0.607967 4.501154 1.643137
v 0.812942 4.501154 -2.725542
v 0.607967 4.501154 -2.725542
v -0.736343 5.147399 -2.972218
v -0.736343 5.147399 1.888580
v -0.736343 5.147399 1.643137
v -0.736343 5.147399 -2.725542
vn -0.9397 0.3420 -0.0000
vn -0.0000 -0.0000 -1.0000
vn -0.0168 0.0172 0.9997
vn -0.0000 -0.0000 1.0000
vn -0.3420 -0.9397 -0.0000
vn 0.3420 0.9397 -0.0000
vn 0.9508 0.3099 -0.0000
vn -0.4867 -0.8736 -0.0000
vn 0.6649 0.7469 -0.0000
vn 0.0168 -0.0172 -0.9997
vn -0.9394 -0.3429 -0.0000
vn 0.0468 -0.9989 -0.0000
vn -0.9948 -0.1015 -0.0000
vn 0.9948 0.1015 -0.0000
vn -1.0000 -0.0000 -0.0000
vn -0.0000 -1.0000 -0.0000
vn 1.0000 -0.0000 -0.0000
vn -0.0000 1.0000 -0.0000
vt 0.375000 0.000000
vt 0.375000 1.000000
vt 0.125000 0.750000
vt 0.625000 0.000000
vt 0.625000 1.000000
vt 0.875000 0.750000
vt 0.375000 0.250000
vt 0.125000 0.500000
vt 0.625000 0.250000
vt 0.875000 0.500000
vt 0.375000 0.750000
vt 0.625000 0.750000
vt 0.375000 0.500000
vt 0.625000 0.500000
vt 0.625000 0.500000
vt 0.375000 0.500000
vt 0.375000 0.750000
vt 0.625000 0.750000
vt 0.625000 0.500000
vt 0.375000 0.500000
vt 0.375000 0.750000
vt 0.625000 0.750000
vt 0.625000 0.500000
vt 0.375000 0.500000
vt 0.375000 0.750000
vt 0.625000 0.750000
vt 0.375000 0.000000
vt 0.375000 1.000000
vt 0.625000 0.000000
vt 0.875000 0.750000
vt 0.375000 0.250000
vt 0.625000 0.250000
vt 0.875000 0.500000
vt 0.375000 0.750000
vt 0.625000 0.750000
vt 0.625000 0.750000
vt 0.375000 0.500000
vt 0.625000 0.500000
vt 0.625000 0.500000
vt 0.625000 0.931566
vt 0.806566 0.750000
vt 0.599954 0.013018
vt 0.375000 0.013018
vt 0.397595 0.931566
vt 0.375000 0.236982
vt 0.397595 0.318434
vt 0.625000 0.318434
vt 0.806566 0.500000
vt 0.599954 0.236982
vt 0.397595 0.500000
vt 0.397595 0.750000
vt 0.601538 0.000000
vt 0.601538 1.000000
vt 0.601538 0.750000
vt 0.601538 0.250000
vt 0.601538 0.500000
vt 0.648382 0.500000
vt 0.375000 0.476618
vt 0.351618 0.500000
vt 0.351618 0.750000
vt 0.375000 0.773382
vt 0.648382 0.750000
vt 0.601538 0.773382
vt 0.601538 0.476618
vt 0.601538 0.000000
vt 0.601538 1.000000
vt 0.875000 0.750000
vt 0.625000 1.000000
vt 0.625000 0.000000
vt 0.601538 0.750000
vt 0.625000 0.750000
vt 0.625000 0.476618
vt 0.648382 0.500000
vt 0.625000 0.500000
vt 0.351618 0.500000
vt 0.375000 0.476618
vt 0.375000 0.500000
vt 0.351618 0.750000
vt 0.375000 0.773382
vt 0.375000 0.750000
vt 0.601538 0.250000
vt 0.625000 0.250000
vt 0.875000 0.500000
vt 0.601538 0.500000
vt 0.625000 0.773382
vt 0.648382 0.750000
vt 0.601538 0.773382
vt 0.601538 0.476618
vt 0.625000 0.012624
vt 0.875000 0.737376
vt 0.375000 0.737376
vt 0.625000 0.737376
vt 0.601538 0.737376
vt 0.601538 0.012624
vt 0.648382 0.737376
vt 0.351618 0.737376
vt 0.625000 0.237313
vt 0.875000 0.512687
vt 0.375000 0.512687
vt 0.625000 0.512687
vt 0.601538 0.237313
vt 0.601538 0.512687
vt 0.648382 0.512687
vt 0.351618 0.512687
vt 0.601538 0.799004
vt 0.674004 0.500000
vt 0.375000 0.450996
vt 0.375000 0.799004
vt 0.674004 0.750000
vt 0.601538 0.450996
vt 0.601538 0.799004
vt 0.674004 0.500000
vt 0.625000 0.450996
vt 0.625000 0.799004
vt 0.674004 0.750000
vt 0.601538 0.450996
vt 0.674004 0.737376
vt 0.674004 0.512687
vt 0.601538 0.967043
vt 0.601538 0.967043
vt 0.842043 0.500000
vt 0.375000 0.282957
vt 0.375000 0.967043
vt 0.842043 0.750000
vt 0.601538 0.282957
vt 0.625000 0.282957
vt 0.842043 0.500000
vt 0.625000 0.967043
vt 0.842043 0.750000
vt 0.601538 0.282957
vt 0.842043 0.737376
vt 0.842043 0.512687
vt 0.625000 0.237313
vt 0.875000 0.512687
vt 0.625000 0.250000
vt 0.875000 0.500000
vt 0.674004 0.500000
vt 0.648382 0.500000
vt 0.674004 0.750000
vt 0.648382 0.750000
vt 0.648382 0.737376
vt 0.625000 0.000000
vt 0.875000 0.750000
vt 0.625000 0.012624
vt 0.875000 0.737376
vt 0.674004 0.737376
vt 0.648382 0.512687
vt 0.674004 0.512687
vt 0.842043 0.500000
vt 0.842043 0.750000
vt 0.842043 0.737376
vt 0.842043 0.512687
s 0
f 1/1/1 2/4/1 4/9/1 3/7/1
f 3/7/2 4/9/2 8/14/2 7/13/2
f 6/12/3 5/11/3 11/17/3 12/18/3
f 5/11/4 6/12/4 2/5/4 1/2/4
f 3/8/5 7/13/5 5/11/5 1/3/5
f 8/14/6 4/10/6 2/6/6 6/12/6
f 9/15/7 12/18/7 16/22/7 13/19/7
f 5/11/8 7/13/8 10/16/8 11/17/8
f 8/14/9 6/12/9 12/18/9 9/15/9
f 7/13/10 8/14/10 9/15/10 10/16/10
f 16/22/4 15/21/4 19/25/4 20/26/4
f 10/16/2 9/15/2 13/19/2 14/20/2
f 12/18/4 11/17/4 15/21/4 16/22/4
f 11/17/11 10/16/11 14/20/11 15/21/11
f 18/24/12 17/23/12 20/26/12 19/25/12
f 15/21/13 14/20/13 18/24/13 19/25/13
f 13/19/14 16/22/14 20/26/14 17/23/14
f 14/20/2 13/19/2 17/23/2 18/24/2
f 73/101/15 70/97/15 24/32/15 39/55/15
f 77/105/16 45/63/16 61/87/16 83/111/16
f 66/93/17 65/92/17 26/35/17 38/54/17
f 94/124/18 22/30/18 48/67/18 97/129/18
f 69/96/16 64/91/16 25/34/16 43/60/16
f 63/89/15 22/29/15 108/142/15 109/144/15
f 35/50/4 30/39/4 34/47/4 33/46/4
f 27/36/15 30/39/15 35/50/15 36/51/15
f 32/44/2 31/40/2 27/36/2 36/51/2
f 34/48/16 30/39/16 27/36/16 31/41/16
f 93/123/4 89/119/4 37/53/4 21/28/4
f 64/91/17 66/93/17 38/54/17 25/34/17
f 28/37/16 42/59/16 53/75/16 54/77/16
f 21/27/15 37/52/15 67/94/15 73/101/15 39/55/15 23/31/15 33/45/15 34/49/15 31/42/15 32/43/15
f 79/107/2 82/110/2 46/64/2 42/58/2
f 40/56/17 28/37/17 54/77/17 59/84/17
f 65/92/18 68/95/18 44/62/18 26/35/18
f 36/51/16 35/50/16 76/104/16 69/96/16
f 26/35/18 44/62/18 60/86/18 50/71/18
f 41/57/18 29/38/18 52/74/18 51/73/18
f 62/88/2 51/72/2 52/74/2 59/84/2
f 90/120/4 97/128/4 48/68/4 47/66/4
f 53/76/2 62/88/2 59/84/2 54/77/2
f 56/80/4 49/70/4 61/87/4 55/79/4
f 49/70/4 50/71/4 60/85/4 61/87/4
f 86/116/2 84/113/2 51/72/2 62/88/2
f 95/125/16 39/55/16 57/81/16 98/130/16
f 22/29/15 37/52/15 47/65/15 48/69/15
f 42/58/15 46/64/15 62/88/15 53/76/15
f 43/60/16 25/34/16 56/80/16 55/78/16
f 45/63/15 43/61/15 55/79/15 61/87/15
f 39/55/15 24/32/15 58/82/15 57/81/15
f 78/106/18 41/57/18 51/73/18 84/112/18
f 25/34/17 38/54/17 49/70/17 56/80/17
f 38/54/17 26/35/17 50/71/17 49/70/17
f 29/38/17 40/56/17 59/84/17 52/74/17
f 72/100/18 75/103/18 68/95/18 65/92/18
f 71/99/17 74/102/17 66/93/17 64/91/17
f 100/132/18 70/98/18 63/90/18 99/131/18
f 76/104/16 71/99/16 64/91/16 69/96/16
f 74/102/17 72/100/17 65/92/17 66/93/17
f 37/52/15 22/29/15 63/89/15 67/94/15
f 40/56/17 29/38/17 72/100/17 74/102/17
f 42/59/16 28/37/16 71/99/16 76/104/16
f 88/118/4 75/103/4 111/147/4 112/148/4
f 28/37/17 40/56/17 74/102/17 71/99/17
f 29/38/18 41/57/18 75/103/18 72/100/18
f 67/94/15 63/89/15 70/97/15 73/101/15
f 24/32/15 70/97/15 101/133/15 102/135/15
f 75/103/18 88/118/18 87/117/18 68/95/18
f 91/121/18 78/106/18 84/112/18 96/127/18
f 46/64/16 82/110/16 86/116/16 62/88/16
f 98/130/2 96/126/2 84/113/2 86/116/2
f 61/87/4 60/85/4 85/114/4 83/111/4
f 32/44/16 36/51/16 69/96/16 43/60/16 80/108/16 93/123/16 21/28/16
f 92/122/2 95/125/2 82/110/2 79/107/2
f 43/61/4 45/63/4 77/105/4 80/108/4
f 94/124/17 99/131/17 115/151/17 114/150/17
f 44/62/18 81/109/18 85/115/18 60/86/18
f 89/119/16 77/105/16 83/111/16 90/120/16
f 37/53/16 89/119/16 90/120/16 47/66/16
f 23/31/2 39/55/2 95/125/2 92/122/2
f 33/46/16 23/31/16 92/122/16 79/107/16 42/59/16 76/104/16 35/50/16
f 57/81/2 58/82/2 96/126/2 98/130/2
f 24/33/18 91/121/18 96/127/18 58/83/18
f 78/106/18 91/121/18 100/132/18 88/118/18
f 88/118/18 100/132/18 99/131/18 87/117/18
f 82/110/16 95/125/16 98/130/16 86/116/16
f 83/111/4 85/114/4 97/128/4 90/120/4
f 80/108/4 77/105/4 89/119/4 93/123/4
f 87/117/18 99/131/18 94/124/18 81/109/18
f 81/109/18 94/124/18 97/129/18 85/115/18
f 91/121/2 24/33/2 102/136/2 113/149/2
f 100/132/17 91/121/17 113/149/17 116/152/17
f 41/57/2 78/106/2 103/137/2 104/138/2
f 99/131/2 63/90/2 109/145/2 115/151/2
f 44/62/17 68/95/17 107/141/17 106/140/17
f 78/106/15 88/118/15 112/148/15 103/137/15
f 68/95/2 87/117/2 110/146/2 107/141/2
f 70/98/4 100/132/4 116/152/4 101/134/4
f 87/117/15 81/109/15 105/139/15 110/146/15
f 75/103/17 41/57/17 104/138/17 111/147/17
f 22/30/4 94/124/4 114/150/4 108/143/4
f 81/109/4 44/62/4 106/140/4 105/139/4
