# Blender 3.5.1
# www.blender.org
mtllib GrassCornerGray.mtl
o trawka.004
v -3.520000 -0.000000 2.520000
v -3.520000 0.600000 2.520000
v -3.520000 -0.000000 -2.520000
v -3.520000 0.600000 -2.520000
v 3.520000 -0.000000 2.520000
v 3.520000 0.600000 2.520000
v 3.450000 -0.000000 -2.550000
v 3.450000 0.600000 -2.550000
v -3.268001 0.600000 2.268001
v -3.268001 0.600000 -2.268001
v 3.650000 0.600000 -2.350000
v 3.268001 0.600000 2.268001
v -3.268001 0.200000 2.268001
v -3.268001 0.200000 -2.268001
v 3.649999 0.200000 -2.350000
v 3.268001 0.200000 2.268001
v 8.520000 -0.000000 -2.480000
v 8.520000 0.600000 -2.480000
v 8.520000 -0.000000 -9.520000
v 8.520000 0.600000 -9.520000
v 3.480000 -0.000000 -9.520000
v 3.479999 0.600000 -9.520000
v 8.268001 0.600000 -2.731999
v 3.731999 0.600000 -9.268001
v 8.268001 0.600000 -9.268001
v 8.268001 0.200000 -2.731999
v 3.731999 0.200000 -9.268001
v 8.268001 0.200000 -9.268001
v 8.520000 -0.000000 2.520000
v 8.268001 0.200000 2.268001
v 8.520000 0.600000 2.520000
v 8.268001 0.600000 2.268001
v 1.750000 0.600000 -2.550000
v 1.850000 0.600000 -2.270000
v 1.850000 0.200000 -2.270000
v 1.750000 -0.000000 -2.550000
v 3.450000 -0.000000 -4.250000
v 3.730000 0.200000 -4.150000
v 3.450000 0.600000 -4.250000
v 3.730000 0.600000 -4.150000
vn -0.0000 -0.0000 1.0000
vn -0.0000 1.0000 -0.0000
vn 1.0000 -0.0000 -0.0000
vn -1.0000 -0.0000 -0.0000
vn 0.0004 -0.0000 1.0000
vn -0.0000 -0.0000 -1.0000
vn -1.0000 -0.0000 -0.0057
vn -0.0057 -0.0000 -1.0000
vn 1.0000 -0.0000 0.0004
vn 0.9990 -0.0000 0.0444
vn 0.0444 -0.0000 0.9990
vt 0.079331 0.702208
vt 0.079331 0.524355
vt 0.123794 0.524355
vt 0.123794 0.702208
vt 0.079331 0.546586
vt 0.079331 0.591050
vt 0.123794 0.546586
vt 0.123794 0.591050
vt 0.079331 0.679976
vt 0.153132 0.560358
vt 0.123794 0.679976
vt 0.144628 0.563295
vt 0.122591 0.648203
vt 0.130101 0.648194
vt 0.123794 0.524355
vt 0.123794 0.702208
vt 0.123794 0.546586
vt 0.123794 0.591050
vt 0.132793 0.648184
vt 0.123794 0.679976
vt 0.141691 0.561906
vt 0.406539 0.091338
vt 0.123794 0.524355
vt 0.123794 0.702208
vt 0.406539 0.069107
vt 0.123794 0.546586
vt 0.123794 0.591050
vt 0.384307 0.069107
vt 0.137495 0.647904
vt 0.389814 0.065595
vt 0.384307 0.091338
vt 0.373191 0.091338
vt 0.123794 0.679976
vt 0.137513 0.563390
vt 0.354064 0.068552
vt 0.079331 0.679976
vt 0.150091 0.669071
vt 0.123794 0.679976
vt 0.143720 0.666558
vt 0.079331 0.657745
vt 0.123794 0.657745
vt 0.079331 0.635513
vt 0.079331 0.591050
vt 0.123794 0.635513
vt 0.123794 0.591050
vt 0.123794 0.679976
vt 0.140811 0.667848
vt 0.123794 0.635513
vt 0.123794 0.591050
vt 0.123794 0.657745
vt 0.123794 0.679976
vt 0.137513 0.666615
vt 0.384307 0.091338
vt 0.392771 0.029845
vt 0.123794 0.635513
vt 0.123794 0.591050
vt 0.384307 0.069107
vt 0.123794 0.657745
vt 0.362075 0.091338
vt 0.171032 0.615979
vt 0.156066 0.615624
vt 0.354064 0.029845
vt 0.163963 0.615663
vt 0.160855 0.615630
vt 0.123794 0.602165
vt 0.123212 0.629390
vt 0.123794 0.602165
vt 0.125966 0.629335
vt 0.123794 0.602165
vt 0.373191 0.069107
vt 0.130437 0.627768
vt 0.389195 0.079530
vt 0.079331 0.602165
vt 0.118044 0.630992
vt 0.079331 0.579934
vt 0.118044 0.665654
vt 0.123794 0.579934
vt 0.395423 0.069107
vt 0.131739 0.669071
vt 0.403748 0.064976
vt 0.123794 0.579934
vt 0.123265 0.667251
vt 0.123794 0.579934
vt 0.126047 0.667293
s 0
usemtl BasicTexture
f 5/9/1 6/11/1 2/4/1 1/1/1
f 4/7/2 2/3/2 9/15/2 10/17/2
f 14/25/2 13/22/2 16/31/2
f 10/17/3 9/15/3 13/23/3 14/26/3
f 1/2/4 2/3/4 4/7/4 3/5/4
f 34/67/5 10/18/5 14/27/5 35/69/5
f 35/70/2 14/28/2 16/32/2
f 33/65/2 4/8/2 10/18/2 34/67/2
f 2/4/2 6/11/2 12/20/2 9/16/2
f 9/16/6 12/20/6 16/33/6 13/24/6
f 21/42/6 22/44/6 20/41/6 19/40/6
f 23/46/4 25/50/4 28/58/4 26/51/4
f 18/38/2 20/41/2 25/50/2 23/46/2
f 25/50/1 24/48/1 27/55/1 28/58/1
f 20/41/2 22/44/2 24/48/2 25/50/2
f 27/57/2 26/53/2 28/59/2
f 19/40/3 20/41/3 18/38/3 17/36/3
f 37/75/7 39/81/7 22/45/7 21/43/7
f 6/12/1 5/10/1 29/60/1 31/63/1
f 23/47/2 32/64/2 31/63/2 18/39/2
f 16/34/6 12/21/6 32/64/6 30/61/6
f 30/61/4 32/64/4 23/47/4 26/52/4
f 31/63/3 29/60/3 17/37/3 18/39/3
f 12/21/2 6/12/2 31/63/2 32/64/2
f 3/6/8 4/8/8 33/65/8 36/73/8
f 24/49/9 40/83/9 38/77/9 27/56/9
f 27/57/2 38/78/2 26/53/2
f 22/45/2 39/81/2 40/83/2 24/49/2
f 30/62/2 26/54/2 16/35/2
f 15/29/10 38/79/10 40/84/10 11/19/10
f 11/19/2 40/84/2 39/82/2 8/14/2
f 7/13/4 8/14/4 39/82/4 37/76/4
f 7/13/6 36/74/6 33/66/6 8/14/6
f 11/19/2 8/14/2 33/66/2 34/68/2
f 15/29/11 11/19/11 34/68/11 35/71/11
f 35/72/2 16/35/2 15/30/2
f 38/80/2 15/30/2 26/54/2
f 26/54/2 15/30/2 16/35/2
