# Blender 3.5.1
# www.blender.org
mtllib Hydrant.mtl
o HYDRANT
v 0.299852 0.127822 -0.299083
v 0.001553 0.127822 -0.422643
v 0.001553 0.127822 -0.321604
v 0.001553 1.387063 -0.321604
v 0.228407 0.127822 -0.227637
v 0.228407 1.387063 -0.227638
v 0.322373 0.127822 -0.000783
v 0.322373 1.387063 -0.000783
v 0.228407 0.127822 0.226071
v 0.228407 1.387063 0.226071
v 0.001553 0.127822 0.320038
v 0.001553 1.387063 0.320037
v -0.225301 0.127822 0.226071
v -0.225301 1.387063 0.226071
v -0.319268 0.127822 -0.000783
v -0.319268 1.387063 -0.000783
v -0.225301 0.127822 -0.227637
v -0.225301 1.387063 -0.227638
v 0.423412 0.127822 -0.000783
v 0.299852 0.127822 0.297516
v 0.001553 0.127822 0.421076
v -0.296747 0.127822 0.297516
v -0.420307 0.127822 -0.000783
v -0.296747 0.127822 -0.299083
v -0.296747 -0.005828 -0.299083
v 0.001553 -0.005828 -0.422643
v -0.420307 -0.005828 -0.000783
v -0.296747 -0.005828 0.297516
v 0.001553 -0.005828 0.421076
v 0.299852 -0.005828 0.297516
v 0.423412 -0.005828 -0.000783
v 0.299852 -0.005828 -0.299083
v 0.306257 1.387063 -0.305488
v 0.001553 1.387063 -0.431700
v 0.432470 1.387063 -0.000783
v 0.306257 1.387063 0.303921
v 0.001553 1.387063 0.430134
v -0.303151 1.387063 0.303921
v -0.429364 1.387063 -0.000783
v -0.303151 1.387063 -0.305488
v 0.306257 1.487519 -0.305488
v 0.001553 1.487519 -0.431700
v 0.432470 1.487519 -0.000783
v 0.306257 1.487519 0.303921
v 0.001553 1.487519 0.430134
v -0.303151 1.487519 0.303921
v -0.429364 1.487519 -0.000783
v -0.303151 1.487519 -0.305488
v 0.235521 1.487519 -0.234751
v 0.001553 1.487519 -0.331663
v 0.332433 1.487519 -0.000783
v 0.235521 1.487519 0.233184
v 0.001553 1.487519 0.330097
v -0.232415 1.487519 0.233184
v -0.329327 1.487519 -0.000783
v -0.232415 1.487519 -0.234751
v 0.235521 1.534445 -0.234751
v 0.001553 1.534445 -0.331663
v 0.332433 1.534445 -0.000783
v 0.235521 1.534445 0.233184
v 0.001553 1.534445 0.330097
v -0.232415 1.534445 0.233184
v -0.329327 1.534445 -0.000783
v -0.232415 1.534445 -0.234751
v 0.217537 1.610208 -0.216767
v 0.001553 1.610208 -0.306230
v 0.307000 1.610208 -0.000783
v 0.217537 1.610208 0.215201
v 0.001553 1.610208 0.304664
v -0.214430 1.610208 0.215201
v -0.303894 1.610208 -0.000783
v -0.214430 1.610208 -0.216767
v 0.192809 1.669351 -0.192040
v 0.001553 1.669351 -0.271261
v 0.272031 1.669351 -0.000783
v 0.192809 1.669351 0.190473
v 0.001553 1.669351 0.269694
v -0.189703 1.669351 0.190473
v -0.268925 1.669351 -0.000783
v -0.189703 1.669351 -0.192040
v 0.159172 1.712144 -0.158403
v 0.001553 1.712144 -0.223690
v 0.224460 1.712144 -0.000783
v 0.159172 1.712144 0.156836
v 0.001553 1.712144 0.222124
v -0.156066 1.712144 0.156836
v -0.221354 1.712144 -0.000783
v -0.156066 1.712144 -0.158403
v 0.085525 1.749439 -0.084755
v 0.001553 1.749439 -0.119537
v 0.120307 1.749439 -0.000783
v 0.085525 1.749439 0.083189
v 0.001553 1.749439 0.117971
v -0.082419 1.749439 0.083189
v -0.117201 1.749439 -0.000783
v -0.082419 1.749439 -0.084755
v 0.085525 1.846664 -0.084755
v 0.001553 1.846664 -0.119537
v 0.120307 1.846664 -0.000783
v 0.085525 1.846664 0.083189
v 0.001553 1.846664 0.117971
v -0.082419 1.846664 0.083189
v -0.117201 1.846664 -0.000783
v -0.082419 1.846664 -0.084755
v -0.543807 1.068974 0.051731
v -0.543807 1.098558 0.000490
v -0.543807 1.009807 0.051731
v -0.543807 0.980224 0.000490
v -0.543807 1.009807 -0.050751
v -0.543807 1.068974 -0.050751
v -0.608980 1.068974 0.051731
v -0.608980 1.098558 0.000490
v -0.608980 1.009807 0.051731
v -0.608980 0.980224 0.000490
v -0.608980 1.009807 -0.050751
v -0.608980 1.068974 -0.050751
v -0.162341 1.126224 0.150888
v -0.162341 1.213056 0.000489
v -0.162341 0.952558 0.150888
v -0.162341 0.865725 0.000489
v -0.162341 0.952558 -0.149909
v -0.162341 1.126224 -0.149909
v -0.550468 1.126224 0.150888
v -0.550468 1.213056 0.000489
v -0.550468 0.952558 0.150888
v -0.550468 0.865725 0.000489
v -0.550468 0.952558 -0.149909
v -0.550468 1.126224 -0.149909
v -0.550468 1.039391 0.000490
v 0.543807 1.068974 0.051731
v 0.543807 1.098558 0.000490
v 0.543807 1.009807 0.051731
v 0.543807 0.980224 0.000490
v 0.543807 1.009807 -0.050751
v 0.543807 1.068974 -0.050751
v 0.608980 1.068974 0.051731
v 0.608980 1.098558 0.000490
v 0.608980 1.009807 0.051731
v 0.608980 0.980224 0.000490
v 0.608980 1.009807 -0.050751
v 0.608980 1.068974 -0.050751
v 0.162341 1.126224 0.150888
v 0.162341 1.213056 0.000489
v 0.162341 0.952558 0.150888
v 0.162341 0.865725 0.000489
v 0.162341 0.952558 -0.149909
v 0.162341 1.126224 -0.149909
v 0.550468 1.126224 0.150888
v 0.550468 1.213056 0.000489
v 0.550468 0.952558 0.150888
v 0.550468 0.865725 0.000489
v 0.550468 0.952558 -0.149909
v 0.550468 1.126224 -0.149909
v 0.550468 1.039391 0.000490
v 0.051731 1.068974 0.543807
v 0.000490 1.098558 0.543807
v 0.051731 1.009807 0.543807
v 0.000490 0.980224 0.543807
v -0.050751 1.009807 0.543807
v -0.050751 1.068974 0.543807
v 0.051731 1.068974 0.608980
v 0.000490 1.098558 0.608980
v 0.051731 1.009807 0.608980
v 0.000490 0.980224 0.608980
v -0.050751 1.009807 0.608980
v -0.050751 1.068974 0.608980
v 0.150888 1.126224 0.162341
v 0.000489 1.213056 0.162341
v 0.150888 0.952558 0.162341
v 0.000489 0.865725 0.162341
v -0.149909 0.952558 0.162341
v -0.149909 1.126224 0.162341
v 0.150888 1.126224 0.550468
v 0.000489 1.213056 0.550468
v 0.150888 0.952558 0.550468
v 0.000489 0.865725 0.550468
v -0.149909 0.952558 0.550468
v -0.149909 1.126224 0.550468
v 0.000490 1.039391 0.550468
v 0.051731 1.068974 -0.543807
v 0.000490 1.098558 -0.543807
v 0.051731 1.009807 -0.543807
v 0.000490 0.980223 -0.543807
v -0.050751 1.009807 -0.543807
v -0.050751 1.068974 -0.543807
v 0.051731 1.068974 -0.608980
v 0.000490 1.098558 -0.608980
v 0.051731 1.009807 -0.608980
v 0.000490 0.980223 -0.608980
v -0.050751 1.009807 -0.608980
v -0.050751 1.068974 -0.608980
v 0.150888 1.126224 -0.162341
v 0.000489 1.213056 -0.162341
v 0.150888 0.952558 -0.162341
v 0.000489 0.865725 -0.162341
v -0.149909 0.952558 -0.162341
v -0.149909 1.126224 -0.162341
v 0.150888 1.126224 -0.550468
v 0.000489 1.213056 -0.550468
v 0.150888 0.952558 -0.550468
v 0.000489 0.865725 -0.550468
v -0.149909 0.952558 -0.550468
v -0.149909 1.126224 -0.550468
v 0.000490 1.039391 -0.550468
vn 0.3827 -0.0000 -0.9239
vn 0.9239 -0.0000 -0.3827
vn 0.9239 -0.0000 0.3827
vn 0.3827 -0.0000 0.9239
vn -0.3827 -0.0000 0.9239
vn -0.9239 -0.0000 0.3827
vn -0.0000 -1.0000 -0.0000
vn -0.9239 -0.0000 -0.3827
vn -0.3827 -0.0000 -0.9239
vn -0.0000 1.0000 -0.0000
vn 0.8824 0.2962 0.3655
vn -0.8108 0.4794 -0.3358
vn 0.3655 0.2962 -0.8824
vn -0.3655 0.2962 -0.8824
vn -0.8824 0.2962 0.3655
vn 0.3655 0.2962 0.8824
vn 0.8824 0.2962 -0.3655
vn -0.8824 0.2962 -0.3655
vn -0.3655 0.2962 0.8824
vn 0.2670 0.7165 0.6445
vn -0.3358 0.4794 0.8108
vn 0.8108 0.4794 0.3358
vn 0.3358 0.4794 -0.8108
vn -0.3358 0.4794 -0.8108
vn -0.8108 0.4794 0.3358
vn 0.3358 0.4794 0.8108
vn 0.8108 0.4794 -0.3358
vn -0.1383 0.9324 -0.3339
vn 0.6445 0.7165 -0.2670
vn -0.6445 0.7165 -0.2670
vn -0.2670 0.7165 0.6445
vn 0.6445 0.7165 0.2670
vn 0.2670 0.7165 -0.6445
vn -0.2670 0.7165 -0.6445
vn -0.6445 0.7165 0.2670
vn -0.3339 0.9324 0.1383
vn 0.1383 0.9324 0.3339
vn 0.3339 0.9324 -0.1383
vn -0.3339 0.9324 -0.1383
vn -0.1383 0.9324 0.3339
vn 0.3339 0.9324 0.1383
vn 0.1383 0.9324 -0.3339
vn -0.0000 -0.8660 0.5000
vn -1.0000 -0.0000 -0.0000
vn -0.0000 0.8660 0.5000
vn -0.0000 0.8660 -0.5000
vn -0.0000 -0.8660 -0.5000
vn -0.0000 -0.0000 1.0000
vn -0.0000 -0.0000 -1.0000
vn 1.0000 -0.0000 -0.0000
vn 0.5000 -0.8660 -0.0000
vn 0.5000 0.8660 -0.0000
vn -0.5000 0.8660 -0.0000
vn -0.5000 -0.8660 -0.0000
vt 0.099218 0.865368
vt 0.087743 0.865479
vt 0.640094 0.662680
vt 0.089313 0.861899
vt 0.645393 0.648176
vt 0.648677 0.662904
vt 0.097896 0.862123
vt 0.642282 0.649049
vt 0.654920 0.657198
vt 0.104139 0.856416
vt 0.640928 0.651734
vt 0.655317 0.648931
vt 0.104535 0.848149
vt 0.641148 0.654803
vt 0.649715 0.642470
vt 0.098934 0.841689
vt 0.643822 0.657179
vt 0.640848 0.641503
vt 0.090067 0.840721
vt 0.647174 0.655970
vt 0.634454 0.647412
vt 0.083673 0.846631
vt 0.649660 0.653275
vt 0.633831 0.656479
vt 0.083049 0.855698
vt 0.648389 0.649744
vt 0.106936 0.857743
vt 0.107848 0.847096
vt 0.100696 0.838210
vt 0.089029 0.837535
vt 0.080078 0.844954
vt 0.079882 0.856875
vt 0.073798 0.859668
vt 0.085610 0.871688
vt 0.073798 0.842565
vt 0.086537 0.831404
vt 0.103218 0.832214
vt 0.113575 0.844780
vt 0.112546 0.859964
vt 0.101954 0.871017
vt 0.642953 0.649995
vt 0.645193 0.649408
vt 0.641823 0.651908
vt 0.642195 0.654123
vt 0.644147 0.655567
vt 0.646566 0.655068
vt 0.647976 0.652981
vt 0.647292 0.650543
vt 0.643409 0.650543
vt 0.645127 0.650161
vt 0.642528 0.652012
vt 0.642800 0.653708
vt 0.644269 0.654783
vt 0.646094 0.654439
vt 0.647168 0.652882
vt 0.646693 0.651050
vt 0.643738 0.650998
vt 0.645053 0.650655
vt 0.642997 0.652106
vt 0.643257 0.653432
vt 0.644396 0.654232
vt 0.645786 0.653959
vt 0.646554 0.652770
vt 0.646245 0.651390
vt 0.643880 0.651188
vt 0.645021 0.650905
vt 0.643238 0.652147
vt 0.643458 0.653293
vt 0.644441 0.653981
vt 0.645636 0.653750
vt 0.646301 0.652732
vt 0.646042 0.651545
vt 0.644088 0.651487
vt 0.644949 0.651274
vt 0.643591 0.652217
vt 0.643772 0.653088
vt 0.644508 0.653607
vt 0.645415 0.653438
vt 0.645933 0.652663
vt 0.645726 0.651756
vt 0.644232 0.651694
vt 0.644913 0.651540
vt 0.643858 0.652269
vt 0.643987 0.652948
vt 0.644571 0.653344
vt 0.645270 0.653206
vt 0.645656 0.652611
vt 0.645509 0.651919
vt 0.644358 0.651869
vt 0.644874 0.651757
vt 0.644068 0.652310
vt 0.644172 0.652831
vt 0.644615 0.653126
vt 0.645142 0.653024
vt 0.645439 0.652571
vt 0.645325 0.652042
vt 0.644545 0.652141
vt 0.101577 0.913860
vt 0.644815 0.652088
vt 0.101847 0.913806
vt 0.644391 0.652372
vt 0.101422 0.914091
vt 0.644449 0.652646
vt 0.101480 0.914365
vt 0.644680 0.652795
vt 0.101711 0.914514
vt 0.644953 0.652744
vt 0.101984 0.914463
vt 0.645110 0.652509
vt 0.102141 0.914228
vt 0.645049 0.652233
vt 0.102080 0.913952
vt 0.101708 0.914035
vt 0.101815 0.914022
vt 0.101647 0.914126
vt 0.101657 0.914234
vt 0.101745 0.914297
vt 0.101852 0.914284
vt 0.101913 0.914193
vt 0.101903 0.914085
vt 0.077776 0.817789
vt 0.079704 0.816750
vt 0.077776 0.819980
vt 0.079669 0.821073
vt 0.081581 0.820000
vt 0.081586 0.817798
vt 0.079243 0.818566
vt 0.079754 0.818413
vt 0.079178 0.819077
vt 0.079605 0.819404
vt 0.080108 0.819217
vt 0.080196 0.818710
vt 0.617018 0.646499
vt 0.609752 0.642221
vt 0.624322 0.642463
vt 0.624555 0.634125
vt 0.617403 0.629690
vt 0.609752 0.633617
vt 0.617584 0.638438
vt 0.617129 0.638620
vt 0.617670 0.637956
vt 0.617290 0.637648
vt 0.616862 0.637865
vt 0.616706 0.638350
vt 0.617207 0.638146
vt 0.090564 0.822528
vt 0.092493 0.823568
vt 0.090564 0.820337
vt 0.092457 0.819244
vt 0.094370 0.820317
vt 0.094375 0.822519
vt 0.092032 0.821751
vt 0.092542 0.821904
vt 0.091967 0.821240
vt 0.092393 0.820913
vt 0.092897 0.821100
vt 0.092985 0.821607
vt 0.664356 0.620485
vt 0.657615 0.616593
vt 0.664356 0.628269
vt 0.657615 0.632161
vt 0.650874 0.628269
vt 0.650874 0.620485
vt 0.657203 0.624799
vt 0.657774 0.624945
vt 0.657043 0.624231
vt 0.657456 0.623809
vt 0.658027 0.623955
vt 0.658187 0.624523
vt 0.657615 0.624377
vt 0.086730 0.820284
vt 0.088659 0.819244
vt 0.086730 0.822475
vt 0.088623 0.823568
vt 0.090535 0.822495
vt 0.090541 0.820293
vt 0.088198 0.821061
vt 0.088708 0.820908
vt 0.088132 0.821571
vt 0.088559 0.821899
vt 0.089063 0.821712
vt 0.089151 0.821205
vt 0.623019 0.663723
vt 0.618204 0.666472
vt 0.624555 0.656302
vt 0.620247 0.646522
vt 0.614046 0.655226
vt 0.614046 0.662805
vt 0.619845 0.668295
vt 0.617590 0.672470
vt 0.619929 0.665292
vt 0.618490 0.663680
vt 0.616754 0.664967
vt 0.616228 0.667925
vt 0.618139 0.667105
vt 0.082895 0.822528
vt 0.084824 0.823568
vt 0.082895 0.820337
vt 0.084789 0.819244
vt 0.086701 0.820317
vt 0.086706 0.822519
vt 0.084363 0.821751
vt 0.084873 0.821904
vt 0.084298 0.821240
vt 0.084724 0.820913
vt 0.085228 0.821100
vt 0.085316 0.821607
vt 0.650850 0.620485
vt 0.644109 0.616593
vt 0.650850 0.628269
vt 0.644109 0.632161
vt 0.637368 0.628269
vt 0.637368 0.620485
vt 0.643697 0.624799
vt 0.644268 0.624945
vt 0.643537 0.624231
vt 0.643950 0.623809
vt 0.644521 0.623955
vt 0.644680 0.624523
vt 0.644109 0.624377
s 0
usemtl BasicTexture
f 3/3/1 4/5/1 6/8/1 5/6/1
f 5/6/2 6/8/2 8/11/2 7/9/2
f 7/9/3 8/11/3 10/14/3 9/12/3
f 9/12/4 10/14/4 12/17/4 11/15/4
f 11/15/5 12/17/5 14/20/5 13/18/5
f 13/18/6 14/20/6 16/23/6 15/21/6
f 4/5/7 18/26/7 40/48/7 34/42/7
f 15/21/8 16/23/8 18/26/8 17/24/8
f 17/24/9 18/26/9 4/5/9 3/3/9
f 40/48/8 39/47/8 47/55/8 48/56/8
f 14/20/7 12/17/7 37/45/7 38/46/7
f 8/11/7 6/8/7 33/41/7 35/43/7
f 16/23/7 14/20/7 38/46/7 39/47/7
f 6/8/7 4/5/7 34/42/7 33/41/7
f 10/14/7 8/11/7 35/43/7 36/44/7
f 18/26/7 16/23/7 39/47/7 40/48/7
f 12/17/7 10/14/7 36/44/7 37/45/7
f 43/51/10 41/49/10 49/57/10 51/59/10
f 38/46/5 37/45/5 45/53/5 46/54/5
f 36/44/3 35/43/3 43/51/3 44/52/3
f 33/41/1 34/42/1 42/50/1 41/49/1
f 34/42/9 40/48/9 48/56/9 42/50/9
f 39/47/6 38/46/6 46/54/6 47/55/6
f 37/45/4 36/44/4 44/52/4 45/53/4
f 35/43/2 33/41/2 41/49/2 43/51/2
f 50/58/9 56/64/9 64/72/9 58/66/9
f 48/56/10 47/55/10 55/63/10 56/64/10
f 46/54/10 45/53/10 53/61/10 54/62/10
f 44/52/10 43/51/10 51/59/10 52/60/10
f 41/49/10 42/50/10 50/58/10 49/57/10
f 42/50/10 48/56/10 56/64/10 50/58/10
f 47/55/10 46/54/10 54/62/10 55/63/10
f 45/53/10 44/52/10 52/60/10 53/61/10
f 60/68/11 59/67/11 67/75/11 68/76/11
f 55/63/6 54/62/6 62/70/6 63/71/6
f 53/61/4 52/60/4 60/68/4 61/69/4
f 51/59/2 49/57/2 57/65/2 59/67/2
f 56/64/8 55/63/8 63/71/8 64/72/8
f 54/62/5 53/61/5 61/69/5 62/70/5
f 52/60/3 51/59/3 59/67/3 60/68/3
f 49/57/1 50/58/1 58/66/1 57/65/1
f 72/80/12 71/79/12 79/87/12 80/88/12
f 57/65/13 58/66/13 66/74/13 65/73/13
f 58/66/14 64/72/14 72/80/14 66/74/14
f 63/71/15 62/70/15 70/78/15 71/79/15
f 61/69/16 60/68/16 68/76/16 69/77/16
f 59/67/17 57/65/17 65/73/17 67/75/17
f 64/72/18 63/71/18 71/79/18 72/80/18
f 62/70/19 61/69/19 69/77/19 70/78/19
f 77/85/20 76/84/20 84/92/20 85/93/20
f 70/78/21 69/77/21 77/85/21 78/86/21
f 68/76/22 67/75/22 75/83/22 76/84/22
f 65/73/23 66/74/23 74/82/23 73/81/23
f 66/74/24 72/80/24 80/88/24 74/82/24
f 71/79/25 70/78/25 78/86/25 79/87/25
f 69/77/26 68/76/26 76/84/26 77/85/26
f 67/75/27 65/73/27 73/81/27 75/83/27
f 82/90/28 88/96/28 96/111/28 90/99/28
f 75/83/29 73/81/29 81/89/29 83/91/29
f 80/88/30 79/87/30 87/95/30 88/96/30
f 78/86/31 77/85/31 85/93/31 86/94/31
f 76/84/32 75/83/32 83/91/32 84/92/32
f 73/81/33 74/82/33 82/90/33 81/89/33
f 74/82/34 80/88/34 88/96/34 82/90/34
f 79/87/35 78/86/35 86/94/35 87/95/35
f 87/95/36 86/94/36 94/107/36 95/109/36
f 85/93/37 84/92/37 92/103/37 93/105/37
f 83/91/38 81/89/38 89/97/38 91/101/38
f 88/96/39 87/95/39 95/109/39 96/111/39
f 86/94/40 85/93/40 93/105/40 94/107/40
f 84/92/41 83/91/41 91/101/41 92/103/41
f 81/89/42 82/90/42 90/99/42 89/97/42
f 23/31/8 24/32/8 25/33/8 27/35/8
f 11/16/10 13/19/10 22/30/10 21/29/10
f 21/29/5 22/30/5 28/36/5 29/37/5
f 9/13/10 11/16/10 21/29/10 20/28/10
f 22/30/6 23/31/6 27/35/6 28/36/6
f 15/22/10 17/25/10 24/32/10 23/31/10
f 24/32/9 2/2/9 26/34/9 25/33/9
f 7/10/10 9/13/10 20/28/10 19/27/10
f 19/27/3 20/28/3 30/38/3 31/39/3
f 17/25/10 3/4/10 2/2/10 24/32/10
f 13/19/10 15/22/10 23/31/10 22/30/10
f 20/28/4 21/29/4 29/37/4 30/38/4
f 1/1/2 19/27/2 31/39/2 32/40/2
f 3/4/10 5/7/10 1/1/10 2/2/10
f 5/7/10 7/10/10 19/27/10 1/1/10
f 2/2/1 1/1/1 32/40/1 26/34/1
f 94/108/5 93/106/5 101/117/5 102/118/5
f 97/113/10 98/114/10 104/120/10 103/119/10 102/118/10 101/117/10 100/116/10 99/115/10
f 92/104/3 91/102/3 99/115/3 100/116/3
f 89/98/1 90/100/1 98/114/1 97/113/1
f 90/100/9 96/112/9 104/120/9 98/114/9
f 95/110/6 94/108/6 102/118/6 103/119/6
f 93/106/4 92/104/4 100/116/4 101/117/4
f 91/102/2 89/98/2 97/113/2 99/115/2
f 96/112/8 95/110/8 103/119/8 104/120/8
f 108/124/43 107/123/43 113/129/43 114/130/43
f 111/127/44 112/128/44 116/132/44 115/131/44 114/130/44 113/129/44
f 105/121/45 106/122/45 112/128/45 111/127/45
f 106/122/46 110/126/46 116/132/46 112/128/46
f 109/125/47 108/124/47 114/130/47 115/131/47
f 107/123/48 105/121/48 111/127/48 113/129/48
f 110/126/49 109/125/49 115/131/49 116/132/49
f 122/138/49 121/137/49 127/143/49 128/144/49
f 127/143/44 126/142/44 129/145/44
f 120/136/43 119/135/43 125/141/43 126/142/43
f 117/133/45 118/134/45 124/140/45 123/139/45
f 118/134/46 122/138/46 128/144/46 124/140/46
f 121/137/47 120/136/47 126/142/47 127/143/47
f 119/135/48 117/133/48 123/139/48 125/141/48
f 125/141/44 123/139/44 129/145/44
f 128/144/44 127/143/44 129/145/44
f 126/142/44 125/141/44 129/145/44
f 123/139/44 124/140/44 129/145/44
f 124/140/44 128/144/44 129/145/44
f 133/149/43 139/155/43 138/154/43 132/148/43
f 136/152/50 138/154/50 139/155/50 140/156/50 141/157/50 137/153/50
f 130/146/45 136/152/45 137/153/45 131/147/45
f 131/147/46 137/153/46 141/157/46 135/151/46
f 134/150/47 140/156/47 139/155/47 133/149/47
f 132/148/48 138/154/48 136/152/48 130/146/48
f 135/151/49 141/157/49 140/156/49 134/150/49
f 147/163/49 153/169/49 152/168/49 146/162/49
f 152/168/50 154/170/50 151/167/50
f 145/161/43 151/167/43 150/166/43 144/160/43
f 142/158/45 148/164/45 149/165/45 143/159/45
f 143/159/46 149/165/46 153/169/46 147/163/46
f 146/162/47 152/168/47 151/167/47 145/161/47
f 144/160/48 150/166/48 148/164/48 142/158/48
f 150/166/50 154/170/50 148/164/50
f 153/169/50 154/170/50 152/168/50
f 151/167/50 154/170/50 150/166/50
f 148/164/50 154/170/50 149/165/50
f 149/165/50 154/170/50 153/169/50
f 158/174/51 157/173/51 163/179/51 164/180/51
f 161/177/48 162/178/48 166/182/48 165/181/48 164/180/48 163/179/48
f 155/171/52 156/172/52 162/178/52 161/177/52
f 156/172/53 160/176/53 166/182/53 162/178/53
f 159/175/54 158/174/54 164/180/54 165/181/54
f 157/173/50 155/171/50 161/177/50 163/179/50
f 160/176/44 159/175/44 165/181/44 166/182/44
f 172/188/44 171/187/44 177/193/44 178/194/44
f 177/193/48 176/192/48 179/195/48
f 170/186/51 169/185/51 175/191/51 176/192/51
f 167/183/52 168/184/52 174/190/52 173/189/52
f 168/184/53 172/188/53 178/194/53 174/190/53
f 171/187/54 170/186/54 176/192/54 177/193/54
f 169/185/50 167/183/50 173/189/50 175/191/50
f 175/191/48 173/189/48 179/195/48
f 178/194/48 177/193/48 179/195/48
f 176/192/48 175/191/48 179/195/48
f 173/189/48 174/190/48 179/195/48
f 174/190/48 178/194/48 179/195/48
f 183/199/51 189/205/51 188/204/51 182/198/51
f 186/202/49 188/204/49 189/205/49 190/206/49 191/207/49 187/203/49
f 180/196/52 186/202/52 187/203/52 181/197/52
f 181/197/53 187/203/53 191/207/53 185/201/53
f 184/200/54 190/206/54 189/205/54 183/199/54
f 182/198/50 188/204/50 186/202/50 180/196/50
f 185/201/44 191/207/44 190/206/44 184/200/44
f 197/213/44 203/219/44 202/218/44 196/212/44
f 202/218/49 204/220/49 201/217/49
f 195/211/51 201/217/51 200/216/51 194/210/51
f 192/208/52 198/214/52 199/215/52 193/209/52
f 193/209/53 199/215/53 203/219/53 197/213/53
f 196/212/54 202/218/54 201/217/54 195/211/54
f 194/210/50 200/216/50 198/214/50 192/208/50
f 200/216/49 204/220/49 198/214/49
f 203/219/49 204/220/49 202/218/49
f 201/217/49 204/220/49 200/216/49
f 198/214/49 204/220/49 199/215/49
f 199/215/49 204/220/49 203/219/49
