# Blender 3.5.1
# www.blender.org
mtllib Lamp.mtl
o Cylinder.001
v 0.000000 0.000000 -0.100000
v 0.000000 4.000000 -0.100000
v 0.095106 0.000000 -0.030902
v 0.095106 4.000000 -0.030902
v 0.058779 0.000000 0.080902
v 0.058779 4.000000 0.080902
v -0.058779 0.000000 0.080902
v -0.058779 4.000000 0.080902
v -0.095106 0.000000 -0.030902
v -0.095106 4.000000 -0.030902
v 0.000000 2.867754 -0.240000
v 0.000000 3.667755 -0.400000
v 0.207846 2.867754 -0.120000
v 0.346410 3.667755 -0.200000
v 0.207846 2.867754 0.120000
v 0.346410 3.667755 0.200000
v 0.000000 2.867754 0.240000
v 0.000000 3.667755 0.400000
v -0.207846 2.867754 0.120000
v -0.346410 3.667755 0.200000
v -0.207846 2.867754 -0.120000
v -0.346410 3.667755 -0.200000
v 0.187581 3.867363 -0.108300
v 0.000000 3.867363 -0.216600
v 0.187581 3.867363 0.108300
v 0.000000 3.867363 0.216600
v -0.187581 3.867363 0.108300
v -0.187581 3.867363 -0.108300
v 0.000000 3.037354 -0.273920
v 0.237222 3.037354 -0.136960
v 0.237222 3.037354 0.136960
v 0.000000 3.037354 0.273920
v -0.237222 3.037354 0.136960
v -0.237222 3.037354 -0.136960
vn 0.5878 -0.0000 -0.8090
vn 0.9511 -0.0000 0.3090
vn -0.0000 -0.0000 1.0000
vn -0.0000 1.0000 -0.0000
vn -0.9511 -0.0000 0.3090
vn -0.5878 -0.0000 -0.8090
vn -0.0000 -1.0000 -0.0000
vn 0.4927 -0.1707 -0.8533
vn 0.9853 -0.1707 -0.0000
vn 0.4927 -0.1707 0.8533
vn -0.4927 -0.1707 0.8533
vn -0.3913 0.6226 0.6777
vn -0.9853 -0.1707 -0.0000
vn -0.4927 -0.1707 -0.8533
vn 0.7825 0.6226 -0.0000
vn -0.7825 0.6226 -0.0000
vn 0.3913 0.6226 -0.6777
vn 0.3913 0.6226 0.6777
vn -0.3913 0.6226 -0.6777
vt 0.119450 0.908423
vt 0.036800 0.908423
vt 0.098788 0.907596
vt 0.119450 0.949748
vt 0.057463 0.907596
vt 0.036800 0.949748
vt 0.102920 0.908423
vt 0.117653 0.893890
vt 0.102920 0.949748
vt 0.076328 0.893890
vt 0.086390 0.908423
vt 0.110447 0.871713
vt 0.086390 0.949748
vt 0.069122 0.871713
vt 0.069860 0.908423
vt 0.087128 0.871713
vt 0.045803 0.871713
vt 0.069860 0.949748
vt 0.053330 0.908423
vt 0.079922 0.893890
vt 0.038597 0.893890
vt 0.053330 0.949748
vt 0.139290 0.784014
vt 0.042374 0.877120
vt 0.042374 0.771318
vt 0.313276 0.391751
vt 0.313276 0.483249
vt 0.095275 0.771318
vt 0.095275 0.877120
vt 0.117299 0.771318
vt 0.042374 0.788951
vt 0.313276 0.407001
vt 0.095275 0.788951
vt 0.095309 0.784014
vt 0.042374 0.806585
vt 0.313276 0.422250
vt 0.095275 0.806585
vt 0.095309 0.809407
vt 0.042374 0.824219
vt 0.313276 0.437500
vt 0.095275 0.824219
vt 0.117299 0.822103
vt 0.042374 0.841852
vt 0.313276 0.452750
vt 0.095275 0.841852
vt 0.139290 0.809407
vt 0.042374 0.859486
vt 0.313276 0.467999
vt 0.095275 0.859486
vt 0.139290 0.834833
vt 0.095275 0.788951
vt 0.139290 0.860225
vt 0.095275 0.771318
vt 0.095275 0.877120
vt 0.117299 0.822137
vt 0.095275 0.806585
vt 0.095309 0.834833
vt 0.095275 0.824219
vt 0.095309 0.860225
vt 0.095275 0.841852
vt 0.117299 0.872922
vt 0.095275 0.859486
vt 0.277225 0.391751
vt 0.277225 0.483249
vt 0.053589 0.877120
vt 0.053589 0.771318
vt 0.277225 0.407001
vt 0.053589 0.788951
vt 0.277225 0.422250
vt 0.053589 0.806585
vt 0.277225 0.437500
vt 0.053589 0.824219
vt 0.277225 0.452750
vt 0.053589 0.841852
vt 0.277225 0.467999
vt 0.053589 0.859486
s 0
usemtl BasicTexture
f 1/1/1 2/4/1 4/9/1 3/7/1
f 3/7/2 4/9/2 6/13/2 5/11/2
f 5/11/3 6/13/3 8/18/3 7/15/3
f 4/10/4 2/5/4 10/21/4 8/17/4 6/14/4
f 7/15/5 8/18/5 10/22/5 9/19/5
f 9/19/6 10/22/6 2/6/6 1/2/6
f 1/3/7 3/8/7 5/12/7 7/16/7 9/20/7
f 29/63/8 12/26/8 14/32/8 30/67/8
f 30/67/9 14/32/9 16/36/9 31/69/9
f 31/69/10 16/36/10 18/40/10 32/71/10
f 32/71/11 18/40/11 20/44/11 33/73/11
f 20/45/12 18/41/12 26/58/12 27/60/12
f 33/73/13 20/44/13 22/48/13 34/75/13
f 34/75/14 22/48/14 12/27/14 29/64/14
f 11/23/7 13/30/7 15/34/7 17/38/7 19/42/7 21/46/7
f 23/50/4 24/52/4 28/61/4 27/59/4 26/57/4 25/55/4
f 16/37/15 14/33/15 23/51/15 25/56/15
f 22/49/16 20/45/16 27/60/16 28/62/16
f 14/33/17 12/28/17 24/53/17 23/51/17
f 18/41/18 16/37/18 25/56/18 26/58/18
f 12/29/19 22/49/19 28/62/19 24/54/19
f 21/47/14 34/76/14 29/65/14 11/24/14
f 19/43/13 33/74/13 34/76/13 21/47/13
f 17/39/11 32/72/11 33/74/11 19/43/11
f 15/35/10 31/70/10 32/72/10 17/39/10
f 13/31/9 30/68/9 31/70/9 15/35/9
f 11/25/8 29/66/8 30/68/8 13/31/8
