# Blender 3.5.1
# www.blender.org
mtllib kamienica3.mtl
o Cube.080
v -0.206097 5.125632 2.210457
v -0.206097 5.303297 2.210457
v -0.206097 5.125632 -2.196474
v -0.206097 5.303297 -2.196474
v 0.171715 5.125632 2.210457
v 0.171715 5.303297 2.210457
v 0.171715 5.125632 -2.196474
v 0.171715 5.303297 -2.196474
v -0.206095 2.845947 3.033723
v -0.206095 3.023612 3.033723
v -0.206095 2.845947 -3.019672
v -0.206095 3.023612 -3.019672
v 0.171718 2.845947 3.033723
v 0.171718 3.023612 3.033723
v 0.171718 2.845947 -3.019672
v 0.171718 3.023612 -3.019672
v -0.206095 0.813237 3.082321
v -0.206095 0.990902 3.082321
v -0.206095 0.813237 -3.068270
v -0.206095 0.990902 -3.068270
v 0.171718 0.813237 3.082321
v 0.171718 0.990902 3.082321
v 0.171718 0.813237 -3.068270
v 0.171718 0.990902 -3.068270
v -0.206095 -1.504560 3.062209
v -0.206095 -1.326895 3.062209
v -0.206095 -1.504560 -3.048159
v -0.206095 -1.326895 -3.048159
v 0.171718 -1.504560 3.062209
v 0.171718 -1.326895 3.062209
v 0.171718 -1.504560 -3.048159
v 0.171718 -1.326895 -3.048159
v -2.050408 -5.230877 2.965492
v -2.050408 2.999809 2.965492
v -2.050408 -5.230877 -2.971447
v -2.050408 2.999809 -2.971447
v -0.050408 2.999809 2.965492
v -0.050408 2.999809 -2.971447
v -0.050408 -5.230877 -2.947474
v -0.050408 -5.230877 2.953918
v -2.050408 4.105357 2.220773
v -2.050408 4.105357 -2.226727
v -0.050408 -5.230877 2.298116
v -0.050408 -5.230877 -2.295805
v -0.050408 4.740814 -0.548093
v -0.050408 4.740814 0.542138
v -0.050408 -1.886141 -0.737289
v -0.050408 -1.886141 0.731334
v -0.050408 -4.295959 -0.737289
v -0.050408 -4.295959 0.731334
v -0.050408 0.928611 -0.548093
v -0.050408 0.928611 0.542138
v 1.710104 -5.230877 0.986512
v 1.710104 -5.230877 -0.992467
v 1.710104 -4.295959 -0.002978
v -0.050408 -4.295959 -1.276849
v -0.050408 -4.447992 -1.276849
v -0.050408 -4.447992 -1.555287
v -0.050408 -4.600027 -1.555287
v -0.050408 -4.600027 -1.833724
v -0.050408 -4.752061 -1.833724
v -0.050408 -4.752061 -2.112162
v -0.050408 -4.904094 -2.112162
v -0.050408 -4.904094 -2.390599
v -0.050408 -5.056128 -2.390599
v -0.050408 -5.056128 -2.669036
v -0.050408 -5.208162 -2.669036
v 1.710104 -4.295959 -1.276849
v 1.710104 -5.208162 -2.669036
v 1.710104 -5.056128 -2.669036
v 1.710104 -5.056128 -2.390599
v 1.710104 -4.904094 -2.390599
v 1.710104 -4.904094 -2.112162
v 1.710104 -4.752061 -2.112162
v 1.710104 -4.752061 -1.833724
v 1.710104 -4.600027 -1.833724
v 1.710104 -4.600027 -1.555287
v 1.710104 -4.447992 -1.555287
v 1.710104 -4.447992 -1.276849
v -0.050408 -4.295959 1.283293
v -0.050408 -5.208162 2.675480
v -0.050408 -5.056128 2.675480
v -0.050408 -5.056128 2.397043
v -0.050408 -4.904094 2.397043
v -0.050408 -4.904094 2.118605
v -0.050408 -4.752061 2.118605
v -0.050408 -4.752061 1.840167
v -0.050408 -4.600027 1.840167
v -0.050408 -4.600027 1.561730
v -0.050408 -4.447992 1.561730
v -0.050408 -4.447992 1.283292
v 1.710104 -4.295959 1.283293
v 1.710104 -4.447992 1.283293
v 1.710104 -4.447992 1.561730
v 1.710104 -4.600027 1.561730
v 1.710104 -4.600027 1.840168
v 1.710104 -4.752061 1.840168
v 1.710104 -4.752061 2.118605
v 1.710104 -4.904094 2.118605
v 1.710104 -4.904094 2.397043
v 1.710104 -5.056128 2.397043
v 1.710104 -5.056128 2.675480
v 1.710104 -5.208162 2.675480
v -0.050408 4.105357 -2.226727
v -0.050408 4.740814 -1.172843
v -0.050408 -1.886141 -2.226727
v -0.050408 -1.886141 -1.172843
v -0.050408 0.928611 -2.226727
v -0.050408 0.928611 -1.172843
v -0.050408 4.740814 1.167021
v -0.050408 4.105357 2.220773
v -0.050408 -1.886141 1.167021
v -0.050408 -1.886141 2.220773
v -0.050408 0.928611 1.167021
v -0.050408 0.928611 2.220773
v -2.050408 6.680150 1.476053
v -2.050408 6.680150 -1.482008
v -0.050408 6.680150 -1.482008
v -0.050408 6.680447 -0.548093
v -0.050408 6.680447 0.542138
v -2.050408 5.304549 -2.226727
v -0.050408 5.304549 -2.226727
v -0.050408 6.680150 1.476053
v -0.050408 5.304549 2.220773
v -2.050408 5.304549 2.220773
v -2.050408 7.385835 1.476053
v -2.050408 8.075334 0.731334
v -2.050408 8.075334 -0.737289
v -0.050408 7.385835 -1.482008
v -0.050408 8.075334 -0.737289
v -0.050408 8.075334 0.731334
v -2.050408 7.385835 -1.482008
v -0.050408 7.385835 1.476053
v -0.050408 -3.693505 -0.737289
v -0.050408 -3.693505 0.731334
v -0.050408 -3.678662 -2.226727
v -0.050408 -3.686083 -1.172843
v -0.050408 -3.686083 1.167021
v -0.050408 -3.678662 2.220773
v -0.050408 -1.353322 -0.548093
v -0.050408 -1.353322 0.542138
v -0.050408 -1.353322 -2.226727
v -0.050408 -1.353322 -1.172843
v -0.050408 -1.353322 1.167021
v -0.050408 -1.353322 2.220773
v -0.279834 -1.886141 -0.737289
v -0.279834 -1.886141 0.731334
v -0.279834 -4.295959 -0.737289
v -0.279834 -4.295959 0.731334
v -0.279834 -1.886141 -2.226727
v -0.279834 -1.886141 -1.172843
v -0.279834 -1.886141 1.167021
v -0.279834 -1.886141 2.220773
v -0.279834 -3.678662 2.220773
v -0.279834 -3.678662 -2.226727
v -0.279834 -3.686083 1.167021
v -0.279834 -3.686083 -1.172843
v -0.050408 2.999805 0.542138
v -0.050408 2.999806 -1.172843
v -0.050408 2.999805 2.220773
v -0.050408 2.999807 -2.226727
v -0.050408 2.999805 1.167021
v -0.050408 2.999807 -0.548093
v -0.050408 2.497313 -0.548093
v -0.050408 2.497313 0.542138
v -0.050408 2.497313 -2.226727
v -0.050408 2.497313 -1.172843
v -0.050408 2.497313 1.167021
v -0.050408 2.497313 2.220773
v -0.050408 0.406787 2.220773
v -0.050408 0.406787 0.542138
v -0.050408 0.406787 -2.226727
v -0.050408 0.406787 1.167021
v -0.050408 0.406787 -1.172843
v -0.050408 0.406787 -0.548093
v -0.050408 5.304549 -0.548093
v -0.050408 5.304550 0.542138
v -0.234776 4.740814 -0.548093
v -0.234776 4.740814 0.542138
v -0.234776 0.928611 -0.548093
v -0.234776 0.928611 0.542138
v -0.234776 2.497313 -0.548093
v -0.234776 2.497313 0.542138
v -0.234776 0.928611 -2.226727
v -0.234776 0.928611 -1.172843
v -0.234776 2.497313 -2.226727
v -0.234776 2.497313 -1.172843
v -0.234776 0.928611 1.167021
v -0.234776 0.928611 2.220773
v -0.234776 2.497313 1.167021
v -0.234776 2.497313 2.220773
v -0.234776 6.680447 -0.548093
v -0.234776 6.680447 0.542138
v -0.234776 5.304549 -0.548093
v -0.234776 0.406787 2.220773
v -0.234776 -1.353322 2.220773
v -0.234776 0.406787 0.542138
v -0.234776 -1.353322 0.542138
v -0.234776 0.406787 -2.226727
v -0.234776 -1.353322 -2.226727
v -0.234776 0.406787 1.167021
v -0.234776 -1.353322 1.167021
v -0.234776 0.406787 -1.172843
v -0.234776 -1.353322 -1.172843
v -0.234776 0.406787 -0.548093
v -0.234776 -1.353322 -0.548093
v -0.234776 2.999805 0.542138
v -0.234776 4.740814 -1.172843
v -0.234776 2.999806 -1.172843
v -0.234776 4.740814 1.167021
v -0.234776 2.999805 1.167021
v -0.234776 2.999807 -0.548093
v -0.234776 2.999805 2.220773
v -0.234776 2.999807 -2.226727
v -0.234776 5.304550 0.542138
vn -0.0000 -0.0000 -1.0000
vn 1.0000 -0.0000 -0.0000
vn -0.0000 -0.0000 1.0000
vn -0.0000 -1.0000 -0.0000
vn -0.0000 1.0000 -0.0000
vn -0.0000 0.5587 0.8294
vn -1.0000 -0.0000 -0.0000
vn -0.0000 0.5587 -0.8294
vn -0.0000 0.4761 -0.8794
vn -0.0000 0.4761 0.8794
vn -0.0000 0.7338 -0.6794
vn -0.0000 0.7338 0.6794
vn -0.0000 1.0000 -0.0070
vn 0.0029 -0.0007 1.0000
vn 0.0060 -0.0015 -1.0000
vn -0.0000 1.0000 0.0070
vn -0.0000 -0.5178 -0.8555
vn -0.0000 -0.5178 0.8555
vt 0.579830 0.949029
vt 0.592654 0.831171
vt 0.612111 0.949029
vt 0.678032 0.831171
vt 0.579830 0.852187
vt 0.592654 0.802711
vt 0.612111 0.852187
vt 0.678032 0.802711
vt 0.579830 0.916748
vt 0.621113 0.831171
vt 0.612111 0.916748
vt 0.649573 0.831171
vt 0.579830 0.884467
vt 0.621113 0.802711
vt 0.612111 0.884467
vt 0.649573 0.802711
vt 0.579830 0.949029
vt 0.547549 0.916748
vt 0.612111 0.949029
vt 0.644392 0.916748
vt 0.579830 0.852187
vt 0.547549 0.884467
vt 0.612111 0.852187
vt 0.644392 0.884467
vt 0.579830 0.916748
vt 0.612111 0.916748
vt 0.579830 0.884467
vt 0.612111 0.884467
vt 0.579830 0.949029
vt 0.547549 0.916748
vt 0.612111 0.949029
vt 0.644392 0.916748
vt 0.579830 0.852187
vt 0.547549 0.884467
vt 0.612111 0.852187
vt 0.644392 0.884467
vt 0.579830 0.916748
vt 0.612111 0.916748
vt 0.579830 0.884467
vt 0.612111 0.884467
vt 0.579830 0.949029
vt 0.547549 0.916748
vt 0.612111 0.949029
vt 0.644392 0.916748
vt 0.579830 0.852187
vt 0.547549 0.884467
vt 0.612111 0.852187
vt 0.644392 0.884467
vt 0.579830 0.916748
vt 0.612111 0.916748
vt 0.579830 0.884467
vt 0.612111 0.884467
vt 0.613330 0.637734
vt 0.621191 0.642494
vt 0.056460 0.860736
vt 0.622828 0.633555
vt 0.614447 0.636996
vt 0.621439 0.640944
vt 0.635200 0.636954
vt 0.627455 0.642289
vt 0.625238 0.633412
vt 0.064415 0.860347
vt 0.633981 0.636238
vt 0.627129 0.640756
vt 0.618991 0.625214
vt 0.055917 0.854265
vt 0.612850 0.620972
vt 0.619436 0.625412
vt 0.617039 0.623791
vt 0.616293 0.623454
vt 0.064275 0.853837
vt 0.630834 0.622634
vt 0.634210 0.619772
vt 0.627794 0.624984
vt 0.628264 0.624723
vt 0.630134 0.623026
vt 0.641221 0.614563
vt 0.635420 0.619134
vt 0.606034 0.616988
vt 0.603933 0.616310
vt 0.611624 0.620457
vt 0.057695 0.860328
vt 0.621214 0.631475
vt 0.623031 0.632198
vt 0.063171 0.860020
vt 0.625759 0.631741
vt 0.626690 0.631167
vt 0.624912 0.632072
vt 0.605954 0.612000
vt 0.611697 0.605137
vt 0.633017 0.603176
vt 0.640517 0.609157
vt 0.624267 0.624998
vt 0.622923 0.625062
vt 0.626507 0.613078
vt 0.619287 0.613859
vt 0.096846 0.852477
vt 0.628375 0.601477
vt 0.083972 0.853758
vt 0.615501 0.602758
vt 0.624827 0.620115
vt 0.621836 0.620427
vt 0.077571 0.806001
vt 0.096810 0.805021
vt 0.080272 0.811869
vt 0.094782 0.810982
vt 0.101267 0.851999
vt 0.102404 0.851870
vt 0.104196 0.851671
vt 0.105319 0.851543
vt 0.107083 0.851349
vt 0.108189 0.851224
vt 0.109924 0.851035
vt 0.111011 0.850913
vt 0.112714 0.850728
vt 0.113783 0.850611
vt 0.115453 0.850431
vt 0.116506 0.850317
vt 0.096794 0.811731
vt 0.112265 0.812296
vt 0.111534 0.812930
vt 0.109337 0.812112
vt 0.108586 0.812724
vt 0.106336 0.811817
vt 0.105585 0.812428
vt 0.103352 0.811528
vt 0.102605 0.812137
vt 0.100411 0.811258
vt 0.099671 0.811867
vt 0.097549 0.811051
vt 0.079361 0.853936
vt 0.060919 0.853869
vt 0.061730 0.853907
vt 0.064468 0.854009
vt 0.065132 0.854030
vt 0.067920 0.854084
vt 0.068596 0.854095
vt 0.071438 0.854099
vt 0.072125 0.854101
vt 0.075017 0.854057
vt 0.075715 0.854048
vt 0.078654 0.853958
vt 0.078251 0.812906
vt 0.077379 0.812308
vt 0.075360 0.813380
vt 0.074521 0.812852
vt 0.072429 0.813984
vt 0.071592 0.813452
vt 0.069457 0.814607
vt 0.068627 0.814072
vt 0.066470 0.815235
vt 0.065652 0.814699
vt 0.063532 0.815764
vt 0.062746 0.815207
vt 0.062930 0.854111
vt 0.626449 0.625258
vt 0.625018 0.625144
vt 0.633211 0.616403
vt 0.628468 0.613723
vt 0.628922 0.621879
vt 0.626295 0.620545
vt 0.622189 0.625343
vt 0.057185 0.854435
vt 0.620704 0.625582
vt 0.617502 0.614702
vt 0.613443 0.617917
vt 0.620390 0.620825
vt 0.618150 0.622518
vt 0.059084 0.859347
vt 0.623279 0.630745
vt 0.622603 0.630494
vt 0.061662 0.859179
vt 0.625181 0.630326
vt 0.624505 0.630678
vt 0.061501 0.855061
vt 0.625020 0.626208
vt 0.624070 0.626254
vt 0.623310 0.626367
vt 0.062319 0.859298
vt 0.625839 0.630446
vt 0.062255 0.854804
vt 0.625774 0.625951
vt 0.058779 0.855232
vt 0.622299 0.626379
vt 0.058078 0.855078
vt 0.621598 0.626225
vt 0.058328 0.859585
vt 0.621847 0.630733
vt 0.059510 0.858764
vt 0.623029 0.629911
vt 0.059969 0.858640
vt 0.623488 0.629788
vt 0.060623 0.858628
vt 0.624143 0.629775
vt 0.061020 0.855649
vt 0.624539 0.626796
vt 0.060552 0.855781
vt 0.624071 0.626929
vt 0.059861 0.855819
vt 0.623381 0.626966
vt 0.061070 0.858663
vt 0.624589 0.629810
vt 0.059426 0.855769
vt 0.622945 0.626916
vt 0.628836 0.606007
vt 0.616101 0.606813
vt 0.638358 0.611172
vt 0.631497 0.606644
vt 0.613704 0.607959
vt 0.608228 0.613513
vt 0.625537 0.614610
vt 0.620489 0.615196
vt 0.632269 0.617690
vt 0.627963 0.615303
vt 0.618203 0.616000
vt 0.614569 0.618905
vt 0.016520 0.778230
vt 0.624334 0.610897
vt 0.013151 0.778261
vt 0.620964 0.610928
vt 0.017425 0.774469
vt 0.624897 0.605492
vt 0.625238 0.607136
vt 0.012447 0.774231
vt 0.620579 0.605460
vt 0.620260 0.606898
vt 0.880728 0.122952
vt 0.632698 0.613806
vt 0.982481 0.123341
vt 0.631501 0.612596
vt 0.614674 0.614330
vt 0.982481 0.225316
vt 0.880421 0.225396
vt 0.613289 0.615198
vt 0.880728 0.122952
vt 0.612227 0.613476
vt 0.880421 0.225396
vt 0.634207 0.612314
vt 0.613829 0.612414
vt 0.982481 0.123341
vt 0.982481 0.225316
vt 0.632818 0.610864
vt 0.622536 0.623396
vt 0.625259 0.623504
vt 0.620110 0.624765
vt 0.627023 0.624366
vt 0.621703 0.623659
vt 0.624388 0.623253
vt 0.624434 0.622691
vt 0.622432 0.622903
vt 0.627346 0.623896
vt 0.625452 0.623015
vt 0.621418 0.623186
vt 0.619754 0.624366
vt 0.617489 0.621909
vt 0.621589 0.619561
vt 0.629456 0.621074
vt 0.619943 0.620040
vt 0.626548 0.619661
vt 0.624855 0.619188
vt 0.625027 0.625633
vt 0.624209 0.625380
vt 0.622245 0.625826
vt 0.623066 0.625459
vt 0.880728 0.122952
vt 0.623802 0.624603
vt 0.982481 0.123341
vt 0.623272 0.624532
vt 0.880421 0.225396
vt 0.623947 0.621239
vt 0.982481 0.225316
vt 0.622999 0.621192
vt 0.880728 0.122952
vt 0.623752 0.622102
vt 0.982481 0.123341
vt 0.622960 0.622083
vt 0.982481 0.123341
vt 0.627647 0.622359
vt 0.880728 0.122952
vt 0.626886 0.621829
vt 0.982481 0.225316
vt 0.627046 0.623000
vt 0.880421 0.225396
vt 0.626379 0.622570
vt 0.880421 0.225396
vt 0.620223 0.622196
vt 0.982481 0.225316
vt 0.619434 0.622610
vt 0.880728 0.122952
vt 0.620495 0.623017
vt 0.982481 0.123341
vt 0.619814 0.623380
vt 0.623811 0.626045
vt 0.880421 0.225396
vt 0.623525 0.626042
vt 0.880728 0.122952
vt 0.982481 0.225316
vt 0.623874 0.625772
vt 0.880421 0.225396
vt 0.617484 0.620402
vt 0.880728 0.122952
vt 0.616707 0.619033
vt 0.880421 0.225396
vt 0.622400 0.618201
vt 0.880728 0.122952
vt 0.622426 0.616500
vt 0.880728 0.122952
vt 0.629051 0.619652
vt 0.880421 0.225396
vt 0.630185 0.618480
vt 0.982481 0.225316
vt 0.618553 0.619779
vt 0.982481 0.123341
vt 0.618028 0.618291
vt 0.982481 0.123341
vt 0.627965 0.618942
vt 0.982481 0.225316
vt 0.628893 0.617540
vt 0.982481 0.225316
vt 0.623754 0.618212
vt 0.982481 0.123341
vt 0.624105 0.616561
vt 0.982481 0.225316
vt 0.623249 0.623879
vt 0.809622 0.220313
vt 0.625456 0.624567
vt 0.841130 0.167156
vt 0.625617 0.624249
vt 0.778719 0.166653
vt 0.621557 0.624818
vt 0.809622 0.220313
vt 0.621524 0.624442
vt 0.880421 0.225396
vt 0.623874 0.623950
vt 0.841130 0.167156
vt 0.621179 0.624577
vt 0.778719 0.166653
vt 0.625878 0.624494
vt 0.982481 0.123341
vt 0.623539 0.625750
s 0
usemtl BasicTexture
f 3/5/1 4/7/1 8/15/1 7/13/1
f 7/13/2 8/15/2 6/11/2 5/9/2
f 5/9/3 6/11/3 2/3/3 1/1/3
f 3/6/4 7/14/4 5/10/4 1/2/4
f 8/16/5 4/8/5 2/4/5 6/12/5
f 11/21/1 12/23/1 16/28/1 15/27/1
f 15/27/2 16/28/2 14/26/2 13/25/2
f 13/25/3 14/26/3 10/19/3 9/17/3
f 11/22/4 15/27/4 13/25/4 9/18/4
f 16/28/5 12/24/5 10/20/5 14/26/5
f 19/33/1 20/35/1 24/40/1 23/39/1
f 23/39/2 24/40/2 22/38/2 21/37/2
f 21/37/3 22/38/3 18/31/3 17/29/3
f 19/34/4 23/39/4 21/37/4 17/30/4
f 24/40/5 20/36/5 18/32/5 22/38/5
f 27/45/1 28/47/1 32/52/1 31/51/1
f 31/51/2 32/52/2 30/50/2 29/49/2
f 29/49/3 30/50/3 26/43/3 25/41/3
f 27/46/4 31/51/4 29/49/4 25/42/4
f 32/52/5 28/48/5 26/44/5 30/50/5
f 169/254/2 160/245/2 37/65/2
f 111/163/6 41/82/6 34/55/6 37/66/6
f 37/67/2 145/216/2 170/255/2
f 40/79/2 139/210/2 113/166/2
f 105/157/2 104/156/2 122/182/2 176/261/2
f 167/252/2 159/244/2 163/248/2 164/249/2
f 164/249/2 163/248/2 158/243/2 165/250/2
f 34/56/7 41/84/7 42/88/7 36/61/7
f 54/104/2 55/105/2 53/103/2
f 49/97/5 50/99/5 55/106/5
f 49/97/5 55/106/5 68/119/5 56/107/5
f 55/105/5 50/99/5 80/131/5 92/143/5
f 69/120/1 67/118/1 66/117/1 70/121/1
f 70/121/5 66/117/5 65/116/5 71/122/5
f 71/122/1 65/116/1 64/115/1 72/123/1
f 72/123/5 64/115/5 63/114/5 73/124/5
f 73/124/1 63/114/1 62/113/1 74/125/1
f 74/125/5 62/113/5 61/112/5 75/126/5
f 75/126/1 61/112/1 60/111/1 76/127/1
f 76/127/5 60/111/5 59/110/5 77/128/5
f 77/128/1 59/110/1 58/109/1 78/129/1
f 78/129/5 58/109/5 57/108/5 79/130/5
f 79/130/1 57/108/1 56/107/1 68/119/1
f 92/143/3 80/131/3 91/142/3 93/144/3
f 93/144/5 91/142/5 90/141/5 94/145/5
f 94/145/3 90/141/3 89/140/3 95/146/3
f 95/146/5 89/140/5 88/139/5 96/147/5
f 96/147/3 88/139/3 87/138/3 97/148/3
f 97/148/5 87/138/5 86/137/5 98/149/5
f 98/149/3 86/137/3 85/136/3 99/150/3
f 99/150/5 85/136/5 84/135/5 100/151/5
f 100/151/3 84/135/3 83/134/3 101/152/3
f 101/152/5 83/134/5 82/133/5 102/153/5
f 102/153/3 82/133/3 81/132/3 103/154/3
f 102/153/2 103/154/2 101/152/2
f 100/151/2 101/152/2 99/150/2
f 98/149/2 99/150/2 97/148/2
f 96/147/2 97/148/2 95/146/2
f 94/145/2 95/146/2 93/144/2
f 92/143/2 93/144/2 55/105/2
f 53/103/2 101/152/2 103/154/2
f 101/152/2 53/103/2 99/150/2
f 99/150/2 53/103/2 97/148/2
f 97/148/2 53/103/2 95/146/2
f 95/146/2 53/103/2 93/144/2
f 55/105/2 93/144/2 53/103/2
f 68/119/2 55/106/2 79/130/2
f 78/129/2 79/130/2 77/128/2
f 76/127/2 77/128/2 75/126/2
f 74/125/2 75/126/2 73/124/2
f 70/121/2 71/122/2 69/120/2
f 72/123/2 73/124/2 71/122/2
f 71/122/2 54/104/2 69/120/2
f 73/124/2 54/104/2 71/122/2
f 75/126/2 54/104/2 73/124/2
f 77/128/2 54/104/2 75/126/2
f 79/130/2 54/104/2 77/128/2
f 55/106/2 54/104/2 79/130/2
f 38/74/2 161/246/2 166/251/2
f 166/251/2 161/246/2 159/244/2 167/252/2
f 38/71/8 36/62/8 42/85/8 104/155/8
f 46/94/2 45/93/2 176/262/2 177/264/2
f 173/258/2 144/215/2 141/212/2 171/256/2
f 112/165/2 138/209/2 135/206/2 48/96/2
f 106/158/2 136/207/2 39/78/2
f 172/257/2 142/213/2 38/72/2
f 175/260/2 140/211/2 143/214/2 174/259/2
f 47/95/2 134/205/2 137/208/2 107/159/2
f 111/164/2 110/162/2 177/263/2 124/186/2
f 165/250/2 158/243/2 162/247/2 168/253/2
f 168/253/2 162/247/2 160/245/2 169/254/2
f 117/174/7 116/170/7 127/192/7 128/194/7
f 120/178/2 119/177/2 130/198/2 131/200/2
f 122/181/9 121/179/9 117/172/9 118/175/9
f 116/171/3 123/184/3 133/204/3 126/190/3
f 123/183/10 116/169/10 125/187/10 124/185/10
f 42/86/7 117/173/7 121/180/7
f 41/83/7 125/188/7 116/171/7
f 41/83/3 111/164/3 124/186/3 125/188/3
f 104/156/1 42/87/1 121/180/1 122/182/1
f 42/88/7 41/84/7 116/170/7 117/174/7
f 110/162/2 46/94/2 177/263/2
f 45/93/2 105/157/2 176/262/2
f 129/195/11 132/201/11 128/193/11 130/197/11
f 130/197/5 128/193/5 127/191/5 131/199/5
f 131/199/12 127/191/12 126/189/12 133/203/12
f 118/176/1 117/173/1 132/202/1 129/196/1
f 117/174/7 128/194/7 132/202/7
f 119/177/2 118/176/2 129/196/2 130/198/2
f 123/184/2 120/178/2 131/200/2 133/204/2
f 116/171/7 126/190/7 127/192/7
f 49/98/3 134/205/3 148/222/3
f 139/210/13 138/209/13 156/239/13 154/236/13
f 138/209/3 112/165/3 152/231/3 156/239/3
f 43/89/2 139/210/2 40/80/2
f 44/91/2 137/208/2 134/205/2 49/98/2
f 112/165/4 113/166/4 153/234/4 152/231/4
f 39/77/2 136/207/2 44/92/2
f 44/92/2 136/207/2 137/208/2
f 50/100/2 135/206/2 138/209/2 43/90/2
f 43/90/2 138/209/2 139/210/2
f 162/247/3 110/162/3 210/330/3 211/332/3
f 141/212/5 140/211/5 206/322/5 198/306/5
f 119/177/4 120/178/4 193/295/4 192/293/4
f 40/81/14 37/67/14 34/57/14 33/53/14
f 113/166/2 145/216/2 37/67/2 40/81/2
f 35/59/15 36/63/15 38/73/15 39/78/15
f 33/54/7 34/58/7 36/64/7 35/60/7
f 107/159/2 143/214/2 140/211/2 47/95/2
f 47/95/2 140/211/2 141/212/2 48/96/2
f 39/78/2 38/73/2 142/213/2 106/158/2
f 106/158/2 142/213/2 143/214/2 107/159/2
f 48/96/2 141/212/2 144/215/2 112/165/2
f 112/165/2 144/215/2 145/216/2 113/166/2
f 147/219/2 149/224/2 148/221/2 146/217/2
f 151/229/2 157/241/2 155/237/2 150/227/2
f 153/233/2 154/235/2 156/240/2 152/232/2
f 137/208/16 136/207/16 155/238/16 157/242/16
f 50/100/5 49/98/5 148/222/5 149/225/5
f 135/206/1 50/100/1 149/226/1
f 48/96/1 135/206/1 149/226/1 147/220/1
f 47/95/4 48/96/4 147/220/4 146/218/4
f 136/207/3 106/158/3 150/228/3 155/238/3
f 107/159/1 137/208/1 157/242/1 151/230/1
f 113/166/1 139/210/1 154/236/1 153/234/1
f 134/205/3 47/95/3 146/218/3 148/223/3
f 106/158/4 107/159/4 151/230/4 150/228/4
f 176/262/3 119/177/3 192/293/3 194/298/3
f 161/246/2 38/74/2 104/156/2
f 168/253/4 169/254/4 191/292/4 190/290/4
f 144/215/3 173/258/3 201/312/3 202/314/3
f 162/247/2 158/243/2 46/94/2 110/162/2
f 37/68/2 160/245/2 111/164/2
f 105/157/1 159/244/1 209/328/1 208/326/1
f 163/248/2 159/244/2 105/157/2 45/93/2
f 52/102/2 165/250/2 168/253/2 114/167/2
f 175/260/4 171/256/4 197/304/4 205/320/4
f 38/75/2 166/251/2 108/160/2
f 120/178/1 177/264/1 215/340/1 193/295/1
f 109/161/2 167/252/2 164/249/2 51/101/2
f 115/168/2 169/254/2 37/69/2
f 115/168/2 170/255/2 173/258/2 114/167/2
f 109/161/2 174/259/2 172/257/2 108/160/2
f 52/102/2 171/256/2 175/260/2 51/101/2
f 51/101/2 175/260/2 174/259/2 109/161/2
f 108/160/2 172/257/2 38/76/2
f 114/167/2 173/258/2 171/256/2 52/102/2
f 37/70/2 170/255/2 115/168/2
f 110/162/2 111/164/2 160/245/2
f 105/157/2 161/246/2 104/156/2
f 124/186/2 177/263/2 123/184/2
f 176/261/2 118/176/2 119/177/2
f 46/94/1 158/243/1 207/324/1 179/268/1
f 176/261/2 122/182/2 118/176/2
f 177/264/2 120/178/2 123/184/2
f 197/303/2 198/305/2 206/321/2 205/319/2
f 203/315/2 204/317/2 200/309/2 199/307/2
f 195/299/2 196/301/2 202/313/2 201/311/2
f 188/285/2 190/289/2 191/291/2 189/287/2
f 213/335/2 211/331/2 210/329/2
f 209/327/2 214/337/2 208/325/2
f 207/323/2 212/333/2 178/265/2 179/267/2
f 184/277/2 186/281/2 187/283/2 185/279/2
f 180/269/2 182/273/2 183/275/2 181/271/2
f 215/339/2 194/297/2 192/294/2 193/296/2
f 177/264/5 176/262/5 194/298/5 215/340/5
f 163/248/3 45/93/3 178/266/3 212/334/3
f 143/214/5 142/213/5 200/310/5 204/318/5
f 170/255/1 145/216/1 196/302/1 195/300/1
f 174/259/1 143/214/1 204/318/1 203/316/1
f 160/245/5 162/247/5 211/332/5 213/336/5
f 140/211/3 175/260/3 205/320/3 206/322/3
f 159/244/5 161/246/5 214/338/5 209/328/5
f 109/161/5 108/160/5 184/278/5 185/280/5
f 166/251/4 167/252/4 187/284/4 186/282/4
f 52/102/5 51/101/5 180/270/5 181/272/5
f 110/162/17 160/245/17 213/336/17 210/330/17
f 173/258/4 170/255/4 195/300/4 201/312/4
f 161/246/18 105/157/18 208/326/18 214/338/18
f 158/243/5 163/248/5 212/334/5 207/324/5
f 171/256/1 141/212/1 198/306/1 197/304/1
f 108/160/3 166/251/3 186/282/3 184/278/3
f 145/216/5 144/215/5 202/314/5 196/302/5
f 115/168/5 114/167/5 188/286/5 189/288/5
f 114/167/3 168/253/3 190/290/3 188/286/3
f 142/213/3 172/257/3 199/308/3 200/310/3
f 167/252/1 109/161/1 185/280/1 187/284/1
f 51/101/3 164/249/3 182/274/3 180/270/3
f 164/249/4 165/250/4 183/276/4 182/274/4
f 172/257/4 174/259/4 203/316/4 199/308/4
f 169/254/1 115/168/1 189/288/1 191/292/1
f 45/93/4 46/94/4 179/268/4 178/266/4
f 165/250/1 52/102/1 181/272/1 183/276/1
