# Blender 3.5.1
# www.blender.org
mtllib moduł4.mtl
o Cube.100
v 0.754198 -2.133112 1.173298
v 0.829296 -1.438666 0.517296
v 0.754252 -2.133112 -1.203132
v 0.829296 -1.438666 -0.547161
v 1.686000 -2.133112 0.580255
v 1.686000 -2.133112 -0.610108
v -0.821766 3.617723 -0.049390
v 0.839113 2.082616 0.718166
v 0.839113 3.617723 -0.049391
v 0.839113 2.082616 -0.816947
v 0.839113 3.379902 -0.049391
v 0.839113 2.201527 -0.638580
v 0.839113 2.201527 0.539799
v 0.771068 3.379902 -0.049391
v 0.771068 2.201527 -0.638580
v 0.771068 2.201527 0.539799
v -1.382946 3.617723 -1.189099
v 0.334217 2.082616 -1.820774
v -0.208527 3.617723 -2.363518
v -0.751272 2.082616 -2.906263
v -0.208527 3.379902 -2.363518
v -0.625147 2.201527 -2.780138
v 0.208093 2.201527 -1.946898
v -0.256643 3.379902 -2.315403
v -0.673263 2.201527 -2.732022
v 0.159977 2.201527 -1.898782
v -1.394170 3.617723 1.232154
v -0.762496 2.082616 2.949318
v -0.219751 3.617723 2.406574
v 0.322994 2.082616 1.863829
v -0.219751 3.379902 2.406574
v 0.196869 2.201527 1.989954
v -0.636371 2.201527 2.823194
v -0.267867 3.379902 2.358458
v 0.148753 2.201527 1.941838
v -0.684487 2.201527 2.775078
v -4.350266 -4.284731 -0.013814
v -4.350266 3.732014 -0.013814
v -1.068946 -4.284731 -3.328161
v -1.068946 1.965174 -3.328161
v -2.266070 3.732014 -2.131038
v -1.068946 -3.176290 -3.328161
v -4.350266 -3.176516 -0.013814
v -1.021603 -4.284731 3.300535
v -1.021603 1.965174 3.300535
v -2.218727 3.732014 2.103411
v -1.021603 -3.176290 3.300535
v 0.934445 1.965174 -1.315067
v 0.953443 1.965174 1.344943
v -0.836075 3.732014 -0.719555
v -0.820294 3.732014 0.691928
v 0.934445 -3.176290 -1.315067
v 0.953443 -3.176290 1.344943
v 0.934445 -4.284730 -1.315067
v 0.953443 -4.284730 1.344943
v 0.948399 -3.176290 0.638713
v 0.948399 -4.284730 0.638713
v 0.939067 -3.176290 -0.667954
v 0.939067 -4.284730 -0.667954
v 0.948399 -1.144091 0.638713
v 0.939067 -1.144091 -0.667954
v 0.297653 -1.144091 -1.954943
v -0.606295 -1.144091 -2.863270
v 0.286432 -1.144091 2.005384
v -0.599934 -1.144091 2.883019
v 0.297653 -2.436480 -1.954943
v -0.606295 -2.436480 -2.863270
v 0.948399 -2.245502 0.638713
v 0.939067 -2.245502 -0.667954
v 0.286432 -2.436480 2.005384
v -0.599934 -2.436480 2.883019
v 0.948399 1.104983 0.638713
v 0.939067 1.104983 -0.667954
v 0.286432 1.104983 2.005384
v -0.599934 1.104983 2.883019
v 0.297653 1.104983 -1.954943
v -0.606295 1.104983 -2.863270
v 0.297653 -0.183861 -1.954943
v -0.606295 -0.183861 -2.863270
v 0.948399 -0.183861 0.638713
v 0.939067 -0.183861 -0.667954
v 0.286432 -0.183861 2.005384
v -0.599934 -0.183861 2.883019
v 0.216072 -2.436480 1.934324
v 0.216072 -1.144091 1.934324
v -0.670294 -2.436480 2.811960
v -0.670294 -1.144091 2.811960
v 0.216072 -0.183861 1.934324
v 0.216072 1.104983 1.934324
v -0.670294 -0.183861 2.811960
v -0.670294 1.104983 2.811960
v -0.677177 -1.144091 -2.792730
v 0.226771 -1.144091 -1.884404
v 0.226771 -2.436480 -1.884404
v -0.677177 -2.436480 -2.792730
v -0.677177 1.104983 -2.792730
v 0.226771 1.104983 -1.884404
v 0.226771 -0.183861 -1.884404
v -0.677177 -0.183861 -2.792730
v 0.848401 -0.183861 0.639427
v 0.848401 1.104983 0.639427
v 0.839069 -0.183861 -0.667240
v 0.839069 1.104983 -0.667240
v 0.848401 -3.176290 0.639427
v 0.848401 -4.284730 0.639427
v 0.839069 -3.176290 -0.667240
v 0.839069 -4.284730 -0.667240
v 0.848401 -2.245502 0.639427
v 0.839069 -2.245502 -0.667240
vn -0.0000 -1.0000 -0.0000
vn 0.6297 0.7768 -0.0000
vn 0.4318 0.5943 0.6785
vn 0.4318 0.5942 -0.6785
vn -0.0000 0.4472 -0.8944
vn 1.0000 -0.0000 -0.0000
vn -0.0000 0.4472 0.8944
vn -0.0000 -0.4472 -0.8944
vn -0.0000 1.0000 -0.0000
vn -0.0000 -0.4472 0.8944
vn -0.6325 0.4472 -0.6325
vn 0.7071 -0.0000 -0.7071
vn 0.6325 0.4472 0.6325
vn -0.6325 -0.4472 -0.6325
vn 0.6325 -0.4472 0.6325
vn 0.6325 0.4472 -0.6325
vn 0.7071 -0.0000 0.7071
vn -0.6325 0.4472 0.6325
vn 0.6325 -0.4472 -0.6325
vn -0.6325 -0.4472 0.6325
vn -0.7106 -0.0000 -0.7036
vn -0.7114 -0.0007 -0.7028
vn 0.7056 -0.0000 -0.7086
vn 0.7052 -0.0003 -0.7090
vn 1.0000 -0.0000 -0.0071
vn 0.7061 0.7081 -0.0060
vn 0.7088 -0.0000 -0.7054
vn 0.5114 0.6896 -0.5127
vn 0.7036 -0.0000 0.7106
vn 0.5085 0.6942 0.5094
vn -0.7054 -0.0000 -0.7088
vn 0.0071 -0.0000 1.0000
vn 0.7106 -0.0000 -0.7036
vn -0.7106 -0.0000 0.7036
vn 0.7054 -0.0000 0.7088
vn -0.0071 -0.0000 -1.0000
vn -0.7071 -0.0000 -0.7071
vt 0.057843 0.892268
vt 0.083914 0.918339
vt 0.136055 0.892268
vt 0.109984 0.918339
vt 0.057843 0.866197
vt 0.083914 0.840126
vt 0.136055 0.866197
vt 0.109984 0.840126
vt 0.083914 0.892268
vt 0.109984 0.892268
vt 0.096949 0.905303
vt 0.083914 0.866197
vt 0.109984 0.866197
vt 0.096949 0.853161
vt 0.092160 0.859645
vt 0.144393 0.801248
vt 0.160706 0.430060
vt 0.144393 0.859645
vt 0.160706 0.292360
vt 0.144393 0.918043
vt 0.050599 0.373524
vt 0.152166 0.309229
vt 0.063865 0.371963
vt 0.153466 0.416254
vt 0.847118 0.163860
vt 0.148495 0.319864
vt 0.772829 0.163550
vt 0.073968 0.369529
vt 0.809741 0.224766
vt 0.146746 0.408422
vt 0.092160 0.859645
vt 0.144393 0.801248
vt 0.160706 0.430060
vt 0.144393 0.859645
vt 0.160706 0.292360
vt 0.144393 0.918043
vt 0.050599 0.373524
vt 0.152166 0.309229
vt 0.063865 0.371963
vt 0.153466 0.416254
vt 0.847118 0.163860
vt 0.148495 0.319864
vt 0.772829 0.163550
vt 0.073968 0.369529
vt 0.809741 0.224766
vt 0.146746 0.408422
vt 0.092160 0.859645
vt 0.144393 0.801248
vt 0.160706 0.430060
vt 0.144393 0.859645
vt 0.160706 0.292360
vt 0.144393 0.918043
vt 0.050599 0.373524
vt 0.152166 0.309229
vt 0.063865 0.371963
vt 0.153466 0.416254
vt 0.847118 0.163860
vt 0.148495 0.319864
vt 0.772829 0.163550
vt 0.073968 0.369529
vt 0.809741 0.224766
vt 0.146746 0.408422
vt 0.216568 0.577119
vt 0.204538 0.457701
vt 0.148853 0.896449
vt 0.085811 0.577119
vt 0.099011 0.299184
vt 0.099509 0.799540
vt 0.096633 0.351239
vt 0.096633 0.377266
vt 0.076796 0.374427
vt 0.141887 0.845125
vt 0.140314 0.845705
vt 0.121144 0.457701
vt 0.092457 0.600309
vt 0.099011 0.471338
vt 0.096633 0.403293
vt 0.080428 0.315648
vt 0.216568 0.600304
vt 0.204538 0.315643
vt 0.085811 0.577119
vt 0.081303 0.886110
vt 0.076796 0.374427
vt 0.177432 0.299184
vt 0.186490 0.377266
vt 0.137406 0.890306
vt 0.121144 0.457701
vt 0.177431 0.471338
vt 0.186490 0.437315
vt 0.092457 0.600309
vt 0.186490 0.403293
vt 0.080428 0.315648
vt 0.090627 0.814790
vt 0.103656 0.299184
vt 0.095679 0.802968
vt 0.115962 0.299184
vt 0.106929 0.377266
vt 0.106929 0.351239
vt 0.085873 0.833784
vt 0.082445 0.862110
vt 0.134203 0.299184
vt 0.158390 0.299184
vt 0.144061 0.351239
vt 0.144061 0.377266
vt 0.134970 0.851545
vt 0.137240 0.846838
vt 0.134759 0.859438
vt 0.135831 0.875127
vt 0.092457 0.600309
vt 0.106929 0.437315
vt 0.103656 0.471338
vt 0.106929 0.403293
vt 0.144061 0.471338
vt 0.158390 0.471338
vt 0.092457 0.600309
vt 0.144061 0.437315
vt 0.144061 0.403293
vt 0.085811 0.577119
vt 0.085811 0.577119
vt 0.134203 0.471338
vt 0.092457 0.600308
vt 0.085811 0.577119
vt 0.092457 0.600308
vt 0.115962 0.471338
vt 0.085811 0.577119
vt 0.134203 0.403293
vt 0.115962 0.403293
vt 0.103656 0.403293
vt 0.099011 0.403293
vt 0.158390 0.403293
vt 0.177431 0.403293
vt 0.103656 0.437315
vt 0.099011 0.437316
vt 0.134203 0.437315
vt 0.115962 0.437316
vt 0.158390 0.437315
vt 0.177431 0.437316
vt 0.134203 0.351239
vt 0.115962 0.351239
vt 0.158390 0.351239
vt 0.177431 0.351239
vt 0.103656 0.351239
vt 0.099011 0.351239
vt 0.103656 0.377266
vt 0.099011 0.377266
vt 0.134203 0.377266
vt 0.115962 0.377266
vt 0.158390 0.377266
vt 0.177431 0.377266
vt 0.880711 0.226934
vt 0.158390 0.437315
vt 0.880711 0.124626
vt 0.158390 0.403293
vt 0.983268 0.226934
vt 0.177431 0.437316
vt 0.983268 0.124627
vt 0.177431 0.403293
vt 0.880711 0.226934
vt 0.158390 0.377266
vt 0.880711 0.124626
vt 0.158390 0.351239
vt 0.983268 0.226934
vt 0.177431 0.377266
vt 0.983268 0.124627
vt 0.177431 0.351239
vt 0.880711 0.124626
vt 0.099011 0.403293
vt 0.983268 0.124627
vt 0.103656 0.403293
vt 0.103656 0.437315
vt 0.983268 0.226934
vt 0.880711 0.226934
vt 0.099011 0.437316
vt 0.880711 0.124626
vt 0.099011 0.351239
vt 0.983268 0.124627
vt 0.103656 0.351239
vt 0.983268 0.226934
vt 0.103656 0.377266
vt 0.880711 0.226934
vt 0.099011 0.377266
vt 0.983268 0.226934
vt 0.134203 0.377266
vt 0.983268 0.124627
vt 0.134203 0.351239
vt 0.880711 0.226934
vt 0.115962 0.377266
vt 0.880711 0.124626
vt 0.115962 0.351239
vt 0.091274 0.866449
vt 0.134203 0.471338
vt 0.092457 0.600308
vt 0.091274 0.936307
vt 0.085811 0.577119
vt 0.059195 0.866449
vt 0.092457 0.600308
vt 0.115962 0.471338
vt 0.059195 0.936307
vt 0.085811 0.577119
vt 0.091274 0.807788
vt 0.134203 0.437315
vt 0.059195 0.807788
vt 0.115962 0.437316
s 0
usemtl BasicTexture
f 3/5/1 6/12/1 5/9/1 1/1/1
f 6/13/2 4/7/2 2/3/2 5/10/2
f 1/2/3 5/11/3 2/4/3
f 4/8/4 6/14/4 3/6/4
f 7/15/5 9/18/5 10/20/5
f 9/19/6 8/17/6 13/24/6 11/22/6
f 8/16/7 9/18/7 7/15/7
f 11/22/8 13/24/8 16/30/8 14/26/8
f 8/17/6 10/21/6 12/23/6 13/24/6
f 10/21/6 9/19/6 11/22/6 12/23/6
f 15/27/6 14/25/6 16/29/6
f 13/24/9 12/23/9 15/28/9 16/30/9
f 12/23/10 11/22/10 14/26/10 15/28/10
f 17/31/11 19/34/11 20/36/11
f 19/35/12 18/33/12 23/40/12 21/38/12
f 18/32/13 19/34/13 17/31/13
f 21/38/14 23/40/14 26/46/14 24/42/14
f 18/33/12 20/37/12 22/39/12 23/40/12
f 20/37/12 19/35/12 21/38/12 22/39/12
f 25/43/12 24/41/12 26/45/12
f 23/40/9 22/39/9 25/44/9 26/46/9
f 22/39/15 21/38/15 24/42/15 25/44/15
f 27/47/16 29/50/16 30/52/16
f 29/51/17 28/49/17 33/56/17 31/54/17
f 28/48/18 29/50/18 27/47/18
f 31/54/19 33/56/19 36/62/19 34/58/19
f 28/49/17 30/53/17 32/55/17 33/56/17
f 30/53/17 29/51/17 31/54/17 32/55/17
f 35/59/17 34/57/17 36/61/17
f 33/56/9 32/55/9 35/60/9 36/62/9
f 32/55/20 31/54/20 34/58/20 35/60/20
f 37/63/21 43/79/21 42/75/21 39/66/21
f 42/78/22 43/80/22 38/64/22 41/74/22
f 37/63/23 43/79/23 47/90/23 44/81/23
f 47/92/24 43/80/24 38/64/24 46/87/24
f 41/72/9 38/65/9 46/86/9 51/107/9 50/106/9
f 57/122/25 56/121/25 53/115/25 55/119/25
f 69/135/25 58/124/25 52/110/25
f 53/113/25 56/120/25 68/134/25
f 48/93/26 50/105/26 51/107/26 49/99/26
f 54/118/25 52/109/25 58/123/25 59/125/25
f 77/143/27 40/67/27 48/94/27 76/142/27
f 39/66/27 42/75/27 52/109/27 54/118/27
f 40/68/28 41/73/28 50/106/28 48/95/28
f 71/137/29 47/88/29 53/114/29 70/136/29
f 47/89/29 71/137/29 65/131/29
f 55/119/29 53/115/29 47/90/29 44/81/29
f 49/100/30 51/108/30 46/86/30 45/82/30
f 45/85/29 47/91/29 65/131/29 83/149/29
f 83/149/29 65/131/29 64/130/29 82/148/29
f 66/132/9 67/133/9 95/173/9 94/170/9
f 80/146/25 60/126/25 61/127/25 81/147/25
f 49/104/25 53/117/25 60/126/25 80/146/25
f 82/148/29 64/130/29 53/117/29 49/104/29
f 81/147/25 61/127/25 52/112/25 48/97/25
f 66/132/27 62/128/27 52/110/27
f 42/76/27 67/133/27 66/132/27 52/111/27
f 74/140/1 75/141/1 91/165/1 89/161/1
f 60/126/25 68/134/25 69/135/25 61/127/25
f 53/116/25 68/134/25 60/126/25
f 64/130/29 70/136/29 53/117/29
f 61/127/25 69/135/25 52/112/25
f 67/133/27 42/77/27 63/129/27
f 47/92/12 46/87/12 45/83/12
f 49/101/25 72/138/25 73/139/25 48/96/25
f 45/84/29 75/141/29 74/140/29 49/102/29
f 40/69/27 77/143/27 79/145/27
f 62/128/31 66/132/31 94/170/31 93/169/31
f 78/144/27 76/142/27 48/97/27
f 62/128/27 78/144/27 48/97/27 52/112/27
f 63/129/27 79/145/27 78/144/27 62/128/27
f 42/77/27 40/70/27 79/145/27 63/129/27
f 73/139/25 81/147/25 48/98/25
f 74/140/29 82/148/29 49/103/29
f 49/104/25 80/146/25 72/138/25
f 81/147/32 73/139/32 103/189/32 102/187/32
f 83/149/9 82/148/9 88/159/9 90/163/9
f 45/85/29 83/149/29 75/141/29
f 87/156/29 86/154/29 84/150/29 85/152/29
f 91/164/29 90/162/29 88/158/29 89/160/29
f 75/141/33 83/149/33 90/163/33 91/165/33
f 70/136/34 64/130/34 85/153/34 84/151/34
f 64/130/1 65/131/1 87/157/1 85/153/1
f 65/131/33 71/137/33 86/155/33 87/157/33
f 71/137/9 70/136/9 84/151/9 86/155/9
f 82/148/34 74/140/34 89/161/34 88/159/34
f 95/172/27 92/166/27 93/168/27 94/171/27
f 99/180/27 96/174/27 97/176/27 98/178/27
f 76/142/31 78/144/31 98/179/31 97/177/31
f 78/144/9 79/145/9 99/181/9 98/179/9
f 63/129/1 62/128/1 93/169/1 92/167/1
f 67/133/35 63/129/35 92/167/35 95/173/35
f 77/143/1 76/142/1 97/177/1 96/175/1
f 79/145/35 77/143/35 96/175/35 99/181/35
f 101/184/25 100/182/25 102/186/25 103/188/25
f 73/139/1 72/138/1 101/185/1 103/189/1
f 80/146/9 81/147/9 102/187/9 100/183/9
f 72/138/36 80/146/36 100/183/36 101/185/36
f 107/198/25 106/195/25 109/202/25 108/200/25 104/190/25 105/193/25
f 59/125/32 58/123/32 106/196/32 107/199/32
f 68/134/36 56/120/36 104/191/36 108/201/36
f 69/135/1 68/134/1 108/201/1 109/203/1
f 58/124/32 69/135/32 109/203/32 106/197/32
f 56/121/36 57/122/36 105/194/36 104/192/36
f 42/78/37 41/74/37 40/71/37
