# Blender 3.4.1
# www.blender.org
mtllib moduê3.mtl
o Cube.099
v -1.180440 2.139533 1.789385
v -0.528123 2.830078 1.864061
v 1.182640 2.139532 1.789438
v 0.530354 2.830078 1.864061
v -0.590729 2.139533 2.715952
v 0.592947 2.139533 2.715952
v 0.998757 7.550732 0.340303
v 1.857604 7.550732 -0.518544
v 1.857604 6.336138 1.199150
v 1.857604 7.550732 1.199150
v 2.716451 6.336138 0.340303
v 2.716451 7.550732 0.340303
v 2.658549 7.468846 0.398204
v 2.658549 6.418024 0.398204
v 1.915505 6.418024 1.141248
v 1.915505 7.468846 1.141248
v 2.623534 7.468846 0.363190
v 2.623534 6.418024 0.363190
v 1.880491 6.418024 1.106234
v 1.880491 7.468846 1.106234
v 1.206992 7.939075 -0.310308
v 2.287027 7.939075 0.769726
v -0.604909 7.550732 0.580443
v 0.609684 7.550732 0.580443
v -0.604909 6.336138 1.795037
v -0.604909 7.550732 1.795037
v 0.609685 6.336138 1.795037
v 0.609685 7.550732 1.795037
v 0.527799 7.468846 1.795037
v 0.527799 6.418024 1.795037
v -0.523023 6.418024 1.795037
v -0.523023 7.468846 1.795037
v 0.527799 7.468846 1.745518
v 0.527799 6.418024 1.745518
v -0.523023 6.418024 1.745518
v -0.523023 7.468846 1.745518
v 0.041144 7.939074 0.196327
v 0.002388 7.939075 1.795037
v -1.945385 7.550732 -0.504025
v -1.086538 7.550732 0.354822
v -2.804231 6.336138 0.354822
v -2.804231 7.550732 0.354822
v -1.945385 6.336138 1.213668
v -1.945385 7.550732 1.213668
v -2.003286 7.468846 1.155767
v -2.003285 6.418024 1.155767
v -2.746330 6.418024 0.412723
v -2.746330 7.468846 0.412723
v -1.968272 7.468846 1.120752
v -1.968272 6.418024 1.120752
v -2.711315 6.418024 0.377708
v -2.711315 7.468846 0.377708
v -1.189487 7.939075 -0.401076
v -2.374808 7.939075 0.784245
v 0.000001 0.000000 -3.286426
v 0.000000 8.022216 -3.286426
v 3.295730 0.000000 -0.023538
v 3.295730 6.214797 -0.023538
v 2.105330 8.022216 -1.213938
v 3.295730 1.102215 -0.023538
v 0.000001 1.101990 -3.286426
v -3.295730 -0.000000 0.023538
v -3.295730 6.214797 0.023538
v -2.105331 8.022216 -1.166860
v -3.295730 1.102215 0.023538
v 1.293943 6.214797 1.968598
v -1.351124 6.214797 1.987490
v 0.701777 8.022217 0.208024
v -0.701777 8.022217 0.223717
v 1.293943 1.102215 1.968598
v -1.351124 1.102215 1.987490
v 1.293943 0.000001 1.968598
v -1.351124 0.000001 1.987490
v -0.648860 1.102215 1.982474
v -0.648860 0.000001 1.982474
v 0.650467 1.102215 1.973194
v 0.650467 0.000001 1.973194
v -0.648860 2.027775 1.982474
v 0.650467 2.027775 1.973194
v 1.930225 3.223893 1.335384
v 2.833449 3.223893 0.436514
v -2.007855 3.220887 1.324225
v -2.880560 3.220887 0.442840
v 1.930225 1.732169 1.335384
v 2.833450 1.732169 0.436514
v -2.007855 1.741668 1.324225
v -2.880559 1.741668 0.442840
v -0.648860 5.470762 1.982474
v 0.650466 5.470762 1.973194
v -2.007855 5.499128 1.324225
v -2.880560 5.499128 0.442840
v 1.930225 5.509255 1.335384
v 2.833449 5.509256 0.436514
v 1.930225 4.077834 1.335384
v 2.833449 4.077834 0.436514
v -0.648860 4.077833 1.982474
v 0.650467 4.077833 1.973194
v -2.007855 4.077834 1.324225
v -2.880560 4.077834 0.442840
v -1.937195 1.741668 1.254261
v -1.937195 3.220887 1.254261
v -2.809899 1.741668 0.372874
v -2.809899 3.220887 0.372874
v -1.937195 4.077834 1.254261
v -1.937195 5.499128 1.254261
v -2.809899 4.077834 0.372874
v -2.809899 5.499128 0.372874
v 2.763307 3.223893 0.366030
v 1.860082 3.223893 1.264901
v 1.860082 1.732169 1.264901
v 2.763307 1.732169 0.366030
v 2.763307 5.509256 0.366030
v 1.860082 5.509255 1.264901
v 1.860082 4.077834 1.264901
v 2.763307 4.077834 0.366030
v -0.649570 4.077833 1.883039
v -0.649570 5.470762 1.883039
v 0.649756 4.077833 1.873758
v 0.649755 5.470762 1.873758
v -0.649570 1.102215 1.883039
v -0.649570 0.000001 1.883039
v 0.649756 1.102215 1.873758
v 0.649756 0.000001 1.873758
v -0.649570 2.027775 1.883039
v 0.649756 2.027775 1.873758
v 1.907066 3.293060 1.309579
v 1.907066 3.427282 1.309579
v 2.795979 3.293060 0.420666
v 2.795979 3.427283 0.420666
v 2.072119 3.293060 1.474634
v 2.072119 3.427282 1.474634
v 2.961034 3.293060 0.585721
v 2.961034 3.427283 0.585721
v 1.907066 5.567513 1.309579
v 1.907066 5.701736 1.309579
v 2.795979 5.567513 0.420666
v 2.795979 5.701736 0.420666
v 2.072119 5.567513 1.474634
v 2.072119 5.701736 1.474634
v 2.961034 5.567513 0.585721
v 2.961034 5.701736 0.585721
v -2.833278 5.567513 0.403529
v -2.833278 5.701736 0.403529
v -1.944366 5.567513 1.292442
v -1.944366 5.701736 1.292442
v -2.998332 5.567513 0.568583
v -2.998332 5.701736 0.568583
v -2.109419 5.567513 1.457497
v -2.109419 5.701736 1.457497
v -2.833278 3.293059 0.403529
v -2.833278 3.427282 0.403529
v -1.944366 3.293060 1.292442
v -1.944366 3.427282 1.292442
v -2.998332 3.293059 0.568583
v -2.998332 3.427282 0.568583
v -2.109419 3.293060 1.457497
v -2.109419 3.427282 1.457497
v -0.642785 5.567513 1.961892
v -0.642785 5.701736 1.961892
v 0.614328 5.567513 1.961892
v 0.614328 5.701736 1.961892
v -0.642785 5.567513 2.195314
v -0.642785 5.701736 2.195314
v 0.614329 5.567513 2.195314
v 0.614329 5.701736 2.195314
vn -0.0000 -1.0000 -0.0000
vn -0.0000 0.7768 0.6297
vn -0.6785 0.5943 0.4318
vn 0.6785 0.5943 0.4318
vn 0.7071 -0.0000 -0.7071
vn 0.7071 -0.0000 0.7071
vn -0.7071 -0.0000 0.7071
vn -0.3809 0.8425 0.3809
vn -0.0000 1.0000 -0.0000
vn 0.3809 0.8425 -0.3809
vn 1.0000 -0.0000 -0.0000
vn -0.0000 -0.0000 1.0000
vn -1.0000 -0.0000 -0.0000
vn -0.5283 0.8490 -0.0073
vn 0.5494 0.8355 0.0076
vn -0.7071 -0.0000 -0.7071
vn -0.3809 0.8425 -0.3809
vn 0.3809 0.8425 0.3809
vn 0.7036 -0.0000 -0.7106
vn 0.7028 -0.0007 -0.7114
vn 0.7086 -0.0000 0.7056
vn 0.7090 -0.0003 0.7052
vn 0.0071 -0.0000 1.0000
vn 0.0061 0.6980 0.7160
vn 0.7054 -0.0000 0.7088
vn 0.5196 0.6793 0.5183
vn -0.7106 -0.0000 0.7036
vn -0.5163 0.6840 0.5154
vn 0.7088 -0.0000 -0.7054
vn -1.0000 -0.0000 0.0071
vn 0.7036 -0.0000 0.7106
vn -0.7036 -0.0000 -0.7106
vn -0.7088 -0.0000 0.7054
vn 1.0000 -0.0000 -0.0071
vt 0.057843 0.892268
vt 0.083914 0.918339
vt 0.136055 0.892268
vt 0.109984 0.918339
vt 0.057843 0.866197
vt 0.083914 0.840126
vt 0.136055 0.866197
vt 0.109984 0.840126
vt 0.083914 0.892268
vt 0.109984 0.892268
vt 0.096949 0.905303
vt 0.083914 0.866197
vt 0.109984 0.866197
vt 0.096949 0.853161
vt 0.658817 0.819915
vt 0.112368 0.954165
vt 0.691166 0.785310
vt 0.112368 0.897397
vt 0.658817 0.883317
vt 0.055600 0.954165
vt 0.595415 0.883317
vt 0.544464 0.932012
vt 0.658817 0.946719
vt 0.691166 0.932012
vt 0.595415 0.946719
vt 0.055600 0.897397
vt 0.595415 0.946719
vt 0.658817 0.946719
vt 0.658817 0.883317
vt 0.595415 0.883317
vt 0.979265 0.127687
vt 0.595415 0.946719
vt 0.883113 0.127687
vt 0.658817 0.946719
vt 0.883113 0.223839
vt 0.658817 0.883317
vt 0.979265 0.223839
vt 0.595415 0.883317
vt 0.112368 0.925781
vt 0.595415 0.915018
vt 0.055600 0.925781
vt 0.658817 0.819915
vt 0.112368 0.954165
vt 0.691166 0.785310
vt 0.112368 0.897397
vt 0.658817 0.883317
vt 0.055600 0.954165
vt 0.595415 0.883317
vt 0.544464 0.932012
vt 0.658817 0.946719
vt 0.691166 0.932012
vt 0.595415 0.946719
vt 0.055600 0.897397
vt 0.595415 0.946719
vt 0.658817 0.946719
vt 0.658817 0.883317
vt 0.595415 0.883317
vt 0.979265 0.127687
vt 0.595415 0.946719
vt 0.883113 0.127687
vt 0.658817 0.946719
vt 0.883113 0.223839
vt 0.658817 0.883317
vt 0.979265 0.223839
vt 0.595415 0.883317
vt 0.112368 0.925781
vt 0.595415 0.915018
vt 0.055600 0.925781
vt 0.658817 0.819915
vt 0.112368 0.954165
vt 0.691166 0.785310
vt 0.112368 0.897397
vt 0.658817 0.883317
vt 0.055600 0.954165
vt 0.595415 0.883317
vt 0.544464 0.932012
vt 0.658817 0.946719
vt 0.691166 0.932012
vt 0.595415 0.946719
vt 0.055600 0.897397
vt 0.595415 0.946719
vt 0.658817 0.946719
vt 0.658817 0.883317
vt 0.595415 0.883317
vt 0.979265 0.127687
vt 0.595415 0.946719
vt 0.883113 0.127687
vt 0.658817 0.946719
vt 0.883113 0.223839
vt 0.658817 0.883317
vt 0.979265 0.223839
vt 0.595415 0.883317
vt 0.112368 0.925781
vt 0.595415 0.915018
vt 0.055600 0.925781
vt 0.216568 0.577119
vt 0.706802 0.963065
vt 0.148853 0.896449
vt 0.085811 0.577119
vt 0.601274 0.804548
vt 0.099509 0.799540
vt 0.579059 0.879791
vt 0.598897 0.856603
vt 0.598897 0.882630
vt 0.141887 0.845125
vt 0.140314 0.845705
vt 0.623407 0.963065
vt 0.092457 0.600309
vt 0.601274 0.976702
vt 0.582692 0.821012
vt 0.598897 0.908657
vt 0.216568 0.600304
vt 0.706802 0.821007
vt 0.085811 0.577119
vt 0.081303 0.886110
vt 0.679695 0.804548
vt 0.688753 0.882630
vt 0.579059 0.879791
vt 0.137406 0.890306
vt 0.623407 0.963065
vt 0.679695 0.976702
vt 0.688753 0.942679
vt 0.092457 0.600309
vt 0.688753 0.908657
vt 0.582692 0.821012
vt 0.090627 0.814790
vt 0.605920 0.804548
vt 0.095679 0.802968
vt 0.618226 0.804548
vt 0.609192 0.882630
vt 0.609192 0.856603
vt 0.085873 0.833784
vt 0.082445 0.862110
vt 0.636466 0.804548
vt 0.660654 0.804548
vt 0.646325 0.856603
vt 0.646325 0.882630
vt 0.134970 0.851545
vt 0.137240 0.846838
vt 0.134759 0.859438
vt 0.135831 0.875127
vt 0.092457 0.600309
vt 0.609192 0.942679
vt 0.605920 0.976702
vt 0.609192 0.908657
vt 0.646325 0.976702
vt 0.660654 0.976702
vt 0.092457 0.600309
vt 0.646325 0.908657
vt 0.085811 0.577119
vt 0.085811 0.577119
vt 0.636466 0.976702
vt 0.092457 0.600308
vt 0.085811 0.577119
vt 0.092457 0.600308
vt 0.618226 0.976702
vt 0.085811 0.577119
vt 0.636466 0.908657
vt 0.636466 0.942679
vt 0.618226 0.908657
vt 0.618226 0.942679
vt 0.605920 0.908657
vt 0.601274 0.908657
vt 0.660654 0.908657
vt 0.679695 0.908657
vt 0.605920 0.942679
vt 0.601274 0.942679
vt 0.660654 0.942679
vt 0.679695 0.942679
vt 0.636466 0.856603
vt 0.618226 0.856603
vt 0.660654 0.856603
vt 0.679695 0.856603
vt 0.605920 0.856603
vt 0.601274 0.856602
vt 0.605920 0.882630
vt 0.601274 0.882630
vt 0.636466 0.882630
vt 0.618226 0.882630
vt 0.660654 0.882630
vt 0.679695 0.882630
vt 0.880711 0.226934
vt 0.660654 0.942679
vt 0.880711 0.124626
vt 0.660654 0.908657
vt 0.983268 0.226934
vt 0.679695 0.942679
vt 0.983268 0.124627
vt 0.679695 0.908657
vt 0.880711 0.226934
vt 0.660654 0.882630
vt 0.880711 0.124626
vt 0.660654 0.856603
vt 0.983268 0.226934
vt 0.679695 0.882630
vt 0.983268 0.124627
vt 0.679695 0.856603
vt 0.880711 0.124626
vt 0.601274 0.908657
vt 0.983268 0.124627
vt 0.605920 0.908657
vt 0.605920 0.942679
vt 0.983268 0.226934
vt 0.880711 0.226934
vt 0.601274 0.942679
vt 0.880711 0.124626
vt 0.601274 0.856602
vt 0.983268 0.124627
vt 0.605920 0.856603
vt 0.983268 0.226934
vt 0.605920 0.882630
vt 0.880711 0.226934
vt 0.601274 0.882630
vt 0.983268 0.226934
vt 0.636466 0.882630
vt 0.983268 0.124627
vt 0.636466 0.856603
vt 0.880711 0.226934
vt 0.618226 0.882630
vt 0.880711 0.124626
vt 0.618226 0.856603
vt 0.091274 0.866449
vt 0.636466 0.976702
vt 0.092457 0.600308
vt 0.091274 0.936307
vt 0.085811 0.577119
vt 0.059195 0.866449
vt 0.092457 0.600308
vt 0.618226 0.976702
vt 0.059195 0.936307
vt 0.085811 0.577119
vt 0.091274 0.807788
vt 0.636466 0.942679
vt 0.059195 0.807788
vt 0.618226 0.942679
vt 0.099638 0.922979
vt 0.061757 0.885097
vt 0.137519 0.922979
vt 0.175401 0.885097
vt 0.099638 0.809335
vt 0.061757 0.847216
vt 0.137519 0.809335
vt 0.175401 0.847216
vt 0.099638 0.885097
vt 0.137519 0.885097
vt 0.099638 0.847216
vt 0.137519 0.847216
vt 0.099638 0.922979
vt 0.061757 0.885097
vt 0.137519 0.922979
vt 0.175401 0.885097
vt 0.099638 0.809335
vt 0.061757 0.847216
vt 0.137519 0.809335
vt 0.175401 0.847216
vt 0.099638 0.885097
vt 0.137519 0.885097
vt 0.099638 0.847216
vt 0.137519 0.847216
vt 0.099638 0.922979
vt 0.061757 0.885097
vt 0.137519 0.922979
vt 0.175401 0.885097
vt 0.099638 0.809335
vt 0.061757 0.847216
vt 0.137519 0.809335
vt 0.175401 0.847216
vt 0.099638 0.885097
vt 0.137519 0.885097
vt 0.099638 0.847216
vt 0.137519 0.847216
vt 0.099638 0.922979
vt 0.061757 0.885097
vt 0.137519 0.922979
vt 0.175401 0.885097
vt 0.099638 0.809335
vt 0.061757 0.847216
vt 0.137519 0.809335
vt 0.175401 0.847216
vt 0.099638 0.885097
vt 0.137519 0.885097
vt 0.099638 0.847216
vt 0.137519 0.847216
vt 0.099638 0.922979
vt 0.061757 0.885097
vt 0.137519 0.922979
vt 0.175401 0.885097
vt 0.099638 0.809335
vt 0.061757 0.847216
vt 0.137519 0.809335
vt 0.175401 0.847216
vt 0.099638 0.885097
vt 0.137519 0.885097
vt 0.099638 0.847216
vt 0.137519 0.847216
s 0
usemtl BasicTexture.002
f 3/5/1 6/12/1 5/9/1 1/1/1
f 6/13/2 4/7/2 2/3/2 5/10/2
f 1/2/3 5/11/3 2/4/3
f 4/8/4 6/14/4 3/6/4
f 8/17/5 12/24/5 11/22/5
f 10/21/6 9/19/6 15/29/6 16/30/6
f 9/19/7 10/21/7 7/15/7
f 22/41/8 21/39/8 7/16/8 10/20/8
f 18/33/6 17/31/6 20/37/6 19/35/6
f 22/40/6 10/21/6 16/30/6 13/27/6 12/25/6
f 11/23/6 12/25/6 13/27/6 14/28/6
f 15/29/9 14/28/9 18/34/9 19/36/9
f 14/28/7 13/27/7 17/32/7 18/34/7
f 16/30/5 15/29/5 19/36/5 20/38/5
f 15/29/6 9/19/6 11/23/6 14/28/6
f 16/30/1 20/38/1 17/32/1 13/27/1
f 12/26/10 8/18/10 21/39/10 22/41/10
f 24/44/11 28/51/11 27/49/11
f 26/48/12 25/46/12 31/56/12 32/57/12
f 25/46/13 26/48/13 23/42/13
f 38/68/14 37/66/14 23/43/14 26/47/14
f 34/60/12 33/58/12 36/64/12 35/62/12
f 38/67/12 26/48/12 32/57/12 29/54/12 28/52/12
f 27/50/12 28/52/12 29/54/12 30/55/12
f 31/56/9 30/55/9 34/61/9 35/63/9
f 30/55/13 29/54/13 33/59/13 34/61/13
f 32/57/11 31/56/11 35/63/11 36/65/11
f 31/56/12 25/46/12 27/50/12 30/55/12
f 32/57/1 36/65/1 33/59/1 29/54/1
f 28/53/15 24/45/15 37/66/15 38/68/15
f 40/71/6 44/78/6 43/76/6
f 42/75/7 41/73/7 47/83/7 48/84/7
f 41/73/16 42/75/16 39/69/16
f 54/95/17 53/93/17 39/70/17 42/74/17
f 50/87/7 49/85/7 52/91/7 51/89/7
f 54/94/7 42/75/7 48/84/7 45/81/7 44/79/7
f 43/77/7 44/79/7 45/81/7 46/82/7
f 47/83/9 46/82/9 50/88/9 51/90/9
f 46/82/16 45/81/16 49/86/16 50/88/16
f 48/84/6 47/83/6 51/90/6 52/92/6
f 47/83/7 41/73/7 43/77/7 46/82/7
f 48/84/1 52/92/1 49/86/1 45/81/1
f 44/80/18 40/72/18 53/93/18 54/95/18
f 55/96/19 61/112/19 60/108/19 57/99/19
f 60/110/20 61/113/20 56/97/20 59/107/20
f 55/96/21 61/112/21 65/123/21 62/114/21
f 65/125/22 61/113/22 56/97/22 64/120/22
f 59/105/9 56/98/9 64/119/9 69/140/9 68/139/9
f 75/154/23 74/153/23 71/148/23 73/151/23
f 79/161/23 76/156/23 70/143/23
f 71/146/23 74/152/23 78/159/23
f 66/126/24 68/138/24 69/140/24 67/132/24
f 72/150/23 70/142/23 76/155/23 77/157/23
f 93/175/25 58/100/25 66/127/25 92/174/25
f 57/99/25 60/108/25 70/142/25 72/150/25
f 58/101/26 59/106/26 68/139/26 66/128/26
f 87/169/27 65/121/27 71/147/27 86/168/27
f 65/122/27 87/169/27 83/165/27
f 73/151/27 71/148/27 65/123/27 62/114/27
f 67/133/28 69/141/28 64/119/28 63/115/28
f 63/117/27 65/124/27 83/165/27 99/181/27
f 99/181/27 83/165/27 82/164/27 98/180/27
f 84/166/9 85/167/9 111/205/9 110/202/9
f 96/178/23 78/158/23 79/160/23 97/179/23
f 67/137/23 71/149/23 78/158/23 96/178/23
f 98/180/27 82/164/27 71/149/27 67/137/27
f 97/179/23 79/160/23 70/145/23 66/130/23
f 84/166/25 80/162/25 70/143/25
f 60/109/25 85/167/25 84/166/25 70/144/25
f 90/172/1 91/173/1 107/197/1 105/193/1
f 82/164/27 86/168/27 71/149/27
f 85/167/25 60/111/25 81/163/25
f 60/110/5 59/107/5 58/102/5
f 67/134/23 88/170/23 89/171/23 66/129/23
f 63/116/27 91/173/27 90/172/27 67/135/27
f 58/103/25 93/175/25 95/177/25
f 80/162/29 84/166/29 110/202/29 109/201/29
f 94/176/25 92/174/25 66/130/25
f 80/162/25 94/176/25 66/130/25 70/145/25
f 81/163/25 95/177/25 94/176/25 80/162/25
f 60/111/25 58/104/25 95/177/25 81/163/25
f 89/171/23 97/179/23 66/131/23
f 90/172/27 98/180/27 67/136/27
f 67/137/23 96/178/23 88/170/23
f 97/179/30 89/171/30 119/221/30 118/219/30
f 99/181/9 98/180/9 104/191/9 106/195/9
f 63/117/27 99/181/27 91/173/27
f 103/188/27 102/186/27 100/182/27 101/184/27
f 107/196/27 106/194/27 104/190/27 105/192/27
f 91/173/31 99/181/31 106/195/31 107/197/31
f 86/168/32 82/164/32 101/185/32 100/183/32
f 82/164/1 83/165/1 103/189/1 101/185/1
f 83/165/31 87/169/31 102/187/31 103/189/31
f 87/169/9 86/168/9 100/183/9 102/187/9
f 98/180/32 90/172/32 105/193/32 104/191/32
f 111/204/25 108/198/25 109/200/25 110/203/25
f 115/212/25 112/206/25 113/208/25 114/210/25
f 92/174/29 94/176/29 114/211/29 113/209/29
f 94/176/9 95/177/9 115/213/9 114/211/9
f 81/163/1 80/162/1 109/201/1 108/199/1
f 85/167/33 81/163/33 108/199/33 111/205/33
f 93/175/1 92/174/1 113/209/1 112/207/1
f 95/177/33 93/175/33 112/207/33 115/213/33
f 117/216/23 116/214/23 118/218/23 119/220/23
f 89/171/1 88/170/1 117/217/1 119/221/1
f 96/178/9 97/179/9 118/219/9 116/215/9
f 88/170/34 96/178/34 116/215/34 117/217/34
f 123/230/23 122/227/23 125/234/23 124/232/23 120/222/23 121/225/23
f 77/157/30 76/155/30 122/228/30 123/231/30
f 78/159/34 74/152/34 120/223/34 124/233/34
f 79/161/1 78/159/1 124/233/1 125/235/1
f 76/156/30 79/161/30 125/235/30 122/229/30
f 74/153/34 75/154/34 121/226/34 120/224/34
f 65/125/6 64/120/6 63/118/6
f 128/240/5 129/242/5 133/247/5 132/246/5
f 132/246/6 133/247/6 131/245/6 130/244/6
f 130/244/7 131/245/7 127/238/7 126/236/7
f 128/241/1 132/246/1 130/244/1 126/237/1
f 133/247/9 129/243/9 127/239/9 131/245/9
f 136/252/5 137/254/5 141/259/5 140/258/5
f 140/258/6 141/259/6 139/257/6 138/256/6
f 138/256/7 139/257/7 135/250/7 134/248/7
f 136/253/1 140/258/1 138/256/1 134/249/1
f 141/259/9 137/255/9 135/251/9 139/257/9
f 144/264/6 145/266/6 149/271/6 148/270/6
f 148/270/7 149/271/7 147/269/7 146/268/7
f 146/268/16 147/269/16 143/262/16 142/260/16
f 144/265/1 148/270/1 146/268/1 142/261/1
f 149/271/9 145/267/9 143/263/9 147/269/9
f 152/276/6 153/278/6 157/283/6 156/282/6
f 156/282/7 157/283/7 155/281/7 154/280/7
f 154/280/16 155/281/16 151/274/16 150/272/16
f 152/277/1 156/282/1 154/280/1 150/273/1
f 157/283/9 153/279/9 151/275/9 155/281/9
f 160/288/11 161/290/11 165/295/11 164/294/11
f 164/294/12 165/295/12 163/293/12 162/292/12
f 162/292/13 163/293/13 159/286/13 158/284/13
f 160/289/1 164/294/1 162/292/1 158/285/1
f 165/295/9 161/291/9 159/287/9 163/293/9
