# Blender 3.4.1
# www.blender.org
mtllib moduê6.mtl
o Cube.101
v -2.998874 -0.000000 1.582490
v -2.998874 6.012259 1.465918
v -2.998874 0.000000 -1.582490
v -2.998874 7.729164 -1.582490
v 2.998874 -0.000000 1.582490
v 2.845504 6.012259 1.465918
v 2.998874 0.000000 -1.582490
v 2.845504 6.012259 -1.582490
v -2.998874 7.729164 0.317986
v 1.606594 7.729164 -1.582490
v 1.606594 7.729164 0.317986
v -2.998874 2.175657 1.582490
v -2.998874 2.619774 1.582490
v -2.998874 3.106071 1.465918
v -2.998874 3.106071 -1.582490
v 2.845504 3.106071 -1.582490
v 2.998874 2.619774 -1.582490
v 2.998874 2.175657 -1.582490
v 2.845504 3.106071 1.465918
v 2.998874 2.619774 1.582490
v 2.998874 2.175657 1.582490
v 3.155043 3.106071 -1.582490
v 3.155043 2.619774 -1.582490
v 3.145721 3.106071 1.585524
v 3.145721 2.619774 1.585524
v 2.956925 3.106071 1.756736
v 2.956925 2.619774 1.756736
v -2.998874 2.619774 1.798202
v -2.998874 3.106071 1.798202
v 2.998874 0.504936 -1.582490
v 2.998874 0.504936 1.582490
v -2.998874 0.504936 1.582490
v -0.641407 -0.000000 1.582490
v -0.641407 2.175657 1.582490
v -0.701690 3.661003 1.465918
v -0.701690 5.508055 1.465918
v -0.641407 0.504936 1.582490
v 0.658215 -0.000000 1.582490
v 0.658215 2.175657 1.582490
v 0.564700 3.661003 1.465918
v 0.564700 5.508055 1.465918
v 0.658215 0.504936 1.582490
v -1.858492 2.175657 1.582490
v -1.877090 3.661003 1.465918
v -1.877090 5.508055 1.465918
v -1.858492 0.504936 1.582490
v 1.828545 2.175657 1.582490
v 1.705102 3.661003 1.465918
v 1.705102 5.508055 1.465918
v 1.828545 0.504936 1.582490
v 2.998874 2.175657 -0.524854
v 2.998874 2.175657 0.519015
v 2.845504 3.661003 -0.743606
v 2.845504 3.661003 0.429309
v 2.845504 5.508055 -0.743606
v 2.845504 5.508055 0.429309
v 2.998874 0.504937 -0.524854
v 2.998874 0.504937 0.519014
v -0.701690 5.508055 1.297025
v -0.701690 3.661003 1.297025
v 1.705102 3.661003 1.297025
v 0.564700 3.661003 1.297025
v 1.705102 5.508055 1.297025
v 0.564700 5.508055 1.297025
v -1.877090 3.661003 1.297025
v -1.877090 5.508055 1.297025
v -0.641407 2.175657 1.444275
v 0.658215 2.175657 1.444275
v 0.658215 -0.000000 1.444275
v -0.641407 -0.000000 1.444275
v 2.720295 3.661003 -0.743606
v 2.720295 3.661003 0.429309
v 2.720295 5.508055 -0.743606
v 2.720295 5.508055 0.429309
v -0.639244 7.246366 0.236057
v 0.524753 7.246366 0.236057
v -0.639244 6.082371 1.400053
v -0.639244 7.246366 1.400053
v 0.524753 6.082371 1.400053
v 0.524753 7.246366 1.400053
v 0.446278 7.167893 1.400053
v 0.446278 6.160844 1.400053
v -0.560771 6.160844 1.400053
v -0.560771 7.167893 1.400053
v 0.446278 7.167893 1.352598
v 0.446278 6.160844 1.352597
v -0.560771 6.160844 1.352597
v -0.560771 7.167893 1.352598
v -0.057246 7.618532 0.236057
v -0.057246 7.618532 1.400053
v 1.605390 7.246366 0.410480
v 1.605390 7.246366 -0.753515
v 2.769386 6.082371 0.410480
v 2.769386 7.246366 0.410480
v 2.769386 6.082371 -0.753515
v 2.769386 7.246366 -0.753515
v 2.769386 7.167893 -0.675041
v 2.769386 6.160844 -0.675041
v 2.769386 6.160844 0.332007
v 2.769386 7.167893 0.332007
v 2.721930 7.167893 -0.675041
v 2.721930 6.160844 -0.675041
v 2.721930 6.160844 0.332007
v 2.721930 7.167893 0.332007
v 1.605390 7.618532 -0.171518
v 2.769386 7.618532 -0.171518
vn -0.0000 -0.0000 1.0000
vn 1.0000 -0.0000 -0.0000
vn -1.0000 -0.0000 -0.0000
vn 0.6718 -0.0000 0.7408
vn -0.0000 -1.0000 -0.0000
vn -0.0000 -0.0000 -1.0000
vn -0.0000 1.0000 -0.0000
vn 0.0070 -0.0000 1.0000
vn -0.0000 0.5558 0.8313
vn -0.9990 -0.0000 -0.0444
vn 1.0000 -0.0000 0.0029
vn 0.8109 0.5852 -0.0000
vn -0.5387 0.8425 -0.0000
vn 0.5387 0.8425 -0.0000
vn -0.0000 0.8425 0.5387
vn -0.0000 0.8425 -0.5387
vt 0.078445 0.540129
vt 0.543669 0.851639
vt 0.553169 0.895178
vt 0.555543 0.890511
vt 0.046766 0.852099
vt 0.555543 0.893738
vt 0.553169 0.855597
vt 0.555543 0.851639
vt 0.544515 0.864223
vt 0.547231 0.864223
vt 0.543669 0.855597
vt 0.547231 0.855597
vt 0.544515 0.855597
vt 0.553169 0.859555
vt 0.555543 0.864223
vt 0.553169 0.864223
vt 0.071407 0.800391
vt 0.555543 0.855597
vt 0.078445 0.563505
vt 0.078445 0.570177
vt 0.078445 0.581575
vt 0.555543 0.887938
vt 0.046766 0.843301
vt 0.553169 0.883304
vt 0.046766 0.813924
vt 0.555543 0.879346
vt 0.543669 0.866796
vt 0.078445 0.604372
vt 0.078445 0.592974
vt 0.555543 0.866796
vt 0.553169 0.866796
vt 0.553169 0.871430
vt 0.046766 0.800391
vt 0.555543 0.875388
vt 0.046766 0.852099
vt 0.071407 0.813924
vt 0.555543 0.851639
vt 0.555543 0.866796
vt 0.062610 0.800391
vt 0.046766 0.800391
vt 0.046766 0.843301
vt 0.062610 0.813924
vt 0.046766 0.813924
vt 0.980664 0.225950
vt 0.053154 0.683673
vt 0.547231 0.851639
vt 0.546044 0.851639
vt 0.059543 0.683673
vt 0.179247 0.847454
vt 0.059543 0.658561
vt 0.175341 0.943139
vt 0.059543 0.675925
vt 0.548419 0.851639
vt 0.550794 0.895178
vt 0.182714 0.847454
vt 0.178808 0.943139
vt 0.549104 0.890511
vt 0.549104 0.851639
vt 0.550794 0.851639
vt 0.549104 0.864223
vt 0.550794 0.864223
vt 0.548419 0.864223
vt 0.550794 0.855597
vt 0.548419 0.855597
vt 0.178808 0.846561
vt 0.549104 0.866796
vt 0.550794 0.866796
vt 0.178808 0.866595
vt 0.550794 0.871430
vt 0.549104 0.875388
vt 0.175341 0.846561
vt 0.548419 0.866796
vt 0.475000 0.451218
vt 0.154687 0.850929
vt 0.059543 0.577191
vt 0.450000 0.451218
vt 0.053154 0.555894
vt 0.980664 0.125741
vt 0.178808 0.906662
vt 0.178808 0.930117
vt 0.549104 0.887938
vt 0.549104 0.885621
vt 0.550794 0.883304
vt 0.178808 0.886628
vt 0.549104 0.879346
vt 0.059543 0.619784
vt 0.175341 0.906662
vt 0.059543 0.644717
vt 0.175341 0.930117
vt 0.059543 0.632250
vt 0.154687 0.889305
vt 0.059543 0.598487
vt 0.980664 0.225950
vt 0.053154 0.619784
vt 0.980389 0.125089
vt 0.178808 0.846561
vt 0.178808 0.866595
vt 0.175341 0.846561
vt 0.154687 0.850929
vt 0.175341 0.866595
vt 0.178808 0.906662
vt 0.178808 0.886628
vt 0.175341 0.906662
vt 0.154687 0.889305
vt 0.175341 0.886628
vt 0.178808 0.906662
vt 0.178808 0.930117
vt 0.175341 0.906662
vt 0.175341 0.930117
vt 0.179247 0.847454
vt 0.175341 0.943139
vt 0.182714 0.847454
vt 0.178808 0.943139
vt 0.544515 0.866796
vt 0.547231 0.866796
vt 0.450000 0.402436
vt 0.076008 0.604372
vt 0.881751 0.125741
vt 0.881751 0.225950
vt 0.076008 0.570177
vt 0.883074 0.125089
vt 0.881751 0.225950
vt 0.076008 0.535983
vt 0.544515 0.851639
vt 0.102299 0.852313
vt 0.078445 0.549423
vt 0.081545 0.831559
vt 0.053154 0.658561
vt 0.980389 0.125089
vt 0.450000 0.901735
vt 0.074706 0.831559
vt 0.550794 0.890511
vt 0.553169 0.890511
vt 0.076008 0.549423
vt 0.883074 0.125089
vt 0.079108 0.831559
vt 0.094890 0.852313
vt 0.078445 0.556833
vt 0.081545 0.838968
vt 0.074706 0.838968
vt 0.980664 0.225950
vt 0.053154 0.644717
vt 0.450000 0.847564
vt 0.550794 0.887938
vt 0.553169 0.887938
vt 0.881751 0.225950
vt 0.076008 0.556833
vt 0.079109 0.838968
vt 0.980664 0.125741
vt 0.053154 0.675925
vt 0.980389 0.225985
vt 0.550794 0.893738
vt 0.553169 0.893738
vt 0.881751 0.125741
vt 0.076008 0.540129
vt 0.883074 0.225985
vt 0.980664 0.125741
vt 0.053154 0.632250
vt 0.980389 0.225985
vt 0.550794 0.885621
vt 0.553169 0.885621
vt 0.881751 0.125741
vt 0.076008 0.563505
vt 0.883074 0.225985
vt 0.053154 0.577191
vt 0.980664 0.225950
vt 0.980389 0.125089
vt 0.980664 0.125741
vt 0.053154 0.598487
vt 0.980389 0.225985
vt 0.550794 0.875388
vt 0.550794 0.879346
vt 0.553169 0.875388
vt 0.553169 0.879346
vt 0.076008 0.592974
vt 0.881751 0.225950
vt 0.883074 0.125089
vt 0.881751 0.125741
vt 0.076008 0.581575
vt 0.883074 0.225985
vt 0.983593 0.124501
vt 0.553169 0.890511
vt 0.878800 0.124501
vt 0.550794 0.890511
vt 0.878800 0.124501
vt 0.550794 0.885621
vt 0.878800 0.227733
vt 0.550794 0.887938
vt 0.553169 0.885621
vt 0.983593 0.124501
vt 0.983593 0.227733
vt 0.553169 0.887938
vt 0.878800 0.227733
vt 0.550794 0.893738
vt 0.983593 0.227733
vt 0.553169 0.893738
vt 0.450000 0.901735
vt 0.074706 0.831559
vt 0.074706 0.838968
vt 0.450000 0.847564
vt 0.094890 0.852313
vt 0.079109 0.838968
vt 0.081545 0.838968
vt 0.102299 0.852313
vt 0.079108 0.831559
vt 0.878800 0.124501
vt 0.550794 0.875388
vt 0.878800 0.227733
vt 0.550794 0.879346
vt 0.983593 0.124501
vt 0.553169 0.875388
vt 0.983593 0.227733
vt 0.553169 0.879346
vt 0.658817 0.819915
vt 0.112368 0.954165
vt 0.691166 0.785310
vt 0.112368 0.897397
vt 0.658817 0.883317
vt 0.055600 0.954165
vt 0.595415 0.883317
vt 0.544464 0.932012
vt 0.658817 0.946719
vt 0.691166 0.932012
vt 0.595415 0.946719
vt 0.055600 0.897397
vt 0.595415 0.946719
vt 0.658817 0.946719
vt 0.658817 0.883317
vt 0.595415 0.883317
vt 0.979265 0.127687
vt 0.595415 0.946719
vt 0.883113 0.127687
vt 0.658817 0.946719
vt 0.883113 0.223839
vt 0.658817 0.883317
vt 0.979265 0.223839
vt 0.595415 0.883317
vt 0.112368 0.925781
vt 0.595415 0.915018
vt 0.055600 0.925781
vt 0.658817 0.819915
vt 0.112368 0.954165
vt 0.691166 0.785310
vt 0.112368 0.897397
vt 0.658817 0.883317
vt 0.055600 0.954165
vt 0.595415 0.883317
vt 0.544464 0.932012
vt 0.658817 0.946719
vt 0.691166 0.932012
vt 0.595415 0.946719
vt 0.055600 0.897397
vt 0.595415 0.946719
vt 0.658817 0.946719
vt 0.658817 0.883317
vt 0.595415 0.883317
vt 0.979265 0.127687
vt 0.595415 0.946719
vt 0.883113 0.127687
vt 0.658817 0.946719
vt 0.883113 0.223839
vt 0.658817 0.883317
vt 0.979265 0.223839
vt 0.595415 0.883317
vt 0.112368 0.925781
vt 0.595415 0.915018
vt 0.055600 0.925781
s 0
usemtl BasicTexture.005
f 46/154/1 43/149/1 12/44/1 32/122/1
f 43/150/1 13/48/1 12/45/1
f 44/152/1 45/153/1 2/3/1 14/54/1
f 58/178/2 52/168/2 21/93/2 31/119/2
f 52/169/2 20/86/2 21/94/2
f 54/172/2 56/174/2 6/24/2 19/83/2
f 15/63/3 2/7/3 4/14/3
f 27/108/4 25/103/4 24/101/4 26/106/4
f 25/103/5 27/108/5 20/87/5
f 17/71/6 16/65/6 22/96/6 23/98/6
f 14/55/3 13/49/3 28/110/3 29/112/3
f 24/101/7 19/79/7 26/106/7
f 5/21/2 58/179/2 31/120/2
f 1/1/1 46/155/1 32/123/1
f 33/125/7 38/137/7 69/201/7 70/204/7
f 19/80/7 14/56/7 29/113/7 26/107/7
f 27/109/8 26/107/8 29/113/8 28/111/8
f 40/144/1 41/145/1 36/133/1 35/132/1
f 19/81/1 40/144/1 35/132/1 14/57/1
f 39/142/1 20/88/1 13/50/1 34/128/1
f 42/148/3 39/140/3 68/199/3 69/202/3
f 8/30/6 4/15/6 10/38/6
f 41/145/1 6/22/1 2/4/1 36/133/1
f 49/161/1 6/22/1 41/145/1
f 50/162/1 47/157/1 39/141/1 42/146/1
f 47/158/1 20/88/1 39/142/1
f 19/82/1 48/160/1 40/144/1
f 49/161/5 41/145/5 64/192/5 63/189/5
f 5/19/1 50/163/1 42/147/1 38/138/1
f 3/9/6 30/114/6 7/27/6
f 13/51/5 20/89/5 27/109/5 28/111/5
f 15/60/6 16/66/6 17/72/6
f 15/61/6 4/16/6 8/31/6 16/67/6
f 3/10/6 15/62/6 17/72/6 30/115/6
f 2/5/9 6/23/9 11/41/9 9/35/9
f 33/126/1 37/134/1 46/155/1 1/1/1
f 48/160/3 49/161/3 63/189/3 61/186/3
f 14/57/1 35/132/1 44/152/1
f 34/128/1 13/52/1 43/150/1
f 37/135/1 34/129/1 43/151/1 46/156/1
f 36/133/1 2/6/1 45/153/1
f 5/20/1 31/120/1 50/163/1
f 19/83/1 6/24/1 49/161/1 48/160/1
f 21/94/1 20/90/1 47/158/1
f 31/121/1 21/95/1 47/159/1 50/164/1
f 30/116/10 17/73/10 18/76/10
f 10/39/7 4/17/7 9/36/7 11/42/7
f 7/28/2 30/117/2 57/175/2
f 7/29/2 57/175/2 58/179/2 5/21/2
f 1/2/3 32/124/3 3/11/3
f 20/91/5 17/74/5 23/99/5 25/104/5
f 23/100/11 22/97/11 24/102/11 25/105/11
f 16/68/7 19/84/7 24/102/7 22/97/7
f 13/53/3 14/58/3 15/64/3
f 14/59/3 2/7/3 15/63/3
f 12/46/3 13/53/3 15/64/3 3/12/3
f 32/124/3 12/47/3 3/13/3
f 16/69/2 8/32/2 55/173/2 53/171/2
f 53/171/1 55/173/1 73/211/1 71/207/1
f 16/70/2 53/171/2 54/172/2 19/85/2
f 18/77/2 17/75/2 51/165/2
f 51/165/2 17/75/2 20/92/2 52/169/2
f 30/118/2 18/78/2 51/166/2 57/176/2
f 57/177/2 51/167/2 52/170/2 58/180/2
f 6/25/12 8/33/12 10/40/12 11/43/12
f 4/18/3 2/8/3 9/37/3
f 55/173/2 8/34/2 6/26/2 56/174/2
f 61/185/1 63/190/1 64/191/1 62/187/1
f 60/183/1 59/181/1 66/195/1 65/193/1
f 41/145/2 40/144/2 62/188/2 64/192/2
f 36/133/5 45/153/5 66/196/5 59/182/5
f 45/153/2 44/152/2 65/194/2 66/196/2
f 40/144/7 48/160/7 61/186/7 62/188/7
f 44/152/7 35/132/7 60/184/7 65/194/7
f 35/132/3 36/133/3 59/182/3 60/184/3
f 69/202/1 68/199/1 67/198/1 70/205/1
f 39/143/5 34/130/5 67/197/5 68/200/5
f 34/131/2 37/136/2 70/205/2 67/198/2
f 37/136/2 33/127/2 70/205/2
f 38/139/3 42/148/3 69/203/3
f 71/206/2 73/210/2 74/212/2 72/208/2
f 55/173/5 56/174/5 74/213/5 73/211/5
f 54/172/7 53/171/7 71/207/7 72/209/7
f 56/174/6 54/172/6 72/209/6 74/213/6
f 76/216/2 80/223/2 79/221/2
f 78/220/1 77/218/1 83/228/1 84/229/1
f 77/218/3 78/220/3 75/214/3
f 90/240/13 89/238/13 75/215/13 78/219/13
f 86/232/1 85/230/1 88/236/1 87/234/1
f 90/239/1 78/220/1 84/229/1 81/226/1 80/224/1
f 79/222/1 80/224/1 81/226/1 82/227/1
f 83/228/7 82/227/7 86/233/7 87/235/7
f 82/227/3 81/226/3 85/231/3 86/233/3
f 84/229/2 83/228/2 87/235/2 88/237/2
f 83/228/1 77/218/1 79/222/1 82/227/1
f 84/229/5 88/237/5 85/231/5 81/226/5
f 80/225/14 76/217/14 89/238/14 90/240/14
f 92/243/6 96/250/6 95/248/6
f 94/247/2 93/245/2 99/255/2 100/256/2
f 93/245/1 94/247/1 91/241/1
f 106/267/15 105/265/15 91/242/15 94/246/15
f 102/259/2 101/257/2 104/263/2 103/261/2
f 106/266/2 94/247/2 100/256/2 97/253/2 96/251/2
f 95/249/2 96/251/2 97/253/2 98/254/2
f 99/255/7 98/254/7 102/260/7 103/262/7
f 98/254/1 97/253/1 101/258/1 102/260/1
f 100/256/6 99/255/6 103/262/6 104/264/6
f 99/255/2 93/245/2 95/249/2 98/254/2
f 100/256/5 104/264/5 101/258/5 97/253/5
f 96/252/16 92/244/16 105/265/16 106/267/16
