# Blender 3.4.1
# www.blender.org
mtllib moduê1.mtl
o Cube.003
v -1.995132 7.689668 0.869547
v -2.648992 6.380863 2.285582
v -1.995132 7.689668 2.285582
v -1.341273 6.380863 2.285582
v -1.995132 7.486906 2.285582
v -1.493219 6.482245 2.285582
v -2.497046 6.482245 2.285582
v -1.995132 7.486906 2.227567
v -1.493219 6.482245 2.227567
v -2.497046 6.482245 2.227567
v -0.033555 7.689668 0.869547
v -0.687414 6.380863 2.285582
v -0.033555 7.689668 2.285582
v 0.620305 6.380863 2.285582
v -0.033555 7.486906 2.285582
v 0.468359 6.482245 2.285582
v -0.535468 6.482245 2.285582
v -0.033555 7.486906 2.227567
v 0.468359 6.482245 2.227567
v -0.535468 6.482245 2.227567
v 1.928023 7.689668 0.869547
v 1.274164 6.380863 2.285582
v 1.928023 7.689668 2.285582
v 2.581883 6.380863 2.285582
v 1.928023 7.486906 2.285582
v 2.429938 6.482245 2.285582
v 1.426109 6.482245 2.285582
v 1.928023 7.486906 2.227567
v 2.429938 6.482245 2.227567
v 1.426109 6.482245 2.227567
v -3.000000 0.000000 -2.362820
v -3.000000 7.985597 -2.362820
v 3.000000 0.000000 -2.362819
v 3.000000 7.985597 -2.362819
v -3.000000 0.000000 2.362819
v -3.000000 6.319004 2.362819
v 3.000000 0.000000 2.362820
v 2.999999 6.319004 2.362820
v 2.999999 7.985597 0.651114
v -3.000000 7.985597 0.651114
v 1.255457 0.000000 2.362820
v 1.263952 1.122937 2.362820
v 1.263952 3.276670 2.362820
v 1.263952 4.160010 2.362820
v 1.263952 5.585546 2.362820
v 2.554790 0.000000 2.362820
v 2.573319 1.122937 2.362820
v 2.573319 3.276670 2.362820
v 2.573319 4.160010 2.362820
v 2.573319 5.585546 2.362820
v 2.573319 1.122937 2.213351
v 1.263952 1.122937 2.213351
v 2.573319 3.276670 2.213351
v 1.263952 3.276670 2.213351
v -0.681062 1.767147 2.362820
v -0.681062 3.276670 2.362820
v -0.681062 4.160010 2.362820
v -0.681062 5.585546 2.362820
v -1.362540 1.767147 2.362820
v -1.362541 3.276670 2.362820
v -1.362541 4.160010 2.362820
v -1.362541 5.585546 2.362820
v 0.612425 1.767147 2.362820
v 0.612425 3.276670 2.362820
v 0.612425 4.160010 2.362820
v 0.612425 5.585546 2.362820
v -2.643664 1.767147 2.362820
v -2.643664 3.276670 2.362820
v -2.643664 4.160010 2.362820
v -2.643664 5.585546 2.362820
v 2.573319 4.160010 2.230908
v 1.263952 4.160010 2.230908
v 2.573319 5.585546 2.230908
v 1.263952 5.585546 2.230908
v 0.612425 1.767147 2.230908
v -0.681062 1.767147 2.230908
v 0.612425 3.276670 2.230908
v -0.681062 3.276670 2.230908
v 0.612425 4.160010 2.230908
v -0.681062 4.160010 2.230908
v 0.612425 5.585546 2.230908
v -0.681062 5.585546 2.230908
v -1.362541 5.585546 2.230908
v -1.362541 4.160010 2.230908
v -1.362541 3.276670 2.230908
v -1.362540 1.767147 2.230908
v -2.643664 1.767147 2.230908
v -2.643664 3.276670 2.230908
v -2.643664 4.160010 2.230908
v -2.643664 5.585546 2.230908
v -3.000000 1.124411 2.362819
v 2.573263 1.119482 2.362820
v 2.574631 1.119482 2.362820
v 3.000000 1.119481 2.362820
v -3.000000 1.121038 -2.362820
v 3.000000 1.121960 -2.362819
v -2.642355 3.355871 2.334143
v -2.642355 3.492344 2.334143
v -1.365229 3.355871 2.334143
v -1.365229 3.492344 2.334143
v -2.642355 3.355871 2.584926
v -2.642355 3.492344 2.584926
v -1.365229 3.355871 2.584926
v -1.365229 3.492344 2.584926
v -0.681966 3.355871 2.334143
v -0.681966 3.492344 2.334143
v 0.595159 3.355871 2.334143
v 0.595159 3.492344 2.334143
v -0.681966 3.355871 2.584926
v -0.681966 3.492344 2.584926
v 0.595159 3.355871 2.584926
v 0.595159 3.492344 2.584926
v 1.278422 3.355871 2.334143
v 1.278422 3.492344 2.334143
v 2.555547 3.355871 2.334143
v 2.555547 3.492344 2.334143
v 1.278422 3.355871 2.584926
v 1.278422 3.492344 2.584926
v 2.555547 3.355871 2.584926
v 2.555547 3.492344 2.584926
v 1.111911 -0.003273 2.193208
v 1.111911 1.127230 2.193208
v 2.722148 -0.003272 2.193208
v 2.722147 1.127230 2.193208
v 1.111911 -0.003273 3.810522
v 2.722147 -0.003272 3.810522
v 1.111911 0.213407 3.810522
v 1.111911 0.213407 3.584970
v 1.111911 0.441862 3.584970
v 1.111911 0.441862 3.359418
v 1.111911 0.670318 3.359418
v 1.111911 0.670318 3.133866
v 1.111911 0.898773 3.133866
v 1.111911 0.898773 2.908314
v 1.111911 1.127230 2.908314
v 2.722147 0.213407 3.810522
v 2.722147 1.127230 2.908314
v 2.722147 0.898773 2.908314
v 2.722147 0.898773 3.133866
v 2.722147 0.670318 3.133866
v 2.722147 0.670318 3.359418
v 2.722147 0.441862 3.359418
v 2.722147 0.441862 3.584970
v 2.722147 0.213407 3.584970
v -2.642355 5.664093 2.358505
v -2.642355 5.800567 2.358505
v -1.365229 5.664093 2.358505
v -1.365229 5.800567 2.358505
v -2.642355 5.664093 2.595841
v -2.642355 5.800567 2.595841
v -1.365229 5.664093 2.595841
v -1.365229 5.800567 2.595841
v -0.681967 5.664093 2.358505
v -0.681967 5.800567 2.358505
v 0.595159 5.664093 2.358505
v 0.595159 5.800567 2.358505
v -0.681967 5.664093 2.595841
v -0.681967 5.800567 2.595841
v 0.595159 5.664093 2.595841
v 0.595159 5.800567 2.595841
v 1.278421 5.664093 2.358505
v 1.278421 5.800567 2.358505
v 2.555547 5.664093 2.358505
v 2.555547 5.800567 2.358505
v 1.278421 5.664093 2.595841
v 1.278421 5.800567 2.595841
v 2.555547 5.664093 2.595841
v 2.555547 5.800567 2.595841
v 2.356522 2.083744 2.180420
v 2.356522 2.207722 2.180420
v 2.480396 2.083744 2.180420
v 2.480396 2.207722 2.180420
v 2.356522 2.083744 2.304398
v 2.356522 2.207722 2.304398
v 2.480396 2.083744 2.304398
v 2.480396 2.207722 2.304398
vn 0.8946 0.4469 -0.0000
vn -0.0000 -0.0000 1.0000
vn -0.8946 0.4469 -0.0000
vn 0.8946 -0.4469 -0.0000
vn -0.0000 1.0000 -0.0000
vn -0.8946 -0.4469 -0.0000
vn -1.0000 -0.0000 -0.0000
vn 1.0000 -0.0000 -0.0000
vn -0.0000 -1.0000 -0.0000
vn -0.0000 -0.0000 -1.0000
vn -0.0000 0.7165 0.6976
vn -0.0000 -0.0001 1.0000
vt 0.092160 0.859645
vt 0.144393 0.801248
vt 0.662970 0.935424
vt 0.144393 0.859645
vt 0.662970 0.797724
vt 0.144393 0.918043
vt 0.552862 0.878888
vt 0.654429 0.814593
vt 0.566129 0.877327
vt 0.655729 0.921618
vt 0.847118 0.163860
vt 0.650758 0.825228
vt 0.772829 0.163550
vt 0.576232 0.874893
vt 0.809741 0.224766
vt 0.649010 0.913786
vt 0.092160 0.859645
vt 0.144393 0.801248
vt 0.662970 0.935424
vt 0.144393 0.859645
vt 0.662970 0.797724
vt 0.144393 0.918043
vt 0.552862 0.878888
vt 0.654429 0.814593
vt 0.566129 0.877327
vt 0.655729 0.921618
vt 0.847118 0.163860
vt 0.650758 0.825228
vt 0.772829 0.163550
vt 0.576232 0.874893
vt 0.809741 0.224766
vt 0.649010 0.913786
vt 0.092160 0.859645
vt 0.144393 0.801248
vt 0.662970 0.935424
vt 0.144393 0.859645
vt 0.662970 0.797724
vt 0.144393 0.918043
vt 0.552862 0.878888
vt 0.654429 0.814593
vt 0.566129 0.877327
vt 0.655729 0.921618
vt 0.847118 0.163860
vt 0.650758 0.825228
vt 0.772829 0.163550
vt 0.576232 0.874893
vt 0.809741 0.224766
vt 0.649010 0.913786
vt 0.543005 0.968247
vt 0.031608 0.576369
vt 0.529655 0.976177
vt 0.051527 0.958349
vt 0.543005 0.773934
vt 0.208755 0.581025
vt 0.696765 0.968247
vt 0.706802 0.963065
vt 0.187018 0.958349
vt 0.696765 0.773934
vt 0.158916 0.575889
vt 0.176424 0.576369
vt 0.549339 0.803420
vt 0.051527 0.811227
vt 0.674471 0.937982
vt 0.077998 0.581025
vt 0.170799 0.722369
vt 0.576045 0.928579
vt 0.187018 0.811227
vt 0.548984 0.920982
vt 0.623407 0.963065
vt 0.187018 0.871935
vt 0.051527 0.871935
vt 0.622016 0.976177
vt 0.171972 0.649023
vt 0.149652 0.630832
vt 0.654512 0.869492
vt 0.647699 0.847629
vt 0.651282 0.863311
vt 0.612620 0.886214
vt 0.593340 0.887840
vt 0.562809 0.888313
vt 0.171972 0.715249
vt 0.652918 0.929533
vt 0.610136 0.920845
vt 0.589912 0.918480
vt 0.560282 0.915720
vt 0.653551 0.926545
vt 0.162214 0.922787
vt 0.224982 0.922787
vt 0.655993 0.873129
vt 0.162214 0.824754
vt 0.614235 0.917679
vt 0.224982 0.824754
vt 0.616801 0.889084
vt 0.634908 0.837204
vt 0.607287 0.842844
vt 0.590536 0.845882
vt 0.562432 0.846425
vt 0.633551 0.825562
vt 0.606358 0.829876
vt 0.590171 0.832848
vt 0.562074 0.833366
vt 0.640537 0.861872
vt 0.611039 0.871721
vt 0.593506 0.874567
vt 0.563573 0.874665
vt 0.629602 0.801392
vt 0.602551 0.804560
vt 0.586489 0.805974
vt 0.559907 0.807713
vt 0.880696 0.233851
vt 0.586189 0.915068
vt 0.982871 0.233851
vt 0.589811 0.891973
vt 0.880696 0.124200
vt 0.563413 0.912241
vt 0.982871 0.124200
vt 0.566291 0.891317
vt 0.880696 0.233851
vt 0.636524 0.860145
vt 0.982871 0.233851
vt 0.633120 0.841038
vt 0.880696 0.124200
vt 0.613329 0.866759
vt 0.982871 0.124200
vt 0.611358 0.844860
vt 0.880696 0.233851
vt 0.589235 0.871684
vt 0.982871 0.233851
vt 0.587894 0.849640
vt 0.880696 0.124200
vt 0.566420 0.870781
vt 0.982871 0.124200
vt 0.566294 0.849114
vt 0.880696 0.124200
vt 0.564558 0.829732
vt 0.880696 0.233851
vt 0.586021 0.830207
vt 0.880696 0.124200
vt 0.608528 0.826006
vt 0.880696 0.233851
vt 0.629862 0.823586
vt 0.982871 0.233851
vt 0.627524 0.805032
vt 0.982871 0.124200
vt 0.606346 0.806659
vt 0.982871 0.233851
vt 0.584108 0.809659
vt 0.982871 0.124200
vt 0.563595 0.810077
vt 0.667086 0.818931
vt 0.639555 0.798225
vt 0.638291 0.796760
vt 0.144024 0.596801
vt 0.169040 0.602134
vt 0.674471 0.818935
vt 0.642071 0.813598
vt 0.154924 0.712744
vt 0.652970 0.929541
vt 0.154920 0.712766
vt 0.652967 0.929563
vt 0.084638 0.604192
vt 0.149564 0.719148
vt 0.582685 0.820989
vt 0.647611 0.935945
vt 0.529655 0.818857
vt 0.543005 0.940969
vt 0.031608 0.602060
vt 0.208755 0.604241
vt 0.706802 0.821038
vt 0.696765 0.940947
vt 0.122250 0.919123
vt 0.085298 0.882172
vt 0.159201 0.919123
vt 0.196153 0.882172
vt 0.122250 0.808269
vt 0.085298 0.845220
vt 0.159201 0.808269
vt 0.196153 0.845220
vt 0.122250 0.882172
vt 0.159201 0.882172
vt 0.122250 0.845220
vt 0.159201 0.845220
vt 0.122250 0.919123
vt 0.085298 0.882172
vt 0.159201 0.919123
vt 0.196153 0.882172
vt 0.122250 0.808269
vt 0.085298 0.845220
vt 0.159201 0.808269
vt 0.196153 0.845220
vt 0.122250 0.882172
vt 0.159201 0.882172
vt 0.122250 0.845220
vt 0.159201 0.845220
vt 0.122250 0.919123
vt 0.085298 0.882172
vt 0.159201 0.919123
vt 0.196153 0.882172
vt 0.122250 0.808269
vt 0.085298 0.845220
vt 0.159201 0.808269
vt 0.196153 0.845220
vt 0.122250 0.882172
vt 0.159201 0.882172
vt 0.122250 0.845220
vt 0.159201 0.845220
vt 0.031696 0.976295
vt 0.068700 0.976295
vt 0.101902 0.939291
vt 0.031696 0.865281
vt 0.068700 0.869084
vt 0.101902 0.902286
vt 0.031696 0.939291
vt 0.031696 0.902286
vt 0.035498 0.939291
vt 0.035498 0.945931
vt 0.035498 0.939291
vt 0.043799 0.945931
vt 0.043799 0.939291
vt 0.043799 0.952572
vt 0.043799 0.939291
vt 0.052099 0.952572
vt 0.052099 0.939291
vt 0.052099 0.959212
vt 0.088622 0.939291
vt 0.060400 0.959212
vt 0.088622 0.939291
vt 0.060400 0.965852
vt 0.095262 0.939291
vt 0.068700 0.965852
vt 0.095262 0.939291
vt 0.035498 0.902286
vt 0.068700 0.875724
vt 0.095262 0.902286
vt 0.060400 0.875724
vt 0.095262 0.902286
vt 0.060400 0.882365
vt 0.088622 0.902286
vt 0.052099 0.882365
vt 0.088622 0.902286
vt 0.052099 0.889005
vt 0.052099 0.902286
vt 0.043799 0.889005
vt 0.043799 0.902286
vt 0.043799 0.895646
vt 0.043799 0.902286
vt 0.035498 0.895646
vt 0.035498 0.902286
vt 0.099638 0.922979
vt 0.061757 0.885097
vt 0.137519 0.922979
vt 0.175401 0.885097
vt 0.099638 0.809335
vt 0.061757 0.847216
vt 0.137519 0.809335
vt 0.175401 0.847216
vt 0.099638 0.885097
vt 0.137519 0.885097
vt 0.099638 0.847216
vt 0.137519 0.847216
vt 0.099638 0.922979
vt 0.061757 0.885097
vt 0.137519 0.922979
vt 0.175401 0.885097
vt 0.099638 0.809335
vt 0.061757 0.847216
vt 0.137519 0.809335
vt 0.175401 0.847216
vt 0.099638 0.885097
vt 0.137519 0.885097
vt 0.099638 0.847216
vt 0.137519 0.847216
vt 0.099638 0.922979
vt 0.061757 0.885097
vt 0.137519 0.922979
vt 0.175401 0.885097
vt 0.099638 0.809335
vt 0.061757 0.847216
vt 0.137519 0.809335
vt 0.175401 0.847216
vt 0.099638 0.885097
vt 0.137519 0.885097
vt 0.099638 0.847216
vt 0.137519 0.847216
vt 0.079954 0.935920
vt 0.052362 0.908327
vt 0.107546 0.935920
vt 0.135139 0.908327
vt 0.079954 0.853143
vt 0.052362 0.880735
vt 0.107546 0.853143
vt 0.135139 0.880735
vt 0.079954 0.908327
vt 0.107546 0.908327
vt 0.079954 0.880735
vt 0.107546 0.880735
s 0
usemtl BasicTexture
f 1/1/1 3/4/1 4/6/1
f 3/5/2 2/3/2 7/10/2 5/8/2
f 2/2/3 3/4/3 1/1/3
f 5/8/4 7/10/4 10/16/4 8/12/4
f 2/3/2 4/7/2 6/9/2 7/10/2
f 4/7/2 3/5/2 5/8/2 6/9/2
f 9/13/2 8/11/2 10/15/2
f 7/10/5 6/9/5 9/14/5 10/16/5
f 6/9/6 5/8/6 8/12/6 9/14/6
f 11/17/1 13/20/1 14/22/1
f 13/21/2 12/19/2 17/26/2 15/24/2
f 12/18/3 13/20/3 11/17/3
f 15/24/4 17/26/4 20/32/4 18/28/4
f 12/19/2 14/23/2 16/25/2 17/26/2
f 14/23/2 13/21/2 15/24/2 16/25/2
f 19/29/2 18/27/2 20/31/2
f 17/26/5 16/25/5 19/30/5 20/32/5
f 16/25/6 15/24/6 18/28/6 19/30/6
f 21/33/1 23/36/1 24/38/1
f 23/37/2 22/35/2 27/42/2 25/40/2
f 22/34/3 23/36/3 21/33/3
f 25/40/4 27/42/4 30/48/4 28/44/4
f 22/35/2 24/39/2 26/41/2 27/42/2
f 24/39/2 23/37/2 25/40/2 26/41/2
f 29/45/2 28/43/2 30/47/2
f 27/42/5 26/41/5 29/46/5 30/48/5
f 26/41/6 25/40/6 28/44/6 29/46/6
f 32/51/7 95/165/7 91/150/7 40/72/7
f 33/54/8 96/168/8 94/161/8 37/64/8
f 67/106/2 68/107/2 91/151/2
f 68/107/2 69/108/2 36/61/2 91/152/2
f 69/108/2 70/109/2 36/61/2
f 50/85/9 45/80/9 74/117/9 73/115/9
f 48/83/2 49/84/2 44/79/2 43/78/2
f 47/82/7 48/83/7 53/91/7 51/86/7
f 50/85/2 38/68/2 45/80/2
f 37/65/2 93/159/2 92/157/2 46/81/2
f 37/65/2 94/162/2 93/159/2
f 38/68/2 49/84/2 48/83/2
f 38/68/2 50/85/2 49/84/2
f 51/87/2 53/90/2 54/92/2 52/88/2
f 48/83/9 43/78/9 54/93/9 53/91/9
f 43/78/8 42/75/8 52/89/8 54/93/8
f 56/95/8 55/94/8 76/121/8 78/125/8
f 64/103/2 65/104/2 57/96/2 56/95/2
f 57/96/5 65/104/5 79/127/5 80/129/5
f 94/163/8 96/169/8 34/56/8 39/69/8
f 39/70/5 34/57/5 32/52/5 40/71/5
f 66/105/2 38/68/2 36/61/2 58/97/2
f 57/96/2 58/97/2 62/101/2 61/100/2
f 56/95/2 57/96/2 61/100/2 60/99/2
f 55/94/2 56/95/2 60/99/2 59/98/2
f 41/73/2 42/74/2 91/153/2 35/59/2
f 58/97/2 36/61/2 62/101/2
f 45/80/2 38/68/2 66/105/2
f 94/163/8 39/69/8 38/66/8
f 42/75/2 43/78/2 64/103/2 63/102/2
f 43/78/2 44/79/2 65/104/2 64/103/2
f 44/79/2 45/80/2 66/105/2 65/104/2
f 31/49/10 95/166/10 32/53/10 34/58/10 96/170/10 33/55/10
f 60/99/9 68/107/9 88/145/9 85/139/9
f 60/99/2 61/100/2 69/108/2 68/107/2
f 70/109/8 69/108/8 89/147/8 90/149/8
f 91/154/7 95/167/7 31/50/7 35/60/7
f 62/101/2 36/61/2 70/109/2
f 71/110/2 73/114/2 74/116/2 72/112/2
f 79/126/2 81/130/2 82/132/2 80/128/2
f 75/118/2 77/122/2 78/124/2 76/120/2
f 84/136/2 83/134/2 90/148/2 89/146/2
f 86/140/2 85/138/2 88/144/2 87/142/2
f 69/108/5 61/100/5 84/137/5 89/147/5
f 66/105/9 58/97/9 82/133/9 81/131/9
f 61/100/7 62/101/7 83/135/7 84/137/7
f 68/107/8 67/106/8 87/143/8 88/145/8
f 62/101/9 70/109/9 90/149/9 83/135/9
f 63/102/7 64/103/7 77/123/7 75/119/7
f 59/98/7 60/99/7 85/139/7 86/141/7
f 49/84/7 50/85/7 73/115/7 71/111/7
f 45/80/8 44/79/8 72/113/8 74/117/8
f 65/104/7 66/105/7 81/131/7 79/127/7
f 55/94/5 63/102/5 75/119/5 76/121/5
f 58/97/8 57/96/8 80/129/8 82/133/8
f 44/79/5 49/84/5 71/111/5 72/113/5
f 67/106/5 59/98/5 86/141/5 87/143/5
f 64/103/9 56/95/9 78/125/9 77/123/9
f 39/70/11 40/71/11 36/62/11 38/67/11
f 91/156/2 59/98/2 67/106/2
f 93/160/2 94/164/2 38/68/2 48/83/2 47/82/2
f 91/155/7 36/63/7 40/72/7
f 91/156/2 42/76/2 55/94/2 59/98/2
f 42/77/2 63/102/2 55/94/2
f 92/158/12 93/160/12 47/82/12
f 99/175/8 100/177/8 104/182/8 103/181/8
f 103/181/2 104/182/2 102/180/2 101/179/2
f 101/179/7 102/180/7 98/173/7 97/171/7
f 99/176/9 103/181/9 101/179/9 97/172/9
f 104/182/5 100/178/5 98/174/5 102/180/5
f 107/187/8 108/189/8 112/194/8 111/193/8
f 111/193/2 112/194/2 110/192/2 109/191/2
f 109/191/7 110/192/7 106/185/7 105/183/7
f 107/188/9 111/193/9 109/191/9 105/184/9
f 112/194/5 108/190/5 106/186/5 110/192/5
f 115/199/8 116/201/8 120/206/8 119/205/8
f 119/205/2 120/206/2 118/204/2 117/203/2
f 117/203/7 118/204/7 114/197/7 113/195/7
f 115/200/9 119/205/9 117/203/9 113/196/9
f 120/206/5 116/202/5 114/198/5 118/204/5
f 125/213/7 127/215/7 128/216/7 129/218/7 130/220/7 131/222/7 132/224/7 133/226/7 134/228/7 135/230/7 122/208/7 121/207/7
f 123/210/8 124/211/8 137/233/8 138/235/8 139/237/8 140/239/8 141/241/8 142/243/8 143/245/8 144/247/8 136/232/8 126/214/8
f 126/214/2 136/232/2 127/215/2 125/213/2
f 124/212/5 122/209/5 135/231/5 137/234/5
f 137/234/2 135/231/2 134/229/2 138/236/2
f 138/236/5 134/229/5 133/227/5 139/238/5
f 139/238/2 133/227/2 132/225/2 140/240/2
f 140/240/5 132/225/5 131/223/5 141/242/5
f 141/242/2 131/223/2 130/221/2 142/244/2
f 142/244/5 130/221/5 129/219/5 143/246/5
f 143/246/2 129/219/2 128/217/2 144/248/2
f 144/248/5 128/217/5 127/215/5 136/232/5
f 147/253/8 148/255/8 152/260/8 151/259/8
f 151/259/2 152/260/2 150/258/2 149/257/2
f 149/257/7 150/258/7 146/251/7 145/249/7
f 147/254/9 151/259/9 149/257/9 145/250/9
f 152/260/5 148/256/5 146/252/5 150/258/5
f 155/265/8 156/267/8 160/272/8 159/271/8
f 159/271/2 160/272/2 158/270/2 157/269/2
f 157/269/7 158/270/7 154/263/7 153/261/7
f 155/266/9 159/271/9 157/269/9 153/262/9
f 160/272/5 156/268/5 154/264/5 158/270/5
f 163/277/8 164/279/8 168/284/8 167/283/8
f 167/283/2 168/284/2 166/282/2 165/281/2
f 165/281/7 166/282/7 162/275/7 161/273/7
f 163/278/9 167/283/9 165/281/9 161/274/9
f 168/284/5 164/280/5 162/276/5 166/282/5
f 171/289/8 172/291/8 176/296/8 175/295/8
f 175/295/2 176/296/2 174/294/2 173/293/2
f 173/293/7 174/294/7 170/287/7 169/285/7
f 171/290/9 175/295/9 173/293/9 169/286/9
f 176/296/5 172/292/5 170/288/5 174/294/5
