# Blender 3.5.1
# www.blender.org
mtllib JazzCinema2.mtl
o KinoJazzDONE.003
v -0.226277 9.706393 -1.054798
v 0.161722 9.706393 -1.054798
v -0.226278 9.706393 4.975709
v 0.161721 9.706393 4.975709
v -0.226277 10.027074 -1.054798
v 0.161722 10.027074 -1.054798
v 0.161721 10.027074 4.975709
v -0.226278 10.027074 4.975709
v 0.161722 9.706393 4.455816
v -0.226278 9.706393 4.455816
v -0.226278 10.027074 4.455816
v 0.161722 10.027074 4.455816
v -0.226278 4.278438 4.975709
v 0.161721 4.278438 4.975709
v -0.226278 4.278438 4.455817
v 0.161722 4.278438 4.455817
v -0.142150 4.227374 2.468998
v -0.142150 9.757265 2.468997
v 0.077546 4.227374 2.468998
v 0.077546 9.757265 2.468997
v -0.142150 4.227375 4.609182
v -0.142150 9.757265 4.609182
v 0.077546 4.227375 4.609182
v 0.077546 9.757265 4.609182
v -0.142150 9.846437 2.468997
v 0.077546 9.846437 2.468997
v 0.077546 8.846437 4.609182
v -0.142150 8.846437 4.609182
v -0.142150 8.846437 -0.292539
v -0.142150 9.757265 -0.292539
v 0.077547 9.757265 -0.292539
v 0.077547 8.846437 -0.292539
v -3.000000 -0.000000 -2.495783
v -3.000000 10.740857 -2.495784
v 2.995592 -0.000000 -2.495783
v 2.995592 10.740857 -2.495784
v -3.000000 0.000000 2.500000
v -3.000000 9.846957 2.499999
v 2.995592 0.000000 2.500000
v 2.995592 9.846957 2.499999
v 2.995592 10.897586 -0.638253
v -3.000000 10.897586 -0.638253
v -3.000000 1.038765 2.500000
v -3.000000 1.041352 -2.495783
v 2.995592 1.046016 2.500000
v 2.995592 1.045968 -2.495783
v -0.002204 0.000000 2.500000
v -0.002204 9.846957 2.499999
v -0.002204 10.897586 -0.638253
v -3.000000 2.620761 2.500000
v 2.995592 2.626341 2.500000
v -0.002204 2.623551 1.067382
v -3.000000 4.436819 2.500000
v 2.995592 4.440479 2.500000
v -0.002204 4.438649 2.500000
v -0.002204 4.438650 5.682034
v -0.002204 2.623551 5.682035
v -1.875028 0.000000 2.500000
v -1.875028 1.040578 2.500000
v -1.875028 2.622156 2.500000
v 1.870623 0.000000 2.500000
v 1.870623 1.044204 2.500000
v 1.870623 2.624946 2.500000
v -1.875028 0.000000 1.067382
v -0.002204 0.000000 1.067382
v -1.875028 1.040578 1.067382
v -0.002204 1.042391 1.067382
v -1.875028 2.622156 1.067382
v 1.870623 0.000000 1.067382
v 1.870623 1.044204 1.067382
v 1.870623 2.624946 1.067382
v -2.831880 2.493822 2.262048
v -2.831880 2.735027 2.262048
v 0.295138 2.493824 5.600425
v 0.295138 2.735028 5.600425
v -3.150464 2.493822 2.601295
v -3.150464 2.735027 2.601295
v -0.023447 2.493824 5.939672
v -0.023447 2.735028 5.939672
v -0.050698 2.493824 5.231214
v -0.050698 2.735028 5.231214
v -0.369283 2.493824 5.570460
v -0.369283 2.735028 5.570460
v 3.125092 2.479182 2.644859
v 3.125092 2.720387 2.644859
v 2.779257 2.479182 2.275648
v 2.779257 2.720387 2.275648
v -2.831880 4.340593 2.262051
v -2.831880 4.581798 2.262051
v 0.295138 4.340593 5.600427
v 0.295138 4.581799 5.600427
v -3.150464 4.340593 2.601298
v -3.150464 4.581798 2.601298
v -0.023447 4.340593 5.939674
v -0.023447 4.581799 5.939674
v -0.050698 4.340593 5.231215
v -0.050698 4.581799 5.231215
v -0.369283 4.340593 5.570464
v -0.369283 4.581799 5.570464
v 3.125092 4.325952 2.644862
v 3.125092 4.567157 2.644862
v 2.779257 4.325952 2.275651
v 2.779257 4.567157 2.275651
v -0.601763 9.846957 2.499999
v -1.201322 9.846957 2.499999
v -1.800881 9.846957 2.499999
v -2.400440 9.846957 2.499999
v -2.400440 4.437185 2.500000
v -1.800881 4.437551 2.500000
v -1.201322 4.437917 2.500000
v -0.601763 4.438282 2.500000
v 2.396034 9.846957 2.499999
v 1.796474 9.846957 2.499999
v 1.196915 9.846957 2.499999
v 0.597356 9.846957 2.499999
v 0.597356 4.439015 2.500000
v 1.196915 4.439381 2.500000
v 1.796474 4.439747 2.500000
v 2.396034 4.440113 2.500000
v -0.601763 9.846957 2.148516
v -1.201322 9.846957 2.148516
v -1.800881 9.846957 2.148516
v -2.400440 9.846957 2.148517
v -2.400440 4.437185 2.148517
v -1.800881 4.437551 2.148517
v -1.201322 4.437917 2.148517
v -0.601763 4.438282 2.148517
v 2.396034 9.846957 2.148516
v 1.796474 9.846957 2.148516
v 1.196915 9.846957 2.148516
v 0.597356 9.846957 2.148516
v 0.597356 4.439015 2.148517
v 1.196915 4.439381 2.148517
v 1.796474 4.439747 2.148517
v 2.396034 4.440113 2.148517
v -2.333823 -0.000000 -2.495783
v -1.667646 -0.000000 -2.495783
v -1.001469 -0.000000 -2.495783
v -0.335292 -0.000000 -2.495783
v 0.330884 -0.000000 -2.495783
v 0.997061 -0.000000 -2.495783
v 1.663238 -0.000000 -2.495783
v 2.329415 -0.000000 -2.495783
v -2.333823 10.727148 -2.495783
v -1.667646 10.727660 -2.495783
v -1.001469 10.728173 -2.495783
v -0.335292 10.728686 -2.495783
v 0.330884 10.729199 -2.495783
v 0.997061 10.729712 -2.495783
v 1.663238 10.730225 -2.495783
v 2.329415 10.730738 -2.495783
v -2.333823 -0.000000 -2.064526
v -1.667646 -0.000000 -2.064526
v -1.001469 -0.000000 -2.064526
v -0.335292 -0.000000 -2.064526
v 0.330884 -0.000000 -2.064526
v 0.997061 -0.000000 -2.064526
v 1.663238 -0.000000 -2.064526
v 2.329415 -0.000000 -2.064526
v -2.333823 10.605808 -2.064526
v -1.667646 10.606320 -2.064526
v -1.001469 10.606833 -2.064526
v -0.335292 10.607347 -2.064526
v 0.330884 10.607860 -2.064526
v 0.997061 10.608372 -2.064526
v 1.663238 10.608885 -2.064526
v 2.329415 10.609398 -2.064526
vn 1.0000 -0.0000 -0.0000
vn -1.0000 -0.0000 -0.0000
vn -0.0000 -0.0000 1.0000
vn -0.0000 -0.0000 -1.0000
vn -0.0000 1.0000 -0.0000
vn -0.0000 -1.0000 -0.0000
vn -0.0000 -0.9403 0.3405
vn -0.0000 0.9483 0.3175
vn 0.0007 -1.0000 -0.0000
vn -0.0006 1.0000 -0.0000
vn 0.7279 -0.0000 0.6857
vn -0.7279 -0.0000 0.6857
vn 0.0009 -1.0000 0.0001
vn 0.0009 -1.0000 -0.0001
vn 0.7290 -0.0000 0.6846
vn -0.7298 -0.0000 0.6836
vn -0.7290 -0.0000 -0.6846
vn -0.0026 -1.0000 0.0024
vn 0.7223 -0.0000 0.6916
vn 0.0026 1.0000 -0.0024
vn 0.7298 -0.0000 -0.6836
vn 0.0007 -0.9626 -0.2708
vn -0.0151 0.9963 -0.0841
vn -0.0008 0.9960 -0.0892
vn -0.0000 0.9959 -0.0903
vn -0.0008 0.9959 -0.0904
vn -0.0000 0.9959 -0.0906
vn -0.0008 0.9958 -0.0916
vn 0.0205 0.9962 -0.0841
vt 0.863051 0.417333
vt 0.863051 0.397384
vt 0.858064 0.412346
vt 0.863051 0.402371
vt 0.858064 0.407359
vt 0.863051 0.412346
vt 0.863051 0.407359
vt 0.867217 0.417333
vt 0.867217 0.397384
vt 0.867217 0.402371
vt 0.867217 0.407359
vt 0.867217 0.412346
vt 0.863051 0.406929
vt 0.862621 0.407359
vt 0.862621 0.412346
vt 0.863051 0.412776
vt 0.867217 0.411056
vt 0.867217 0.412776
vt 0.867217 0.406929
vt 0.863051 0.412346
vt 0.863051 0.407359
vt 0.862621 0.412346
vt 0.863051 0.412776
vt 0.863051 0.406929
vt 0.862621 0.407359
vt 0.778727 0.460934
vt 0.897781 0.347459
vt 0.795468 0.410711
vt 0.914522 0.347459
vt 0.828950 0.460934
vt 0.812209 0.477675
vt 0.778727 0.444193
vt 0.897781 0.297236
vt 0.795468 0.427452
vt 0.914522 0.297236
vt 0.828950 0.444193
vt 0.812209 0.427452
vt 0.897781 0.330718
vt 0.795468 0.460934
vt 0.914522 0.330718
vt 0.812209 0.460934
vt 0.795468 0.444193
vt 0.897781 0.313976
vt 0.914522 0.313976
vt 0.812209 0.444193
vt 0.911765 0.347459
vt 0.809452 0.477675
vt 0.809452 0.410711
vt 0.911765 0.297236
vt 0.809452 0.427452
vt 0.809452 0.444193
vt 0.911765 0.313976
vt 0.911765 0.330718
vt 0.809452 0.460934
vt 0.809452 0.477675
vt 0.809452 0.410711
vt 0.828950 0.460934
vt 0.812209 0.410711
vt 0.812209 0.477675
vt 0.828950 0.444193
vt 0.812209 0.427452
vt 0.809452 0.427452
vt 0.838697 0.402475
vt 0.843217 0.558308
vt 0.806251 0.564270
vt 0.792690 0.564270
vt 0.864304 0.382150
vt 0.853377 0.395418
vt 0.843217 0.566411
vt 0.839957 0.547617
vt 0.824954 0.547617
vt 0.864304 0.391427
vt 0.838697 0.391132
vt 0.806251 0.537502
vt 0.852629 0.416396
vt 0.792690 0.537502
vt 0.788548 0.546318
vt 0.853377 0.403544
vt 0.834668 0.566791
vt 0.824954 0.566791
vt 0.783834 0.546318
vt 0.852629 0.413793
vt 0.839957 0.566791
vt 0.858788 0.414054
vt 0.858788 0.414314
vt 0.858788 0.414574
vt 0.858787 0.414835
vt 0.867189 0.391427
vt 0.813635 0.537502
vt 0.858787 0.416396
vt 0.858787 0.415355
vt 0.858787 0.415615
vt 0.858787 0.415876
vt 0.858787 0.416136
vt 0.867189 0.382150
vt 0.839139 0.391132
vt 0.788548 0.597102
vt 0.785350 0.537502
vt 0.839079 0.402475
vt 0.788914 0.564270
vt 0.785210 0.564270
vt 0.786935 0.564270
vt 0.845098 0.558308
vt 0.819701 0.566791
vt 0.853695 0.403544
vt 0.783834 0.597049
vt 0.853652 0.395418
vt 0.820833 0.547617
vt 0.843866 0.566411
vt 0.822250 0.547617
vt 0.521718 0.738084
vt 0.786191 0.546318
vt 0.852629 0.415095
vt 0.858787 0.415095
vt 0.867189 0.386789
vt 0.787042 0.537502
vt 0.797962 0.708785
vt 0.788548 0.585394
vt 0.820912 0.566791
vt 0.786303 0.708682
vt 0.783834 0.585352
vt 0.786191 0.585373
vt 0.788985 0.537502
vt 0.797962 0.675545
vt 0.788548 0.571953
vt 0.822302 0.566791
vt 0.786303 0.675478
vt 0.783834 0.571926
vt 0.786191 0.571939
vt 0.792133 0.675512
vt 0.786191 0.571939
vt 0.792133 0.708734
vt 0.786191 0.585373
vt 0.521718 0.738084
vt 0.842367 0.394235
vt 0.787370 0.597089
vt 0.842778 0.394235
vt 0.787370 0.585383
vt 0.521718 0.738084
vt 0.849707 0.400441
vt 0.785012 0.597062
vt 0.850056 0.400441
vt 0.785012 0.585363
vt 0.521718 0.738084
vt 0.842367 0.394235
vt 0.521718 0.738084
vt 0.846037 0.397338
vt 0.787370 0.597089
vt 0.842778 0.394235
vt 0.786191 0.597075
vt 0.846417 0.397338
vt 0.787370 0.585383
vt 0.521718 0.738084
vt 0.849707 0.400441
vt 0.785012 0.597062
vt 0.850056 0.400441
vt 0.785012 0.585363
vt 0.841214 0.412974
vt 0.838467 0.410226
vt 0.843962 0.412974
vt 0.846710 0.410226
vt 0.838467 0.407478
vt 0.841214 0.404730
vt 0.843962 0.404730
vt 0.846710 0.407478
vt 0.841214 0.410226
vt 0.843962 0.410226
vt 0.841214 0.407478
vt 0.843962 0.407478
vt 0.838467 0.407782
vt 0.846710 0.407782
vt 0.841214 0.407782
vt 0.843962 0.407782
vt 0.841214 0.404730
vt 0.838467 0.407478
vt 0.846710 0.407478
vt 0.843962 0.404730
vt 0.838467 0.407782
vt 0.846710 0.407782
vt 0.841214 0.412974
vt 0.838467 0.410226
vt 0.843962 0.412974
vt 0.846710 0.410226
vt 0.838467 0.407478
vt 0.841214 0.404730
vt 0.843962 0.404730
vt 0.846710 0.407478
vt 0.841214 0.410226
vt 0.843962 0.410226
vt 0.841214 0.407478
vt 0.843962 0.407478
vt 0.838467 0.407782
vt 0.846710 0.407782
vt 0.841214 0.407782
vt 0.843962 0.407782
vt 0.841214 0.404730
vt 0.838467 0.407478
vt 0.846710 0.407478
vt 0.843962 0.404730
vt 0.838467 0.407782
vt 0.846710 0.407782
vt 0.852629 0.415355
vt 0.786663 0.546318
vt 0.852629 0.415615
vt 0.787134 0.546318
vt 0.852629 0.415876
vt 0.787605 0.546318
vt 0.852629 0.416136
vt 0.788077 0.546318
vt 0.788077 0.571950
vt 0.787606 0.571947
vt 0.787134 0.571945
vt 0.786663 0.571942
vt 0.784305 0.546318
vt 0.852629 0.414054
vt 0.784777 0.546318
vt 0.852629 0.414314
vt 0.785248 0.546318
vt 0.852629 0.414574
vt 0.785720 0.546318
vt 0.852629 0.414835
vt 0.785720 0.571936
vt 0.785248 0.571934
vt 0.784777 0.571931
vt 0.784305 0.571928
vt 0.864531 0.402669
vt 0.852629 0.415355
vt 0.786663 0.546318
vt 0.864731 0.402669
vt 0.852629 0.415615
vt 0.787134 0.546318
vt 0.864930 0.402669
vt 0.852629 0.415876
vt 0.787605 0.546318
vt 0.865130 0.402669
vt 0.852629 0.416136
vt 0.788077 0.546318
vt 0.865130 0.413531
vt 0.788077 0.571950
vt 0.864930 0.413530
vt 0.787606 0.571947
vt 0.864731 0.413529
vt 0.787134 0.571945
vt 0.864531 0.413527
vt 0.786663 0.571942
vt 0.784305 0.546318
vt 0.863532 0.402669
vt 0.852629 0.414054
vt 0.784777 0.546318
vt 0.863732 0.402669
vt 0.852629 0.414314
vt 0.863931 0.402669
vt 0.785248 0.546318
vt 0.852629 0.414574
vt 0.864131 0.402669
vt 0.785720 0.546318
vt 0.852629 0.414835
vt 0.864131 0.413525
vt 0.785720 0.571936
vt 0.863931 0.413524
vt 0.785248 0.571934
vt 0.784777 0.571931
vt 0.863732 0.413523
vt 0.784305 0.571928
vt 0.863532 0.413522
vt 0.000000 0.000000
vt 0.843217 0.559209
vt 0.000000 0.000000
vt 0.843217 0.560109
vt 0.000000 0.000000
vt 0.843217 0.561009
vt 0.000000 0.000000
vt 0.843217 0.561909
vt 0.000000 0.000000
vt 0.843217 0.562810
vt 0.000000 0.000000
vt 0.843217 0.563710
vt 0.843217 0.564611
vt 0.000000 0.000000
vt 0.843217 0.565511
vt 0.000000 0.000000
vt 0.864303 0.383181
vt 0.845739 0.559208
vt 0.864303 0.384212
vt 0.845671 0.560109
vt 0.864303 0.385242
vt 0.845602 0.561009
vt 0.864303 0.386273
vt 0.845534 0.561909
vt 0.864303 0.387304
vt 0.845466 0.562810
vt 0.864303 0.388335
vt 0.845397 0.563710
vt 0.845329 0.564611
vt 0.864303 0.389365
vt 0.845261 0.565511
vt 0.864303 0.390396
vt 0.871329 0.382150
vt 0.000000 0.000000
vt 0.843217 0.559209
vt 0.870299 0.382150
vt 0.000000 0.000000
vt 0.843217 0.560109
vt 0.869263 0.398563
vt 0.000000 0.000000
vt 0.843217 0.561009
vt 0.870294 0.398563
vt 0.000000 0.000000
vt 0.843217 0.561909
vt 0.869259 0.382150
vt 0.000000 0.000000
vt 0.843217 0.562810
vt 0.868228 0.382150
vt 0.000000 0.000000
vt 0.843217 0.563710
vt 0.843217 0.564611
vt 0.000000 0.000000
vt 0.868224 0.382150
vt 0.843217 0.565511
vt 0.000000 0.000000
vt 0.867193 0.382150
vt 0.871329 0.398560
vt 0.845739 0.559208
vt 0.870299 0.398561
vt 0.845671 0.560109
vt 0.869263 0.382151
vt 0.845602 0.561009
vt 0.870294 0.382150
vt 0.845534 0.561909
vt 0.869259 0.398564
vt 0.845466 0.562810
vt 0.868228 0.398564
vt 0.845397 0.563710
vt 0.845329 0.564611
vt 0.868224 0.398565
vt 0.845261 0.565511
vt 0.867193 0.398566
s 0
usemtl BasicTexture
f 9/13/1 4/7/1 14/21/1 16/24/1
f 10/16/2 11/18/2 5/8/2 1/1/2
f 4/7/3 7/11/3 8/12/3 3/6/3
f 9/13/1 12/19/1 7/11/1 4/7/1
f 1/2/4 5/9/4 6/10/4 2/4/4
f 11/17/5 12/19/5 6/10/5 5/9/5
f 8/12/5 7/11/5 12/19/5 11/17/5
f 2/4/1 6/10/1 12/19/1 9/13/1
f 3/6/2 8/12/2 11/18/2 10/16/2
f 2/5/6 9/14/6 10/15/6 1/3/6
f 10/15/4 9/14/4 16/25/4 15/22/4
f 3/6/2 10/16/2 15/23/2 13/20/2
f 4/7/3 3/6/3 13/20/3 14/21/3
f 18/30/5 20/36/5 31/60/5 30/57/5
f 26/49/1 20/35/1 24/44/1 27/52/1
f 27/51/3 24/45/3 22/41/3 28/54/3
f 28/53/2 22/40/2 18/29/2 25/46/2
f 19/32/6 23/42/6 21/39/6 17/26/6
f 24/45/5 20/36/5 18/30/5 22/41/5
f 21/38/2 28/53/2 25/46/2 17/27/2
f 23/42/3 27/51/3 28/54/3 21/39/3
f 19/33/1 26/49/1 27/52/1 23/43/1
f 17/28/4 25/48/4 26/50/4 19/34/4
f 29/56/4 30/58/4 31/61/4 32/62/4
f 20/37/1 26/50/1 32/62/1 31/61/1
f 25/47/2 18/31/2 30/59/2 29/55/2
f 26/50/7 25/48/7 29/56/7 32/62/7
f 38/74/2 42/89/2 34/65/2
f 37/73/2 43/96/2 44/99/2 33/63/2
f 35/68/1 46/107/1 45/105/1 39/78/1
f 107/208/8 42/90/8 38/75/8
f 36/70/1 41/83/1 40/79/1
f 44/100/2 53/123/2 38/76/2 34/66/2
f 54/126/1 46/110/1 36/71/1 40/80/1
f 58/135/3 59/137/3 43/96/3 37/73/3
f 60/138/3 50/118/3 43/97/3 59/136/3
f 47/111/5 61/139/5 69/153/5 65/146/5
f 63/143/9 52/122/9 71/157/9
f 115/221/8 41/87/8 49/114/8 48/113/8
f 54/128/10 119/225/10 118/224/10 117/223/10 116/222/10 55/129/10 56/131/10
f 45/104/1 46/108/1 51/119/1
f 44/101/2 43/98/2 50/116/2
f 143/280/4 151/296/4 46/109/4 35/69/4
f 107/209/3 38/77/3 53/125/3 108/210/3
f 115/220/3 48/112/3 55/129/3 116/222/3
f 51/119/1 46/110/1 54/126/1
f 44/102/2 50/116/2 53/123/2
f 54/127/11 56/130/11 57/132/11 51/120/11
f 56/130/12 53/124/12 50/117/12 57/132/12
f 52/122/13 63/143/13 51/121/13 57/133/13
f 50/118/14 60/138/14 52/122/14 57/133/14
f 55/129/10 111/213/10 110/212/10 109/211/10 108/210/10 53/125/10 56/131/10
f 58/134/5 47/111/5 65/146/5 64/144/5
f 62/141/2 63/143/2 71/157/2 70/155/2
f 39/78/3 45/105/3 62/142/3 61/140/3
f 51/121/3 63/143/3 62/141/3 45/106/3
f 71/157/3 52/122/3 67/150/3 70/155/3
f 69/154/3 70/156/3 67/151/3 65/147/3
f 52/122/3 68/152/3 66/148/3 67/150/3
f 65/147/3 67/151/3 66/149/3 64/145/3
f 60/138/1 59/136/1 66/148/1 68/152/1
f 52/122/9 60/138/9 68/152/9
f 61/140/2 62/142/2 70/156/2 69/154/2
f 59/137/1 58/135/1 64/145/1 66/149/1
f 74/163/15 75/164/15 79/169/15 78/168/15
f 82/172/16 83/173/16 77/167/16 76/166/16
f 76/166/17 77/167/17 73/160/17 72/158/17
f 80/170/6 82/172/6 76/166/6 72/159/6
f 83/173/5 81/171/5 73/161/5 77/167/5
f 79/169/5 75/165/5 81/171/5 83/173/5
f 74/162/6 78/168/6 82/172/6 80/170/6
f 78/168/16 79/169/16 83/173/16 82/172/16
f 74/162/18 80/170/18 86/178/18 84/175/18
f 75/164/19 74/163/19 84/174/19 85/177/19
f 81/171/20 75/165/20 85/176/20 87/179/20
f 87/179/21 85/177/21 84/175/21 86/178/21
f 90/185/15 91/186/15 95/191/15 94/190/15
f 98/194/16 99/195/16 93/189/16 92/188/16
f 92/188/17 93/189/17 89/182/17 88/180/17
f 96/192/6 98/194/6 92/188/6 88/181/6
f 99/195/5 97/193/5 89/183/5 93/189/5
f 95/191/5 91/187/5 97/193/5 99/195/5
f 90/184/6 94/190/6 98/194/6 96/192/6
f 94/190/16 95/191/16 99/195/16 98/194/16
f 90/184/18 96/192/18 102/200/18 100/197/18
f 91/186/19 90/185/19 100/196/19 101/199/19
f 97/193/20 91/187/20 101/198/20 103/201/20
f 103/201/21 101/199/21 100/197/21 102/200/21
f 48/112/3 104/203/3 111/213/3 55/129/3
f 113/216/1 118/224/1 134/262/1 129/249/1
f 105/205/3 106/207/3 109/211/3 110/212/3
f 110/212/10 111/213/10 127/245/10 126/243/10
f 48/113/8 49/114/8 42/91/8 104/202/8
f 104/202/8 42/92/8 105/204/8
f 105/204/8 42/93/8 106/206/8
f 106/206/8 42/94/8 107/208/8
f 40/81/3 112/214/3 119/225/3 54/128/3
f 119/225/2 112/214/2 128/246/2 135/264/2
f 113/216/3 114/218/3 117/223/3 118/224/3
f 118/224/10 119/225/10 135/264/10 134/262/10
f 40/82/8 41/84/8 112/215/8
f 112/215/8 41/85/8 113/217/8
f 113/217/8 41/86/8 114/219/8
f 114/219/8 41/87/8 115/221/8
f 120/226/3 121/229/3 126/242/3 127/244/3
f 122/232/3 123/235/3 124/238/3 125/240/3
f 128/247/3 129/250/3 134/263/3 135/265/3
f 130/252/3 131/255/3 132/258/3 133/260/3
f 104/202/6 105/204/6 121/230/6 120/227/6
f 111/213/2 104/203/2 120/228/2 127/245/2
f 117/223/2 114/218/2 130/253/2 133/261/2
f 105/205/1 110/212/1 126/243/1 121/231/1
f 115/220/1 116/222/1 132/259/1 131/256/1
f 106/206/6 107/208/6 123/236/6 122/233/6
f 109/211/2 106/207/2 122/234/2 125/241/2
f 112/215/6 113/217/6 129/251/6 128/248/6
f 116/222/10 117/223/10 133/261/10 132/259/10
f 107/209/1 108/210/1 124/239/1 123/237/1
f 114/219/6 115/221/6 131/257/6 130/254/6
f 108/210/10 109/211/10 125/241/10 124/239/10
f 33/64/4 44/103/4 144/283/4 136/267/4
f 151/296/2 143/280/2 159/319/2 167/336/2
f 137/269/4 145/285/4 146/287/4 138/271/4
f 150/294/22 151/296/22 167/336/22 166/334/22
f 139/273/4 147/289/4 148/291/4 140/275/4
f 142/278/1 150/294/1 166/334/1 158/316/1
f 141/277/4 149/293/4 150/294/4 142/278/4
f 143/281/5 142/279/5 158/317/5 159/320/5
f 151/296/4 36/71/4 46/110/4
f 44/103/4 34/66/4 144/283/4
f 41/88/23 36/72/23 151/297/23
f 151/297/24 150/295/24 41/88/24
f 150/295/24 149/292/24 41/88/24
f 149/292/24 148/290/24 41/88/24
f 41/88/25 148/290/25 49/115/25
f 148/290/26 147/288/26 49/115/26
f 49/115/27 147/288/27 42/95/27
f 147/288/28 146/286/28 42/95/28
f 146/286/28 145/284/28 42/95/28
f 145/284/28 144/282/28 42/95/28
f 42/95/29 144/282/29 34/67/29
f 152/298/4 160/322/4 161/324/4 153/301/4
f 154/304/4 162/326/4 163/328/4 155/307/4
f 156/310/4 164/330/4 165/332/4 157/313/4
f 158/318/4 166/335/4 167/337/4 159/321/4
f 137/268/5 136/266/5 152/299/5 153/302/5
f 136/267/1 144/283/1 160/323/1 152/300/1
f 144/283/22 145/285/22 161/325/22 160/323/22
f 145/285/2 137/269/2 153/303/2 161/325/2
f 139/272/5 138/270/5 154/305/5 155/308/5
f 138/271/1 146/287/1 162/327/1 154/306/1
f 146/287/22 147/289/22 163/329/22 162/327/22
f 147/289/2 139/273/2 155/309/2 163/329/2
f 141/276/5 140/274/5 156/311/5 157/314/5
f 140/275/1 148/291/1 164/331/1 156/312/1
f 148/291/22 149/293/22 165/333/22 164/331/22
f 149/293/2 141/277/2 157/315/2 165/333/2
