# Blender 3.5.1
# www.blender.org
mtllib JazzCinema1.mtl
o KinoJazzDONE
v -0.226277 9.706393 -1.054798
v 0.161722 9.706393 -1.054798
v -0.226278 9.706393 4.975709
v 0.161721 9.706393 4.975709
v -0.226277 10.027074 -1.054798
v 0.161722 10.027074 -1.054798
v 0.161721 10.027074 4.975709
v -0.226278 10.027074 4.975709
v 0.161722 9.706393 4.455816
v -0.226278 9.706393 4.455816
v -0.226278 10.027074 4.455816
v 0.161722 10.027074 4.455816
v -0.226278 4.278438 4.975709
v 0.161721 4.278438 4.975709
v -0.226278 4.278438 4.455817
v 0.161722 4.278438 4.455817
v -0.142150 4.227374 2.468998
v -0.142150 9.757265 2.468997
v 0.077546 4.227374 2.468998
v 0.077546 9.757265 2.468997
v -0.142150 4.227375 4.609182
v -0.142150 9.757265 4.609182
v 0.077546 4.227375 4.609182
v 0.077546 9.757265 4.609182
v -0.142150 9.846437 2.468997
v 0.077546 9.846437 2.468997
v 0.077546 8.846437 4.609182
v -0.142150 8.846437 4.609182
v -0.142150 8.846437 -0.292539
v -0.142150 9.757265 -0.292539
v 0.077547 9.757265 -0.292539
v 0.077547 8.846437 -0.292539
v -3.000000 -0.000000 -2.495783
v -3.000000 10.740857 -2.495784
v 2.995592 -0.000000 -2.495783
v 2.995592 10.740857 -2.495784
v -3.000000 0.000000 2.500000
v -3.000000 9.846957 2.499999
v 2.995592 0.000000 2.500000
v 2.995592 9.846957 2.499999
v 2.995592 10.897586 -0.638253
v -3.000000 10.897586 -0.638253
v -3.000000 1.038765 2.500000
v -3.000000 1.041352 -2.495783
v 2.995592 1.046016 2.500000
v 2.995592 1.045968 -2.495783
v -0.002204 0.000000 2.500000
v -0.002204 9.846957 2.499999
v -0.002204 10.897586 -0.638253
v -3.000000 2.620761 2.500000
v 2.995592 2.626341 2.500000
v -0.002204 2.623551 1.067382
v -3.000000 4.436819 2.500000
v 2.995592 4.440479 2.500000
v -0.002204 4.438649 2.500000
v -0.002204 4.438650 5.682034
v -0.002204 2.623551 5.682035
v -1.875028 0.000000 2.500000
v -1.875028 1.040578 2.500000
v -1.875028 2.622156 2.500000
v 1.870623 0.000000 2.500000
v 1.870623 1.044204 2.500000
v 1.870623 2.624946 2.500000
v -1.875028 0.000000 1.067382
v -0.002204 0.000000 1.067382
v -1.875028 1.040578 1.067382
v -0.002204 1.042391 1.067382
v -1.875028 2.622156 1.067382
v 1.870623 0.000000 1.067382
v 1.870623 1.044204 1.067382
v 1.870623 2.624946 1.067382
v -2.831880 2.493822 2.262048
v -2.831880 2.735027 2.262048
v 0.295138 2.493824 5.600425
v 0.295138 2.735028 5.600425
v -3.150464 2.493822 2.601295
v -3.150464 2.735027 2.601295
v -0.023447 2.493824 5.939672
v -0.023447 2.735028 5.939672
v -0.050698 2.493824 5.231214
v -0.050698 2.735028 5.231214
v -0.369283 2.493824 5.570460
v -0.369283 2.735028 5.570460
v 3.125092 2.479182 2.644859
v 3.125092 2.720387 2.644859
v 2.779257 2.479182 2.275648
v 2.779257 2.720387 2.275648
v -2.831880 4.340593 2.262051
v -2.831880 4.581798 2.262051
v 0.295138 4.340593 5.600427
v 0.295138 4.581799 5.600427
v -3.150464 4.340593 2.601298
v -3.150464 4.581798 2.601298
v -0.023447 4.340593 5.939674
v -0.023447 4.581799 5.939674
v -0.050698 4.340593 5.231215
v -0.050698 4.581799 5.231215
v -0.369283 4.340593 5.570464
v -0.369283 4.581799 5.570464
v 3.125092 4.325952 2.644862
v 3.125092 4.567157 2.644862
v 2.779257 4.325952 2.275651
v 2.779257 4.567157 2.275651
v -0.601763 9.846957 2.499999
v -1.201322 9.846957 2.499999
v -1.800881 9.846957 2.499999
v -2.400440 9.846957 2.499999
v -2.400440 4.437185 2.500000
v -1.800881 4.437551 2.500000
v -1.201322 4.437917 2.500000
v -0.601763 4.438282 2.500000
v 2.396034 9.846957 2.499999
v 1.796474 9.846957 2.499999
v 1.196915 9.846957 2.499999
v 0.597356 9.846957 2.499999
v 0.597356 4.439015 2.500000
v 1.196915 4.439381 2.500000
v 1.796474 4.439747 2.500000
v 2.396034 4.440113 2.500000
v -0.601763 9.846957 2.148516
v -1.201322 9.846957 2.148516
v -1.800881 9.846957 2.148516
v -2.400440 9.846957 2.148517
v -2.400440 4.437185 2.148517
v -1.800881 4.437551 2.148517
v -1.201322 4.437917 2.148517
v -0.601763 4.438282 2.148517
v 2.396034 9.846957 2.148516
v 1.796474 9.846957 2.148516
v 1.196915 9.846957 2.148516
v 0.597356 9.846957 2.148516
v 0.597356 4.439015 2.148517
v 1.196915 4.439381 2.148517
v 1.796474 4.439747 2.148517
v 2.396034 4.440113 2.148517
v -2.333823 -0.000000 -2.495783
v -1.667646 -0.000000 -2.495783
v -1.001469 -0.000000 -2.495783
v -0.335292 -0.000000 -2.495783
v 0.330884 -0.000000 -2.495783
v 0.997061 -0.000000 -2.495783
v 1.663238 -0.000000 -2.495783
v 2.329415 -0.000000 -2.495783
v -2.333823 10.727148 -2.495783
v -1.667646 10.727660 -2.495783
v -1.001469 10.728173 -2.495783
v -0.335292 10.728686 -2.495783
v 0.330884 10.729199 -2.495783
v 0.997061 10.729712 -2.495783
v 1.663238 10.730225 -2.495783
v 2.329415 10.730738 -2.495783
v -2.333823 -0.000000 -2.064526
v -1.667646 -0.000000 -2.064526
v -1.001469 -0.000000 -2.064526
v -0.335292 -0.000000 -2.064526
v 0.330884 -0.000000 -2.064526
v 0.997061 -0.000000 -2.064526
v 1.663238 -0.000000 -2.064526
v 2.329415 -0.000000 -2.064526
v -2.333823 10.605808 -2.064526
v -1.667646 10.606320 -2.064526
v -1.001469 10.606833 -2.064526
v -0.335292 10.607347 -2.064526
v 0.330884 10.607860 -2.064526
v 0.997061 10.608372 -2.064526
v 1.663238 10.608885 -2.064526
v 2.329415 10.609398 -2.064526
vn 1.0000 -0.0000 -0.0000
vn -1.0000 -0.0000 -0.0000
vn -0.0000 -0.0000 1.0000
vn -0.0000 -0.0000 -1.0000
vn -0.0000 1.0000 -0.0000
vn -0.0000 -1.0000 -0.0000
vn -0.0000 -0.9403 0.3405
vn -0.0000 0.9483 0.3175
vn 0.0007 -1.0000 -0.0000
vn -0.0006 1.0000 -0.0000
vn 0.7279 -0.0000 0.6857
vn -0.7279 -0.0000 0.6857
vn 0.0009 -1.0000 0.0001
vn 0.0009 -1.0000 -0.0001
vn 0.7290 -0.0000 0.6846
vn -0.7298 -0.0000 0.6836
vn -0.7290 -0.0000 -0.6846
vn -0.0026 -1.0000 0.0024
vn 0.7223 -0.0000 0.6916
vn 0.0026 1.0000 -0.0024
vn 0.7298 -0.0000 -0.6836
vn 0.0007 -0.9626 -0.2708
vn -0.0151 0.9963 -0.0841
vn -0.0008 0.9960 -0.0892
vn -0.0000 0.9959 -0.0903
vn -0.0008 0.9959 -0.0904
vn -0.0000 0.9959 -0.0906
vn -0.0008 0.9958 -0.0916
vn 0.0205 0.9962 -0.0841
vt 0.195588 0.967462
vt 0.195588 0.851041
vt 0.166483 0.938357
vt 0.195588 0.880147
vt 0.166483 0.909252
vt 0.195588 0.938357
vt 0.195588 0.909252
vt 0.219899 0.967462
vt 0.219899 0.851041
vt 0.219899 0.880147
vt 0.219899 0.909252
vt 0.219899 0.938357
vt 0.195588 0.906743
vt 0.193079 0.909252
vt 0.193079 0.938357
vt 0.195588 0.940866
vt 0.219899 0.930830
vt 0.219899 0.940866
vt 0.219899 0.906743
vt 0.195588 0.938357
vt 0.195588 0.909252
vt 0.193079 0.938357
vt 0.195588 0.940866
vt 0.195588 0.906743
vt 0.193079 0.909252
vt 0.778727 0.460934
vt 0.795468 0.477675
vt 0.795468 0.410711
vt 0.828950 0.460934
vt 0.812209 0.477675
vt 0.778727 0.444193
vt 0.795468 0.427452
vt 0.828950 0.444193
vt 0.812209 0.427452
vt 0.795468 0.460934
vt 0.812209 0.460934
vt 0.795468 0.444193
vt 0.812209 0.444193
vt 0.809452 0.477675
vt 0.809452 0.410711
vt 0.809452 0.427452
vt 0.809452 0.444193
vt 0.809452 0.460934
vt 0.809452 0.477675
vt 0.809452 0.410711
vt 0.828950 0.460934
vt 0.812209 0.410711
vt 0.812209 0.477675
vt 0.828950 0.444193
vt 0.812209 0.427452
vt 0.809452 0.427452
vt 0.053462 0.880754
vt 0.911426 0.880749
vt 0.874460 0.886711
vt 0.860899 0.886711
vt 0.202903 0.762139
vt 0.139130 0.839572
vt 0.911426 0.888852
vt 0.908166 0.870058
vt 0.893163 0.870058
vt 0.202903 0.816280
vt 0.053462 0.814558
vt 0.874460 0.859943
vt 0.134766 0.961995
vt 0.860899 0.859943
vt 0.856757 0.868759
vt 0.139130 0.886990
vt 0.902877 0.889232
vt 0.893163 0.889232
vt 0.852043 0.868759
vt 0.134766 0.946805
vt 0.908166 0.889232
vt 0.170708 0.948324
vt 0.170708 0.949843
vt 0.170708 0.951362
vt 0.170707 0.952881
vt 0.219736 0.816279
vt 0.881844 0.859943
vt 0.170707 0.961995
vt 0.170707 0.955919
vt 0.170707 0.957438
vt 0.170707 0.958957
vt 0.170707 0.960476
vt 0.219736 0.762140
vt 0.056040 0.814558
vt 0.856757 0.919543
vt 0.853559 0.859943
vt 0.055693 0.880754
vt 0.857123 0.886711
vt 0.853419 0.886711
vt 0.855144 0.886711
vt 0.913307 0.880749
vt 0.887910 0.889232
vt 0.140990 0.886990
vt 0.852043 0.919490
vt 0.140736 0.839572
vt 0.889042 0.870058
vt 0.912075 0.888852
vt 0.890459 0.870058
vt 0.521718 0.738084
vt 0.854400 0.868759
vt 0.134766 0.954400
vt 0.170707 0.954400
vt 0.219736 0.789209
vt 0.855251 0.859943
vt 0.797962 0.708785
vt 0.856757 0.907835
vt 0.889121 0.889232
vt 0.786303 0.708682
vt 0.852043 0.907793
vt 0.854400 0.907814
vt 0.857194 0.859943
vt 0.797962 0.675545
vt 0.856757 0.894394
vt 0.890511 0.889232
vt 0.786303 0.675478
vt 0.852043 0.894367
vt 0.854400 0.894380
vt 0.792133 0.675512
vt 0.854400 0.894380
vt 0.792133 0.708734
vt 0.854400 0.907814
vt 0.521718 0.738084
vt 0.074879 0.832666
vt 0.855579 0.919530
vt 0.077277 0.832666
vt 0.855579 0.907824
vt 0.521718 0.738084
vt 0.117713 0.868882
vt 0.853221 0.919503
vt 0.119752 0.868882
vt 0.853221 0.907804
vt 0.521718 0.738084
vt 0.074879 0.832666
vt 0.521718 0.738084
vt 0.096296 0.850774
vt 0.855579 0.919530
vt 0.077277 0.832666
vt 0.854400 0.919516
vt 0.098515 0.850774
vt 0.855579 0.907824
vt 0.521718 0.738084
vt 0.117713 0.868882
vt 0.853221 0.919503
vt 0.119752 0.868882
vt 0.853221 0.907804
vt 0.068154 0.942022
vt 0.052118 0.925987
vt 0.084190 0.942022
vt 0.100226 0.925987
vt 0.052118 0.909951
vt 0.068154 0.893915
vt 0.084190 0.893915
vt 0.100226 0.909951
vt 0.068154 0.925987
vt 0.084190 0.925987
vt 0.068154 0.909951
vt 0.084190 0.909951
vt 0.052118 0.911724
vt 0.100226 0.911724
vt 0.068154 0.911724
vt 0.084190 0.911724
vt 0.068154 0.893915
vt 0.052118 0.909951
vt 0.100226 0.909951
vt 0.084190 0.893915
vt 0.052118 0.911724
vt 0.100226 0.911724
vt 0.068154 0.942022
vt 0.052118 0.925987
vt 0.084190 0.942022
vt 0.100226 0.925987
vt 0.052118 0.909951
vt 0.068154 0.893915
vt 0.084190 0.893915
vt 0.100226 0.909951
vt 0.068154 0.925987
vt 0.084190 0.925987
vt 0.068154 0.909951
vt 0.084190 0.909951
vt 0.052118 0.911724
vt 0.100226 0.911724
vt 0.068154 0.911724
vt 0.084190 0.911724
vt 0.068154 0.893915
vt 0.052118 0.909951
vt 0.100226 0.909951
vt 0.084190 0.893915
vt 0.052118 0.911724
vt 0.100226 0.911724
vt 0.134766 0.955919
vt 0.854872 0.868759
vt 0.134766 0.957438
vt 0.855343 0.868759
vt 0.134766 0.958957
vt 0.855814 0.868759
vt 0.134766 0.960476
vt 0.856286 0.868759
vt 0.856286 0.894391
vt 0.855815 0.894388
vt 0.855343 0.894386
vt 0.854872 0.894383
vt 0.852514 0.868759
vt 0.134766 0.948324
vt 0.852986 0.868759
vt 0.134766 0.949843
vt 0.853457 0.868759
vt 0.134766 0.951362
vt 0.853929 0.868759
vt 0.134766 0.952881
vt 0.853929 0.894377
vt 0.853457 0.894375
vt 0.852986 0.894372
vt 0.852514 0.894369
vt 0.204224 0.881884
vt 0.134766 0.955919
vt 0.854872 0.868759
vt 0.205390 0.881884
vt 0.134766 0.957438
vt 0.855343 0.868759
vt 0.206556 0.881884
vt 0.134766 0.958957
vt 0.855814 0.868759
vt 0.207722 0.881884
vt 0.134766 0.960476
vt 0.856286 0.868759
vt 0.207722 0.945273
vt 0.856286 0.894391
vt 0.206556 0.945266
vt 0.855815 0.894388
vt 0.205390 0.945259
vt 0.855343 0.894386
vt 0.204224 0.945253
vt 0.854872 0.894383
vt 0.852514 0.868759
vt 0.198394 0.881884
vt 0.134766 0.948324
vt 0.852986 0.868759
vt 0.199560 0.881884
vt 0.134766 0.949843
vt 0.200726 0.881884
vt 0.853457 0.868759
vt 0.134766 0.951362
vt 0.201892 0.881884
vt 0.853929 0.868759
vt 0.134766 0.952881
vt 0.201892 0.945239
vt 0.853929 0.894377
vt 0.200726 0.945232
vt 0.853457 0.894375
vt 0.852986 0.894372
vt 0.199560 0.945226
vt 0.852514 0.894369
vt 0.198394 0.945219
vt 0.000000 0.000000
vt 0.911426 0.881649
vt 0.000000 0.000000
vt 0.911426 0.882550
vt 0.000000 0.000000
vt 0.911426 0.883450
vt 0.000000 0.000000
vt 0.911426 0.884350
vt 0.000000 0.000000
vt 0.911426 0.885251
vt 0.000000 0.000000
vt 0.911426 0.886151
vt 0.911426 0.887051
vt 0.000000 0.000000
vt 0.911426 0.887952
vt 0.000000 0.000000
vt 0.202892 0.768155
vt 0.913948 0.881649
vt 0.202893 0.774171
vt 0.913879 0.882550
vt 0.202893 0.780186
vt 0.913811 0.883450
vt 0.202893 0.786202
vt 0.913743 0.884350
vt 0.202894 0.792217
vt 0.913674 0.885251
vt 0.202894 0.798233
vt 0.913606 0.886151
vt 0.913538 0.887051
vt 0.202895 0.804248
vt 0.913469 0.887952
vt 0.202895 0.810264
vt 0.243899 0.762139
vt 0.000000 0.000000
vt 0.911426 0.881649
vt 0.237883 0.762139
vt 0.000000 0.000000
vt 0.911426 0.882550
vt 0.231843 0.857921
vt 0.000000 0.000000
vt 0.911426 0.883450
vt 0.237858 0.857921
vt 0.000000 0.000000
vt 0.911426 0.884350
vt 0.231817 0.762139
vt 0.000000 0.000000
vt 0.911426 0.885251
vt 0.225802 0.762139
vt 0.000000 0.000000
vt 0.911426 0.886151
vt 0.911426 0.887051
vt 0.000000 0.000000
vt 0.225777 0.762139
vt 0.911426 0.887952
vt 0.000000 0.000000
vt 0.219761 0.762139
vt 0.243899 0.857908
vt 0.913948 0.881649
vt 0.237883 0.857912
vt 0.913879 0.882550
vt 0.231843 0.762143
vt 0.913811 0.883450
vt 0.237858 0.762139
vt 0.913743 0.884350
vt 0.231817 0.857926
vt 0.913674 0.885251
vt 0.225802 0.857931
vt 0.913606 0.886151
vt 0.913538 0.887051
vt 0.225777 0.857935
vt 0.913469 0.887952
vt 0.219761 0.857940
s 0
usemtl BasicTexture
f 9/13/1 4/7/1 14/21/1 16/24/1
f 10/16/2 11/18/2 5/8/2 1/1/2
f 4/7/3 7/11/3 8/12/3 3/6/3
f 9/13/1 12/19/1 7/11/1 4/7/1
f 1/2/4 5/9/4 6/10/4 2/4/4
f 11/17/5 12/19/5 6/10/5 5/9/5
f 8/12/5 7/11/5 12/19/5 11/17/5
f 2/4/1 6/10/1 12/19/1 9/13/1
f 3/6/2 8/12/2 11/18/2 10/16/2
f 2/5/6 9/14/6 10/15/6 1/3/6
f 10/15/4 9/14/4 16/25/4 15/22/4
f 3/6/2 10/16/2 15/23/2 13/20/2
f 4/7/3 3/6/3 13/20/3 14/21/3
f 18/29/5 20/33/5 31/49/5 30/46/5
f 26/41/1 20/34/1 24/38/1 27/42/1
f 27/42/3 24/38/3 22/36/3 28/43/3
f 28/43/2 22/36/2 18/30/2 25/39/2
f 19/31/6 23/37/6 21/35/6 17/26/6
f 24/38/5 20/33/5 18/29/5 22/36/5
f 21/35/2 28/43/2 25/39/2 17/27/2
f 23/37/3 27/42/3 28/43/3 21/35/3
f 19/32/1 26/41/1 27/42/1 23/37/1
f 17/28/4 25/40/4 26/41/4 19/32/4
f 29/45/4 30/47/4 31/50/4 32/51/4
f 20/34/1 26/41/1 32/51/1 31/50/1
f 25/39/2 18/30/2 30/48/2 29/44/2
f 26/41/7 25/40/7 29/45/7 32/51/7
f 38/63/2 42/78/2 34/54/2
f 37/62/2 43/85/2 44/88/2 33/52/2
f 35/57/1 46/96/1 45/94/1 39/67/1
f 107/197/8 42/79/8 38/64/8
f 36/59/1 41/72/1 40/68/1
f 44/89/2 53/112/2 38/65/2 34/55/2
f 54/115/1 46/99/1 36/60/1 40/69/1
f 58/124/3 59/126/3 43/85/3 37/62/3
f 60/127/3 50/107/3 43/86/3 59/125/3
f 47/100/5 61/128/5 69/142/5 65/135/5
f 63/132/9 52/111/9 71/146/9
f 115/210/8 41/76/8 49/103/8 48/102/8
f 54/117/10 119/214/10 118/213/10 117/212/10 116/211/10 55/118/10 56/120/10
f 45/93/1 46/97/1 51/108/1
f 44/90/2 43/87/2 50/105/2
f 143/269/4 151/285/4 46/98/4 35/58/4
f 107/198/3 38/66/3 53/114/3 108/199/3
f 115/209/3 48/101/3 55/118/3 116/211/3
f 51/108/1 46/99/1 54/115/1
f 44/91/2 50/105/2 53/112/2
f 54/116/11 56/119/11 57/121/11 51/109/11
f 56/119/12 53/113/12 50/106/12 57/121/12
f 52/111/13 63/132/13 51/110/13 57/122/13
f 50/107/14 60/127/14 52/111/14 57/122/14
f 55/118/10 111/202/10 110/201/10 109/200/10 108/199/10 53/114/10 56/120/10
f 58/123/5 47/100/5 65/135/5 64/133/5
f 62/130/2 63/132/2 71/146/2 70/144/2
f 39/67/3 45/94/3 62/131/3 61/129/3
f 51/110/3 63/132/3 62/130/3 45/95/3
f 71/146/3 52/111/3 67/139/3 70/144/3
f 69/143/3 70/145/3 67/140/3 65/136/3
f 52/111/3 68/141/3 66/137/3 67/139/3
f 65/136/3 67/140/3 66/138/3 64/134/3
f 60/127/1 59/125/1 66/137/1 68/141/1
f 52/111/9 60/127/9 68/141/9
f 61/129/2 62/131/2 70/145/2 69/143/2
f 59/126/1 58/124/1 64/134/1 66/138/1
f 74/152/15 75/153/15 79/158/15 78/157/15
f 82/161/16 83/162/16 77/156/16 76/155/16
f 76/155/17 77/156/17 73/149/17 72/147/17
f 80/159/6 82/161/6 76/155/6 72/148/6
f 83/162/5 81/160/5 73/150/5 77/156/5
f 79/158/5 75/154/5 81/160/5 83/162/5
f 74/151/6 78/157/6 82/161/6 80/159/6
f 78/157/16 79/158/16 83/162/16 82/161/16
f 74/151/18 80/159/18 86/167/18 84/164/18
f 75/153/19 74/152/19 84/163/19 85/166/19
f 81/160/20 75/154/20 85/165/20 87/168/20
f 87/168/21 85/166/21 84/164/21 86/167/21
f 90/174/15 91/175/15 95/180/15 94/179/15
f 98/183/16 99/184/16 93/178/16 92/177/16
f 92/177/17 93/178/17 89/171/17 88/169/17
f 96/181/6 98/183/6 92/177/6 88/170/6
f 99/184/5 97/182/5 89/172/5 93/178/5
f 95/180/5 91/176/5 97/182/5 99/184/5
f 90/173/6 94/179/6 98/183/6 96/181/6
f 94/179/16 95/180/16 99/184/16 98/183/16
f 90/173/18 96/181/18 102/189/18 100/186/18
f 91/175/19 90/174/19 100/185/19 101/188/19
f 97/182/20 91/176/20 101/187/20 103/190/20
f 103/190/21 101/188/21 100/186/21 102/189/21
f 48/101/3 104/192/3 111/202/3 55/118/3
f 113/205/1 118/213/1 134/251/1 129/238/1
f 105/194/3 106/196/3 109/200/3 110/201/3
f 110/201/10 111/202/10 127/234/10 126/232/10
f 48/102/8 49/103/8 42/80/8 104/191/8
f 104/191/8 42/81/8 105/193/8
f 105/193/8 42/82/8 106/195/8
f 106/195/8 42/83/8 107/197/8
f 40/70/3 112/203/3 119/214/3 54/117/3
f 119/214/2 112/203/2 128/235/2 135/253/2
f 113/205/3 114/207/3 117/212/3 118/213/3
f 118/213/10 119/214/10 135/253/10 134/251/10
f 40/71/8 41/73/8 112/204/8
f 112/204/8 41/74/8 113/206/8
f 113/206/8 41/75/8 114/208/8
f 114/208/8 41/76/8 115/210/8
f 120/215/3 121/218/3 126/231/3 127/233/3
f 122/221/3 123/224/3 124/227/3 125/229/3
f 128/236/3 129/239/3 134/252/3 135/254/3
f 130/241/3 131/244/3 132/247/3 133/249/3
f 104/191/6 105/193/6 121/219/6 120/216/6
f 111/202/2 104/192/2 120/217/2 127/234/2
f 117/212/2 114/207/2 130/242/2 133/250/2
f 105/194/1 110/201/1 126/232/1 121/220/1
f 115/209/1 116/211/1 132/248/1 131/245/1
f 106/195/6 107/197/6 123/225/6 122/222/6
f 109/200/2 106/196/2 122/223/2 125/230/2
f 112/204/6 113/206/6 129/240/6 128/237/6
f 116/211/10 117/212/10 133/250/10 132/248/10
f 107/198/1 108/199/1 124/228/1 123/226/1
f 114/208/6 115/210/6 131/246/6 130/243/6
f 108/199/10 109/200/10 125/230/10 124/228/10
f 33/53/4 44/92/4 144/272/4 136/256/4
f 151/285/2 143/269/2 159/308/2 167/325/2
f 137/258/4 145/274/4 146/276/4 138/260/4
f 150/283/22 151/285/22 167/325/22 166/323/22
f 139/262/4 147/278/4 148/280/4 140/264/4
f 142/267/1 150/283/1 166/323/1 158/305/1
f 141/266/4 149/282/4 150/283/4 142/267/4
f 143/270/5 142/268/5 158/306/5 159/309/5
f 151/285/4 36/60/4 46/99/4
f 44/92/4 34/55/4 144/272/4
f 41/77/23 36/61/23 151/286/23
f 151/286/24 150/284/24 41/77/24
f 150/284/24 149/281/24 41/77/24
f 149/281/24 148/279/24 41/77/24
f 41/77/25 148/279/25 49/104/25
f 148/279/26 147/277/26 49/104/26
f 49/104/27 147/277/27 42/84/27
f 147/277/28 146/275/28 42/84/28
f 146/275/28 145/273/28 42/84/28
f 145/273/28 144/271/28 42/84/28
f 42/84/29 144/271/29 34/56/29
f 152/287/4 160/311/4 161/313/4 153/290/4
f 154/293/4 162/315/4 163/317/4 155/296/4
f 156/299/4 164/319/4 165/321/4 157/302/4
f 158/307/4 166/324/4 167/326/4 159/310/4
f 137/257/5 136/255/5 152/288/5 153/291/5
f 136/256/1 144/272/1 160/312/1 152/289/1
f 144/272/22 145/274/22 161/314/22 160/312/22
f 145/274/2 137/258/2 153/292/2 161/314/2
f 139/261/5 138/259/5 154/294/5 155/297/5
f 138/260/1 146/276/1 162/316/1 154/295/1
f 146/276/22 147/278/22 163/318/22 162/316/22
f 147/278/2 139/262/2 155/298/2 163/318/2
f 141/265/5 140/263/5 156/300/5 157/303/5
f 140/264/1 148/280/1 164/320/1 156/301/1
f 148/280/22 149/282/22 165/322/22 164/320/22
f 149/282/2 141/266/2 157/304/2 165/322/2
