# Blender 3.5.1
# www.blender.org
mtllib JazzCinema2.mtl
o KinoJazzDONE.001
v -0.226277 9.706393 -1.054797
v 0.161722 9.706393 -1.054797
v -0.226278 9.706393 4.975710
v 0.161721 9.706393 4.975710
v -0.226277 10.027074 -1.054797
v 0.161722 10.027074 -1.054797
v 0.161721 10.027074 4.975710
v -0.226278 10.027074 4.975710
v 0.161722 9.706393 4.455817
v -0.226278 9.706393 4.455817
v -0.226278 10.027074 4.455817
v 0.161722 10.027074 4.455817
v -0.226278 4.278437 4.975710
v 0.161721 4.278437 4.975710
v -0.226278 4.278437 4.455817
v 0.161722 4.278437 4.455817
v -0.142150 4.227374 2.468998
v -0.142150 9.757265 2.468998
v 0.077546 4.227374 2.468998
v 0.077546 9.757265 2.468998
v -0.142150 4.227374 4.609183
v -0.142150 9.757265 4.609183
v 0.077546 4.227374 4.609183
v 0.077546 9.757265 4.609183
v -0.142150 9.846437 2.468998
v 0.077546 9.846437 2.468998
v 0.077546 8.846437 4.609183
v -0.142150 8.846437 4.609183
v -0.142150 8.846437 -0.292538
v -0.142150 9.757265 -0.292538
v 0.077547 9.757265 -0.292538
v 0.077547 8.846437 -0.292538
v -3.000000 -0.000000 -2.495783
v -3.000000 10.740857 -2.495783
v 2.995592 -0.000000 -2.495783
v 2.995592 10.740857 -2.495783
v -3.000000 -0.000000 2.500000
v -3.000000 9.846957 2.500000
v 2.995592 -0.000000 2.500000
v 2.995592 9.846957 2.500000
v 2.995592 10.897586 -0.638252
v -3.000000 10.897586 -0.638252
v -3.000000 1.038765 2.500000
v -3.000000 1.041352 -2.495783
v 2.995592 1.046016 2.500000
v 2.995592 1.045968 -2.495783
v -0.002204 -0.000000 2.500000
v -0.002204 9.846957 2.500000
v -0.002204 10.740857 -2.495783
v -0.002204 10.897586 -0.638252
v -3.000000 2.620761 2.500000
v -3.000000 2.828846 -2.495783
v 2.995592 2.832397 -2.495783
v 2.995592 2.626341 2.500000
v -0.002204 2.623551 1.067382
v -3.000000 4.436819 2.500000
v -3.000000 4.880805 -2.495783
v 2.995592 4.883134 -2.495783
v 2.995592 4.440479 2.500000
v -0.002204 4.438649 2.500000
v -0.002204 4.438649 5.682035
v -0.002204 2.623551 5.682035
v -1.875028 -0.000000 2.500000
v -1.875028 1.040578 2.500000
v -1.875028 2.622156 2.500000
v 1.870623 -0.000000 2.500000
v 1.870623 1.044204 2.500000
v 1.870623 2.624946 2.500000
v -1.875028 -0.000000 1.067382
v -0.002204 -0.000000 1.067382
v -1.875028 1.040578 1.067382
v -0.002204 1.042391 1.067382
v -1.875028 2.622156 1.067382
v 1.870623 -0.000000 1.067382
v 1.870623 1.044204 1.067382
v 1.870623 2.624946 1.067382
v -2.831880 2.493822 2.262048
v -2.831880 2.735027 2.262048
v 0.295138 2.493823 5.600425
v 0.295138 2.735027 5.600425
v -3.150464 2.493822 2.601295
v -3.150464 2.735027 2.601295
v -0.023447 2.493823 5.939672
v -0.023447 2.735027 5.939672
v -0.050698 2.493823 5.231214
v -0.050698 2.735027 5.231214
v -0.369283 2.493823 5.570460
v -0.369283 2.735027 5.570460
v 3.125092 2.479182 2.644859
v 3.125092 2.720387 2.644859
v 2.779257 2.479182 2.275648
v 2.779257 2.720387 2.275648
v -2.831880 4.340593 2.262051
v -2.831880 4.581798 2.262051
v 0.295138 4.340593 5.600427
v 0.295138 4.581798 5.600427
v -3.150464 4.340593 2.601298
v -3.150464 4.581798 2.601298
v -0.023447 4.340593 5.939675
v -0.023447 4.581798 5.939675
v -0.050698 4.340593 5.231216
v -0.050698 4.581798 5.231216
v -0.369283 4.340593 5.570464
v -0.369283 4.581798 5.570464
v 3.125092 4.325952 2.644862
v 3.125092 4.567157 2.644862
v 2.779257 4.325952 2.275651
v 2.779257 4.567157 2.275651
v -0.601763 9.846957 2.500000
v -1.201322 9.846957 2.500000
v -1.800881 9.846957 2.500000
v -2.400440 9.846957 2.500000
v -2.400440 4.437185 2.500000
v -1.800881 4.437551 2.500000
v -1.201322 4.437917 2.500000
v -0.601763 4.438282 2.500000
v 2.396034 9.846957 2.500000
v 1.796474 9.846957 2.500000
v 1.196915 9.846957 2.500000
v 0.597356 9.846957 2.500000
v 0.597356 4.439015 2.500000
v 1.196915 4.439381 2.500000
v 1.796474 4.439747 2.500000
v 2.396034 4.440113 2.500000
v -0.601763 9.846957 2.148517
v -1.201322 9.846957 2.148517
v -1.800881 9.846957 2.148517
v -2.400440 9.846957 2.148518
v -2.400440 4.437185 2.148517
v -1.800881 4.437551 2.148517
v -1.201322 4.437917 2.148517
v -0.601763 4.438282 2.148517
v 2.396034 9.846957 2.148517
v 1.796474 9.846957 2.148517
v 1.196915 9.846957 2.148517
v 0.597356 9.846957 2.148517
v 0.597356 4.439015 2.148517
v 1.196915 4.439381 2.148517
v 1.796474 4.439747 2.148517
v 2.396034 4.440113 2.148517
vn 1.0000 -0.0000 -0.0000
vn -1.0000 -0.0000 -0.0000
vn -0.0000 -0.0000 1.0000
vn -0.0000 -0.0000 -1.0000
vn -0.0000 1.0000 -0.0000
vn -0.0000 -1.0000 -0.0000
vn -0.0000 -0.9403 0.3405
vn -0.0000 0.9483 0.3175
vn 0.0007 -1.0000 -0.0000
vn -0.0000 0.9965 -0.0841
vn -0.0006 1.0000 -0.0000
vn 0.7279 -0.0000 0.6857
vn -0.7279 -0.0000 0.6857
vn 0.0009 -1.0000 0.0001
vn 0.0009 -1.0000 -0.0001
vn 0.7290 -0.0000 0.6846
vn -0.7298 -0.0000 0.6836
vn -0.7290 -0.0000 -0.6846
vn -0.0026 -1.0000 0.0024
vn 0.7223 -0.0000 0.6916
vn 0.0026 1.0000 -0.0024
vn 0.7298 -0.0000 -0.6836
vt 0.195588 0.967462
vt 0.195588 0.851041
vt 0.166483 0.938357
vt 0.195588 0.880147
vt 0.166483 0.909252
vt 0.195588 0.938357
vt 0.195588 0.909252
vt 0.219899 0.967462
vt 0.219899 0.851041
vt 0.219899 0.880147
vt 0.219899 0.909252
vt 0.219899 0.938357
vt 0.195588 0.906743
vt 0.193079 0.909252
vt 0.193079 0.938357
vt 0.195588 0.940866
vt 0.219899 0.930830
vt 0.219899 0.940866
vt 0.219899 0.906743
vt 0.195588 0.938357
vt 0.195588 0.909252
vt 0.193079 0.938357
vt 0.195588 0.940866
vt 0.195588 0.906743
vt 0.193079 0.909252
vt 0.520601 0.701246
vt 0.537341 0.717986
vt 0.537341 0.651023
vt 0.570823 0.701246
vt 0.554082 0.717986
vt 0.520601 0.684505
vt 0.537341 0.667764
vt 0.570823 0.684505
vt 0.554082 0.667764
vt 0.537341 0.701246
vt 0.554082 0.701246
vt 0.537341 0.684505
vt 0.554082 0.684505
vt 0.551325 0.717986
vt 0.551325 0.651023
vt 0.551325 0.667764
vt 0.551325 0.684505
vt 0.551325 0.701246
vt 0.551325 0.717986
vt 0.551325 0.651023
vt 0.570823 0.701246
vt 0.554082 0.651023
vt 0.554082 0.717986
vt 0.570823 0.684505
vt 0.554082 0.667764
vt 0.551325 0.667764
vt 0.053462 0.880754
vt 0.977832 0.675670
vt 0.940866 0.681633
vt 0.927305 0.681633
vt 0.206649 0.955919
vt 0.983836 0.678912
vt 0.139130 0.839572
vt 0.977832 0.683774
vt 0.974573 0.664980
vt 0.959569 0.664980
vt 0.206649 0.952881
vt 0.983836 0.683774
vt 0.053462 0.814558
vt 0.940866 0.654865
vt 0.134766 0.961995
vt 0.927305 0.654865
vt 0.923164 0.663681
vt 0.139130 0.886990
vt 0.969283 0.684154
vt 0.959569 0.684154
vt 0.918449 0.663681
vt 0.134766 0.946805
vt 0.974573 0.684154
vt 0.170708 0.948324
vt 0.170708 0.949843
vt 0.170708 0.951362
vt 0.170707 0.952881
vt 0.948251 0.654865
vt 0.170707 0.961995
vt 0.170707 0.957438
vt 0.170707 0.958957
vt 0.170707 0.960476
vt 0.170707 0.955919
vt 0.056040 0.814558
vt 0.923164 0.714465
vt 0.919966 0.654865
vt 0.055693 0.880754
vt 0.919825 0.681633
vt 0.978478 0.675670
vt 0.954317 0.684154
vt 0.140990 0.886990
vt 0.918449 0.714411
vt 0.140736 0.839572
vt 0.954214 0.664980
vt 0.978481 0.683774
vt 0.849609 0.468750
vt 0.920806 0.663681
vt 0.134766 0.954400
vt 0.206649 0.954400
vt 0.983836 0.679722
vt 0.170707 0.954400
vt 0.921658 0.654865
vt 0.797962 0.708785
vt 0.923164 0.702757
vt 0.921550 0.681633
vt 0.979714 0.675670
vt 0.955448 0.664980
vt 0.979716 0.683774
vt 0.955528 0.684154
vt 0.786303 0.708682
vt 0.918449 0.702715
vt 0.920806 0.702736
vt 0.923600 0.654865
vt 0.797962 0.675545
vt 0.923164 0.689316
vt 0.923530 0.681633
vt 0.981132 0.675670
vt 0.956866 0.664980
vt 0.981133 0.683774
vt 0.956918 0.684154
vt 0.786303 0.675478
vt 0.918449 0.689288
vt 0.920806 0.689302
vt 0.792133 0.675512
vt 0.920806 0.689302
vt 0.792133 0.708734
vt 0.920806 0.702736
vt 0.849609 0.468750
vt 0.074879 0.832666
vt 0.921985 0.714452
vt 0.077277 0.832666
vt 0.921985 0.702746
vt 0.849609 0.468750
vt 0.117713 0.868882
vt 0.919628 0.714425
vt 0.119752 0.868882
vt 0.919628 0.702726
vt 0.849609 0.468750
vt 0.074879 0.832666
vt 0.849609 0.468750
vt 0.096296 0.850774
vt 0.921985 0.714452
vt 0.077277 0.832666
vt 0.920806 0.714438
vt 0.098515 0.850774
vt 0.921985 0.702746
vt 0.849609 0.468750
vt 0.117713 0.868882
vt 0.919628 0.714425
vt 0.119752 0.868882
vt 0.919628 0.702726
vt 0.068154 0.942022
vt 0.052118 0.925987
vt 0.084190 0.942022
vt 0.100226 0.925987
vt 0.052118 0.909951
vt 0.068154 0.893915
vt 0.084190 0.893915
vt 0.100226 0.909951
vt 0.068154 0.925987
vt 0.084190 0.925987
vt 0.068154 0.909951
vt 0.084190 0.909951
vt 0.052118 0.911724
vt 0.100226 0.911724
vt 0.068154 0.911724
vt 0.084190 0.911724
vt 0.068154 0.893915
vt 0.052118 0.909951
vt 0.100226 0.909951
vt 0.084190 0.893915
vt 0.052118 0.911724
vt 0.100226 0.911724
vt 0.068154 0.942022
vt 0.052118 0.925987
vt 0.084190 0.942022
vt 0.100226 0.925987
vt 0.052118 0.909951
vt 0.068154 0.893915
vt 0.084190 0.893915
vt 0.100226 0.909951
vt 0.068154 0.925987
vt 0.084190 0.925987
vt 0.068154 0.909951
vt 0.084190 0.909951
vt 0.052118 0.911724
vt 0.100226 0.911724
vt 0.068154 0.911724
vt 0.084190 0.911724
vt 0.068154 0.893915
vt 0.052118 0.909951
vt 0.100226 0.909951
vt 0.084190 0.893915
vt 0.052118 0.911724
vt 0.100226 0.911724
vt 0.134766 0.955919
vt 0.921278 0.663681
vt 0.134766 0.957438
vt 0.921749 0.663681
vt 0.134766 0.958957
vt 0.922221 0.663681
vt 0.134766 0.960476
vt 0.922692 0.663681
vt 0.922692 0.689313
vt 0.922221 0.689310
vt 0.921749 0.689307
vt 0.921278 0.689305
vt 0.918920 0.663681
vt 0.134766 0.948324
vt 0.919392 0.663681
vt 0.134766 0.949843
vt 0.919863 0.663681
vt 0.134766 0.951362
vt 0.920335 0.663681
vt 0.134766 0.952881
vt 0.920335 0.689299
vt 0.919863 0.689297
vt 0.919392 0.689294
vt 0.918920 0.689291
vt 0.204224 0.881884
vt 0.134766 0.955919
vt 0.921278 0.663681
vt 0.205390 0.881884
vt 0.134766 0.957438
vt 0.921749 0.663681
vt 0.206556 0.881884
vt 0.134766 0.958957
vt 0.922221 0.663681
vt 0.207722 0.881884
vt 0.134766 0.960476
vt 0.922692 0.663681
vt 0.207722 0.945273
vt 0.922692 0.689313
vt 0.206556 0.945266
vt 0.922221 0.689310
vt 0.205390 0.945259
vt 0.921749 0.689307
vt 0.204224 0.945253
vt 0.921278 0.689305
vt 0.918920 0.663681
vt 0.198394 0.881884
vt 0.134766 0.948324
vt 0.919392 0.663681
vt 0.199560 0.881884
vt 0.134766 0.949843
vt 0.200726 0.881884
vt 0.919863 0.663681
vt 0.134766 0.951362
vt 0.201892 0.881884
vt 0.920335 0.663681
vt 0.134766 0.952881
vt 0.201892 0.945239
vt 0.920335 0.689299
vt 0.200726 0.945232
vt 0.919863 0.689297
vt 0.919392 0.689294
vt 0.199560 0.945226
vt 0.918920 0.689291
vt 0.198394 0.945219
s 0
usemtl BasicTexture
f 9/13/1 4/7/1 14/21/1 16/24/1
f 10/16/2 11/18/2 5/8/2 1/1/2
f 4/7/3 7/11/3 8/12/3 3/6/3
f 9/13/1 12/19/1 7/11/1 4/7/1
f 1/2/4 5/9/4 6/10/4 2/4/4
f 11/17/5 12/19/5 6/10/5 5/9/5
f 8/12/5 7/11/5 12/19/5 11/17/5
f 2/4/1 6/10/1 12/19/1 9/13/1
f 3/6/2 8/12/2 11/18/2 10/16/2
f 2/5/6 9/14/6 10/15/6 1/3/6
f 10/15/4 9/14/4 16/25/4 15/22/4
f 3/6/2 10/16/2 15/23/2 13/20/2
f 4/7/3 3/6/3 13/20/3 14/21/3
f 18/29/5 20/33/5 31/49/5 30/46/5
f 26/41/1 20/34/1 24/38/1 27/42/1
f 27/42/3 24/38/3 22/36/3 28/43/3
f 28/43/2 22/36/2 18/30/2 25/39/2
f 19/31/6 23/37/6 21/35/6 17/26/6
f 24/38/5 20/33/5 18/29/5 22/36/5
f 21/35/2 28/43/2 25/39/2 17/27/2
f 23/37/3 27/42/3 28/43/3 21/35/3
f 19/32/1 26/41/1 27/42/1 23/37/1
f 17/28/4 25/40/4 26/41/4 19/32/4
f 29/45/4 30/47/4 31/50/4 32/51/4
f 20/34/1 26/41/1 32/51/1 31/50/1
f 25/39/2 18/30/2 30/48/2 29/44/2
f 26/41/7 25/40/7 29/45/7 32/51/7
f 38/65/2 42/79/2 34/54/2
f 37/64/2 43/85/2 44/88/2 33/52/2
f 35/58/1 46/94/1 45/92/1 39/69/1
f 112/203/8 42/80/8 38/66/8
f 36/60/1 41/74/1 40/70/1
f 57/117/2 56/114/2 38/67/2 34/55/2
f 59/121/1 58/119/1 36/61/1 40/71/1
f 63/130/3 64/132/3 43/85/3 37/64/3
f 65/133/3 51/105/3 43/86/3 64/131/3
f 47/97/5 66/134/5 74/148/5 70/141/5
f 68/138/9 55/113/9 76/152/9
f 120/216/8 41/78/8 50/102/8 48/99/8
f 41/78/10 36/62/10 49/100/10 50/102/10
f 59/123/11 124/220/11 123/219/11 122/218/11 121/217/11 60/124/11 61/126/11
f 45/91/1 46/95/1 53/108/1 54/110/1
f 44/89/2 43/87/2 51/103/2 52/106/2
f 33/53/4 44/90/4 52/107/4 53/109/4 46/96/4 35/59/4
f 112/204/3 38/68/3 56/116/3 113/205/3
f 120/215/3 48/98/3 60/124/3 121/217/3
f 54/110/1 53/108/1 58/119/1 59/121/1
f 52/106/2 51/103/2 56/114/2 57/117/2
f 53/109/4 52/107/4 57/118/4 58/120/4
f 59/122/12 61/125/12 62/127/12 54/111/12
f 61/125/13 56/115/13 51/104/13 62/127/13
f 55/113/14 68/138/14 54/112/14 62/128/14
f 51/105/15 65/133/15 55/113/15 62/128/15
f 60/124/11 116/208/11 115/207/11 114/206/11 113/205/11 56/116/11 61/126/11
f 63/129/5 47/97/5 70/141/5 69/139/5
f 67/136/2 68/138/2 76/152/2 75/150/2
f 39/69/3 45/92/3 67/137/3 66/135/3
f 54/112/3 68/138/3 67/136/3 45/93/3
f 76/152/3 55/113/3 72/145/3 75/150/3
f 74/149/3 75/151/3 72/146/3 70/142/3
f 55/113/3 73/147/3 71/143/3 72/145/3
f 70/142/3 72/146/3 71/144/3 69/140/3
f 65/133/1 64/131/1 71/143/1 73/147/1
f 55/113/9 65/133/9 73/147/9
f 66/135/2 67/137/2 75/151/2 74/149/2
f 64/132/1 63/130/1 69/140/1 71/144/1
f 79/158/16 80/159/16 84/164/16 83/163/16
f 87/167/17 88/168/17 82/162/17 81/161/17
f 81/161/18 82/162/18 78/155/18 77/153/18
f 85/165/6 87/167/6 81/161/6 77/154/6
f 88/168/5 86/166/5 78/156/5 82/162/5
f 84/164/5 80/160/5 86/166/5 88/168/5
f 79/157/6 83/163/6 87/167/6 85/165/6
f 83/163/17 84/164/17 88/168/17 87/167/17
f 79/157/19 85/165/19 91/173/19 89/170/19
f 80/159/20 79/158/20 89/169/20 90/172/20
f 86/166/21 80/160/21 90/171/21 92/174/21
f 92/174/22 90/172/22 89/170/22 91/173/22
f 95/180/16 96/181/16 100/186/16 99/185/16
f 103/189/17 104/190/17 98/184/17 97/183/17
f 97/183/18 98/184/18 94/177/18 93/175/18
f 101/187/6 103/189/6 97/183/6 93/176/6
f 104/190/5 102/188/5 94/178/5 98/184/5
f 100/186/5 96/182/5 102/188/5 104/190/5
f 95/179/6 99/185/6 103/189/6 101/187/6
f 99/185/17 100/186/17 104/190/17 103/189/17
f 95/179/19 101/187/19 107/195/19 105/192/19
f 96/181/20 95/180/20 105/191/20 106/194/20
f 102/188/21 96/182/21 106/193/21 108/196/21
f 108/196/22 106/194/22 105/192/22 107/195/22
f 48/98/3 109/198/3 116/208/3 60/124/3
f 118/211/1 123/219/1 139/257/1 134/244/1
f 110/200/3 111/202/3 114/206/3 115/207/3
f 115/207/11 116/208/11 132/240/11 131/238/11
f 48/99/8 50/102/8 42/84/8 109/197/8
f 109/197/8 42/81/8 110/199/8
f 110/199/8 42/82/8 111/201/8
f 111/201/8 42/83/8 112/203/8
f 50/102/10 49/100/10 34/56/10 42/84/10
f 40/72/3 117/209/3 124/220/3 59/123/3
f 124/220/2 117/209/2 133/241/2 140/259/2
f 118/211/3 119/213/3 122/218/3 123/219/3
f 123/219/11 124/220/11 140/259/11 139/257/11
f 40/73/8 41/75/8 117/210/8
f 117/210/8 41/76/8 118/212/8
f 118/212/8 41/77/8 119/214/8
f 119/214/8 41/78/8 120/216/8
f 125/221/3 126/224/3 131/237/3 132/239/3
f 127/227/3 128/230/3 129/233/3 130/235/3
f 133/242/3 134/245/3 139/258/3 140/260/3
f 135/247/3 136/250/3 137/253/3 138/255/3
f 109/197/6 110/199/6 126/225/6 125/222/6
f 116/208/2 109/198/2 125/223/2 132/240/2
f 122/218/2 119/213/2 135/248/2 138/256/2
f 110/200/1 115/207/1 131/238/1 126/226/1
f 120/215/1 121/217/1 137/254/1 136/251/1
f 111/201/6 112/203/6 128/231/6 127/228/6
f 114/206/2 111/202/2 127/229/2 130/236/2
f 117/210/6 118/212/6 134/246/6 133/243/6
f 121/217/11 122/218/11 138/256/11 137/254/11
f 112/204/1 113/205/1 129/234/1 128/232/1
f 119/214/6 120/216/6 136/252/6 135/249/6
f 113/205/11 114/206/11 130/236/11 129/234/11
f 58/120/4 57/118/4 34/57/4 49/101/4 36/63/4
