# Blender 3.5.1
# www.blender.org
mtllib Pipe.mtl
o Cylinder.006
v -3.845419 0.615120 -0.499998
v 3.954581 0.615121 -0.499998
v -3.845419 0.423778 -0.461937
v 3.954581 0.423779 -0.461937
v -3.845419 0.261567 -0.353551
v 3.954581 0.261567 -0.353551
v -3.845419 0.153180 -0.191339
v 3.954581 0.153181 -0.191339
v -3.845419 0.115120 0.000002
v 3.954581 0.115121 0.000002
v -3.845419 0.153180 0.191344
v 3.954581 0.153181 0.191344
v -3.845419 0.261567 0.353556
v 3.954581 0.261567 0.353556
v -3.845419 0.423778 0.461942
v 3.954581 0.423779 0.461942
v -3.845419 0.615120 0.500002
v 3.954581 0.615121 0.500002
v -3.845419 0.806462 0.461942
v 3.954581 0.806462 0.461942
v -3.845419 0.968673 0.353556
v 3.954581 0.968674 0.353556
v -3.845419 1.077060 0.191344
v 3.954581 1.077061 0.191344
v -3.845419 1.115120 0.000002
v 3.954581 1.115121 0.000002
v -3.845419 1.077060 -0.191339
v 3.954581 1.077061 -0.191339
v -3.845419 0.968673 -0.353551
v 3.954581 0.968674 -0.353551
v -3.845419 0.806462 -0.461937
v 3.954581 0.806462 -0.461937
v -3.065418 0.615120 -0.499998
v -3.065418 0.423778 -0.461937
v -3.065418 0.261567 -0.353551
v -3.065418 0.153181 -0.191339
v -3.065418 0.115120 0.000002
v -3.065418 0.153181 0.191344
v -3.065418 0.261567 0.353556
v -3.065418 0.423778 0.461942
v -3.065418 0.615120 0.500002
v -3.065418 0.806462 0.461942
v -3.065418 0.968674 0.353556
v -3.065418 1.077060 0.191344
v -3.065418 1.115120 0.000002
v -3.065418 1.077060 -0.191339
v -3.065418 0.968674 -0.353551
v -3.065418 0.806462 -0.461937
v 2.901581 0.615121 -0.499998
v 2.901581 0.423779 -0.461937
v 2.901581 0.261567 -0.353551
v 2.901581 0.153181 -0.191339
v 2.901581 0.115121 0.000002
v 2.901581 0.153181 0.191344
v 2.901581 0.261567 0.353556
v 2.901581 0.423779 0.461942
v 2.901581 0.615121 0.500002
v 2.901581 0.806462 0.461942
v 2.901581 0.968674 0.353556
v 2.901581 1.077060 0.191344
v 2.901581 1.115121 0.000002
v 2.901581 1.077060 -0.191339
v 2.901581 0.968674 -0.353551
v 2.901581 0.806462 -0.461937
v -3.845419 0.615120 -0.599998
v -3.845419 0.385510 -0.554325
v 3.954581 0.385511 -0.554325
v 3.954581 0.615121 -0.599998
v 2.901581 0.615121 -0.599998
v -3.065418 0.385510 -0.554325
v -3.845419 0.190856 -0.424262
v 3.954581 0.190857 -0.424262
v -3.065418 0.190856 -0.424262
v -3.845419 0.060792 -0.229608
v 3.954581 0.060793 -0.229608
v -3.065418 0.060793 -0.229608
v -3.845419 0.015120 0.000002
v 3.954581 0.015121 0.000002
v -3.065418 0.015120 0.000002
v -3.845419 0.060792 0.229612
v 3.954581 0.060793 0.229612
v -3.065418 0.060793 0.229612
v -3.845419 0.190856 0.424266
v 3.954581 0.190857 0.424266
v -3.065418 0.190856 0.424266
v -3.845419 0.385510 0.554330
v 3.954581 0.385511 0.554330
v -3.065418 0.385510 0.554330
v -3.845419 0.615120 0.600002
v 3.954581 0.615121 0.600002
v -3.065418 0.615120 0.600002
v -3.845419 0.844730 0.554330
v 3.954581 0.844731 0.554330
v -3.065418 0.844730 0.554330
v -3.845419 1.039384 0.424266
v 3.954581 1.039385 0.424266
v -3.065418 1.039384 0.424266
v -3.845419 1.169448 0.229612
v 3.954581 1.169448 0.229612
v -3.065418 1.169448 0.229612
v -3.845419 1.215120 0.000002
v 3.954581 1.215121 0.000002
v -3.065418 1.215120 0.000002
v -3.845419 1.169448 -0.229608
v 3.954581 1.169448 -0.229608
v -3.065418 1.169448 -0.229608
v -3.845419 1.039384 -0.424262
v 3.954581 1.039385 -0.424262
v -3.065418 1.039384 -0.424262
v -3.845419 0.844730 -0.554325
v 3.954581 0.844731 -0.554325
v -3.065418 0.844730 -0.554325
v -3.065418 0.615120 -0.599998
v 2.901581 0.385511 -0.554325
v 2.901581 0.190857 -0.424262
v 2.901581 0.060793 -0.229608
v 2.901581 0.015121 0.000002
v 2.901581 0.060793 0.229612
v 2.901581 0.190857 0.424266
v 2.901581 0.385511 0.554330
v 2.901581 0.615121 0.600002
v 2.901581 0.844731 0.554330
v 2.901581 1.039385 0.424266
v 2.901581 1.169448 0.229612
v 2.901581 1.215121 0.000002
v 2.901581 1.169448 -0.229608
v 2.901581 1.039385 -0.424262
v 2.901581 0.844731 -0.554325
v -3.065418 0.615120 -0.499998
v -3.065418 0.423778 -0.461937
v 3.174582 0.423779 -0.461937
v 3.174582 0.615121 -0.499998
v -3.065418 0.261567 -0.353551
v 3.174582 0.261567 -0.353551
v -3.065418 0.153180 -0.191339
v 3.174582 0.153181 -0.191339
v -3.065418 0.115120 0.000002
v 3.174582 0.115121 0.000002
v -3.065418 0.153180 0.191344
v 3.174582 0.153181 0.191344
v -3.065418 0.261567 0.353556
v 3.174582 0.261567 0.353556
v -3.065418 0.423778 0.461942
v 3.174582 0.423779 0.461942
v -3.065418 0.615120 0.500002
v 3.174582 0.615121 0.500002
v -3.065418 0.806462 0.461942
v 3.174582 0.806463 0.461942
v -3.065418 0.968674 0.353556
v 3.174582 0.968674 0.353556
v -3.065418 1.077060 0.191344
v 3.174582 1.077060 0.191344
v -3.065418 1.115120 0.000002
v 3.174582 1.115121 0.000002
v -3.065418 1.077060 -0.191339
v 3.174582 1.077060 -0.191339
v -3.065418 0.968674 -0.353551
v 3.174582 0.968674 -0.353551
v -3.065418 0.806462 -0.461937
v 3.174582 0.806463 -0.461937
vn 1.0000 -0.0000 -0.0000
vn -1.0000 -0.0000 -0.0000
vn -0.0000 -0.5556 -0.8315
vn -0.0000 0.1951 -0.9808
vn -0.0000 0.5556 -0.8315
vn -0.0000 0.8315 -0.5556
vn -0.0000 0.9808 -0.1951
vn -0.0000 0.9808 0.1951
vn -0.0000 0.8315 0.5556
vn -0.0000 0.5556 0.8315
vn -0.0000 0.1951 0.9808
vn -0.0000 -0.1951 0.9808
vn -0.0000 -0.5556 0.8315
vn -0.0000 -0.8315 0.5556
vn -0.0000 -0.9808 0.1951
vn -0.0000 -0.9808 -0.1951
vn -0.0000 -0.8315 -0.5556
vn -0.0000 -0.1951 -0.9808
vt 0.441606 0.324597
vt 0.417769 0.324597
vt 0.445985 0.323726
vt 0.422147 0.323726
vt 0.449697 0.321246
vt 0.425859 0.321246
vt 0.452178 0.317534
vt 0.428340 0.317534
vt 0.453049 0.313155
vt 0.429211 0.313155
vt 0.452178 0.308776
vt 0.428340 0.308776
vt 0.449697 0.305064
vt 0.425859 0.305064
vt 0.445985 0.302584
vt 0.422147 0.302584
vt 0.441606 0.301713
vt 0.417769 0.301713
vt 0.437228 0.302584
vt 0.413390 0.302584
vt 0.433516 0.305064
vt 0.409678 0.305064
vt 0.431035 0.308776
vt 0.407197 0.308776
vt 0.430164 0.313155
vt 0.406326 0.313155
vt 0.431035 0.317534
vt 0.407197 0.317534
vt 0.433516 0.321246
vt 0.409678 0.321246
vt 0.437228 0.323726
vt 0.413390 0.323726
vt 0.405850 0.327458
vt 0.453525 0.327458
vt 0.450546 0.327458
vt 0.447566 0.327458
vt 0.444586 0.327458
vt 0.441606 0.327458
vt 0.438627 0.327458
vt 0.435647 0.327458
vt 0.432667 0.327458
vt 0.429688 0.327458
vt 0.426708 0.327458
vt 0.423728 0.327458
vt 0.420748 0.327458
vt 0.417769 0.327458
vt 0.414789 0.327458
vt 0.411809 0.327458
vt 0.408829 0.327458
vt 0.405850 0.345694
vt 0.453525 0.345694
vt 0.450546 0.345694
vt 0.447566 0.345694
vt 0.444586 0.345694
vt 0.441606 0.345694
vt 0.438627 0.345694
vt 0.435647 0.345694
vt 0.432667 0.345694
vt 0.429688 0.345694
vt 0.426708 0.345694
vt 0.423728 0.345694
vt 0.420748 0.345694
vt 0.417769 0.345694
vt 0.414789 0.345694
vt 0.411809 0.345694
vt 0.408829 0.345694
vt 0.405850 0.325074
vt 0.453525 0.325074
vt 0.441606 0.324597
vt 0.450546 0.325074
vt 0.445985 0.323726
vt 0.450546 0.348912
vt 0.422147 0.323726
vt 0.453525 0.348912
vt 0.405850 0.348912
vt 0.417769 0.324597
vt 0.453525 0.345694
vt 0.405850 0.345694
vt 0.450546 0.327458
vt 0.449697 0.321246
vt 0.447566 0.325074
vt 0.425859 0.321246
vt 0.447566 0.348912
vt 0.447566 0.327458
vt 0.452178 0.317534
vt 0.444586 0.325074
vt 0.428340 0.317534
vt 0.444586 0.348912
vt 0.444586 0.327458
vt 0.453049 0.313155
vt 0.441606 0.325074
vt 0.429211 0.313155
vt 0.441606 0.348912
vt 0.441606 0.327458
vt 0.452178 0.308776
vt 0.438627 0.325074
vt 0.428340 0.308776
vt 0.438627 0.348912
vt 0.438627 0.327458
vt 0.435647 0.325074
vt 0.449697 0.305064
vt 0.435647 0.348912
vt 0.425859 0.305064
vt 0.435647 0.327458
vt 0.432667 0.325074
vt 0.445985 0.302584
vt 0.432667 0.348912
vt 0.422147 0.302584
vt 0.432667 0.327458
vt 0.429688 0.325074
vt 0.441606 0.301713
vt 0.429688 0.348912
vt 0.417769 0.301713
vt 0.429688 0.327458
vt 0.426708 0.325074
vt 0.437228 0.302584
vt 0.426708 0.348912
vt 0.413390 0.302584
vt 0.426708 0.327458
vt 0.423728 0.325074
vt 0.433516 0.305064
vt 0.409678 0.305064
vt 0.423728 0.348912
vt 0.423728 0.327458
vt 0.431035 0.308776
vt 0.420748 0.325074
vt 0.407197 0.308776
vt 0.420748 0.348912
vt 0.420748 0.327458
vt 0.430164 0.313155
vt 0.417769 0.325074
vt 0.406326 0.313155
vt 0.417769 0.348912
vt 0.417769 0.327458
vt 0.431035 0.317534
vt 0.414789 0.325074
vt 0.407197 0.317534
vt 0.414789 0.348912
vt 0.414789 0.327458
vt 0.433516 0.321246
vt 0.411809 0.325074
vt 0.411809 0.348912
vt 0.409678 0.321246
vt 0.411809 0.327458
vt 0.408829 0.325074
vt 0.437228 0.323726
vt 0.408829 0.348912
vt 0.413390 0.323726
vt 0.408829 0.327458
vt 0.405850 0.327458
vt 0.453525 0.327458
vt 0.450546 0.345694
vt 0.447566 0.345694
vt 0.444586 0.345694
vt 0.441606 0.345694
vt 0.438627 0.345694
vt 0.435647 0.345694
vt 0.432667 0.345694
vt 0.429688 0.345694
vt 0.426708 0.345694
vt 0.423728 0.345694
vt 0.420748 0.345694
vt 0.417769 0.345694
vt 0.414789 0.345694
vt 0.411809 0.345694
vt 0.408829 0.345694
vt 0.441606 0.324597
vt 0.445985 0.323726
vt 0.422147 0.323726
vt 0.417769 0.324597
vt 0.449697 0.321246
vt 0.425859 0.321246
vt 0.452178 0.317534
vt 0.428340 0.317534
vt 0.453049 0.313155
vt 0.429211 0.313155
vt 0.452178 0.308776
vt 0.428340 0.308776
vt 0.449697 0.305064
vt 0.425859 0.305064
vt 0.445985 0.302584
vt 0.422147 0.302584
vt 0.441606 0.301713
vt 0.417769 0.301713
vt 0.437228 0.302584
vt 0.413390 0.302584
vt 0.433516 0.305064
vt 0.409678 0.305064
vt 0.431035 0.308776
vt 0.407197 0.308776
vt 0.430164 0.313155
vt 0.406326 0.313155
vt 0.431035 0.317534
vt 0.407197 0.317534
vt 0.433516 0.321246
vt 0.409678 0.321246
vt 0.437228 0.323726
vt 0.413390 0.323726
s 0
usemtl Cosntruction
f 42/43/1 43/44/1 97/124/1 94/119/1
f 49/50/2 64/66/2 128/166/2 69/78/2
f 12/12/1 14/14/1 84/103/1 81/97/1
f 31/31/2 29/29/2 107/140/2 110/146/2
f 43/44/1 44/45/1 100/129/1 97/124/1
f 13/13/2 11/11/2 80/95/2 83/101/2
f 44/45/1 45/46/1 103/134/1 100/129/1
f 28/28/1 30/30/1 108/143/1 105/137/1
f 45/46/1 46/47/1 106/139/1 103/134/1
f 10/10/1 12/12/1 81/97/1 78/92/1
f 29/29/2 27/27/2 104/135/2 107/140/2
f 46/47/1 47/48/1 109/144/1 106/139/1
f 11/11/2 9/9/2 77/90/2 80/95/2
f 47/48/1 48/49/1 112/149/1 109/144/1
f 22/22/3 20/20/3 148/186/3 150/188/3
f 26/26/1 28/28/1 105/137/1 102/132/1
f 48/49/1 33/33/1 113/150/1 112/149/1
f 19/19/3 21/21/3 149/187/3 147/185/3
f 8/8/1 10/10/1 78/92/1 75/87/1
f 27/27/2 25/25/2 101/130/2 104/135/2
f 9/9/2 7/7/2 74/85/2 77/90/2
f 24/24/1 26/26/1 102/132/1 99/127/1
f 6/6/1 8/8/1 75/87/1 72/82/1
f 25/25/2 23/23/2 98/125/2 101/130/2
f 7/7/2 5/5/2 71/80/2 74/85/2
f 50/52/2 49/51/2 69/77/2 114/152/2
f 22/22/1 24/24/1 99/127/1 96/122/1
f 51/53/2 50/52/2 114/152/2 115/153/2
f 4/4/1 6/6/1 72/82/1 67/73/1
f 23/23/2 21/21/2 95/121/2 98/125/2
f 52/54/2 51/53/2 115/153/2 116/154/2
f 5/5/2 3/3/2 66/71/2 71/80/2
f 53/55/2 52/54/2 116/154/2 117/155/2
f 20/20/1 22/22/1 96/122/1 93/118/1
f 48/49/4 64/66/4 49/50/4 33/33/4
f 47/48/5 63/65/5 64/66/5 48/49/5
f 46/47/6 62/64/6 63/65/6 47/48/6
f 45/46/7 61/63/7 62/64/7 46/47/7
f 44/45/8 60/62/8 61/63/8 45/46/8
f 43/44/9 59/61/9 60/62/9 44/45/9
f 42/43/10 58/60/10 59/61/10 43/44/10
f 41/42/11 57/59/11 58/60/11 42/43/11
f 40/41/12 56/58/12 57/59/12 41/42/12
f 39/40/13 55/57/13 56/58/13 40/41/13
f 38/39/14 54/56/14 55/57/14 39/40/14
f 37/38/15 53/55/15 54/56/15 38/39/15
f 36/37/16 52/54/16 53/55/16 37/38/16
f 35/36/17 51/53/17 52/54/17 36/37/17
f 34/35/3 50/52/3 51/53/3 35/36/3
f 33/34/18 49/51/18 50/52/18 34/35/18
f 69/77/18 68/74/18 67/72/18 114/152/18
f 114/152/3 67/72/3 72/83/3 115/153/3
f 115/153/17 72/83/17 75/88/17 116/154/17
f 116/154/16 75/88/16 78/93/16 117/155/16
f 117/155/15 78/93/15 81/98/15 118/156/15
f 118/156/14 81/98/14 84/102/14 119/157/14
f 119/157/13 84/102/13 87/107/13 120/158/13
f 120/158/12 87/107/12 90/112/12 121/159/12
f 121/159/11 90/112/11 93/117/11 122/160/11
f 122/160/10 93/117/10 96/123/10 123/161/10
f 123/161/9 96/123/9 99/128/9 124/162/9
f 124/162/8 99/128/8 102/133/8 125/163/8
f 125/163/7 102/133/7 105/138/7 126/164/7
f 126/164/6 105/138/6 108/142/6 127/165/6
f 127/165/5 108/142/5 111/147/5 128/166/5
f 128/166/4 111/147/4 68/75/4 69/78/4
f 110/145/4 112/149/4 113/150/4 65/67/4
f 107/141/5 109/144/5 112/149/5 110/145/5
f 104/136/6 106/139/6 109/144/6 107/141/6
f 101/131/7 103/134/7 106/139/7 104/136/7
f 98/126/8 100/129/8 103/134/8 101/131/8
f 95/120/9 97/124/9 100/129/9 98/126/9
f 92/115/10 94/119/10 97/124/10 95/120/10
f 89/110/11 91/114/11 94/119/11 92/115/11
f 86/105/12 88/109/12 91/114/12 89/110/12
f 83/100/13 85/104/13 88/109/13 86/105/13
f 80/96/14 82/99/14 85/104/14 83/100/14
f 77/91/15 79/94/15 82/99/15 80/96/15
f 74/86/16 76/89/16 79/94/16 77/91/16
f 71/81/17 73/84/17 76/89/17 74/86/17
f 66/70/3 70/79/3 73/84/3 71/81/3
f 65/68/18 113/151/18 70/79/18 66/70/18
f 30/30/1 32/32/1 111/148/1 108/143/1
f 64/66/2 63/65/2 127/165/2 128/166/2
f 41/42/1 42/43/1 94/119/1 91/114/1
f 15/15/2 13/13/2 83/101/2 86/106/2
f 63/65/2 62/64/2 126/164/2 127/165/2
f 40/41/1 41/42/1 91/114/1 88/109/1
f 1/1/2 31/31/2 110/146/2 65/69/2
f 14/14/1 16/16/1 87/108/1 84/103/1
f 62/64/2 61/63/2 125/163/2 126/164/2
f 39/40/1 40/41/1 88/109/1 85/104/1
f 32/32/1 2/2/1 68/76/1 111/148/1
f 61/63/2 60/62/2 124/162/2 125/163/2
f 38/39/1 39/40/1 85/104/1 82/99/1
f 17/17/2 15/15/2 86/106/2 89/111/2
f 60/62/2 59/61/2 123/161/2 124/162/2
f 37/38/1 38/39/1 82/99/1 79/94/1
f 16/16/1 18/18/1 90/113/1 87/108/1
f 59/61/2 58/60/2 122/160/2 123/161/2
f 36/37/1 37/38/1 79/94/1 76/89/1
f 58/60/2 57/59/2 121/159/2 122/160/2
f 35/36/1 36/37/1 76/89/1 73/84/1
f 19/19/2 17/17/2 89/111/2 92/116/2
f 57/59/2 56/58/2 120/158/2 121/159/2
f 34/35/1 35/36/1 73/84/1 70/79/1
f 18/18/1 20/20/1 93/118/1 90/113/1
f 3/3/2 1/1/2 65/69/2 66/71/2
f 56/58/2 55/57/2 119/157/2 120/158/2
f 33/34/1 34/35/1 70/79/1 113/151/1
f 2/2/1 4/4/1 67/73/1 68/76/1
f 55/57/2 54/56/2 118/156/2 119/157/2
f 21/21/2 19/19/2 92/116/2 95/121/2
f 54/56/2 53/55/2 117/155/2 118/156/2
f 131/169/1 132/170/1 160/198/1 158/196/1 156/194/1 154/192/1 152/190/1 150/188/1 148/186/1 146/184/1 144/182/1 142/180/1 140/178/1 138/176/1 136/174/1 134/172/1
f 129/167/2 130/168/2 133/171/2 135/173/2 137/175/2 139/177/2 141/179/2 143/181/2 145/183/2 147/185/2 149/187/2 151/189/2 153/191/2 155/193/2 157/195/2 159/197/2
f 11/11/6 13/13/6 141/179/6 139/177/6
f 29/29/13 31/31/13 159/197/13 157/195/13
f 14/14/6 12/12/6 140/178/6 142/180/6
f 32/32/13 30/30/13 158/196/13 160/198/13
f 3/3/10 5/5/10 133/171/10 130/168/10
f 21/21/17 23/23/17 151/189/17 149/187/17
f 6/6/10 4/4/10 131/169/10 134/172/10
f 24/24/17 22/22/17 150/188/17 152/190/17
f 13/13/5 15/15/5 143/181/5 141/179/5
f 31/31/12 1/1/12 129/167/12 159/197/12
f 16/16/5 14/14/5 142/180/5 144/182/5
f 2/2/12 32/32/12 160/198/12 132/170/12
f 5/5/9 7/7/9 135/173/9 133/171/9
f 23/23/16 25/25/16 153/191/16 151/189/16
f 8/8/9 6/6/9 134/172/9 136/174/9
f 26/26/16 24/24/16 152/190/16 154/192/16
f 15/15/4 17/17/4 145/183/4 143/181/4
f 18/18/4 16/16/4 144/182/4 146/184/4
f 7/7/8 9/9/8 137/175/8 135/173/8
f 25/25/15 27/27/15 155/193/15 153/191/15
f 10/10/8 8/8/8 136/174/8 138/176/8
f 28/28/15 26/26/15 154/192/15 156/194/15
f 17/17/18 19/19/18 147/185/18 145/183/18
f 20/20/18 18/18/18 146/184/18 148/186/18
f 9/9/7 11/11/7 139/177/7 137/175/7
f 27/27/14 29/29/14 157/195/14 155/193/14
f 1/1/11 3/3/11 130/168/11 129/167/11
f 12/12/7 10/10/7 138/176/7 140/178/7
f 30/30/14 28/28/14 156/194/14 158/196/14
f 4/4/11 2/2/11 132/170/11 131/169/11
