# Blender 3.5.1
# www.blender.org
mtllib SteelBars.mtl
o Cube.007
v -3.307992 0.656741 0.876054
v -3.307992 1.296741 0.876054
v -3.307992 0.656741 0.138774
v -3.307992 1.296741 0.138774
v 3.732009 0.656741 0.876054
v 3.732009 1.296741 0.876054
v 3.732009 0.656741 0.138774
v 3.732009 1.296741 0.138774
v 3.732009 1.190075 0.430614
v 3.732009 0.763408 0.430614
v 3.732009 1.190075 0.584215
v 3.732009 0.763408 0.584215
v -3.307992 1.190075 0.584215
v -3.307992 0.763408 0.584215
v -3.307992 1.190075 0.430614
v -3.307992 0.763408 0.430614
v -3.307992 1.190075 0.876054
v -3.307992 1.190075 0.138774
v 3.732009 1.190075 0.138774
v 3.732009 1.190075 0.876054
v -3.307992 0.763408 0.138774
v 3.732009 0.763408 0.138774
v 3.732009 0.763408 0.876054
v -3.307992 0.763408 0.876054
v -3.502870 0.010915 -0.631727
v -3.502870 0.650915 -0.631727
v -3.502870 0.010915 -1.369006
v -3.502870 0.650915 -1.369006
v 3.537131 0.010915 -0.631727
v 3.537131 0.650915 -0.631727
v 3.537131 0.010915 -1.369006
v 3.537131 0.650915 -1.369006
v 3.537131 0.544248 -1.077167
v 3.537131 0.117582 -1.077167
v 3.537131 0.544248 -0.923567
v 3.537131 0.117582 -0.923567
v -3.502870 0.544248 -0.923567
v -3.502870 0.117582 -0.923567
v -3.502870 0.544248 -1.077167
v -3.502870 0.117582 -1.077167
v -3.502870 0.544248 -0.631727
v -3.502870 0.544248 -1.369006
v 3.537131 0.544248 -1.369006
v 3.537131 0.544248 -0.631727
v -3.502870 0.117582 -1.369006
v 3.537131 0.117582 -1.369006
v 3.537131 0.117582 -0.631727
v -3.502870 0.117582 -0.631727
v -3.696772 0.010915 0.368273
v -3.696772 0.650915 0.368273
v -3.696772 0.010915 -0.369007
v -3.696772 0.650915 -0.369007
v 3.343228 0.010915 0.368273
v 3.343228 0.650915 0.368273
v 3.343228 0.010915 -0.369007
v 3.343228 0.650915 -0.369007
v 3.343228 0.544248 -0.077167
v 3.343228 0.117582 -0.077167
v 3.343228 0.544248 0.076433
v 3.343228 0.117582 0.076433
v -3.696772 0.544248 0.076433
v -3.696772 0.117582 0.076433
v -3.696772 0.544248 -0.077167
v -3.696772 0.117582 -0.077167
v -3.696772 0.544248 0.368273
v -3.696772 0.544248 -0.369007
v 3.343228 0.544248 -0.369007
v 3.343228 0.544248 0.368273
v -3.696772 0.117582 -0.369007
v 3.343228 0.117582 -0.369007
v 3.343228 0.117582 0.368273
v -3.696772 0.117582 0.368273
v -3.502870 0.008389 1.347134
v -3.502870 0.648389 1.347134
v -3.502870 0.008389 0.609854
v -3.502870 0.648389 0.609854
v 3.537131 0.008389 1.347134
v 3.537131 0.648389 1.347134
v 3.537131 0.008389 0.609854
v 3.537131 0.648389 0.609854
v 3.537131 0.541722 0.901694
v 3.537131 0.115055 0.901694
v 3.537131 0.541722 1.055294
v 3.537131 0.115055 1.055294
v -3.502870 0.541722 1.055294
v -3.502870 0.115055 1.055294
v -3.502870 0.541722 0.901694
v -3.502870 0.115055 0.901694
v -3.502870 0.541722 1.347134
v -3.502870 0.541722 0.609854
v 3.537131 0.541722 0.609854
v 3.537131 0.541722 1.347134
v -3.502870 0.115055 0.609854
v 3.537131 0.115055 0.609854
v 3.537131 0.115055 1.347134
v -3.502870 0.115055 1.347134
v -3.502870 1.298018 0.376055
v -3.502870 1.938018 0.376055
v -3.502870 1.298018 -0.361225
v -3.502870 1.938018 -0.361225
v 3.537131 1.298018 0.376055
v 3.537131 1.938018 0.376055
v 3.537131 1.298018 -0.361225
v 3.537131 1.938018 -0.361225
v 3.537131 1.831352 -0.069386
v 3.537131 1.404685 -0.069386
v 3.537131 1.831352 0.084214
v 3.537131 1.404685 0.084214
v -3.502870 1.831352 0.084214
v -3.502870 1.404685 0.084214
v -3.502870 1.831352 -0.069386
v -3.502870 1.404685 -0.069386
v -3.502870 1.831352 0.376055
v -3.502870 1.831352 -0.361225
v 3.537131 1.831352 -0.361225
v 3.537131 1.831352 0.376055
v -3.502870 1.404685 -0.361225
v 3.537131 1.404685 -0.361225
v 3.537131 1.404685 0.376055
v -3.502870 1.404685 0.376055
v -3.606629 0.656741 -0.123945
v -3.606629 1.296741 -0.123945
v -3.606629 0.656741 -0.861226
v -3.606629 1.296741 -0.861226
v 3.433372 0.656741 -0.123945
v 3.433372 1.296741 -0.123945
v 3.433372 0.656741 -0.861226
v 3.433372 1.296741 -0.861226
v 3.433372 1.190075 -0.569386
v 3.433372 0.763408 -0.569386
v 3.433372 1.190075 -0.415786
v 3.433372 0.763408 -0.415786
v -3.606629 1.190075 -0.415786
v -3.606629 0.763408 -0.415786
v -3.606629 1.190075 -0.569386
v -3.606629 0.763408 -0.569386
v -3.606629 1.190075 -0.123945
v -3.606629 1.190075 -0.861226
v 3.433372 1.190075 -0.861226
v 3.433372 1.190075 -0.123945
v -3.606629 0.763408 -0.861226
v 3.433372 0.763408 -0.861226
v 3.433372 0.763408 -0.123945
v -3.606629 0.763408 -0.123945
vn -1.0000 -0.0000 -0.0000
vn -0.0000 -0.0000 -1.0000
vn 1.0000 -0.0000 -0.0000
vn -0.0000 -0.0000 1.0000
vn -0.0000 1.0000 -0.0000
vn -0.0000 -1.0000 -0.0000
vt 0.532974 0.599060
vt 0.552658 0.625305
vt 0.552658 0.546570
vt 0.552658 0.553131
vt 0.572342 0.625305
vt 0.592026 0.599060
vt 0.572342 0.553131
vt 0.532974 0.592499
vt 0.552658 0.566254
vt 0.552658 0.559692
vt 0.572342 0.566254
vt 0.592026 0.592499
vt 0.572342 0.559692
vt 0.552658 0.605621
vt 0.552658 0.599060
vt 0.572342 0.605621
vt 0.572342 0.599060
vt 0.552658 0.585938
vt 0.552658 0.592499
vt 0.572342 0.585938
vt 0.572342 0.592499
vt 0.569061 0.592499
vt 0.565781 0.592499
vt 0.559219 0.592499
vt 0.555939 0.592499
vt 0.569061 0.599060
vt 0.565781 0.599060
vt 0.559219 0.599060
vt 0.555939 0.599060
vt 0.569061 0.553131
vt 0.565781 0.553131
vt 0.559219 0.553131
vt 0.555939 0.553131
vt 0.569061 0.559692
vt 0.565781 0.559692
vt 0.559219 0.559692
vt 0.555939 0.559692
vt 0.569061 0.625305
vt 0.569061 0.546570
vt 0.569061 0.566254
vt 0.569061 0.585938
vt 0.569061 0.605621
vt 0.555939 0.566254
vt 0.555939 0.585938
vt 0.555939 0.605621
vt 0.555939 0.625305
vt 0.555939 0.546570
vt 0.532974 0.599060
vt 0.552658 0.625305
vt 0.552658 0.546570
vt 0.552658 0.553131
vt 0.572342 0.625305
vt 0.592026 0.599060
vt 0.572342 0.553131
vt 0.532974 0.592499
vt 0.552658 0.566254
vt 0.552658 0.559692
vt 0.572342 0.566254
vt 0.592026 0.592499
vt 0.572342 0.559692
vt 0.552658 0.605621
vt 0.552658 0.599060
vt 0.572342 0.605621
vt 0.572342 0.599060
vt 0.552658 0.585938
vt 0.552658 0.592499
vt 0.572342 0.585938
vt 0.572342 0.592499
vt 0.569061 0.592499
vt 0.565781 0.592499
vt 0.559219 0.592499
vt 0.555939 0.592499
vt 0.569061 0.599060
vt 0.565781 0.599060
vt 0.559219 0.599060
vt 0.555939 0.599060
vt 0.569061 0.553131
vt 0.565781 0.553131
vt 0.559219 0.553131
vt 0.555939 0.553131
vt 0.569061 0.559692
vt 0.565781 0.559692
vt 0.559219 0.559692
vt 0.555939 0.559692
vt 0.569061 0.625305
vt 0.569061 0.546570
vt 0.569061 0.566254
vt 0.569061 0.585938
vt 0.569061 0.605621
vt 0.555939 0.566254
vt 0.555939 0.585938
vt 0.555939 0.605621
vt 0.555939 0.625305
vt 0.555939 0.546570
vt 0.532974 0.599060
vt 0.552658 0.625305
vt 0.552658 0.546570
vt 0.552658 0.553131
vt 0.572342 0.625305
vt 0.592026 0.599060
vt 0.572342 0.553131
vt 0.532974 0.592499
vt 0.552658 0.566254
vt 0.552658 0.559692
vt 0.572342 0.566254
vt 0.592026 0.592499
vt 0.572342 0.559692
vt 0.552658 0.605621
vt 0.552658 0.599060
vt 0.572342 0.605621
vt 0.572342 0.599060
vt 0.552658 0.585938
vt 0.552658 0.592499
vt 0.572342 0.585938
vt 0.572342 0.592499
vt 0.569061 0.592499
vt 0.565781 0.592499
vt 0.559219 0.592499
vt 0.555939 0.592499
vt 0.569061 0.599060
vt 0.565781 0.599060
vt 0.559219 0.599060
vt 0.555939 0.599060
vt 0.569061 0.553131
vt 0.565781 0.553131
vt 0.559219 0.553131
vt 0.555939 0.553131
vt 0.569061 0.559692
vt 0.565781 0.559692
vt 0.559219 0.559692
vt 0.555939 0.559692
vt 0.569061 0.625305
vt 0.569061 0.546570
vt 0.569061 0.566254
vt 0.569061 0.585938
vt 0.569061 0.605621
vt 0.555939 0.566254
vt 0.555939 0.585938
vt 0.555939 0.605621
vt 0.555939 0.625305
vt 0.555939 0.546570
vt 0.532974 0.599060
vt 0.552658 0.625305
vt 0.552658 0.546570
vt 0.552658 0.553131
vt 0.572342 0.625305
vt 0.592026 0.599060
vt 0.572342 0.553131
vt 0.532974 0.592499
vt 0.552658 0.566254
vt 0.552658 0.559692
vt 0.572342 0.566254
vt 0.592026 0.592499
vt 0.572342 0.559692
vt 0.552658 0.605621
vt 0.552658 0.599060
vt 0.572342 0.605621
vt 0.572342 0.599060
vt 0.552658 0.585938
vt 0.552658 0.592499
vt 0.572342 0.585938
vt 0.572342 0.592499
vt 0.569061 0.592499
vt 0.565781 0.592499
vt 0.559219 0.592499
vt 0.555939 0.592499
vt 0.569061 0.599060
vt 0.565781 0.599060
vt 0.559219 0.599060
vt 0.555939 0.599060
vt 0.569061 0.553131
vt 0.565781 0.553131
vt 0.559219 0.553131
vt 0.555939 0.553131
vt 0.569061 0.559692
vt 0.565781 0.559692
vt 0.559219 0.559692
vt 0.555939 0.559692
vt 0.569061 0.625305
vt 0.569061 0.546570
vt 0.569061 0.566254
vt 0.569061 0.585938
vt 0.569061 0.605621
vt 0.555939 0.566254
vt 0.555939 0.585938
vt 0.555939 0.605621
vt 0.555939 0.625305
vt 0.555939 0.546570
vt 0.532974 0.599060
vt 0.552658 0.625305
vt 0.552658 0.546570
vt 0.552658 0.553131
vt 0.572342 0.625305
vt 0.592026 0.599060
vt 0.572342 0.553131
vt 0.532974 0.592499
vt 0.552658 0.566254
vt 0.552658 0.559692
vt 0.572342 0.566254
vt 0.592026 0.592499
vt 0.572342 0.559692
vt 0.552658 0.605621
vt 0.552658 0.599060
vt 0.572342 0.605621
vt 0.572342 0.599060
vt 0.552658 0.585938
vt 0.552658 0.592499
vt 0.572342 0.585938
vt 0.572342 0.592499
vt 0.569061 0.592499
vt 0.565781 0.592499
vt 0.559219 0.592499
vt 0.555939 0.592499
vt 0.569061 0.599060
vt 0.565781 0.599060
vt 0.559219 0.599060
vt 0.555939 0.599060
vt 0.569061 0.553131
vt 0.565781 0.553131
vt 0.559219 0.553131
vt 0.555939 0.553131
vt 0.569061 0.559692
vt 0.565781 0.559692
vt 0.559219 0.559692
vt 0.555939 0.559692
vt 0.569061 0.625305
vt 0.569061 0.546570
vt 0.569061 0.566254
vt 0.569061 0.585938
vt 0.569061 0.605621
vt 0.555939 0.566254
vt 0.555939 0.585938
vt 0.555939 0.605621
vt 0.555939 0.625305
vt 0.555939 0.546570
vt 0.532974 0.599060
vt 0.552658 0.625305
vt 0.552658 0.546570
vt 0.552658 0.553131
vt 0.572342 0.625305
vt 0.592026 0.599060
vt 0.572342 0.553131
vt 0.532974 0.592499
vt 0.552658 0.566254
vt 0.552658 0.559692
vt 0.572342 0.566254
vt 0.592026 0.592499
vt 0.572342 0.559692
vt 0.552658 0.605621
vt 0.552658 0.599060
vt 0.572342 0.605621
vt 0.572342 0.599060
vt 0.552658 0.585938
vt 0.552658 0.592499
vt 0.572342 0.585938
vt 0.572342 0.592499
vt 0.569061 0.592499
vt 0.565781 0.592499
vt 0.559219 0.592499
vt 0.555939 0.592499
vt 0.569061 0.599060
vt 0.565781 0.599060
vt 0.559219 0.599060
vt 0.555939 0.599060
vt 0.569061 0.553131
vt 0.565781 0.553131
vt 0.559219 0.553131
vt 0.555939 0.553131
vt 0.569061 0.559692
vt 0.565781 0.559692
vt 0.559219 0.559692
vt 0.555939 0.559692
vt 0.569061 0.625305
vt 0.569061 0.546570
vt 0.569061 0.566254
vt 0.569061 0.585938
vt 0.569061 0.605621
vt 0.555939 0.566254
vt 0.555939 0.585938
vt 0.555939 0.605621
vt 0.555939 0.625305
vt 0.555939 0.546570
s 0
usemtl Cosntruction
f 15/34/1 4/11/1 18/40/1
f 18/40/2 4/11/2 8/20/2 19/41/2
f 11/26/3 6/16/3 20/42/3
f 20/42/4 6/16/4 2/5/4 17/38/4
f 8/21/5 4/12/5 2/6/5 6/17/5
f 3/8/6 7/19/6 5/15/6 1/1/6
f 19/41/3 8/21/3 9/22/3
f 9/22/3 8/21/3 6/17/3 11/26/3
f 17/39/1 2/7/1 13/30/1
f 13/30/1 2/7/1 4/13/1 15/34/1
f 14/32/1 13/31/1 15/35/1 16/36/1
f 10/24/3 9/23/3 11/27/3 12/28/3
f 13/30/6 11/26/6 20/42/6 17/39/6
f 12/28/4 11/27/4 13/31/4 14/32/4
f 14/33/5 24/47/5 23/45/5 12/29/5
f 9/22/6 15/34/6 18/40/6 19/41/6
f 10/24/2 16/36/2 15/35/2 9/23/2
f 10/25/5 22/44/5 21/43/5 16/37/5
f 3/10/1 16/37/1 21/43/1
f 3/9/2 21/43/2 22/44/2 7/18/2
f 5/15/3 12/29/3 23/45/3
f 5/14/4 23/45/4 24/46/4 1/2/4
f 7/18/3 22/44/3 10/25/3
f 7/19/3 10/25/3 12/29/3 5/15/3
f 1/3/1 24/47/1 14/33/1
f 1/4/1 14/33/1 16/37/1 3/10/1
f 39/81/1 28/58/1 42/87/1
f 42/87/2 28/58/2 32/67/2 43/88/2
f 35/73/3 30/63/3 44/89/3
f 44/89/4 30/63/4 26/52/4 41/85/4
f 32/68/5 28/59/5 26/53/5 30/64/5
f 27/55/6 31/66/6 29/62/6 25/48/6
f 43/88/3 32/68/3 33/69/3
f 33/69/3 32/68/3 30/64/3 35/73/3
f 41/86/1 26/54/1 37/77/1
f 37/77/1 26/54/1 28/60/1 39/81/1
f 38/79/1 37/78/1 39/82/1 40/83/1
f 34/71/3 33/70/3 35/74/3 36/75/3
f 37/77/6 35/73/6 44/89/6 41/86/6
f 36/75/4 35/74/4 37/78/4 38/79/4
f 38/80/5 48/94/5 47/92/5 36/76/5
f 33/69/6 39/81/6 42/87/6 43/88/6
f 34/71/2 40/83/2 39/82/2 33/70/2
f 34/72/5 46/91/5 45/90/5 40/84/5
f 27/57/1 40/84/1 45/90/1
f 27/56/2 45/90/2 46/91/2 31/65/2
f 29/62/3 36/76/3 47/92/3
f 29/61/4 47/92/4 48/93/4 25/49/4
f 31/65/3 46/91/3 34/72/3
f 31/66/3 34/72/3 36/76/3 29/62/3
f 25/50/1 48/94/1 38/80/1
f 25/51/1 38/80/1 40/84/1 27/57/1
f 63/128/1 52/105/1 66/134/1
f 66/134/2 52/105/2 56/114/2 67/135/2
f 59/120/3 54/110/3 68/136/3
f 68/136/4 54/110/4 50/99/4 65/132/4
f 56/115/5 52/106/5 50/100/5 54/111/5
f 51/102/6 55/113/6 53/109/6 49/95/6
f 67/135/3 56/115/3 57/116/3
f 57/116/3 56/115/3 54/111/3 59/120/3
f 65/133/1 50/101/1 61/124/1
f 61/124/1 50/101/1 52/107/1 63/128/1
f 62/126/1 61/125/1 63/129/1 64/130/1
f 58/118/3 57/117/3 59/121/3 60/122/3
f 61/124/6 59/120/6 68/136/6 65/133/6
f 60/122/4 59/121/4 61/125/4 62/126/4
f 62/127/5 72/141/5 71/139/5 60/123/5
f 57/116/6 63/128/6 66/134/6 67/135/6
f 58/118/2 64/130/2 63/129/2 57/117/2
f 58/119/5 70/138/5 69/137/5 64/131/5
f 51/104/1 64/131/1 69/137/1
f 51/103/2 69/137/2 70/138/2 55/112/2
f 53/109/3 60/123/3 71/139/3
f 53/108/4 71/139/4 72/140/4 49/96/4
f 55/112/3 70/138/3 58/119/3
f 55/113/3 58/119/3 60/123/3 53/109/3
f 49/97/1 72/141/1 62/127/1
f 49/98/1 62/127/1 64/131/1 51/104/1
f 87/175/1 76/152/1 90/181/1
f 90/181/2 76/152/2 80/161/2 91/182/2
f 83/167/3 78/157/3 92/183/3
f 92/183/4 78/157/4 74/146/4 89/179/4
f 80/162/5 76/153/5 74/147/5 78/158/5
f 75/149/6 79/160/6 77/156/6 73/142/6
f 91/182/3 80/162/3 81/163/3
f 81/163/3 80/162/3 78/158/3 83/167/3
f 89/180/1 74/148/1 85/171/1
f 85/171/1 74/148/1 76/154/1 87/175/1
f 86/173/1 85/172/1 87/176/1 88/177/1
f 82/165/3 81/164/3 83/168/3 84/169/3
f 85/171/6 83/167/6 92/183/6 89/180/6
f 84/169/4 83/168/4 85/172/4 86/173/4
f 86/174/5 96/188/5 95/186/5 84/170/5
f 81/163/6 87/175/6 90/181/6 91/182/6
f 82/165/2 88/177/2 87/176/2 81/164/2
f 82/166/5 94/185/5 93/184/5 88/178/5
f 75/151/1 88/178/1 93/184/1
f 75/150/2 93/184/2 94/185/2 79/159/2
f 77/156/3 84/170/3 95/186/3
f 77/155/4 95/186/4 96/187/4 73/143/4
f 79/159/3 94/185/3 82/166/3
f 79/160/3 82/166/3 84/170/3 77/156/3
f 73/144/1 96/188/1 86/174/1
f 73/145/1 86/174/1 88/178/1 75/151/1
f 111/222/1 100/199/1 114/228/1
f 114/228/2 100/199/2 104/208/2 115/229/2
f 107/214/3 102/204/3 116/230/3
f 116/230/4 102/204/4 98/193/4 113/226/4
f 104/209/5 100/200/5 98/194/5 102/205/5
f 99/196/6 103/207/6 101/203/6 97/189/6
f 115/229/3 104/209/3 105/210/3
f 105/210/3 104/209/3 102/205/3 107/214/3
f 113/227/1 98/195/1 109/218/1
f 109/218/1 98/195/1 100/201/1 111/222/1
f 110/220/1 109/219/1 111/223/1 112/224/1
f 106/212/3 105/211/3 107/215/3 108/216/3
f 109/218/6 107/214/6 116/230/6 113/227/6
f 108/216/4 107/215/4 109/219/4 110/220/4
f 110/221/5 120/235/5 119/233/5 108/217/5
f 105/210/6 111/222/6 114/228/6 115/229/6
f 106/212/2 112/224/2 111/223/2 105/211/2
f 106/213/5 118/232/5 117/231/5 112/225/5
f 99/198/1 112/225/1 117/231/1
f 99/197/2 117/231/2 118/232/2 103/206/2
f 101/203/3 108/217/3 119/233/3
f 101/202/4 119/233/4 120/234/4 97/190/4
f 103/206/3 118/232/3 106/213/3
f 103/207/3 106/213/3 108/217/3 101/203/3
f 97/191/1 120/235/1 110/221/1
f 97/192/1 110/221/1 112/225/1 99/198/1
f 135/269/1 124/246/1 138/275/1
f 138/275/2 124/246/2 128/255/2 139/276/2
f 131/261/3 126/251/3 140/277/3
f 140/277/4 126/251/4 122/240/4 137/273/4
f 128/256/5 124/247/5 122/241/5 126/252/5
f 123/243/6 127/254/6 125/250/6 121/236/6
f 139/276/3 128/256/3 129/257/3
f 129/257/3 128/256/3 126/252/3 131/261/3
f 137/274/1 122/242/1 133/265/1
f 133/265/1 122/242/1 124/248/1 135/269/1
f 134/267/1 133/266/1 135/270/1 136/271/1
f 130/259/3 129/258/3 131/262/3 132/263/3
f 133/265/6 131/261/6 140/277/6 137/274/6
f 132/263/4 131/262/4 133/266/4 134/267/4
f 134/268/5 144/282/5 143/280/5 132/264/5
f 129/257/6 135/269/6 138/275/6 139/276/6
f 130/259/2 136/271/2 135/270/2 129/258/2
f 130/260/5 142/279/5 141/278/5 136/272/5
f 123/245/1 136/272/1 141/278/1
f 123/244/2 141/278/2 142/279/2 127/253/2
f 125/250/3 132/264/3 143/280/3
f 125/249/4 143/280/4 144/281/4 121/237/4
f 127/253/3 142/279/3 130/260/3
f 127/254/3 130/260/3 132/264/3 125/250/3
f 121/238/1 144/282/1 134/268/1
f 121/239/1 134/268/1 136/272/1 123/245/1
