# Blender 3.5.1
# www.blender.org
mtllib SteelBar.mtl
o Cube.003
v -3.520000 0.010763 0.368640
v -3.520000 0.650763 0.368640
v -3.520000 0.010763 -0.368640
v -3.520000 0.650763 -0.368640
v 3.520000 0.010763 0.368640
v 3.520000 0.650763 0.368640
v 3.520000 0.010763 -0.368640
v 3.520000 0.650763 -0.368640
v 3.520000 0.544096 -0.076800
v 3.520000 0.117430 -0.076800
v 3.520000 0.544096 0.076800
v 3.520000 0.117430 0.076800
v -3.520000 0.544096 0.076800
v -3.520000 0.117430 0.076800
v -3.520000 0.544096 -0.076800
v -3.520000 0.117430 -0.076800
v -3.520000 0.544096 0.368640
v -3.520000 0.544096 -0.368640
v 3.520000 0.544096 -0.368640
v 3.520000 0.544096 0.368640
v -3.520000 0.117430 -0.368640
v 3.520000 0.117430 -0.368640
v 3.520000 0.117430 0.368640
v -3.520000 0.117430 0.368640
vn -1.0000 -0.0000 -0.0000
vn -0.0000 -0.0000 -1.0000
vn 1.0000 -0.0000 -0.0000
vn -0.0000 -0.0000 1.0000
vn -0.0000 1.0000 -0.0000
vn -0.0000 -1.0000 -0.0000
vt 0.567037 0.602801
vt 0.583544 0.624809
vt 0.583544 0.558784
vt 0.583544 0.564286
vt 0.600050 0.624809
vt 0.616556 0.602801
vt 0.600050 0.564286
vt 0.567037 0.597299
vt 0.583544 0.575291
vt 0.583544 0.569788
vt 0.600050 0.575291
vt 0.616556 0.597299
vt 0.600050 0.569789
vt 0.583544 0.608303
vt 0.583544 0.602801
vt 0.600050 0.608303
vt 0.600050 0.602801
vt 0.583544 0.591797
vt 0.583544 0.597299
vt 0.600050 0.591797
vt 0.600050 0.597299
vt 0.597299 0.597299
vt 0.594548 0.597299
vt 0.589046 0.597299
vt 0.586295 0.597299
vt 0.597299 0.602801
vt 0.594548 0.602801
vt 0.589046 0.602801
vt 0.586295 0.602801
vt 0.597299 0.564286
vt 0.594548 0.564286
vt 0.589046 0.564286
vt 0.586295 0.564286
vt 0.597299 0.569788
vt 0.594548 0.569788
vt 0.589046 0.569788
vt 0.586295 0.569788
vt 0.597299 0.624809
vt 0.597299 0.558784
vt 0.597299 0.575291
vt 0.597299 0.591797
vt 0.597299 0.608303
vt 0.586295 0.575291
vt 0.586295 0.591797
vt 0.586295 0.608303
vt 0.586295 0.624809
vt 0.586295 0.558784
s 0
usemtl Cosntruction
f 15/34/1 4/11/1 18/40/1
f 18/40/2 4/11/2 8/20/2 19/41/2
f 11/26/3 6/16/3 20/42/3
f 20/42/4 6/16/4 2/5/4 17/38/4
f 8/21/5 4/12/5 2/6/5 6/17/5
f 3/8/6 7/19/6 5/15/6 1/1/6
f 19/41/3 8/21/3 9/22/3
f 9/22/3 8/21/3 6/17/3 11/26/3
f 17/39/1 2/7/1 13/30/1
f 13/30/1 2/7/1 4/13/1 15/34/1
f 14/32/1 13/31/1 15/35/1 16/36/1
f 10/24/3 9/23/3 11/27/3 12/28/3
f 13/30/6 11/26/6 20/42/6 17/39/6
f 12/28/4 11/27/4 13/31/4 14/32/4
f 14/33/5 24/47/5 23/45/5 12/29/5
f 9/22/6 15/34/6 18/40/6 19/41/6
f 10/24/2 16/36/2 15/35/2 9/23/2
f 10/25/5 22/44/5 21/43/5 16/37/5
f 3/10/1 16/37/1 21/43/1
f 3/9/2 21/43/2 22/44/2 7/18/2
f 5/15/3 12/29/3 23/45/3
f 5/14/4 23/45/4 24/46/4 1/2/4
f 7/18/3 22/44/3 10/25/3
f 7/19/3 10/25/3 12/29/3 5/15/3
f 1/3/1 24/47/1 14/33/1
f 1/4/1 14/33/1 16/37/1 3/10/1
